<svg xmlns="http://www.w3.org/2000/svg" xmlns:xlink="http://www.w3.org/1999/xlink" width="99.544" height="99.544" viewBox="0 0 99.544 99.544">
  <defs>
    <filter id="Trazado_904820" x="0" y="0" width="99.544" height="99.544" filterUnits="userSpaceOnUse">
      <feOffset dy="3" input="SourceAlpha"/>
      <feGaussianBlur stdDeviation="3" result="blur"/>
      <feFlood flood-opacity="0.161"/>
      <feComposite operator="in" in2="blur"/>
      <feComposite in="SourceGraphic"/>
    </filter>
  </defs>
  <g id="Grupo_1223124" data-name="Grupo 1223124" transform="translate(9 6)">
    <g id="Grupo_1173585" data-name="Grupo 1173585" transform="translate(0 0)">
      <g id="Grupo_1173428" data-name="Grupo 1173428">
        <g id="Grupo_1171958" data-name="Grupo 1171958">
          <g id="Grupo_1167341" data-name="Grupo 1167341">
            <g id="Grupo_1166792" data-name="Grupo 1166792">
              <g transform="matrix(1, 0, 0, 1, -9, -6)" filter="url(#Trazado_904820)">
                <g id="Trazado_904820-2" data-name="Trazado 904820" transform="translate(9 6)" fill="#efecfa">
                  <path d="M 40.77218246459961 80.04439544677734 C 35.46981811523438 80.04439544677734 30.32684135437012 79.00625610351562 25.48614692687988 76.95880889892578 C 20.80981826782227 74.98088836669922 16.6097354888916 72.14900970458984 13.00255870819092 68.54183197021484 C 9.395394325256348 64.93465423583984 6.563511848449707 60.73457336425781 4.585594177246094 56.05824661254883 C 2.538147211074829 51.2175407409668 1.500005960464478 46.0745735168457 1.500005960464478 40.77219772338867 C 1.500005960464478 35.46982192993164 2.538147211074829 30.32685661315918 4.585594177246094 25.48615074157715 C 6.563511848449707 20.80982208251953 9.395394325256348 16.60973930358887 13.00255870819092 13.00256252288818 C 16.6097354888916 9.3953857421875 20.80981826782227 6.563503742218018 25.48614692687988 4.585586071014404 C 30.32684135437012 2.538138866424561 35.46981811523438 1.499997735023499 40.77218246459961 1.499997735023499 C 46.07455825805664 1.499997735023499 51.21752548217773 2.538138866424561 56.05823135375977 4.585586071014404 C 60.73455810546875 6.563503742218018 64.93463897705078 9.3953857421875 68.54181671142578 13.00256252288818 C 72.14897918701172 16.60973930358887 74.98086547851562 20.80982208251953 76.95878601074219 25.48615074157715 C 79.00623321533203 30.32685661315918 80.04437255859375 35.46982192993164 80.04437255859375 40.77219772338867 C 80.04437255859375 46.0745735168457 79.00623321533203 51.2175407409668 76.95878601074219 56.05824661254883 C 74.98086547851562 60.73457336425781 72.14897918701172 64.93465423583984 68.54181671142578 68.54183197021484 C 64.93463897705078 72.14900970458984 60.73455810546875 74.98088836669922 56.05823135375977 76.95880889892578 C 51.21752548217773 79.00625610351562 46.07455825805664 80.04439544677734 40.77218246459961 80.04439544677734 Z" stroke="none"/>
                  <path d="M 40.77218246459961 3 C 35.67164993286133 3 30.72527694702148 3.998275756835938 26.07046127319336 5.967094421386719 C 21.57294082641602 7.869384765625 17.53311920166016 10.59331512451172 14.06320953369141 14.06322479248047 C 10.59331512451172 17.53311920166016 7.869384765625 21.57294464111328 5.967086791992188 26.07047653198242 C 3.998275756835938 30.72529220581055 2.999992370605469 35.67166519165039 2.999992370605469 40.77219772338867 C 2.999992370605469 45.87273025512695 3.998275756835938 50.81910705566406 5.967086791992188 55.47391510009766 C 7.869384765625 59.97145080566406 10.59331512451172 64.01126098632812 14.06320953369141 67.48117065429688 C 17.53311920166016 70.95108032226562 21.57294082641602 73.67501068115234 26.07046127319336 75.57730102539062 C 30.72527694702148 77.54611968994141 35.67164993286133 78.54439544677734 40.77218246459961 78.54439544677734 C 45.87271499633789 78.54439544677734 50.819091796875 77.54611968994141 55.47389984130859 75.57730102539062 C 59.97142028808594 73.67501068115234 64.01124572753906 70.95108032226562 67.48115539550781 67.48117065429688 C 70.9510498046875 64.01126098632812 73.67498016357422 59.97145080566406 75.57727813720703 55.47391510009766 C 77.54608917236328 50.81910705566406 78.54437255859375 45.87273025512695 78.54437255859375 40.77219772338867 C 78.54437255859375 35.67166519165039 77.54608917236328 30.72529220581055 75.57727813720703 26.07047653198242 C 73.67498016357422 21.57294464111328 70.9510498046875 17.53311920166016 67.48115539550781 14.06322479248047 C 64.01124572753906 10.59331512451172 59.97142028808594 7.869384765625 55.47389984130859 5.967094421386719 C 50.819091796875 3.998275756835938 45.87271499633789 3 40.77218246459961 3 M 40.77218246459961 0 C 63.29003524780273 0 81.54437255859375 18.25432968139648 81.54437255859375 40.77219772338867 C 81.54437255859375 63.2900505065918 63.29003524780273 81.54439544677734 40.77218246459961 81.54439544677734 C 18.25432968139648 81.54439544677734 -7.62939453125e-06 63.2900505065918 -7.62939453125e-06 40.77219772338867 C -7.62939453125e-06 18.25432968139648 18.25432968139648 0 40.77218246459961 0 Z" stroke="none" fill="#6c4dd8"/>
                </g>
              </g>
            </g>
          </g>
        </g>
      </g>
    </g>
    <g id="inspire-idea_14781822_1_" data-name="inspire-idea_14781822 (1)" transform="translate(15.584 14.898)">
      <g id="Grupo_1173811" data-name="Grupo 1173811" transform="translate(0 0)">
        <path id="Trazado_1030754" data-name="Trazado 1030754" d="M118.589,345.082v-3.608a2.194,2.194,0,0,0,1.783-2.155v-6.2H131.7v6.2a2.194,2.194,0,0,0,1.783,2.155l.309,3.108Z" transform="translate(-107.591 -300.804)" fill="#e39d82"/>
        <path id="Trazado_1030755" data-name="Trazado 1030755" d="M59.608,17.266c0,7.139-3.842,15.62-13.623,12.815l-8.161-3.712a3.223,3.223,0,0,1-.212-4.766l.824-.227.57-.567a3.405,3.405,0,0,1,.682-5.841.3.3,0,0,0,.176-.349,3.233,3.233,0,0,1-.09-.761,3.146,3.146,0,0,1,3.112-3.179,3.115,3.115,0,0,1,.605.061,1.477,1.477,0,0,1,.235-.238,1.257,1.257,0,0,0,.522-1.1,3.507,3.507,0,0,1,4.913-.347.3.3,0,0,0,.444-.071,3.079,3.079,0,0,1,5.269,0,.3.3,0,0,0,.445.071,3.5,3.5,0,0,1,.7-.464C59.608,9.681,59.608,14.69,59.608,17.266Z" transform="translate(-33.791 -7.5)" fill="#73788c"/>
        <path id="Trazado_1030756" data-name="Trazado 1030756" d="M152.473,30.376a3.2,3.2,0,0,1-1.164,2.479l-9.334,5.072h-8.344l-2.991-1.36a14.662,14.662,0,0,0,10.032-21.489,3.473,3.473,0,0,1,1.58-.378,3.521,3.521,0,0,1,2.634,1.19l.164.8.593.534a3.112,3.112,0,0,1,.6-.061,3.147,3.147,0,0,1,3.113,3.179,3.25,3.25,0,0,1-.164,1.017,3.4,3.4,0,0,1,.932,5.935A3.169,3.169,0,0,1,152.473,30.376Z" transform="translate(-118.446 -13.986)" fill="#5e6577"/>
        <path id="Trazado_1030757" data-name="Trazado 1030757" d="M67.275,199.985a5.432,5.432,0,0,0,4.138-5.276h0a2.16,2.16,0,0,0-2.16-2.16H67.275l-21.761,0H43.535a2.16,2.16,0,0,0-2.16,2.16h0a5.432,5.432,0,0,0,4.138,5.276Z" transform="translate(-38.038 -174.187)" fill="#ffc3ad"/>
        <path id="Trazado_1030758" data-name="Trazado 1030758" d="M99.428,130.945a2.15,2.15,0,0,1,2.807.925,8.629,8.629,0,0,0,.72,1.094l.469.624c.2.579.641,3.286,1.254,3.286v8.242a6.875,6.875,0,0,1-2.348,5.175l-4.269,3.737a4.583,4.583,0,0,1-3.018,1.133H92.51a4.583,4.583,0,0,1-3.018-1.133l-4.269-3.737a6.875,6.875,0,0,1-2.348-5.175v-8.242a1.459,1.459,0,0,0,1.356-1l.94-3.668a2.149,2.149,0,0,1,2.96-1.242l.137.066,1.106.424a12.247,12.247,0,0,0,8.764,0l1.106-.424Z" transform="translate(-75.421 -118.511)" fill="#ffc3ad"/>
        <path id="Trazado_1030759" data-name="Trazado 1030759" d="M170.587,300c-2.354,0-2.459-2.173-2.419-2.961a.3.3,0,0,1,.3-.281H172.7a.3.3,0,0,1,.3.289C173.019,297.843,172.864,300,170.587,300Z" transform="translate(-152.245 -268.058)" fill="#eaf6ff"/>
        <path id="Trazado_1030760" data-name="Trazado 1030760" d="M14.276,439.5l-6.228-.014a.3.3,0,0,1-.3-.3v-5.53a.3.3,0,0,1,.16-.265A9.624,9.624,0,0,1,10.5,432.5l.717-.144,6.329,2.348Z" transform="translate(-7.75 -390.202)" fill="#9be69d"/>
        <path id="Trazado_1030761" data-name="Trazado 1030761" d="M297.469,435.137l-2.4,3.921-8.294.006-3-5.255c.033-.034,6.067-1.928,6.067-1.928l.41.078a9.627,9.627,0,0,1,2.712.955Z" transform="translate(-256.383 -389.77)" fill="#9be69d"/>
        <path id="Trazado_1030762" data-name="Trazado 1030762" d="M121.7,418.39l.906,4.553-3.276,3.966-9.947.011-3.773-4.159,1.407-4.348A10.188,10.188,0,0,0,121.7,418.39Z" transform="translate(-95.897 -377.619)" fill="#eaf6ff"/>
        <path id="Trazado_1030763" data-name="Trazado 1030763" d="M48.892,408.665l-2.709-9.743a1.091,1.091,0,0,0-1.368-.751l-6.023,1.836a.472.472,0,0,0-.3.644l1.271,2.877a.3.3,0,0,0,.206.17l3.1.71a.3.3,0,0,1,.178.46l-1.68,2.408a.3.3,0,0,0-.036.271l.4,1.118Z" transform="translate(-35.409 -359.363)" fill="#bbf49b"/>
        <path id="Trazado_1030764" data-name="Trazado 1030764" d="M243.879,408.447l2.713-9.754a1.09,1.09,0,0,1,1.368-.751l6.023,1.835a.473.473,0,0,1,.295.644l-1.271,2.877a.3.3,0,0,1-.206.17l-3.1.71a.3.3,0,0,0-.178.461l1.68,2.408a.3.3,0,0,1,.036.271l-.406,1.132Z" transform="translate(-220.449 -359.157)" fill="#bbf49b"/>
        <g id="Grupo_1173808" data-name="Grupo 1173808" transform="translate(36.732 26.917)">
          <path id="Trazado_1030765" data-name="Trazado 1030765" d="M389.723,387.922v3.816a11.621,11.621,0,0,1-.262,2.313,8.121,8.121,0,0,1-.94,1.691c-.6,1.012-.338,2.054-.334,3.231l-.763.487H379.9v-1.633a4.1,4.1,0,0,0-1.08-2.773,3.4,3.4,0,0,1-.892-2.292v-1.644a2.013,2.013,0,0,1,.859-1.649Z" transform="translate(-377.933 -377.091)" fill="#ffc3ad"/>
          <g id="Grupo_1173807" data-name="Grupo 1173807" transform="translate(9.178 6.407)">
            <path id="Trazado_1030766" data-name="Trazado 1030766" d="M473.038,343.99v3.783a.794.794,0,0,1-.319.71c-.238.238-1.075-.126-1.438-.123l-.647-.692-.209-2.46.687-.53a1.33,1.33,0,0,1,1.3-1.329C472.844,343.512,473.038,343.737,473.038,343.99Z" transform="translate(-470.425 -343.35)" fill="#ffc3ad"/>
            <path id="Trazado_1030767" data-name="Trazado 1030767" d="M481.548,344.67v2.99a1.332,1.332,0,0,1-2.408.782l-.085-.09a1.332,1.332,0,0,0,1.32-1.332v-2.987a1.323,1.323,0,0,0-.194-.692h.036A1.331,1.331,0,0,1,481.548,344.67Z" transform="translate(-478.198 -343.34)" fill="#ffc3ad"/>
          </g>
          <path id="Trazado_1030768" data-name="Trazado 1030768" d="M476.593,386.87v3.98a6.489,6.489,0,0,1-.913,3.319,6.493,6.493,0,0,0-.912,3.344l0,.7a.3.3,0,0,1-.3.3h-.916l0-1a6.5,6.5,0,0,1,.913-3.344,6.489,6.489,0,0,0,.913-3.319v-3.808Z" transform="translate(-464.066 -376.144)" fill="#e39d82"/>
          <path id="Trazado_1030769" data-name="Trazado 1030769" d="M391.338,281.308v10.748c0,.772-1.263,1.4-2.035,1.4l.656-1.753-.907-.863v-9.535a1.4,1.4,0,0,1,.828-1.278A1.3,1.3,0,0,1,391.338,281.308Z" transform="translate(-387.949 -279.905)" fill="#ffc3ad"/>
          <path id="Trazado_1030770" data-name="Trazado 1030770" d="M417.6,332.129v3.527c0,.569-.923,1.061-1.411,1.28a1.406,1.406,0,0,1-.831-1.28l-.343-.076V332.25l.343-.121a1.406,1.406,0,0,1,.831-1.279C417.361,331,417.6,331.561,417.6,332.129Z" transform="translate(-411.332 -325.682)" fill="#ffc3ad"/>
          <path id="Trazado_1030771" data-name="Trazado 1030771" d="M447.194,332.129v3.74c0,.568-1.027,1.06-1.515,1.279a1.4,1.4,0,0,1-.831-1.279l-.334-.213v-3.375l.334-.152a1.406,1.406,0,0,1,.831-1.279C447.009,331.031,447.194,331.561,447.194,332.129Z" transform="translate(-437.907 -325.682)" fill="#ffc3ad"/>
          <path id="Trazado_1030772" data-name="Trazado 1030772" d="M399.485,280.173v10.176a.635.635,0,0,1-1.264,0V280.173a1.407,1.407,0,0,0-.827-1.278,1.382,1.382,0,0,1,.575-.125h.112A1.407,1.407,0,0,1,399.485,280.173Z" transform="translate(-395.463 -278.77)" fill="#e39d82"/>
          <path id="Trazado_1030773" data-name="Trazado 1030773" d="M428.923,331v3.527a1.408,1.408,0,0,1-1.4,1.4h-.113a1.371,1.371,0,0,1-.573-.124,1.407,1.407,0,0,0,.831-1.28V331a1.406,1.406,0,0,0-.831-1.279,1.371,1.371,0,0,1,.573-.124h.113A1.407,1.407,0,0,1,428.923,331Z" transform="translate(-421.982 -324.556)" fill="#e39d82"/>
          <path id="Trazado_1030774" data-name="Trazado 1030774" d="M458.343,331v3.74a1.408,1.408,0,0,1-1.4,1.4h-.112a1.367,1.367,0,0,1-.573-.124,1.405,1.405,0,0,0,.83-1.279V331a1.406,1.406,0,0,0-.83-1.279,1.368,1.368,0,0,1,.573-.124h.112A1.408,1.408,0,0,1,458.343,331Z" transform="translate(-448.482 -324.556)" fill="#e39d82"/>
          <path id="Trazado_1030775" data-name="Trazado 1030775" d="M398.9,367.011a3.02,3.02,0,0,1-.064.618c-.261,1.248-2.118,1.4-3.433,1.54a4.2,4.2,0,0,0-2.487-.339c-.787.243-1.281,1.507-1.292,1.5l-2.576-1.347v-1.269l2.487-1.788a2.786,2.786,0,0,1,1.592-.518l4.129-.039A1.646,1.646,0,0,1,398.9,367.011Z" transform="translate(-387.947 -356.773)" fill="#e39d82"/>
          <path id="Trazado_1030776" data-name="Trazado 1030776" d="M390.378,380.781l1.175-1.581a.3.3,0,0,1,.2-.118l2.539-.308a2.015,2.015,0,0,0,1.389-1.933.678.678,0,0,0-.682-.663h-3.736a2.522,2.522,0,0,0-1.447.456l-3.224,2.256Z" transform="translate(-385.735 -366.513)" fill="#ffc3ad"/>
        </g>
        <g id="Grupo_1173810" data-name="Grupo 1173810" transform="translate(27.264 1.403)">
          <path id="Trazado_1030777" data-name="Trazado 1030777" d="M302.419,29.585a11.559,11.559,0,0,1-11.477,11.737c-2.094,0-6.691-1.537-7.289-3.205l.113-.456a.3.3,0,0,0-.026-.207,10.835,10.835,0,0,1,16.777-13.117A10.285,10.285,0,0,1,302.419,29.585Z" transform="translate(-282.516 -21.635)" fill="#eaf6ff"/>
          <path id="Trazado_1030778" data-name="Trazado 1030778" d="M305.172,59.287a10.851,10.851,0,0,1-16.263,6.929.3.3,0,0,0-.21-.039l-4.468.851a.3.3,0,0,1-.345-.364l.993-4.019a11.685,11.685,0,0,0,16.865-13.781A10.809,10.809,0,0,1,305.172,59.287Z" transform="translate(-283.741 -46.163)" fill="#d8ecfe"/>
          <g id="Grupo_1173809" data-name="Grupo 1173809" transform="translate(5.244 2.699)">
            <path id="Trazado_1030779" data-name="Trazado 1030779" d="M345.263,55.095c0,2.9-3.049,5.711-6.012,5.711-.449,0-.935.305-1.72-.854a6.313,6.313,0,0,0-.776-1.366,5.378,5.378,0,0,1,3.035-8.905C343.86,49.682,345.263,52.512,345.263,55.095Z" transform="translate(-335.361 -49.598)" fill="#ffe177"/>
            <path id="Trazado_1030780" data-name="Trazado 1030780" d="M364.319,54.215A5.359,5.359,0,0,1,362.95,57.8a6.493,6.493,0,0,0-1.3,3.872v.336l-5.414.017v-.3a9.089,9.089,0,0,0-.666-2.958,5.446,5.446,0,0,0,1.3.157c2.963,0,5.529-1.929,5.529-4.832a5.288,5.288,0,0,0-4.409-5.172,5.382,5.382,0,0,1,6.328,5.294Z" transform="translate(-353.563 -48.837)" fill="#ffd15b"/>
            <path id="Trazado_1030781" data-name="Trazado 1030781" d="M366.6,179.51l.842,1.644c0,.892-.534,1.644-2.456,1.644h-.422a1.615,1.615,0,0,1-1.615-1.615V179.51h3.65Z" transform="translate(-360.213 -166.544)" fill="#5e6577"/>
            <path id="Trazado_1030782" data-name="Trazado 1030782" d="M386.718,179.511v1.673A1.615,1.615,0,0,1,385.1,182.8h-1.629a1.614,1.614,0,0,0,1.614-1.615v-1.673Z" transform="translate(-378.7 -166.545)" fill="#4d5263"/>
            <path id="Trazado_1030783" data-name="Trazado 1030783" d="M353.833,160.519c0,.357.217.762,0,1a6.5,6.5,0,0,1-2.158.512H347.7a1.249,1.249,0,0,1-1.2-1.294,1.348,1.348,0,0,1,.351-.916,1.155,1.155,0,0,1,.848-.379h3.971C352.337,159.439,353.833,159.8,353.833,160.519Z" transform="translate(-345.398 -148.464)" fill="#73788c"/>
            <path id="Trazado_1030784" data-name="Trazado 1030784" d="M401.985,160.734a1.347,1.347,0,0,1-.351.915,1.156,1.156,0,0,1-.848.379h-2.175a1.154,1.154,0,0,0,.848-.379,1.347,1.347,0,0,0,.351-.915,1.25,1.25,0,0,0-1.2-1.3h2.175A1.25,1.25,0,0,1,401.985,160.734Z" transform="translate(-392.335 -148.464)" fill="#5e6577"/>
          </g>
        </g>
      </g>
      <g id="Grupo_1173820" data-name="Grupo 1173820" transform="translate(0 0)">
        <g id="Grupo_1173812" data-name="Grupo 1173812" transform="translate(3.337 18.365)">
          <path id="Trazado_1030785" data-name="Trazado 1030785" d="M45.464,200a5.432,5.432,0,0,1-4.088-5.263h0a2.16,2.16,0,0,1,2.16-2.16h1.978" transform="translate(-41.376 -192.577)" fill="none" stroke="#000" stroke-linecap="round" stroke-linejoin="round" stroke-miterlimit="10" stroke-width="1.5"/>
          <path id="Trazado_1030786" data-name="Trazado 1030786" d="M306.838,232.041a5.442,5.442,0,0,1-3.781,3.5" transform="translate(-277.091 -228.125)" fill="none" stroke="#000" stroke-linecap="round" stroke-linejoin="round" stroke-miterlimit="10" stroke-width="1.5"/>
        </g>
        <path id="Trazado_1030787" data-name="Trazado 1030787" d="M209.872,132.144a12.243,12.243,0,0,0,2.662-.689l1.106-.424.183-.086a2.149,2.149,0,0,1,2.948,1.248" transform="translate(-189.816 -118.511)" fill="none" stroke="#000" stroke-linecap="round" stroke-linejoin="round" stroke-miterlimit="10" stroke-width="1.5"/>
        <path id="Trazado_1030788" data-name="Trazado 1030788" d="M104.677,141.01v4.237a6.875,6.875,0,0,1-2.348,5.175l-4.269,3.737a4.583,4.583,0,0,1-3.018,1.133H92.51a4.583,4.583,0,0,1-3.018-1.133l-4.269-3.737a6.875,6.875,0,0,1-2.348-5.175v-8.242a1.459,1.459,0,0,0,1.356-1l.94-3.668a2.149,2.149,0,0,1,2.96-1.242l.137.066,1.106.424a12.237,12.237,0,0,0,2.646.687" transform="translate(-75.421 -118.644)" fill="none" stroke="#000" stroke-linecap="round" stroke-linejoin="round" stroke-miterlimit="10" stroke-width="1.5"/>
        <g id="Grupo_1173814" data-name="Grupo 1173814" transform="translate(12.058 17.422)">
          <g id="Grupo_1173813" data-name="Grupo 1173813">
            <path id="Trazado_1030789" data-name="Trazado 1030789" d="M184.175,262.089a2.3,2.3,0,0,1-2.086,0" transform="translate(-176.848 -254.248)" fill="none" stroke="#000" stroke-linecap="round" stroke-linejoin="round" stroke-miterlimit="10" stroke-width="1.5"/>
            <path id="Trazado_1030790" data-name="Trazado 1030790" d="M133.081,183.562a3.968,3.968,0,0,0-3.815,0" transform="translate(-129.266 -183.073)" fill="none" stroke="#000" stroke-linecap="round" stroke-linejoin="round" stroke-miterlimit="10" stroke-width="1.5"/>
            <path id="Trazado_1030791" data-name="Trazado 1030791" d="M221.3,183.562a3.968,3.968,0,0,0-3.815,0" transform="translate(-208.732 -183.073)" fill="none" stroke="#000" stroke-linecap="round" stroke-linejoin="round" stroke-miterlimit="10" stroke-width="1.5"/>
            <line id="Línea_813" data-name="Línea 813" y1="1.69" transform="translate(10.661 2.865)" fill="none" stroke="#000" stroke-linecap="round" stroke-linejoin="round" stroke-miterlimit="10" stroke-width="1.5"/>
            <line id="Línea_814" data-name="Línea 814" y1="1.69" transform="translate(1.908 2.865)" fill="none" stroke="#000" stroke-linecap="round" stroke-linejoin="round" stroke-miterlimit="10" stroke-width="1.5"/>
          </g>
          <path id="Trazado_1030792" data-name="Trazado 1030792" d="M170.587,300c-2.876,0-2.395-3.242-2.395-3.242h4.789S173.377,300,170.587,300Z" transform="translate(-164.303 -285.479)" fill="none" stroke="#000" stroke-linecap="round" stroke-linejoin="round" stroke-miterlimit="10" stroke-width="1.5"/>
        </g>
        <path id="Trazado_1030793" data-name="Trazado 1030793" d="M63.962,11.791a3.068,3.068,0,0,0-2.971-1.052A3.571,3.571,0,0,0,57.6,8.214a3.514,3.514,0,0,0-2.548,1.1,3.085,3.085,0,0,0-5.62,0,3.514,3.514,0,0,0-2.548-1.1,3.571,3.571,0,0,0-3.391,2.525,3.066,3.066,0,0,0-.605-.061,3.146,3.146,0,0,0-3.112,3.179,3.235,3.235,0,0,0,.164,1.017,3.4,3.4,0,0,0-.932,5.935,3.206,3.206,0,0,0-1.181,5.559" transform="translate(-33.795 -7.5)" fill="none" stroke="#000" stroke-linecap="round" stroke-linejoin="round" stroke-miterlimit="10" stroke-width="1.5"/>
        <path id="Trazado_1030794" data-name="Trazado 1030794" d="M61.731,142.21a3.115,3.115,0,0,1-1.4-.569" transform="translate(-55.11 -128.331)" fill="none" stroke="#000" stroke-linecap="round" stroke-linejoin="round" stroke-miterlimit="10" stroke-width="1.5"/>
        <path id="Trazado_1030795" data-name="Trazado 1030795" d="M105.6,40.2a2.953,2.953,0,0,1,1.872,1.244" transform="translate(-95.891 -36.954)" fill="none" stroke="#000" stroke-linecap="round" stroke-linejoin="round" stroke-miterlimit="10" stroke-width="1.5"/>
        <path id="Trazado_1030796" data-name="Trazado 1030796" d="M268.049,40.183a2.958,2.958,0,0,0-1.5,1.145" transform="translate(-240.867 -36.94)" fill="none" stroke="#000" stroke-linecap="round" stroke-linejoin="round" stroke-miterlimit="10" stroke-width="1.5"/>
        <path id="Trazado_1030797" data-name="Trazado 1030797" d="M301.476,32.726q-.05.314-.118.629a11.17,11.17,0,0,1-16.843,7.071l-5.186.988,1.28-5.183A11.142,11.142,0,0,1,288.581,20" transform="translate(-252.35 -18.761)" fill="none" stroke="#000" stroke-linecap="round" stroke-linejoin="round" stroke-miterlimit="10" stroke-width="1.5"/>
        <path id="Trazado_1030798" data-name="Trazado 1030798" d="M407.545,19.544q.4.057.8.144A11.154,11.154,0,0,1,417,28.841" transform="translate(-367.875 -18.349)" fill="none" stroke="#000" stroke-linecap="round" stroke-linejoin="round" stroke-miterlimit="10" stroke-width="1.5"/>
        <g id="Grupo_1173815" data-name="Grupo 1173815" transform="translate(32.507 4.104)">
          <path id="Trazado_1030799" data-name="Trazado 1030799" d="M337.692,59.652a6.343,6.343,0,0,0-.946-1.821,5.372,5.372,0,1,1,7.986-.027,6.625,6.625,0,0,0-.963,1.827" transform="translate(-335.355 -48.863)" fill="none" stroke="#000" stroke-linecap="round" stroke-linejoin="round" stroke-miterlimit="10" stroke-width="1.5"/>
          <line id="Línea_815" data-name="Línea 815" y1="3.95" transform="translate(5.372 6.818)" fill="none" stroke="#000" stroke-linecap="round" stroke-linejoin="round" stroke-miterlimit="10" stroke-width="1.5"/>
          <path id="Trazado_1030800" data-name="Trazado 1030800" d="M368.192,186.134v.611a1.985,1.985,0,0,1-1.985,1.985H364.9a1.984,1.984,0,0,1-1.985-1.985v-.611" transform="translate(-360.183 -172.513)" fill="none" stroke="#000" stroke-linecap="round" stroke-linejoin="round" stroke-miterlimit="10" stroke-width="1.5"/>
          <path id="Trazado_1030801" data-name="Trazado 1030801" d="M355.572,160.392h-5.346a1.358,1.358,0,0,1-1.358-1.358v-.08a1.358,1.358,0,0,1,1.358-1.358h5.346a1.358,1.358,0,0,1,1.358,1.358v.08A1.358,1.358,0,0,1,355.572,160.392Z" transform="translate(-347.526 -146.806)" fill="none" stroke="#000" stroke-linecap="round" stroke-linejoin="round" stroke-miterlimit="10" stroke-width="1.5"/>
          <line id="Línea_816" data-name="Línea 816" x2="3.439" transform="translate(3.724 6.81)" fill="none" stroke="#000" stroke-linecap="round" stroke-linejoin="round" stroke-miterlimit="10" stroke-width="1.5"/>
        </g>
        <path id="Trazado_1030802" data-name="Trazado 1030802" d="M346.53,432.2l.249.047a9.608,9.608,0,0,1,2.711.955" transform="translate(-312.914 -390.054)" fill="none" stroke="#000" stroke-linecap="round" stroke-linejoin="round" stroke-miterlimit="10" stroke-width="1.5"/>
        <path id="Trazado_1030803" data-name="Trazado 1030803" d="M250.768,358.351v3.7a2.194,2.194,0,0,0,1.783,2.155" transform="translate(-226.654 -323.537)" fill="none" stroke="#000" stroke-linecap="round" stroke-linejoin="round" stroke-miterlimit="10" stroke-width="1.5"/>
        <path id="Trazado_1030804" data-name="Trazado 1030804" d="M118.589,417.362h0a10.191,10.191,0,0,0,14.9,0h0" transform="translate(-107.591 -376.693)" fill="none" stroke="#000" stroke-linecap="round" stroke-linejoin="round" stroke-miterlimit="10" stroke-width="1.5"/>
        <path id="Trazado_1030805" data-name="Trazado 1030805" d="M10.9,365.76l-.39.078a9.608,9.608,0,0,0-2.755.978m12.781-8.465v3.7a2.194,2.194,0,0,1-1.783,2.155l-.114.022" transform="translate(-7.75 -323.537)" fill="none" stroke="#000" stroke-linecap="round" stroke-linejoin="round" stroke-miterlimit="10" stroke-width="1.5"/>
        <g id="Grupo_1173816" data-name="Grupo 1173816" transform="translate(2.774 38.76)">
          <path id="Trazado_1030806" data-name="Trazado 1030806" d="M44.987,404.521l-1.557-5.6a1.091,1.091,0,0,0-1.368-.751l-6.023,1.836a.472.472,0,0,0-.295.644l1.331,3.014,3.671.842-2.02,2.9.458,1.277" transform="translate(-35.703 -398.124)" fill="none" stroke="#000" stroke-linecap="round" stroke-linejoin="round" stroke-miterlimit="10" stroke-width="1.5"/>
          <line id="Línea_817" data-name="Línea 817" x1="0.226" y1="0.812" transform="translate(10.215 9.743)" fill="none" stroke="#000" stroke-linecap="round" stroke-linejoin="round" stroke-miterlimit="10" stroke-width="1.5"/>
          <path id="Trazado_1030807" data-name="Trazado 1030807" d="M244.868,408.68l2.714-9.757a1.09,1.09,0,0,1,1.368-.751l6.023,1.835a.473.473,0,0,1,.295.644l-1.331,3.014-3.671.842,2.021,2.9-.458,1.277" transform="translate(-224.113 -398.125)" fill="none" stroke="#000" stroke-linecap="round" stroke-linejoin="round" stroke-miterlimit="10" stroke-width="1.5"/>
        </g>
        <g id="Grupo_1173819" data-name="Grupo 1173819" transform="translate(36.739 26.946)">
          <g id="Grupo_1173817" data-name="Grupo 1173817" transform="translate(9.864 6.407)">
            <path id="Trazado_1030808" data-name="Trazado 1030808" d="M480.075,344.956a1.33,1.33,0,0,0-1.33-1.33h0a1.332,1.332,0,0,0-1.332,1.331v2.987a1.332,1.332,0,0,0,1.332,1.331h0a1.331,1.331,0,0,0,1.331-1.331Z" transform="translate(-477.412 -343.626)" fill="none" stroke="#000" stroke-linecap="round" stroke-linejoin="round" stroke-miterlimit="10" stroke-width="1.5"/>
            <path id="Trazado_1030809" data-name="Trazado 1030809" d="M490.831,400.563" transform="translate(-489.499 -394.913)" fill="none" stroke="#000" stroke-linecap="round" stroke-linejoin="round" stroke-miterlimit="10" stroke-width="1.5"/>
          </g>
          <g id="Grupo_1173818" data-name="Grupo 1173818" transform="translate(10.702 10.763)">
            <path id="Trazado_1030810" data-name="Trazado 1030810" d="M487.683,387.53v3.98a6.464,6.464,0,0,1-.913,3.283h0a6.5,6.5,0,0,0-.912,3.344l0,1" transform="translate(-485.858 -387.53)" fill="none" stroke="#000" stroke-linecap="round" stroke-linejoin="round" stroke-miterlimit="10" stroke-width="1.5"/>
          </g>
          <path id="Trazado_1030811" data-name="Trazado 1030811" d="M433.859,414.75a5.444,5.444,0,0,1,1.163,4.977l-.041.159" transform="translate(-428.316 -401.286)" fill="none" stroke="#000" stroke-linecap="round" stroke-linejoin="round" stroke-miterlimit="10" stroke-width="1.5"/>
          <path id="Trazado_1030812" data-name="Trazado 1030812" d="M389.115,291.2V280.46a1.407,1.407,0,0,1,1.4-1.4h.113a1.407,1.407,0,0,1,1.4,1.4v8.728" transform="translate(-388.012 -279.057)" fill="none" stroke="#000" stroke-linecap="round" stroke-linejoin="round" stroke-miterlimit="10" stroke-width="1.5"/>
          <path id="Trazado_1030813" data-name="Trazado 1030813" d="M418.532,331.3a1.407,1.407,0,0,1,1.4-1.4h.113a1.407,1.407,0,0,1,1.4,1.4v3.194" transform="translate(-414.51 -324.849)" fill="none" stroke="#000" stroke-linecap="round" stroke-linejoin="round" stroke-miterlimit="10" stroke-width="1.5"/>
          <path id="Trazado_1030814" data-name="Trazado 1030814" d="M447.947,334.456V331.3a1.407,1.407,0,0,1,1.4-1.4h.113a1.407,1.407,0,0,1,1.4,1.4v1.34" transform="translate(-441.006 -324.849)" fill="none" stroke="#000" stroke-linecap="round" stroke-linejoin="round" stroke-miterlimit="10" stroke-width="1.5"/>
          <path id="Trazado_1030815" data-name="Trazado 1030815" d="M382.641,381.07l1.251-1.683,2.507-.323a2.015,2.015,0,0,0,1.389-1.914.682.682,0,0,0-.682-.681h-3.577a2.521,2.521,0,0,0-1.447.456l-3.224,2.256a2.014,2.014,0,0,0-.859,1.65v1.644a3.393,3.393,0,0,0,.892,2.292,4.1,4.1,0,0,1,1.079,2.774v1.633" transform="translate(-377.999 -366.802)" fill="none" stroke="#000" stroke-linecap="round" stroke-linejoin="round" stroke-miterlimit="10" stroke-width="1.5"/>
        </g>
      </g>
    </g>
  </g>
</svg>
