<svg xmlns="http://www.w3.org/2000/svg" xmlns:xlink="http://www.w3.org/1999/xlink" width="108" height="108" viewBox="0 0 108 108">
  <defs>
    <filter id="Trazado_904820" x="0" y="0" width="108" height="108" filterUnits="userSpaceOnUse">
      <feOffset dy="3" input="SourceAlpha"/>
      <feGaussianBlur stdDeviation="3" result="blur"/>
      <feFlood flood-opacity="0.161"/>
      <feComposite operator="in" in2="blur"/>
      <feComposite in="SourceGraphic"/>
    </filter>
  </defs>
  <g id="Grupo_1223473" data-name="Grupo 1223473" transform="translate(-612.485 -4101.016)">
    <g id="Grupo_1223245" data-name="Grupo 1223245" transform="translate(621.485 4107.016)">
      <g id="Grupo_1173585" data-name="Grupo 1173585" transform="translate(0 0)">
        <g id="Grupo_1173428" data-name="Grupo 1173428">
          <g id="Grupo_1171958" data-name="Grupo 1171958">
            <g id="Grupo_1167341" data-name="Grupo 1167341">
              <g id="Grupo_1166792" data-name="Grupo 1166792">
                <g transform="matrix(1, 0, 0, 1, -9, -6)" filter="url(#Trazado_904820)">
                  <g id="Trazado_904820-2" data-name="Trazado 904820" transform="translate(9 6)" fill="#efecfa">
                    <path d="M 44.99999618530273 88.50002288818359 C 39.12687301635742 88.50002288818359 33.43022155761719 87.35009765625 28.06829643249512 85.08218383789062 C 22.88852119445801 82.89133453369141 18.23629570007324 79.75460815429688 14.24084663391113 75.75916290283203 C 10.24540901184082 71.76371002197266 7.108683586120605 67.11148834228516 4.917821407318115 61.93171310424805 C 2.649921178817749 56.56978607177734 1.499996185302734 50.87313461303711 1.499996185302734 45.0000114440918 C 1.499996185302734 39.12688827514648 2.649921178817749 33.43023681640625 4.917821407318115 28.06829833984375 C 7.108683586120605 22.88852310180664 10.24540901184082 18.2363109588623 14.24084663391113 14.2408618927002 C 18.23629570007324 10.24541187286377 22.88852119445801 7.108686447143555 28.06829643249512 4.917823791503906 C 33.43022155761719 2.649924039840698 39.12687301635742 1.499998927116394 44.99999618530273 1.499998927116394 C 50.87311935424805 1.499998927116394 56.56977081298828 2.649924039840698 61.93169784545898 4.917823791503906 C 67.11147308349609 7.108686447143555 71.76369476318359 10.24541187286377 75.75914764404297 14.2408618927002 C 79.75458526611328 18.2363109588623 82.89131164550781 22.88852310180664 85.08216857910156 28.06829833984375 C 87.35007476806641 33.43023681640625 88.5 39.12688827514648 88.5 45.0000114440918 C 88.5 50.87313461303711 87.35007476806641 56.56978607177734 85.08216857910156 61.93171310424805 C 82.89131164550781 67.11148834228516 79.75458526611328 71.76371002197266 75.75914764404297 75.75916290283203 C 71.76369476318359 79.75460815429688 67.11147308349609 82.89133453369141 61.93169784545898 85.08218383789062 C 56.56977081298828 87.35009765625 50.87311935424805 88.50002288818359 44.99999618530273 88.50002288818359 Z" stroke="none"/>
                    <path d="M 44.99999618530273 3 C 39.32870864868164 3 33.82865142822266 4.110054016113281 28.65262603759766 6.299339294433594 C 23.65165710449219 8.414566040039062 19.15968322753906 11.44333648681641 15.301513671875 15.30152893066406 C 11.44333648681641 19.15969848632812 8.414566040039062 23.65165710449219 6.299339294433594 28.65264129638672 C 4.110054016113281 33.82866668701172 2.999992370605469 39.3287239074707 2.999992370605469 45.0000114440918 C 2.999992370605469 50.67129898071289 4.110054016113281 56.17135620117188 6.299339294433594 61.34738159179688 C 8.414566040039062 66.34836578369141 11.44333648681641 70.84032440185547 15.301513671875 74.69849395751953 C 19.15968322753906 78.55668640136719 23.65165710449219 81.58545684814453 28.65262603759766 83.70068359375 C 33.82865142822266 85.88996887207031 39.32870864868164 87.00002288818359 44.99999618530273 87.00002288818359 C 50.67128372192383 87.00002288818359 56.17134094238281 85.88996887207031 61.34736633300781 83.70068359375 C 66.34834289550781 81.58545684814453 70.84030914306641 78.55668640136719 74.69847869873047 74.69849395751953 C 78.55665588378906 70.84032440185547 81.58542633056641 66.34836578369141 83.70065307617188 61.34738159179688 C 85.88993835449219 56.17135620117188 87 50.67129898071289 87 45.0000114440918 C 87 39.3287239074707 85.88993835449219 33.82866668701172 83.70065307617188 28.65264129638672 C 81.58542633056641 23.65165710449219 78.55665588378906 19.15969848632812 74.69847869873047 15.30152893066406 C 70.84030914306641 11.44333648681641 66.34834289550781 8.414566040039062 61.34736633300781 6.299339294433594 C 56.17134094238281 4.110054016113281 50.67128372192383 3 44.99999618530273 3 M 44.99999618530273 0 C 69.85281372070312 0 90 20.14719390869141 90 45.0000114440918 C 90 69.85282897949219 69.85281372070312 90.00002288818359 44.99999618530273 90.00002288818359 C 20.14717864990234 90.00002288818359 -7.62939453125e-06 69.85282897949219 -7.62939453125e-06 45.0000114440918 C -7.62939453125e-06 20.14719390869141 20.14717864990234 0 44.99999618530273 0 Z" stroke="none" fill="#6c4dd8"/>
                  </g>
                </g>
              </g>
            </g>
          </g>
        </g>
      </g>
    </g>
    <g id="oversight_17862470" transform="translate(611.163 4122.912)">
      <g id="Grupo_1223472" data-name="Grupo 1223472" transform="translate(33.834 1.88)">
        <g id="Grupo_1223468" data-name="Grupo 1223468">
          <path id="Trazado_1059318" data-name="Trazado 1059318" d="M80.739,57.168V9H47.076L40.95,15.126V57.168Z" transform="translate(-40.95 -9)" fill="#eff4f7" fill-rule="evenodd"/>
          <path id="Trazado_1059319" data-name="Trazado 1059319" d="M80.739,57.168V9H78.524V54.954H40.95v2.214Z" transform="translate(-40.95 -9)" fill="#dee8ee" fill-rule="evenodd"/>
          <g id="Grupo_1223467" data-name="Grupo 1223467">
            <path id="Trazado_1059320" data-name="Trazado 1059320" d="M40.95,15.126h6.126V9Z" transform="translate(-40.95 -9)" fill="#cedde5" fill-rule="evenodd"/>
            <path id="Trazado_1059321" data-name="Trazado 1059321" d="M86.281,15.126h1.107V9l-1.107,1.107Z" transform="translate(-81.262 -9)" fill="#bfd2dd" fill-rule="evenodd"/>
          </g>
        </g>
        <g id="Grupo_1223470" data-name="Grupo 1223470" transform="translate(3.706 10.801)">
          <g id="Grupo_1223469" data-name="Grupo 1223469" transform="translate(24.38 24.454)">
            <path id="Trazado_1059322" data-name="Trazado 1059322" d="M299.891,335.2l2.517-2.69-5.086-5.086-2.7,2.51Z" transform="translate(-294.625 -327.422)" fill="#b4d2d7" fill-rule="evenodd"/>
            <path id="Trazado_1059323" data-name="Trazado 1059323" d="M299.892,346.477l2.517-2.69-.027-.027-1.408,1.5-5.16-5.16-1.188,1.105Z" transform="translate(-294.625 -338.701)" fill="#9bb9c3" fill-rule="evenodd"/>
            <path id="Trazado_1059324" data-name="Trazado 1059324" d="M328.477,356.242l-4.184,4.184a.3.3,0,0,0,0,.42l10.617,10.617a3.256,3.256,0,1,0,4.6-4.6L328.9,356.242a.3.3,0,0,0-.42,0Z" transform="translate(-320.931 -352.974)" fill="#8d9ca8" fill-rule="evenodd"/>
            <path id="Trazado_1059325" data-name="Trazado 1059325" d="M325.081,387.608l-.789.788a.3.3,0,0,0,0,.42l10.617,10.617a3.255,3.255,0,0,0,4.965-.43,3.268,3.268,0,0,1-4.175-.361l-10.617-10.617a.3.3,0,0,1,0-.419Z" transform="translate(-320.931 -380.944)" fill="#7a8c98" fill-rule="evenodd"/>
            <path id="Trazado_1059326" data-name="Trazado 1059326" d="M324.293,360.426a.3.3,0,0,0,0,.42l2.755,2.755,4.6-4.6-2.755-2.755a.3.3,0,0,0-.42,0l-4.184,4.184Z" transform="translate(-320.931 -352.974)" fill="#7a8c98" fill-rule="evenodd"/>
            <path id="Trazado_1059327" data-name="Trazado 1059327" d="M324.293,388.4a.3.3,0,0,0,0,.42l2.755,2.755.79-.79-2.755-2.755a.3.3,0,0,1,0-.419l-.789.788Z" transform="translate(-320.931 -380.944)" fill="#596c76" fill-rule="evenodd"/>
          </g>
          <circle id="Elipse_12856" data-name="Elipse 12856" cx="15.418" cy="15.418" r="15.418" transform="matrix(0.036, -0.999, 0.999, 0.036, 0, 30.806)" fill="#64b5f6"/>
          <path id="Trazado_1059328" data-name="Trazado 1059328" d="M138.725,138.476A15.418,15.418,0,1,1,118.487,161.6a15.418,15.418,0,0,0,20.238-23.125Z" transform="translate(-113.608 -134.942)" fill="#42a5f5" fill-rule="evenodd"/>
          <path id="Trazado_1059329" data-name="Trazado 1059329" d="M125.111,168.7a11.636,11.636,0,1,0-11.636-11.636A11.658,11.658,0,0,0,125.111,168.7Z" transform="translate(-109.151 -141.12)" fill="#e6f8ff" fill-rule="evenodd"/>
          <path id="Trazado_1059330" data-name="Trazado 1059330" d="M125.11,145.423a11.611,11.611,0,0,1,8.937,4.185A11.636,11.636,0,0,0,117.659,166a11.636,11.636,0,0,1,7.451-20.573Z" transform="translate(-109.15 -141.119)" fill="#cbf0ff" fill-rule="evenodd"/>
        </g>
        <g id="Grupo_1223471" data-name="Grupo 1223471" transform="translate(9.986 20.795)">
          <path id="Trazado_1059331" data-name="Trazado 1059331" d="M140.829,196.826a10.345,10.345,0,0,0-9.674,6.475c-.232.642,4.513,5.415,9.855,5.415s9.39-5.009,9.492-5.415-2.7-6.485-9.674-6.475Z" transform="translate(-131.147 -196.826)" fill="#64b5f6" fill-rule="evenodd"/>
          <path id="Trazado_1059332" data-name="Trazado 1059332" d="M135.338,224.427c1.3,1.562,5.161,4.566,9.4,4.566,5.343,0,9.39-5.009,9.492-5.415a8.467,8.467,0,0,0-2.78-3.95,6.851,6.851,0,0,1,1.673,2.843c-.1.405-4.15,5.415-9.492,5.415A13.467,13.467,0,0,1,135.338,224.427Z" transform="translate(-134.874 -217.103)" fill="#42a5f5" fill-rule="evenodd"/>
          <circle id="Elipse_12857" data-name="Elipse 12857" cx="3.836" cy="3.836" r="3.836" transform="translate(5.723 1.973)" fill="#e6f8ff"/>
          <path id="Trazado_1059333" data-name="Trazado 1059333" d="M186.673,214.65a3.836,3.836,0,0,0-2.747,6.514,3.836,3.836,0,0,1,6.193-4.364,3.836,3.836,0,0,0-3.446-2.149Z" transform="translate(-177.114 -212.677)" fill="#cbf0ff" fill-rule="evenodd"/>
        </g>
      </g>
      <path id="Trazado_1059334" data-name="Trazado 1059334" d="M54.99,27.6a.886.886,0,1,1,0,1.771h-.726V30.1a.885.885,0,1,1-1.77,0v-.727h-.731a.886.886,0,0,1,0-1.771h.731v-.729a.885.885,0,1,1,1.77,0V27.6Zm-1.614,3.835a2.95,2.95,0,1,0-2.95-2.95A2.952,2.952,0,0,0,53.376,31.435Zm0-7.672A4.722,4.722,0,1,0,58.1,28.485a4.728,4.728,0,0,0-4.721-4.722Zm.308,9.916c4.339,0,7.765-3.637,8.538-4.674a9.6,9.6,0,0,0-8.7-5.444H53.5A9.134,9.134,0,0,0,46.765,26.3a10.133,10.133,0,0,0-1.995,2.892C45.465,30.221,49.334,33.679,53.684,33.679ZM62.561,26.2a11.276,11.276,0,0,0-9.044-4.415H53.5a10.986,10.986,0,0,0-7.995,3.264,11.317,11.317,0,0,0-2.512,3.8,1.515,1.515,0,0,0,.334,1.366c.982,1.4,5.258,5.236,10.355,5.236a12.189,12.189,0,0,0,7.248-2.739,10.884,10.884,0,0,0,3.1-3.346c.24-.958-1.4-3.071-1.473-3.161ZM53.5,39.777A11.157,11.157,0,1,0,42.342,28.62,11.172,11.172,0,0,0,53.5,39.777Zm0-24.085A12.928,12.928,0,1,0,66.426,28.62,12.944,12.944,0,0,0,53.5,15.692ZM79.877,55a2.373,2.373,0,0,1-3.353,0l-7.237-7.235,3.352-3.352,7.238,7.236a2.372,2.372,0,0,1,0,3.351ZM34.718,49.162H68.18l-3.54-3.544a1.165,1.165,0,0,1,0-1.644l.177-.178-1.885-1.886a16.325,16.325,0,1,1,3.854-3.856l1.885,1.885.183-.178a1.156,1.156,0,0,1,1.64,0L72.733,42V2.765H40.844v5.24a.886.886,0,0,1-.888.886H34.718V49.163ZM39.073,4.018v3.1h-3.1Zm26.6,35.43,1.749,1.746-1.353,1.35L64.326,40.8a16.275,16.275,0,0,0,1.347-1.351ZM53.5,43.153A14.533,14.533,0,1,0,38.964,28.62,14.548,14.548,0,0,0,53.5,43.153ZM66.321,44.8l3.352-3.352,1.713,1.713L68.034,46.51Zm14.8,5.6-6.616-6.621V1.88a.89.89,0,0,0-.888-.886H39.956a.867.867,0,0,0-.621.259L33.2,7.379a.879.879,0,0,0-.256.627V50.048a.883.883,0,0,0,.883.886H69.955l5.316,5.317a4.141,4.141,0,0,0,5.854-5.858Z" fill-rule="evenodd"/>
    </g>
  </g>
</svg>
