<svg xmlns="http://www.w3.org/2000/svg" xmlns:xlink="http://www.w3.org/1999/xlink" width="600" height="277.75" viewBox="0 0 600 277.75">
  <defs>
    <clipPath id="clip-path">
      <rect id="Rectángulo_423352" data-name="Rectángulo 423352" width="600" height="277.75" transform="translate(810 2212.35)" fill="#fff" opacity="0.4"/>
    </clipPath>
    <filter id="Trazado_1057790" x="146.992" y="33.852" width="81.679" height="80.874" filterUnits="userSpaceOnUse">
      <feOffset dy="3" input="SourceAlpha"/>
      <feGaussianBlur stdDeviation="3" result="blur"/>
      <feFlood flood-opacity="0.161"/>
      <feComposite operator="in" in2="blur"/>
      <feComposite in="SourceGraphic"/>
    </filter>
    <clipPath id="clip-path-2">
      <rect id="Rectángulo_423349" data-name="Rectángulo 423349" width="298.977" height="277.75" transform="translate(0 0)" fill="none"/>
    </clipPath>
    <clipPath id="clip-path-3">
      <rect id="Rectángulo_423350" data-name="Rectángulo 423350" width="83.277" height="114.752" fill="none"/>
    </clipPath>
    <clipPath id="clip-path-4">
      <rect id="Rectángulo_423351" data-name="Rectángulo 423351" width="115.32" height="120.775" fill="none"/>
    </clipPath>
  </defs>
  <g id="Enmascarar_grupo_1159120" data-name="Enmascarar grupo 1159120" transform="translate(-810 -2212.35)" clip-path="url(#clip-path)">
    <rect id="Rectángulo_423348" data-name="Rectángulo 423348" width="505" height="110.934" rx="10" transform="translate(852.5 2312.033)" fill="#6ae2f6"/>
    <g id="Grupo_1223257" data-name="Grupo 1223257" transform="translate(965.992 2252.201)">
      <g id="Grupo_1223256" data-name="Grupo 1223256" transform="translate(0 0)">
        <g transform="matrix(1, 0, 0, 1, -155.99, -39.85)" filter="url(#Trazado_1057790)">
          <path id="Trazado_1057790-2" data-name="Trazado 1057790" d="M29.019.059A30.48,30.48,0,0,1,55.924,47.616l7.755,15.259-16.587-6.88-3.615,1.884a29.91,29.91,0,0,1-10.03,2.611,30.226,30.226,0,0,1-22.475-7.049A31.525,31.525,0,0,1,.069,31.953,29.957,29.957,0,0,1,7.094,10.6C12.835,4.012,20.38.684,29.019.059" transform="translate(155.99 39.85)" fill="#f6f3ef"/>
        </g>
        <path id="Trazado_1057791" data-name="Trazado 1057791" d="M75.5,52.725l.021.271c.235,4.877-2.984,11.1-6.228,14.531a24.633,24.633,0,0,1-16.99,7.783A24.021,24.021,0,0,1,34.793,68.83,24.629,24.629,0,0,1,27,52.011,23.27,23.27,0,0,1,33.546,34.8a24.583,24.583,0,0,1,34.521-.545C72.327,38.5,75.537,44.616,75.5,50.744a15.6,15.6,0,0,0,0,1.981" transform="translate(-20.701 -21.045)" fill="#fec53d"/>
        <path id="Trazado_1057792" data-name="Trazado 1057792" d="M83.221,104.713c-1.692,0-17.309-.128-17.456-.021a5.5,5.5,0,0,0-.471,1.046c-.676,1.5-1.478,4.039-2.748,5.043a1.684,1.684,0,0,1-1.375-.255,7.64,7.64,0,0,1-1-2.7l-1.354-5.186-1.942,6.735-1.012,4.354a5.434,5.434,0,0,1-.846,2.683,1.256,1.256,0,0,1-1.1-.148c-1-1.584-1.326-4.7-1.73-6.551l-2.072-9.853a15.6,15.6,0,0,1-.937,3.939,1.513,1.513,0,0,1-.958.883,15.247,15.247,0,0,1-2.59.033h-5.7a10.1,10.1,0,0,1-2.277-.046,3.271,3.271,0,0,1-.545-.451,1.487,1.487,0,0,1,.175-1.273,9.978,9.978,0,0,1,3.415-.227l6.855.018,1.566-6.881a1.5,1.5,0,0,1,1.17-.628,3.3,3.3,0,0,1,.564.4,5.351,5.351,0,0,1,.445,1.463l.928,4.21,2.226,9.64,2.189-7.354c.308-1.1.678-3.483,1.415-4.3.41-.457.66-.39,1.242-.444.9.646,1.016,2.06,1.261,3.1l1.461,6.383a46.383,46.383,0,0,1,2.741-5.537,57.916,57.916,0,0,1,6.335-.075l12.116.012a15.606,15.606,0,0,0,0,1.981" transform="translate(-28.417 -73.034)" fill="#263173"/>
      </g>
    </g>
    <g id="Grupo_1223262" data-name="Grupo 1223262" transform="translate(-6.379)">
      <g id="Grupo_1223255" data-name="Grupo 1223255" transform="translate(987.595 2212.35)">
        <g id="Grupo_1223254" data-name="Grupo 1223254" transform="translate(0 0)" clip-path="url(#clip-path-2)">
          <path id="Trazado_1057664" data-name="Trazado 1057664" d="M2692.452,840.907c-1.341,2.639-2.781,5.26-3.326,8.2a8.074,8.074,0,0,0,2.618,7.7c1.606,1.516,3.177,3.07,4.763,4.607.666.212.892.812,1.19,1.348a3.745,3.745,0,0,0,.352.652c1.966,2.278,4.114,4.459,3.643,7.974a5.908,5.908,0,0,0,1.57-2.762,2.89,2.89,0,0,1,2.864-1.942c3.026-.022,6.053,0,9.076-.225a40.155,40.155,0,0,1,19.906,15.209c3.253,4.585,4.6,10.132,5.907,15.555a56.426,56.426,0,0,1,1.27,19.912,23.105,23.105,0,0,1-2.864,8.375,73.36,73.36,0,0,1-16.749,20.715,116.449,116.449,0,0,1-10.167,8.412c-1.1-.113-1.278-1.053-1.585-1.835-4.42-11.257-8.321-22.7-12.288-34.12-2.163-6.226-5.522-11.908-8.637-17.7a145.5,145.5,0,0,0-9.352-15.409,13.26,13.26,0,0,0-2.974-3.3c-2.257-2.21-4.2-4.724-6.74-6.665-6.1-4.661-12.437-8.862-20.009-10.805-1.9-.487-2.319-1.128-2.208-2.869.247-3.883-.415-4.926-3.982-6.275a2.262,2.262,0,0,1-.956-.555c-.638-.98-.312-2.027-.25-3.073a11.142,11.142,0,0,0-2.987-8.49c-3.862-4.369-8.989-5.793-14.53-6.452-3.2-.38-6.409-.09-9.589-.533a1.1,1.1,0,0,1-.345-.494,2.749,2.749,0,0,1,.309-1.961,35.159,35.159,0,0,0,2.983-10.591,3.662,3.662,0,0,1,.424-1.4c.837-.812,1.188.068,1.585.512a13.515,13.515,0,0,0,2.887,2.816c.848.335,1.586-.1,2.355-.339,2.609-.644,3.457-2.4,3.78-4.979,1.12-8.924,3.191-17.691,4.725-26.55a8.932,8.932,0,0,0,.049-3.678c.857-1.861,2.21-2.04,3.41-.448a8.306,8.306,0,0,1,.976,2.181c-.089,3.172-1.217,6.144-1.825,9.218-1.337,6.754-2.227,13.588-3.8,20.456.868,0,1.29-.609,1.858-.868.815-.293,1.389-.994,2.191-1.308,1.093-.581,1.378-1.717,1.751-2.729A44.193,44.193,0,0,0,2642.5,804c.1-1.566.92-3.12.2-4.721-.167-1.448-1.3-2.693-.9-4.261a1.912,1.912,0,0,1,.687-.865,25.263,25.263,0,0,1,13.386-4.53,3.577,3.577,0,0,1,2.8,1.634c.954,1.1,1.955,2.133,3.635,1.725a.637.637,0,0,1,.54.082c2.894,2.569,5.8.7,8.55-.183a6.73,6.73,0,0,1,5.535.226c9.974,5.129,16.592,12.988,19.648,23.846,2.043,7.262.583,14.006-2.647,20.555a33.025,33.025,0,0,0-1.48,3.4" transform="translate(-2449.558 -738.212)" fill="#64b1f1"/>
          <path id="Trazado_1057665" data-name="Trazado 1057665" d="M817.51,3577.016a283.949,283.949,0,0,1-29.785-3.089,315.763,315.763,0,0,1-40.855-8.949c-1.787-1.912-1.05-4.339-1.238-6.544a19.789,19.789,0,0,1,.185-4.415,38.118,38.118,0,0,1,1.354-7.648c2.083-6.436,4.974-12.383,10.014-17.11,3.816-3.578,7.976-5.546,13.449-4.54a113.889,113.889,0,0,1,15.252,3.983c.6.283,1.247.436,1.828.754a70.61,70.61,0,0,1,7.647,3.032c1.211.572,2.356,1.271,3.56,1.858,2.739,1.44,5.372,3.069,8.084,4.559a142.334,142.334,0,0,1,16.432,11.943,5.06,5.06,0,0,0,1.092.682c2.6,1.926,5.173,3.883,7.618,6,1.85,1.348,3.678,2.723,5.5,4.11.583.445,1.25.827,1.493,1.6.1.9-.558,1.317-1.138,1.769-5.365,4.183-11.056,7.9-16.718,11.656-1.191.791-2.493.458-3.771.344" transform="translate(-698.141 -3300.222)" fill="#201f50"/>
          <path id="Trazado_1057666" data-name="Trazado 1057666" d="M2114.813,3671.936a290.715,290.715,0,0,1-40.643,6.883,414.4,414.4,0,0,1-49.574,2.359c-4.337-.067-8.672-.274-13.007-.417-.39-.664.166-.913.566-1.129,8.43-4.545,15.445-10.965,22.689-17.083,7.354-6.21,14.876-12.173,23.511-16.572,5.911-3.01,11.862-5.874,17.525-6.455a55.66,55.66,0,0,0-15.423,5.106c-2.2,1.084-4.7,1.545-6.935,2.641a1.18,1.18,0,0,1-1.39-.194c-.023-1.266,1.048-1.573,1.865-2.033,5.281-2.974,10.637-5.788,16.535-7.385a4.294,4.294,0,0,0,.507-.23c6.694-1.854,13.445-3.232,20.452-2.5a22.148,22.148,0,0,1,3,.4c.552.156,1.125.236,1.674.413,1.021.412,2.111.631,3.124,1.071,1.217.455,2.329,1.134,3.523,1.64,7.277,4.306,11.249,10.8,12.607,19.03.344,2.085.442,4.191.614,6.294-.12,1.592-.147,3.185-.11,4.778a4.446,4.446,0,0,1-1.114,3.387" transform="translate(-1883.481 -3403.471)" fill="#201f50"/>
          <path id="Trazado_1057667" data-name="Trazado 1057667" d="M433.8,2293.322a132.784,132.784,0,0,0-15.808-4.015,12.992,12.992,0,0,0-10.99,3.131,34.045,34.045,0,0,0-9.686,13.633c-.571,1.408-1.054,2.851-1.578,4.279-2.634-1.358-5.323-.24-7.981-.146-5.066.178-10.141.655-15.1-.924a15.276,15.276,0,0,1-2.522-6.713c-1.568-8.15.19-15.91,2.843-23.563a24.822,24.822,0,0,0,1.539-4.757,2.65,2.65,0,0,1,.375-2.3c1.353-2.991,2.659-6,3.982-9.008.64-2.255,2.182-4.023,3.352-5.973,6.381-10.634,12.249-21.568,18.772-32.117a166.237,166.237,0,0,1,12.806-18.708c.7-.845,1.294-2.086,2.809-1.563a26.241,26.241,0,0,0,3.655,4.2,6.179,6.179,0,0,1,1.6,2.262c2.461,6.916,4.593,13.9,4.491,21.357a13.178,13.178,0,0,1-.075,1.673c-.292,2.057-1.243,2.725-3.209,2.116-2.139-.663-4.345-1.02-6.509-1.563a8.94,8.94,0,0,0-4.233.067c-1.892.429-2.5,1.363-1.9,3.252.969,3.077,2.294,6.027,3.329,9.084a50.819,50.819,0,0,1,1.578,7.074,1.989,1.989,0,0,1-.437,1.912c-.926.488-1.546-.159-2.135-.66a61.522,61.522,0,0,1-8.328-9.172,38.6,38.6,0,0,1,2.643,4.061c1.971,3.917,4.9,7.11,7.838,10.286,1.6,1.729,3.347,3.317,4.968,5.025.593.625,1.343,1.322.949,2.258-.38.9-1.384.945-2.25,1.028-3.24.313-5.913-1.139-8.438-2.869a84.909,84.909,0,0,1-9.777-8.47c.526.645,1.19,1.209,1.77,1.852,1.092,1.463,2.728,2.459,3.562,4.145a22.784,22.784,0,0,0,1.221,2.294c1.182,1.911.662,3.326-1.462,4.024-2.358.776-4.805,1.265-7.141,2.109-5.144,1.86-10.283,3.745-14.24,7.786a13.415,13.415,0,0,0-1.992,2.45c-.4.663-1.309,1.394-.8,2.093.479.66,1.528.154,2.27-.021,1.992-.469,3.988-.944,5.93-1.6a88.75,88.75,0,0,1,27.1-4.247c.966-.017,2.014-.186,2.8.656-.117,1.012-.967.976-1.657,1.131-3.63.821-7.337,1.187-11,1.834a95.449,95.449,0,0,0-20.5,5.934,2.993,2.993,0,0,0-1.842,1.28,3.478,3.478,0,0,0,2.4.67,38.1,38.1,0,0,0,9.794-.79c10.02-2.034,20.056-3.989,30.027-6.258,1.937-.441,3.8-1.139,5.724-1.62,1.976-.495,2.592.02,1.958,1.868a4.687,4.687,0,0,0,.751,4.7,16.057,16.057,0,0,1-.185,4.313c-.039.578-.251,1.218-1.063,1.228" transform="translate(-346.037 -2064.2)" fill="#fec53b"/>
          <path id="Trazado_1057668" data-name="Trazado 1057668" d="M3315.525,2373.256a60.6,60.6,0,0,0-1.1-8.268,24.888,24.888,0,0,0-10.473-15.44c-.456-.306-.876-.668-1.313-1a1.784,1.784,0,0,1-.648-1.458c.332-2.1,0-4.258.534-6.337.688-1.116,1.461-.605,2.18-.064a25.942,25.942,0,0,1,2.4,2.592c6.7,6.636,13.3,13.388,20.54,19.447a17.638,17.638,0,0,0,6.131,3.45,3.712,3.712,0,0,0,3.662-.676c5.7-4.577,7.664-14.065,4.238-20.522a15.4,15.4,0,0,0-2.4-3.064c-.513-.564-1.285-1.08-.849-2.06,1.11-.609,1.895.121,2.668.706a23.047,23.047,0,0,1,3.54,3.651c.99-7.726-4.163-13.954-12.121-14.645-3.563-.309-7.2-.485-10.457,1.552-1.694.289-3.309-.3-4.959-.46a93.5,93.5,0,0,0-12.57-.751,3.321,3.321,0,0,1-1.448-.264c-1.015-.569-.608-1.347-.058-1.82a75.394,75.394,0,0,0,8.564-9.023.763.763,0,0,1,.865-.156c1.109.841.716,1.869.307,2.854a28.457,28.457,0,0,1-3.6,5.8,9.805,9.805,0,0,0,5.2-2.477A21.07,21.07,0,0,0,3320.7,2316a41,41,0,0,0,2.268-15.33c-.2-11.621-5.512-21.495-10.4-31.522-1.181-2.42-1.351-2.285-2.973-.137a51.217,51.217,0,0,0-7.677,13.328c-1.74,4.794-2.826,9.7-2.265,14.774a17.584,17.584,0,0,0,9.05,13.971,7.3,7.3,0,0,0,3.055.7c.943.1,1.828.47,1.767,1.533-.092,1.579.167,3.24-.729,4.7a6.141,6.141,0,0,0-1.855,1.46,57.234,57.234,0,0,1-10.192,9.451c-.213-.027-.033.425-.036.176,0-.076.048-.085.126-.106.417-.109.733-.08.724.468-.842,1.045-1.82.437-2.766.233a4.038,4.038,0,0,1-2.6-1.6,16.274,16.274,0,0,1-1.15-4.681c-.545-3.431-1.48-6.789-1.909-10.241-.01-.721-.008-1.443-.009-2.164a85.024,85.024,0,0,1,7.984-36.73c1.382-2.973,3.121-5.772,4.758-8.617a11.633,11.633,0,0,0,1.506-3.176c1.011-2.331,2.136-4.573,4.612-5.727,1.49.589,2.2,1.953,3.057,3.145,5.5,7.619,9.717,15.988,14.131,24.24,4.6,8.592,6.865,18.065,10.294,27.1,2.177,5.738,4.261,11.512,6.406,17.262a6.477,6.477,0,0,0,.674,1.1c.7,2.972,2.162,5.663,3.122,8.543a34.8,34.8,0,0,1,.627,21.753,10.009,10.009,0,0,0-.222,1.269c.375,1.83-.6,3.345-1.255,4.889-1.116,2.612-2.483,5.086-5.258,6.358a77.967,77.967,0,0,1-10.442,3.966c-3.781.053-7.372-1.242-11.1-1.566-1.4-.122-2.792-.455-4.2-.554a3.331,3.331,0,0,1-2.285-1.013" transform="translate(-3083.598 -2113.187)" fill="#f3a62f"/>
          <path id="Trazado_1057669" data-name="Trazado 1057669" d="M33.376,1342.277l-4.891,11.188c-2.154-.911-3.779-2.587-5.5-4.049a64.047,64.047,0,0,1-17.908-24.052,67.5,67.5,0,0,1-4.884-21.61c-1.235-16.43,3.589-30.915,13.831-43.65a81.415,81.415,0,0,1,17.991-15.97,128.244,128.244,0,0,1,34.632-16.873,157.483,157.483,0,0,1,26.617-5.788,20.343,20.343,0,0,1,3.686-.351,3.278,3.278,0,0,1,1.846,3.755,2.476,2.476,0,0,1-1.872.655A157.586,157.586,0,0,0,43.867,1240.8a72.5,72.5,0,0,0-22.894,17.584,79.178,79.178,0,0,0-12.662,18.536c-3.9,8.235-5.826,16.849-4.861,26a5.006,5.006,0,0,1,.047,1.3c-.908,5.653,1.82,10.106,4.844,14.407,6,8.535,13.7,15.33,22.189,21.287a11.23,11.23,0,0,1,2.845,2.368" transform="translate(0 -1143.418)" fill="#83c8f4"/>
          <path id="Trazado_1057670" data-name="Trazado 1057670" d="M1483.195,58.708c-.714-2.163-.443-4.418-.519-6.624-.2-5.843-.023-11.679,1.686-17.338,1.7-5.614,4.637-10.4,9.712-13.862-1.9-1.666-3.748-3.28-3.606-6.014a5.312,5.312,0,0,1,1.448-3.41c.966,4.2,2.546,5.12,6.734,4.1,3.936-.957,7.492-2.954,11.349-4.132,4.312-1.317,8.62-1.854,12.921-.009a2.5,2.5,0,0,0,1.963-.082,20.588,20.588,0,0,1,4.777-1.281c-1.357-1.7-2.67-3.227-3.857-4.85-1.328-1.816-.943-2.554,1.333-2.809a11.171,11.171,0,0,1,8.161,2.48,30.12,30.12,0,0,1,4.391,4.075c-.991-2.847-2.063-5.66-.668-8.951,3.208,5.74,8.134,8.279,14.088,9.281,3.174.534,6.139,1.542,7.872,4.83.232-1.78-.484-3.205-.729-4.726,2.157,1.015,3.088,2.67,3.217,5.665,1.339-1.576,1.546-2.452,1.683-7.305,2.084,1.506,2.439,3.534,2.225,5.758-.174,1.81-1.05,3.035-3.03,3.152.161.714.754.871,1.2,1.148,9.427,5.8,13.89,14.524,14.906,25.278.163,1.729.286,3.462.428,5.193,1.265,2.556.822,5.182.321,7.81-.361.62-.8,1.082-1.6.735-1.569-.739-1.641-2.176-1.686-3.624-.684-3.3-.274-6.671-.689-10-.768-6.164-2.569-11.849-6.511-16.768-1.733-2.163-4.063-3.6-6-5.344a21.035,21.035,0,0,1,3.092,4.5,27.441,27.441,0,0,0,3.816,5.708c1.432,1.569,1.169,2.313-.863,2.978-1.213,0-1.663-.9-2.146-1.783a33.947,33.947,0,0,0-9.3-11.226c-6.821-5.131-14.63-7.463-23.008-8.055a52.663,52.663,0,0,0-21.73,3.271,33.588,33.588,0,0,0-19.863,18.2c-.542,1.175-.923,2.508-2.56,2.609-1.985-.385-2.711-1.139-2.9-3.011a7.853,7.853,0,0,1,6.444-8.468c-1.652-.779-1.844-1.282-.923-2.424-4.978,5.25-8.167,11.363-8.6,18.666-.258,4.382-.906,8.777-.153,13.178a6.718,6.718,0,0,1,.255,2,2.6,2.6,0,0,1-1.844,2.153,1.242,1.242,0,0,1-1.246-.657" transform="translate(-1388.28 -0.004)" fill="#1f1f51"/>
          <path id="Trazado_1057671" data-name="Trazado 1057671" d="M3900,1699.595c-2.927.709-5.909.422-8.868.426-1.31,0-2.091.349-2.424,1.676a24.519,24.519,0,0,1-1.006,2.788c-.2.526-.443,1.1-1.151.986-.628-.1-.627-.676-.679-1.166-.045-.43-.093-.862-.113-1.293-.1-2.068-.424-3.916-2.429-5.217-1.177-.764-1.635-2.284-1.935-3.707,0-3.22,0-6.441.008-9.661a6.341,6.341,0,0,1,6.393-6.727c3.527-.114,7.062-.084,10.591-.02,2.686.049,5.438,2.16,5.607,4.8a56.229,56.229,0,0,1-.218,13.139,6.355,6.355,0,0,1-.37,1.044,3.324,3.324,0,0,1-3.405,2.929" transform="translate(-3634.447 -1570.887)" fill="#f4fefe"/>
          <path id="Trazado_1057672" data-name="Trazado 1057672" d="M4173.826,1979.852c1.413-.653,2.319-1.9,3.4-2.929,4.3,1.758,8.685,3.267,12.823,5.428,9.239,4.828,15.576,11.985,16.871,22.5a45.848,45.848,0,0,1-3.989,24.645,54.979,54.979,0,0,1-3.876,7.816c-.271.414-.45.888-.926,1.129a42.189,42.189,0,0,0,2.571-15.472,63.56,63.56,0,0,0-6.323-26.145c-2.326-4.846-6.491-8.228-10.681-11.455a43.147,43.147,0,0,0-9.874-5.519" transform="translate(-3908.272 -1851.144)" fill="#82c8f4"/>
          <path id="Trazado_1057673" data-name="Trazado 1057673" d="M3023.931,755.389c.38-2.711.011-5.437.165-8.153a111.81,111.81,0,0,1,14.448-.773,53.555,53.555,0,0,1,27.293,7.365c9.148,5.473,14.166,13.655,15.29,24.336.927,8.807-1.734,16.454-6.74,23.492-.077-2.142.951-3.969,1.8-5.8,4.885-10.527,2.478-20.153-3.573-29.3a35.75,35.75,0,0,0-13.564-11.865c-1.719-.9-3.29-1.487-5.393-.4a15.755,15.755,0,0,1-8.446,1.419c-1.06-.079-.312-.986-.531-1.564-1.746,1.6-3.225.095-3.8-.885-1.8-3.04-4.337-2.45-6.829-1.79-3.528.935-7.024,2.056-9.985,4.344a.292.292,0,0,1-.178-.258q0-.17.047-.171" transform="translate(-2831.494 -698.963)" fill="#82c7f4"/>
          <path id="Trazado_1057674" data-name="Trazado 1057674" d="M1925.417,3707.338c1.515.021,2.548-1.2,3.917-1.534,3.835-.939,7.238-2.978,10.947-4.276,3.679-1.288,7.467-1.625,11.215-2.337a.774.774,0,0,1,.9.337c-.77.685-1.77.362-2.614.531-7.386,1.479-14.058,4.716-20.565,8.325-8.871,4.92-16.479,11.532-24.163,18.064-5.742,4.881-11.5,9.778-18.12,13.515-.668.377-1.624.287-2.022,1.135a84.571,84.571,0,0,1-8.74-.495c2.2.423,3.643-1.062,5.245-2.1,5.283-3.431,10.452-7.026,15.472-10.834.3-.229.6-.436.637-.853.051-.914.761-1.333,1.368-1.833,1.5-1.237,3.194-2.214,4.654-3.5a233.148,233.148,0,0,1,19.191-13.352c.8-.479,1.553-1.327,2.678-.788" transform="translate(-1756.802 -3463.808)" fill="#2a3272"/>
          <path id="Trazado_1057675" data-name="Trazado 1057675" d="M307.015,3907.513a47.636,47.636,0,0,0,.461,11.192c-9.02-2.687-17.758-6.175-26.589-9.4a11.84,11.84,0,0,1-3.886-2.135c-.985-.872-.883-1.469.277-2.065,2.688-1.382,5.627-1.832,8.54-2.379.538-.1,1.129.022,1.556-.449a.919.919,0,0,1,.725.031c3.9,2.537,8.518,2.365,12.818,3.379,1.381.326,2.792.562,4.2.788a2.7,2.7,0,0,1,1.9,1.035" transform="translate(-258.749 -3653.948)" fill="#62b1f2"/>
          <path id="Trazado_1057676" data-name="Trazado 1057676" d="M440.12,3852.794c-4.818-.855-9.628-1.769-14.46-2.539a10.035,10.035,0,0,1-5.181-2.695c-.533-1.166-1.643-1.976-2-3.251.925-.842,1.884-.154,2.811-.029a66.835,66.835,0,0,0,16.725-.268c1.307-.153,3.055-.863,3.54,1.367l-1.435,7.415" transform="translate(-391.854 -3599.23)" fill="#f4a52c"/>
          <path id="Trazado_1057677" data-name="Trazado 1057677" d="M3636.545,4087.619a133.74,133.74,0,0,1,14.592,2.226c1.016.222,2,.6,3,.909a117.907,117.907,0,0,1-16.922,4.956l-1.261.306c.554-2.774.389-5.6.6-8.4" transform="translate(-3404.618 -3827.551)" fill="#61b1f3"/>
          <path id="Trazado_1057678" data-name="Trazado 1057678" d="M1475.673,922.683l1.1.385c1.021.293,1.423,1.171,1.793,2.014a61.762,61.762,0,0,1,5.674,22.7,2.8,2.8,0,0,1-.2,1.636c-1.7.713-2.187-.625-2.835-1.687-1.949-6.469-3.865-12.951-6.044-19.35a6.856,6.856,0,0,1-.564-2.9c-.08-1.1.734-1.862,1.079-2.8" transform="translate(-1380.758 -863.979)" fill="#385fb2"/>
          <path id="Trazado_1057679" data-name="Trazado 1057679" d="M4085.879,3909.033c3.476-2.993,5.006-7.113,6.513-11.247a25.85,25.85,0,0,1,7.065,2.186c2.247,1.148,2.276,2.336.03,3.7a47.5,47.5,0,0,1-8.989,3.989,22.75,22.75,0,0,1-4.62,1.373" transform="translate(-3825.922 -3649.795)" fill="#62b1f3"/>
          <path id="Trazado_1057680" data-name="Trazado 1057680" d="M1468.993,966.712a54.422,54.422,0,0,1,3.3,9.035c1.437,4.406,2.692,8.871,4.024,13.31-1.826.131-2.48-.5-2.531-2.439a17.731,17.731,0,0,0-1.677-3.709,81.451,81.451,0,0,1-3.362-13.5,3.5,3.5,0,0,1,.251-2.7" transform="translate(-1375.157 -905.207)" fill="#f4d23f"/>
          <path id="Trazado_1057681" data-name="Trazado 1057681" d="M1294.336,1577.019a37.677,37.677,0,0,0-4.153,5.657,2.749,2.749,0,0,1-1.4,2.113c-2.074.209-2.633,2.115-3.583,3.428a30.432,30.432,0,0,0-5.049,11.264,2.5,2.5,0,0,1-.9,1.777c-3.083,1.5-3.7,1.358-5.677-1.466-2.271-3.247-4.252-6.714-7.142-9.147a36.826,36.826,0,0,1,3.559,16.261,10.543,10.543,0,0,1-.444,3.114,35.6,35.6,0,0,1-12.359,22.747,5.442,5.442,0,0,1-2.43,1.307c-3.755-1.177-7.373-2.539-8.81-6.751a97.53,97.53,0,0,1,.046-11.715,6.035,6.035,0,0,0-.086-1.667,6.994,6.994,0,0,1-.043-1.624c.358-2.358.12-4.544-1.794-6.254a5.529,5.529,0,0,0-3.94-1.345c-10.036,0-20.066.385-30.1.492-3.487.037-7.063-.176-10.547.57a3.04,3.04,0,0,0-1.364.512,13.946,13.946,0,0,0-2.992,3.627,6,6,0,0,0-.537,3.067c0,4.577.019,9.153-.006,13.73-.013,2.307-.675,2.794-2.977,2.487-3.134-.418-6.287-.832-9.142,1.105a6.4,6.4,0,0,0-2.419,2.128c-.466.666-.944,1.274-1.888,1.118a33.188,33.188,0,0,1-10.594-9.5c-5.053-7.308-7.812-15.713-10.507-22.928.568,2.551,2.351,5.871,3.149,9.52a69.325,69.325,0,0,1,1.38,10.685,88,88,0,0,0,2.012,16.035,25.1,25.1,0,0,0,3.593,8.127c.407.6,1.091,1.225.71,1.993-.415.837-1.388.8-2.162.727-2.889-.29-5.817.314-8.685-.405a4.064,4.064,0,0,1-.868-.941c-.983-2.276-.777-4.724-1.038-7.107-.348-3.191-.9-6.356-1.3-9.54a4.221,4.221,0,0,0-.183-2.456c.023-1.98-.885-3.836-.78-5.828a7.23,7.23,0,0,0,.317-3.487c-.509-6.049-.724-12.135-2-18.1a91.729,91.729,0,0,0-10.138-27.07c-.225-.389-.4-.777-.94-.737-.565-.288-1.255-.307-1.744-.776.076-1.1.991-1.521,1.713-2.067,5.32-4.022,10.895-7.611,17.233-9.849,1.342-.474,1.572-1.171,1.107-2.538a7.005,7.005,0,0,1,2.332-8.349,2.887,2.887,0,0,1,2.9-.8c.153.458.142.908.691,1.265a31.1,31.1,0,0,1,5.316,4.292,14.506,14.506,0,0,1-3.551-4,5.451,5.451,0,0,0-2.353-2.257c-1.085-1.976-.738-3.976-.008-5.932,1.285-3.443,3.885-5.691,7-7.428,4.243-2.368,8.921-2.97,13.655-3.155,2.212-.086,4.468-.354,6.662.311a4.629,4.629,0,0,1,1.889,4.883,1.506,1.506,0,0,1-.351.531c-1.058.714-2.268.5-3.431.525-3.588.064-7.212-.307-10.7.863-2.01.674-4.049,1.343-4.869,3.624-.58,1.691.031,3.224.635,4.754.381.965,1.092,1.76,1.435,2.746a5.372,5.372,0,0,0,2.257,3.9c6.423,5.189,12.615,10.669,19.484,15.292,1.016.684,2.152,1.4,1.712,2.972a7.73,7.73,0,0,1-.922,1.348,2.882,2.882,0,0,0,.324,3.69c.5.6,1.234,1.025,1.346,1.9a1.144,1.144,0,0,1-1.546,1.146c-2.1-.663-4.315-.343-6.429-.911a22.975,22.975,0,0,1-6.069-2.734,4.47,4.47,0,0,0-2.58-.923,50.2,50.2,0,0,1-11.625-6.905c3.277,2.507,5.907,5.149,8.848,7.436a43.725,43.725,0,0,0,19.983,8.462,4.072,4.072,0,0,1,1.945.546,7.283,7.283,0,0,1,1.107,5.143,14.52,14.52,0,0,1-4.444,9.753,2.9,2.9,0,0,0-1.084,1.632,15.023,15.023,0,0,0,6.19-11.761c.075-1.335-.312-2.746.573-3.971a3.083,3.083,0,0,1,2.479-.508,82.991,82.991,0,0,0,10.577.616c.787-.021,1.642-.151,2.235.6.667,1.414.326,2.925.373,4.395a16.157,16.157,0,0,0,3.649,10.119,6.276,6.276,0,0,0,.888.948.567.567,0,0,0,.617.076c.182-.694-.449-1.021-.794-1.451a16.223,16.223,0,0,1-3.429-13.246,2.722,2.722,0,0,1,.8-1.826c6.2.261,11.506-2.394,16.779-5.17a59.993,59.993,0,0,0,15.421-11.51,20.526,20.526,0,0,0,3.742-4.949,17.316,17.316,0,0,0-4.666,1.836c-3.419,1.893-6.684,4.029-9.922,6.21a6.634,6.634,0,0,1-2.46,1.269,6.412,6.412,0,0,0-3.178,1.349,46.653,46.653,0,0,1-7.777,3.282,2.124,2.124,0,0,1-2.782-.715,2.6,2.6,0,0,1-.327-1.04c-.147-1.338-.73-2.241-2.225-2.035a2.2,2.2,0,0,0-2.045,2.56,6.248,6.248,0,0,1-.005,1.282,3.012,3.012,0,0,1-2.486,3.021,5.231,5.231,0,0,0-1.359.579c-4.493,2.72-9.06,2.167-13.678.376a7.156,7.156,0,0,1-2.194-1.335,2.236,2.236,0,0,1-.531-2.687,23.177,23.177,0,0,0,.849-3.177,2.23,2.23,0,0,1,2.025-1.543c2.118.473,3.653,1.979,5.386,3.117,2.055,1.349,2.305,1.409,4.24-.008,2.037-1.492,4-3.08,5.905-4.736a8.312,8.312,0,0,1,.823-.65,9.2,9.2,0,0,1,2.787-1.948c1.824-.606,3.109-2.017,4.525-3.179,3.774-3.1,8.135-5.382,11.851-8.507,2.466-2.074,5.343-3.849,6.861-6.907.538-.832,1.206-1.565,1.777-2.372,2.757-3.9,1.438-8.163-3.064-9.811-2.655-.972-5.474-.809-8.228-1.07-1.164-.11-2.346.009-3.518-.041a2.6,2.6,0,0,1-2.192-.768c-.571-1.074-.157-2.2-.178-3.3a1.09,1.09,0,0,1,.568-.822c7.882-.523,15.6-.225,22.378,4.594a5.673,5.673,0,0,1,2.12,2.277c2.377,4.618,1.932,8.96-1.38,12.948a67.572,67.572,0,0,1-15.348,13.376c-2.052,1.336-4.1,2.684-6.165,4,5.513-3.442,10.84-7.159,16.123-10.939a76.43,76.43,0,0,0,7.407-6.2c.66-.612,1.232-1.46,2.351-1.2,3.909-.13,6.315,2.82,5.394,6.686-.262,1.1-.366,1.869,1.068,2.192,7.689,1.731,14.1,5.93,20.289,10.571a41.634,41.634,0,0,1,7.225,7.184" transform="translate(-1065.954 -1433.435)" fill="#fec53d"/>
          <path id="Trazado_1057682" data-name="Trazado 1057682" d="M1875.081,634.333a51.332,51.332,0,0,1-3.875,13.914c-3.738,6.118-8.939,10.384-15.932,12.185-9.466,2.439-18.972-2-24.163-9.626a6.6,6.6,0,0,0-2.247-2.744c-2.621-3.342-3.784-7.279-4.583-11.353-.117-.6-.216-1.205-.366-1.8-.153-1.271-.618-2.484-.723-3.766-.125-2.115-.8-4.13-1.119-6.209.282-2.523-.613-4.892-1.005-7.321-.763-4.73-1.408-9.451-.61-14.242a9.277,9.277,0,0,1,.266-1.274c.55-1.745,1.451-2.182,3.09-1.392a29.685,29.685,0,0,0,3.746,1.641,7.675,7.675,0,0,0,8.8-2.677,21.809,21.809,0,0,0,3.031-5.735c.877-2.215,1.5-2.593,3.842-2.048a12.266,12.266,0,0,0,11.562-2.966c.591-.526,1.211-1.312,2.071-.981,1,.384,1.039,1.457,1.109,2.386a6.37,6.37,0,0,1-.96,3.911,9.25,9.25,0,0,1-4.172,3.579c-.689.315-1.871.23-1.908,1.193-.042,1.074.948,1.673,1.826,2.162a7.48,7.48,0,0,0,5.787.4,15.363,15.363,0,0,0,9.385-6.555,10.145,10.145,0,0,1,1.673-2.225c.736-.65,1.33-.589,1.665.42a1.21,1.21,0,0,1,.092.36c.03,3.685,1.951,5.98,5.262,7.345a2.824,2.824,0,0,1,1.5,2.423c.567,3.41.062,6.8-.25,10.175-.113,1.227-.105,2.471-.312,3.693-.374,3.284-.881,6.552-.961,9.862-.455,2.434-.1,5.038-1.518,7.271" transform="translate(-1704.291 -550.459)" fill="#febd84"/>
          <path id="Trazado_1057683" data-name="Trazado 1057683" d="M1648.017,334.773a37.839,37.839,0,0,1,.913-7.24c1.009-7.735,3.075-15.276,4.184-22.993-.6,4.091-1.409,8.144-2.3,12.181-.1.435.116,1.269-.86.966-.024-.007-.033-.1-.029-.148a.939.939,0,0,1,.053-.178c.295-4.577.939-9.141.417-13.747-.089-.786-.125-1.462-1.039-1.731-4.143-1.22-5.763-4.195-5.736-8.3a5.111,5.111,0,0,0-.158-.763c-.854,1.292-1.533,2.432-2.32,3.49a16.019,16.019,0,0,1-11.723,6.761,6.444,6.444,0,0,1-6.491-3.137c-.631-1-.736-1.59.76-1.784a7.635,7.635,0,0,0,4.943-2.722,6.711,6.711,0,0,0,1.163-6.93c-.872.756-1.619,1.48-2.442,2.1a12.63,12.63,0,0,1-12.113,2.173c-1.195-.39-1.635-.18-1.978.988a19.444,19.444,0,0,1-3.057,6.335c-2.85,3.768-6.246,4.778-10.648,3.13a21.36,21.36,0,0,1-2.685-1.275c-2.224-1.21-2.309-1.2-2.746,1.421-.917,5.486-.091,10.883.863,16.274a21.666,21.666,0,0,1,.586,5.531c-1.231.085-1.281-1-1.559-1.713-1.988-5.115-3.4-10.414-4.9-15.682a15.309,15.309,0,0,1-.537-1.967c2.051,8.822,5.463,17.211,8.143,25.833a10.331,10.331,0,0,1,.645,3.683,5.279,5.279,0,0,1-2.356,3.923,1.556,1.556,0,0,1-1.873.187,4.294,4.294,0,0,1-1.036-2.137c-3.285-10.373-6.28-20.831-9.127-31.332-.353-1.3-.591-2.673-1.789-3.554.595-2.958-.529-5.214-2.69-7.209-1.306-1.206-1.141-2.9.174-4.9a4.317,4.317,0,0,1,3.046-2.18,6.862,6.862,0,0,1,2.294,1.158c1.6.882,1.836.833,2.58-.923a27.129,27.129,0,0,1,8.922-11.38,38.948,38.948,0,0,1,19.378-8.454,45.206,45.206,0,0,1,23.44,2.355,36.866,36.866,0,0,1,9.941,6.112,50.184,50.184,0,0,1,6.865,8.476c.627.911,1.068,1.71,2.14.439a1.346,1.346,0,0,1,1.995-.177,3.746,3.746,0,0,1,.747,2.607c.04,1.173-.031,2.348.041,3.519.16,2.6,1.034,4.807,3.449,6.166.694.39,1.519.842,1.174,1.836s-1.289,1.032-2.173,1.043a4.059,4.059,0,0,1-2.124-.567c-1.164-.683-1.552-.09-1.679.979q-2.977,15.879-5.578,31.818c-.143.862-.044,1.736-.173,2.592-.163,1.084-.1,2.253-1.028,3.085-1.863-.8-2.861-2.446-3.912-4.037" transform="translate(-1477.227 -250.898)" fill="#201f51"/>
          <path id="Trazado_1057684" data-name="Trazado 1057684" d="M2775.053,793.154c1.177,0,2.03.856,3.089,1.166a1.666,1.666,0,0,1,.77,1.994q-2.388,12.579-4.666,25.179a50.026,50.026,0,0,0-.742,5.138,2.885,2.885,0,0,1-2.469,2.956,14.977,14.977,0,0,0-1.9.69c-.948-1.055-.744-2.328-.562-3.534,1.6-10.631,3.465-21.215,5.721-31.729a3.837,3.837,0,0,1,.76-1.861" transform="translate(-2592.281 -742.691)" fill="#3659ac"/>
          <path id="Trazado_1057685" data-name="Trazado 1057685" d="M4196.1,2743.688c1.659-1.805.39-3.392.419-4.889.022-1.135-.812-2.672.16-3.31,1.071-.7,2.577-.095,3.831.519,4.322,2.115,4.462,2.819,1.132,6.151a12.566,12.566,0,0,1-4.936,3.428,13.141,13.141,0,0,0-3.334,2.3,2.085,2.085,0,0,1-2.721.025c-1.732-1.183-3.028-2.711-2.836-4.851a7.729,7.729,0,0,1,4.161-6.413,1.26,1.26,0,0,1,.173-.068c2.452-.885,3.132-1.81,3.084,2a29.677,29.677,0,0,0,.866,5.108" transform="translate(-3921.351 -2561.152)" fill="#93cdf8"/>
          <path id="Trazado_1057686" data-name="Trazado 1057686" d="M1993.029,1539.225c1.526,1.532,2.96,3.17,4.593,4.577,8.685,7.482,21,7.143,29.567-.821,2.034-1.891,3.88-3.984,5.813-5.985a.321.321,0,0,0,0,.308q-.082.393-.165.788c-2.048,8.121-11.207,15.485-19.556,15.617-1.694.027-3.475.668-5.1-.389-5.453-1.362-9.377-4.83-12.651-9.192-.7-.938-1.353-1.918-2.041-2.868a1.921,1.921,0,0,1-.463-2.036" transform="translate(-1866.086 -1439.207)" fill="#1a1749"/>
          <path id="Trazado_1057687" data-name="Trazado 1057687" d="M2753.949,787.436a4.127,4.127,0,0,1-.113,2.362c-2.106,10.119-4,20.275-5.49,30.505-.2,1.4-.215,2.835-.315,4.255-.674.4-1.331.9-2.151.326.671-9.993,2.991-19.731,4.586-29.582.377-2.326.8-4.646,1.214-6.966.083-.464-.012-1.028.559-1.289l1.71.389" transform="translate(-2571.177 -736.973)" fill="#f9d444"/>
          <path id="Trazado_1057688" data-name="Trazado 1057688" d="M2927.308,885.72q.066.214.131.428c-.093,1.453,1.445,2.462,1.087,3.988-.39,3.019-1.535,5.849-2.2,8.8-.749,3.324-1.649,6.614-2.219,9.977a3.315,3.315,0,0,1-.787,1.845,5.226,5.226,0,0,1-1.795,1.146c-.9-.641-.766-1.62-.8-2.531-.211-5.048.876-9.946,1.771-14.862a41.789,41.789,0,0,1,1.7-7c.342-.93.641-2.124,2.121-1.829a.853.853,0,0,0,.992.033" transform="translate(-2734.872 -829.294)" fill="#395cad"/>
          <path id="Trazado_1057689" data-name="Trazado 1057689" d="M2648.086,1661.793c-3.434,2.925-6.692,6.047-10.392,8.67-5.363,3.8-10.954,7.236-16.557,10.657-.189.116-.41.318-.738.007a11.1,11.1,0,0,1,3.07-2.23,108.214,108.214,0,0,0,17.812-14.229c3.917-3.945,5.774-8.261,3.936-13.754a5.063,5.063,0,0,1-.118-1.106,10.912,10.912,0,0,1,3.155,9.427,5.989,5.989,0,0,0-.167,2.557" transform="translate(-2453.68 -1544.843)" fill="#eea12e"/>
          <path id="Trazado_1057690" data-name="Trazado 1057690" d="M3168.273,1480.755c-3.161-.008-3.9-.472-4.4-2.521-.375-1.533,1.047-4.388,2.464-5.215.627-.365.894.207,1.348.256a5.132,5.132,0,0,1,3.794,2.675c1.566,2.482.9,4-1.928,4.629a11.611,11.611,0,0,1-1.277.175" transform="translate(-2962.517 -1379.187)" fill="#92cefa"/>
          <path id="Trazado_1057691" data-name="Trazado 1057691" d="M2889.879,835.577c-1.088.415-1.26,1.463-1.555,2.372a65.34,65.34,0,0,0-3.235,23.847l-3.306,2.318c.955-4.928,1.874-9.453,2.7-13.994,1.064-5.84,2.144-11.676,3.477-17.462l.354-.531a3.978,3.978,0,0,0,1.563,3.45" transform="translate(-2698.434 -779.185)" fill="#222b70"/>
          <path id="Trazado_1057692" data-name="Trazado 1057692" d="M3809.391,2407.467a1.983,1.983,0,0,1-2.272-1.2,3.82,3.82,0,0,1,.554-4c1.738-2.16,6.044-1.68,7.378.74a1.308,1.308,0,0,1-.2,1.694,8.142,8.142,0,0,1-5.456,2.771" transform="translate(-3564.591 -2248.132)" fill="#95d0fb"/>
          <path id="Trazado_1057693" data-name="Trazado 1057693" d="M2961.342,976.92c-.248-2.52.672-4.857,1.2-7.244a107.113,107.113,0,0,1,3-11.428,4.746,4.746,0,0,1,1.011-1.951c.667,1.583.165,3.186.027,4.766a47.075,47.075,0,0,1-3.246,13.858c-.394.961-.872,1.78-1.986,2" transform="translate(-2772.892 -895.454)" fill="#f1d043"/>
          <path id="Trazado_1057694" data-name="Trazado 1057694" d="M3010.485,1321.522c1.655-1.656,1.449-3.7,1.367-5.716-.036-.89.614-1.118,1.25-1.385,2.34-.979,4.694-1.929,7.012-2.958,1.1-.488,1.513-.21,1.388.95-.17,1.577-.358,3.152-.55,4.835-.712-.252-.739-.755-.855-1.194-.629-2.4-.629-2.4-2.856-1.586-.581.212-1.148.472-1.74.645-1.555.455-2.439,1.308-2.157,3.082.321,2.017-1.473,2.476-2.86,3.327" transform="translate(-2818.948 -1227.809)" fill="#cff2fa"/>
          <path id="Trazado_1057695" data-name="Trazado 1057695" d="M4201.789,2252.012c-1.408.064-1.958-.732-1.891-1.611a2.212,2.212,0,0,1,2.325-1.988c1.077-.008,2.319.8,2.219,1.843-.139,1.454-1.8,1.38-2.653,1.755" transform="translate(-3932.681 -2105.362)" fill="#98d0fa"/>
          <path id="Trazado_1057696" data-name="Trazado 1057696" d="M1703.36,3642.356c-5.726-4.432-11.409-8.924-17.558-12.774-2.045-1.574-2-2.071.438-3.045a40.4,40.4,0,0,0,7.142-3.567c3.236-2.1,7.019-1.766,10.618-2.2a2.351,2.351,0,0,1,1.9,1.027,6.908,6.908,0,0,0,3.521,3.1c3.445.962,6.8,2.252,10.354,2.791a38.859,38.859,0,0,0,18.257-1.833c1.31-.435,2.65-.525,3.946-.9.74-.11,1.6-.3,2.008.485.393.755-.177,1.438-.648,2a33.014,33.014,0,0,1-8.841,7.606c-5.89,3.363-11.991,6.252-18.909,6.833a8,8,0,0,1-2.221,0c-2.62-.512-5.292-.651-7.913-1.1-1.5-.254-2.153.046-2.093,1.583" transform="translate(-1577.171 -3390.39)" fill="#f3a630"/>
          <path id="Trazado_1057697" data-name="Trazado 1057697" d="M1966.438,3648.8a.994.994,0,0,1-.048-.179c-.062-.8-1.594-1.138-.942-1.941.584-.72,1.741-.329,2.652-.2,3.17.44,6.339,1.254,9.507,1.248a27.473,27.473,0,0,0,10.428-2.321c4.625-1.926,9.205-3.989,13.086-7.258a28.746,28.746,0,0,0,5.722-5.982c-.578-.546-1.147-.25-1.667-.3-1.681.186-3.363.336-5.033.653a3.605,3.605,0,0,1-2.982-.468c-.514-.962.351-.992.856-1.181a5.676,5.676,0,0,1,2.017-.169c3.33-.007,6.662-.07,9.989.018a8.95,8.95,0,0,0,7.186-2.715,2.589,2.589,0,0,1,1.958-.315,24.647,24.647,0,0,1,7.059,2.182,1.99,1.99,0,0,1,1.387,1.6,84.785,84.785,0,0,0-16.882,7.7c-.637.375-1.247.8-1.869,1.2a127.175,127.175,0,0,0-13.87,9.036c-2.573,1.836-5,3.872-7.73,5.493a32.121,32.121,0,0,1-13.263-.37q-3.058-2.34-6.117-4.678c-.472-.36-.962-.7-1.443-1.045" transform="translate(-1840.248 -3396.831)" fill="#ed992f"/>
          <path id="Trazado_1057698" data-name="Trazado 1057698" d="M1382.879,2658.424h10.65c-5.346-6.619-6.142-14.312-6.576-22.049a86.694,86.694,0,0,0-4.092-23.1,12,12,0,0,1-.586-2.864c1.576,4.48,4.117,8.514,5.716,12.975,2.9,8.08,7.6,14.833,14.81,19.679a3.7,3.7,0,0,1,1.324,1.269.824.824,0,0,1,.03,1.022c-.921,1.36-1.841,2.721-2.708,4.117a1.115,1.115,0,0,1-1.088.543c-1.106-.578-1.588-1.708-2.276-2.642a75.942,75.942,0,0,1-5.8-8.858,6.21,6.21,0,0,0-1.562-1.821,28.546,28.546,0,0,0,3.674,11.695c1.143,1.986,2.521,3.826,3.567,5.869-.172,2.184-1.916,3.333-3.233,4.712-.922.966-1.986,1.819-2.957,2.757a2.331,2.331,0,0,1-1.5.664,1.275,1.275,0,0,1-.906-.594c-.318-.5.021-1.385-.721-1.577-.688-.178-1.069.509-1.473.941-2.7,2.892-4.87,6.032-4.881,10.235,0,1-.037,2.158-1.316,2.592l-1.56-.54c.8-1.824.285-3.833.8-5.7-.548-1.959.609-3.454,1.409-5.03a17.942,17.942,0,0,1,2.456-2.963c-.164-.7-1.484-.275-1.2-1.332" transform="translate(-1291.646 -2444.324)" fill="#f3a42f"/>
          <path id="Trazado_1057699" data-name="Trazado 1057699" d="M1528.467,3413.2l1.12-.714a1.607,1.607,0,0,1,.426,1.537c-.309,3.69.731,7.124,2.086,10.471,1.423,3.512,3.284,4.341,6.915,3.222a32.987,32.987,0,0,0,5.509-2.676c1.689-.888,3.251-1.409,5.267-.523,1.689.742,3.648-.178,5.5-.225.614-.015,1.226-.179,1.848-.152,1.365.058,2.121.627,1.766,2.122a1.275,1.275,0,0,1-.578,1.039c-1.506-2.034-3.454-.522-5.159-.54a15.19,15.19,0,0,0-9.1,3.183,23.57,23.57,0,0,1-4.741,2.088c-2.157.9-2.16.89-.839,2.533l-8.153-4.624c-3.256-4.64-3.574-9.9-3.2-15.3.05-.732.308-1.512,1.344-1.442" transform="translate(-1429.848 -3195.375)" fill="#f69b6c"/>
          <path id="Trazado_1057700" data-name="Trazado 1057700" d="M1403.922,3391.434c1.171-1.768.533-3.865,1.061-5.771.984-3.552,3.369-6.116,5.757-8.7a1.061,1.061,0,0,1,1.519-.078,1.727,1.727,0,0,1,.214,2.358,5.478,5.478,0,0,1-.7,1.9,15.1,15.1,0,0,0-.26,10.692c.3.9.861,1.834.221,2.831l-7.816-3.23" transform="translate(-1314.6 -3161.772)" fill="#fdc33d"/>
          <path id="Trazado_1057701" data-name="Trazado 1057701" d="M1499.914,3433.536c-1.155-3.459-2.4-6.887-1.536-10.66a8.952,8.952,0,0,1,2.271-4.76l.745.356c-.793.439-.717,1.2-.748,1.943-.2,4.912.3,9.684,2.693,14.1.09.167-.051.46-.085.694l-3.34-1.677" transform="translate(-1402.776 -3200.644)" fill="#ea744b"/>
          <path id="Trazado_1057702" data-name="Trazado 1057702" d="M2102.214,4045.264c1.2-.794,2.382.07,3.577.047,2.511-.048,5.024-.012,7.537-.013a4.106,4.106,0,0,1,2.15.336c-1.884,1.919-4.237,3.243-6.29,4.946a73.8,73.8,0,0,1-6.974-5.317" transform="translate(-1968.464 -3787.576)" fill="#e17f25"/>
          <path id="Trazado_1057703" data-name="Trazado 1057703" d="M2517.713,3096.4c-3.057-2.055-6.532-2.843-10.1-3.344a2.14,2.14,0,0,1-2.134.079,60.29,60.29,0,0,1-10.29-4.3,5.979,5.979,0,0,1-3.131-3.286c-.337-1.037-.54-2.094.72-2.734a47.744,47.744,0,0,0,8.905,2.383,63.357,63.357,0,0,0,13.681.322,4.525,4.525,0,0,0,2.981-1.237.579.579,0,0,0-.727-.205c-2.923,2.207-6.342,1.713-9.613,1.632a48.5,48.5,0,0,1-10.833-1.394c-1.56-.4-2.9-1.417-4.545-1.517-1.765-.129-2.751-1.318-3.482-2.713a3,3,0,0,1,.211-3.492c.9-1.1,2.068-.9,3.234-.517a10.015,10.015,0,0,0,5.355,1.239,54.772,54.772,0,0,0,16.7-2.015,9.82,9.82,0,0,0,4.356-2.322c-2.353.809-4.352,1.609-6.4,2.259-5.786,1.84-11.663,2.723-17.733,1.658a11.454,11.454,0,0,1-2.425-.861,2.578,2.578,0,0,1-2.064-3.062,3.781,3.781,0,0,1,3.31-3.293c2.153-.219,4.32-.347,6.481-.472a50.2,50.2,0,0,0,8.05-1.332,2.236,2.236,0,0,0,2.03-2.584c-.071-2.229-.038-4.463,0-6.7.013-.857-.055-1.762.74-2.386a4.11,4.11,0,0,0,2.662,2.763c1.946.851,3.3,2.793,5.583,3.061a3.2,3.2,0,0,1,2.49,1,26.493,26.493,0,0,1,6.326,6.933,20.06,20.06,0,0,0,6.9,6.51c3.382,3.7,4.089,8.091,3.225,12.828-.287,1.569-1.118,3.092.361,4.481-7.108-.484-13.983.9-20.814,2.615" transform="translate(-2330.347 -2861.762)" fill="#fdbe87"/>
          <path id="Trazado_1057704" data-name="Trazado 1057704" d="M2983.965,2807.909c-4.056-1.438-5.947-5.073-8.309-8.219a25.962,25.962,0,0,0-6.925-6.409c8.179-5.87,12.54-14.006,14.131-23.787,1.2-.754,1.855.058,2.4.917a8.392,8.392,0,0,1,.928,3.187c1,5.713.732,11.479.755,17.233,0,.991-.061,1.986.04,2.971a3,3,0,0,0,1.52,2.772c.879,1.059.69,2.319.532,3.509-.227,1.7-.243,3.411-.544,5.1a2.087,2.087,0,0,0,.522,2.2,12.8,12.8,0,0,0,1.048,1.089c4.1,4.493,4.06,9.993,3.741,15.542a1.861,1.861,0,0,1-1.339,1.828,2.474,2.474,0,0,1-1.425-.38c-.523-.575-.38-1.277-.366-1.952a43.46,43.46,0,0,0-.035-6.142c-.521-4.3-2.214-7.885-6.675-9.457" transform="translate(-2779.85 -2593.01)" fill="#ec962f"/>
          <path id="Trazado_1057705" data-name="Trazado 1057705" d="M3285.41,3369.469l-.723-.582c1.361-1.29,2.716-.7,4.07.011l2.225.929c3.112,2.454,4.08,5.93,4.582,9.626a1.854,1.854,0,0,1-.431,1.56c.175,2.74-.337,5.447-.384,8.177l-3.373-1.554c-.285-4.518-.678-9.018-2.453-13.258a10.346,10.346,0,0,0-3.513-4.91" transform="translate(-3075.704 -3153.833)" fill="#fde366"/>
          <path id="Trazado_1057706" data-name="Trazado 1057706" d="M3208.176,3376.763c2.763-.419,4.189,1.372,5.4,3.372,2.7,4.458,2.319,9.31,1.672,14.179a9.659,9.659,0,0,1-3.01-.428,1.2,1.2,0,0,0-1.007-.371c-1.029-.019-1.272-.416-.88-1.413a14.7,14.7,0,0,0-2.178-15.34" transform="translate(-3004.061 -3161.864)" fill="#fec33f"/>
          <path id="Trazado_1057707" data-name="Trazado 1057707" d="M3296.056,3389.241c2.894,1.278,3.817,4.047,4.849,6.642,1.286,3.232,1.266,6.746,1.835,10.134a1.429,1.429,0,0,1-.718,1.393l-3.056-.973c1-1.621.9-3.432.8-5.2-.244-4.293-.385-8.641-3.709-11.992" transform="translate(-3086.349 -3173.605)" fill="#f8be3c"/>
          <path id="Trazado_1057708" data-name="Trazado 1057708" d="M153.205,881.511c2.133-.552,2.741-2.572,3.9-4.057.4,1.618.82,3.232,1.211,4.852a23.648,23.648,0,0,0,3.813,8.191.543.543,0,0,1-.091.724c-5.878-.033-11.77-.163-17.4,1.953a16.082,16.082,0,0,0-8.58,6.738,8.614,8.614,0,0,0-.779,7.319c.145.435-.068.684-.441.849-4.2.468-6.525,4.862-4.736,8.944.934,2.131.936,2.136-1.284,2.939a64.867,64.867,0,0,0-19.328,11.511,2.821,2.821,0,0,1-2.218,1.879c-2.4,1.843-3.988,4.387-5.708,6.793-7.19,10.06-13.3,20.792-19.444,31.5-3.885,6.77-7.851,13.494-11.781,20.239-2.351-.749-4.138-2.419-6.044-3.846a92.166,92.166,0,0,1-11.812-10.172c-4.83-5.093-9.347-10.435-12.089-17.013a8.093,8.093,0,0,1-.69-4.5c.312-1.96-.16-3.949-.209-5.916a49.772,49.772,0,0,1,3.1-19.31,81.405,81.405,0,0,1,37.35-41.054,140.279,140.279,0,0,1,23.51-9.262,128.069,128.069,0,0,1,18.353-4.646c4.579-.686,9.127-1.653,13.785-1.729.732.928,1.082,2.253,2.531,2.438A4.428,4.428,0,0,0,140,878.625c.816-.288,1.528.241,2.478.453-3.113-7.755-4.03-15.938-7.021-23.521a11.552,11.552,0,0,1-.943-5.382c-.05-.608-.553-1.135-.325-1.794A1.8,1.8,0,0,1,136.546,847c1.224.808,1.346,2.177,1.658,3.413,2.062,8.174,4.226,16.32,6.588,24.413.052.178.088.361.14.54,1.378,4.778,1.378,4.778,6.3,5.843a5.417,5.417,0,0,1,1.976.3" transform="translate(-36.966 -793.027)" fill="#63b2f2"/>
          <path id="Trazado_1057709" data-name="Trazado 1057709" d="M908.53,2792.163c.573.636.262,1.43.385,2.146a2.826,2.826,0,0,0-1.412,2.039c-1.382,4.991-3.383,9.8-4.427,14.894a3.5,3.5,0,0,1-.714,1.492c-1.187.906-2.526.671-3.853.52a10.989,10.989,0,0,1-3.828-2.2c-4.189-3.194-7.959-6.881-12.04-10.2a19.5,19.5,0,0,1-3.208-3.833l-3.372-3.72c.5-1.333,1.013-.265,1.373.057,2.21,1.976,4.152,4.28,6.676,5.868,3.219,2.025,5.825,4.8,8.872,7.018a3.43,3.43,0,0,0,5.271-1.791c.865-2.712,1.005-5.555,1.461-7.8-.143,1.077-1.21,1.652-2.656,1.69a8.023,8.023,0,0,1-5.129-1.9c-3.985-3.042-6.929-7.021-9.842-11.023a7.694,7.694,0,0,0-1.159-1.44c-1.548-1.774-2.386-3.96-3.477-6.026,3.866,3.8,6.908,8.375,11.311,11.624,2.63.334,3.991-1.627,5.513-3.172.641-.65.044-1.537-.3-2.251-1.166-2.4-2.185-4.864-3.3-7.285-.334-.724-.754-1.556-.021-2.238.641-.6,1.418-.2,2.11.042,1.7.6,3.323,1.375,4.986,2.06,1.751.721,3.357.8,4.789-.676a1.578,1.578,0,0,1,1.68-.537c.935.538,1.01,1.492,1.161,2.409.732,4.453,1.861,8.828,2.668,13.266a1.377,1.377,0,0,0,.49.971" transform="translate(-820.322 -2597.804)" fill="#e9902b"/>
          <path id="Trazado_1057710" data-name="Trazado 1057710" d="M558.175,3131.2c3.78,3.342,7.531,6.716,11.349,10.014a45.547,45.547,0,0,0,7.3,5.588,3.534,3.534,0,0,1-4.469.069,90.529,90.529,0,0,0-30.307,4.391c-2.332.786-4.784,1.218-7.185,1.8-.605.146-1.292.3-1.719-.292-.46-.635.108-1.187.394-1.689a22.12,22.12,0,0,1,9.743-8.812,79.954,79.954,0,0,1,15.382-5.406c1.334-.359,1.536-.959,1.139-2.142-.416-1.24-1.434-2.188-1.631-3.52" transform="translate(-499.065 -2931.981)" fill="#f3a52f"/>
          <path id="Trazado_1057711" data-name="Trazado 1057711" d="M1016.466,2214.4c-.122.024-.3.006-.356.081-2.423,3.3-5.246,2-8.081.729-1.187-.533-2.384-1.049-3.6-1.512-.361-.138-.837-.518-1.191-.061-.315.407.045.824.221,1.2,1.251,2.692,2.452,5.409,3.794,8.055.7,1.373.652,2.376-.594,3.4a31.107,31.107,0,0,0-3.053,2.375,1.585,1.585,0,0,1-2.423-.467c.554-.6.28-1.247.19-1.925-.737-5.519-3-10.556-4.879-15.72-.962-2.646-.06-3.851,2.653-4.406,3.727-.763,7.076.686,10.5,1.552,2.287.578,2.583.5,2.734-1.97.351-5.729-1.12-11.162-2.562-16.6-.269-1.013-.723-1.983-.936-3.006-.575-2.758-2.273-4.736-4.294-6.53a3.544,3.544,0,0,1-1.537-2.838,4.527,4.527,0,0,1,2.218-1.879c.564-.127,1.1-.163,1.486.4.646.1.888.618,1.132,1.123a83.027,83.027,0,0,1,6.614,17.533,5.99,5.99,0,0,1,.2,1.658,13.062,13.062,0,0,0,.628,4.923c.876,3.976.862,8.062,1.679,12.038a1.715,1.715,0,0,1-.542,1.85" transform="translate(-932.746 -2036.435)" fill="#f3a62f"/>
          <path id="Trazado_1057712" data-name="Trazado 1057712" d="M617.524,3355.627l4.469-.069c1.39-.066,2.806.27,4.165-.271.575-.7,1.351-.43,2.08-.453,2.269-.069,4.6.466,6.759-.694l.465.7c.731.793,1.81.036,2.846.754a15.121,15.121,0,0,0-5.515,8.571c-2.77-1.734-1.05-3.889-.469-6.154-2.7.745-5.245,1.559-7.84,2.141-11.272,2.53-22.564,4.987-33.96,6.883a19.379,19.379,0,0,1-7.944-.232c-.531-.135-1.252-.132-1.357-.766-.117-.7.562-1.108,1.088-1.352,1.8-.831,3.609-1.64,5.464-2.328a106.319,106.319,0,0,1,21.59-5.272,68.744,68.744,0,0,0,8.16-1.457" transform="translate(-544.23 -3140.738)" fill="#fadf61"/>
          <path id="Trazado_1057713" data-name="Trazado 1057713" d="M726.9,2297.628c.113,2.307-1.2,4.046-2.516,5.658-6.3,7.727-12.113,15.827-18.181,23.731a49.791,49.791,0,0,1-4.271,4.412c-.209.211-.455.507-.794.335-.421-.213-.351-.651-.216-.979a17.54,17.54,0,0,1,1.047-2.179c4.047-6.889,8.03-13.816,12.2-20.628a59.221,59.221,0,0,1,8.372-11.332,5.066,5.066,0,0,1,.81-.766c.816-.511,1.628-1.441,2.651-.92,1,.51.912,1.667.9,2.667" transform="translate(-656.225 -2148.804)" fill="#fce265"/>
          <path id="Trazado_1057714" data-name="Trazado 1057714" d="M839.7,2926.166c2.042.835,2.75,2.918,4.029,4.44a47.954,47.954,0,0,0,7.679,7.785,7.1,7.1,0,0,0,4.3,1.556c1.886.007,2.489-.678,2.338-2.628a1.863,1.863,0,0,1,.024-.548c.023-.1.142-.178.328-.394.948,2.153.435,4.267.172,6.336-.171,1.343-.636,2.647-.9,3.983-.3,1.555-.888,2.78-2.761,2.562-1.136-.132-.669.909-1.032,1.36-3.083-1.754-5.464-4.312-8.22-6.383a76.551,76.551,0,0,1-9.475-8.343c-.338-.355-.68-1.032-1.353-.4-.766-.721-1.544-1.43-2.292-2.169-.288-.284-.767-.616-.34-1.077s.876-.223,1.276.17c1.941,1.91,3.9,3.791,5.928,5.621a27.879,27.879,0,0,0,8.678,5.584,9.431,9.431,0,0,0,4.205.348c.436-.029,1.093-.061,1.239-.617.138-.527-.337-.894-.678-1.246-2.672-2.755-5.548-5.316-7.948-8.331-1.918-2.41-4.047-4.676-5.2-7.608" transform="translate(-779.095 -2739.993)" fill="#f3a52f"/>
          <path id="Trazado_1057715" data-name="Trazado 1057715" d="M3395.627,2456.549c.658-1.51.217-3.171.648-4.725.16-.58-.376-.853-.945-.864-5.473-.106-8.335-3.835-10.765-7.966-3.418-5.813-2.808-12-1.3-18.21,1.763-7.266,5.72-13.37,10.176-19.218.838-1.1,1.383-1.155,2.046.1,4.464,8.434,8.952,16.917,10.681,26.389,1.633,8.953,1.478,17.92-3.243,26.124-2.29,3.979-5.376,7.276-10.143,8.378-.444.1-1.051.463-1.388-.038-.435-.646.276-.979.623-1.361a23.982,23.982,0,0,0,3.658-5.792,2.037,2.037,0,0,0-.125-2.113.462.462,0,0,1,.079-.7" transform="translate(-3166.88 -2251.735)" fill="#fec53d"/>
          <path id="Trazado_1057716" data-name="Trazado 1057716" d="M3387.788,3402.188a21.924,21.924,0,0,0-4.15-11.186c.88.076,1.758.755,2.641.011a.717.717,0,0,1,1.075-.061,104.737,104.737,0,0,1,19.75,1.551,1.889,1.889,0,0,1,1.421.273,33.742,33.742,0,0,0,6.145,2.569,24.043,24.043,0,0,1,7.552,4.6c.55.468,1.208.927.967,1.833a25.272,25.272,0,0,1,3.354,3.929c3.27,5.892,3,11.833-.243,17.682a15.8,15.8,0,0,1-2.953,3.785c-2.113,2.016-3.445,2.277-6.182,1.076a26.113,26.113,0,0,1-7.075-4.717q-9.383-8.563-18.342-17.575c-.868-.875-1.615-1.869-2.448-2.781-.411-.45-.807-.966-1.511-.984" transform="translate(-3168.359 -3175.008)" fill="#fec53c"/>
          <path id="Trazado_1057717" data-name="Trazado 1057717" d="M3768.559,3398.726a25.416,25.416,0,0,0-11.343-6.786,13.373,13.373,0,0,1-4.742-2.485c.576-1.442,1.984-1.387,3.131-1.578,6-1,11.613-.251,16.321,4.033,2.45,2.231,3.98,4.866,3.708,8.338-.108,1.386-.018,2.788-.018,4.622-2.557-2.349-3.839-5.395-7.057-6.144" transform="translate(-3513.729 -3171.961)" fill="#ea8320"/>
          <path id="Trazado_1057718" data-name="Trazado 1057718" d="M3292.1,2347.593c.785-.407.882-1.342,1.463-1.906.552.531.013.883-.218,1.274a99.5,99.5,0,0,0-10.341,22.732,73.259,73.259,0,0,0-3.275,18.545c-.053,1.964-.356,3.933-.329,5.914-.206.263-.139.581-.187.878-.182,1.111-.585.637-.986.124-.8-2.528.037-5.036.22-7.529.2-2.7.351-5.422.51-8.124a44.278,44.278,0,0,1,2.8-14.1c1.68-2.026,2-4.689,3.224-6.932a43.845,43.845,0,0,1,2.519-4.7c1.517-1.167,2.053-3.022,3.151-4.482.4-.535.62-1.211,1.205-1.608l.248-.087" transform="translate(-3069.337 -2196.447)" fill="#df7b1c"/>
          <path id="Trazado_1057719" data-name="Trazado 1057719" d="M3270.346,3151.7c-1.358.345-2.713-.21-4.071-.012-1.141-.092-1.356-.692-1.21-1.776a61.092,61.092,0,0,0,.807-9.6c-.984-1.039-.526-2.138-.143-3.237.408-.6.774-1.321,1.669-.626l2.948,15.248" transform="translate(-3057.292 -2936.631)" fill="#62addc"/>
          <path id="Trazado_1057720" data-name="Trazado 1057720" d="M3408.8,3228.46l-1.075.061c-.363-.051-.863.028-1.06-.18-.357-.377.146-.66.392-.846a97.907,97.907,0,0,0,10.848-10.1c.187-.192.405-.284.646-.07q-.038.352-.078.7a66.373,66.373,0,0,1-9.674,10.428" transform="translate(-3189.809 -3012.515)" fill="#de7b1c"/>
          <path id="Trazado_1057721" data-name="Trazado 1057721" d="M3279.819,3109.554c-.627-.268-.834.229-1.1.608-.5-.639-.735-1.229.3-1.582.787-.021.18-.983.769-1.137q.021,1.055.04,2.111" transform="translate(-3069.713 -2909.737)" fill="#ec962f"/>
          <path id="Trazado_1057722" data-name="Trazado 1057722" d="M1510.616,898.224q2.759,9.618,5.515,19.237a77.036,77.036,0,0,0,3.745,10.938,10.827,10.827,0,0,1-3.774-1.725,65.915,65.915,0,0,0-2.079-13.917,54,54,0,0,0-4.946-12.591,4.163,4.163,0,0,0,1.54-1.942" transform="translate(-1413.063 -841.076)" fill="#242d72"/>
          <path id="Trazado_1057723" data-name="Trazado 1057723" d="M2068.1,2753.083c-.029,3.349-.124,6.7-.055,10.045a1.864,1.864,0,0,1-1.669,2.176,54.5,54.5,0,0,1-14,1.741,4.33,4.33,0,0,0-3.165.786c-1.671,1.478-1.485,3.452.508,4.958.149.036.208.091.179.167s-.071.129-.113.129c-1.249-.059-2.663-.229-3.227,1.181-.6,1.5.132,2.772,1.315,3.757.616.512,1.276.971,1.916,1.453q.385.116.063.358c-.641,2.162-.172,3.4,1.917,4.811a36.7,36.7,0,0,0,7.19,3.326c1.882.75,3.839,1.313,5.763,1.958-1.031,2.612-3.31,3.149-5.708,3.238-4.131.154-8.269.143-12.4.218-.8.014-1.591.109-2.386.166-.569.864-1.47.827-2.335.831-5.77.026-11.541.063-17.309-.02-1.776-.026-3.521-.547-5.294-.752a5.333,5.333,0,0,1-3.353-3.046q0-.589.006-1.177a3.49,3.49,0,0,1,2.292-1.076,30.39,30.39,0,0,0,5.178-1.465,2.676,2.676,0,0,0,1.921-2.469,3.72,3.72,0,0,1,.772-2.064,2.579,2.579,0,0,0,.487-2.275,1.989,1.989,0,0,1,1.322-2.521c1.257-.58,2-1.416,1.569-2.93a1.59,1.59,0,0,1,.908-1.85c1.171-.744,2.032-1.731,1.768-3.2-.3-1.636-1.624-2.278-3.068-2.6-2.967-.655-6-.89-8.993-1.4-1.434-.247-3.008-.178-4.123-1.409a3.208,3.208,0,0,1-.235-1.634c.024-1.817.547-2.249,2.278-1.786a26.771,26.771,0,0,0,4.479,1.055,8.373,8.373,0,0,1,1.251.076,5.987,5.987,0,0,0,4.136-.133,8.773,8.773,0,0,0,2.447-.838,1.829,1.829,0,0,0,1.044-1.819c-.081-.848-.823-1.033-1.481-1.171-3.873-.806-7.718-1.737-11.582-2.586-2.525-.554-2.608-.652-2.583-3.152.047-4.82-.128-9.641.093-14.462,2.371-3.47,5.628-4.784,9.845-4.885q13.682-.327,27.362-.3a21.71,21.71,0,0,1,2.6.059c1.455.277,1.723,1.071.87,2.217a22.244,22.244,0,0,1-4.618,5.009c-2.517,1.828-4.177,4.512-6.267,6.77a100.678,100.678,0,0,0-6.422,7.886c-.7.4-1.406.781-2.133,1.123a6.3,6.3,0,0,0-3.28,6.493,6.578,6.578,0,0,0,6.3,5.3c.248,0,.5,0,.742-.014,2.978-.417,5.213-1.729,5.9-4.9a9.529,9.529,0,0,0,.334-3.248,2.879,2.879,0,0,1,1.344-2.117c6.085-5.142,11.824-10.655,17.488-16.252.672-.664,1.032-1.706,2.1-1.947q.053,7.1.107,14.208" transform="translate(-1887.465 -2558.636)" fill="#263173"/>
          <path id="Trazado_1057724" data-name="Trazado 1057724" d="M1591.132,2765.162c-.023,5.144-.023,10.288-.089,15.432-.012.948.5,1.106,1.216,1.258,4.364.919,8.728,1.845,13.081,2.813.776.172,1.873-.029,2.05,1.178a2.8,2.8,0,0,1-1.25,3.07,5.882,5.882,0,0,1-3.16.951,12.985,12.985,0,0,1-4.153,0l-1.086-.108c-.059-.25.111-.37.28-.489-2.528,0-4.773-1.163-7.164-1.714-2.165-.5-4.408-.886-6.5.393-.41.25-1.053.43-.978.99s.717.578,1.209.64c2.02.571,4.121.825,6.093,1.574a3.136,3.136,0,0,1,.682.55c3.924.613,7.85,1.219,11.772,1.844a13.709,13.709,0,0,1,2.178.481c1.431.477,2.578,1.285,2.727,2.951a3.559,3.559,0,0,1-1.967,3.706c-.806.427-1.109.668-.621,1.688.611,1.276-.389,2.666-2.178,3.341-.895.338-1.956.449-.8,1.7a1.081,1.081,0,0,1,.146.532c.09.56.225,1.294-.219,1.6-2.009,1.369-.477,4.919-3.738,5.629-2.537.552-5.023,1.361-7.611,1.719.291-.877.194-1.46-.949-1.349-1.661.162-3.336.216-4.983.465-1.41.212-2.749.681-3.954-.617-.467-.5-1.18-.11-1.74.168-2.216,1.1-4.417,2.233-6.645,3.31a10.2,10.2,0,0,1-3.045.776c-2.776.4-4.388-1.147-5.3-3.426-1.655-4.144-3.216-8.351-2.126-12.965,1.426-1.939,3.592-3.153,5-5.123a10.056,10.056,0,0,0,1.325-1.976,1.2,1.2,0,0,1,.327-.4,13.467,13.467,0,0,0,2.658-3.527c2.176-3.221,4.348-6.442,6.694-9.543,2.9-2.567,6.379-2,9.724-1.579,2.645.333,2.624.53,2.621-2.229-.006-4.768-.024-9.537-.022-14.3,0-.977-.117-2.012.818-2.719.784,1.191.333,2.26-.323,3.31" transform="translate(-1462.573 -2586.134)" fill="#fdbe86"/>
          <path id="Trazado_1057725" data-name="Trazado 1057725" d="M1965.884,1532.714l.09-.723c.5.913,1.61,1.4,1.776,2.547,3.269,5.427,7.025,10.352,13.192,12.788.692.273,1.394.52,2.092.779.25.487.412,1.017,1.019,1.247a20.7,20.7,0,0,1,1.943,1.085c5.343,2.723,8.76,2.13,13.1-2.006,2.708-2.583,4.419-5.783,6.167-8.989a9.611,9.611,0,0,1,1.124-1.917c.537-.6,1.108-.81,1.674-.01a7.371,7.371,0,0,1,.333,3.285,49.058,49.058,0,0,0,.832,9.921c.083,1.922,2,2.645,2.726,4.15.817,1.652.3,3.038-.778,4.384a23.773,23.773,0,0,0-2.4,3.242c-1.907,1.554-3.757,3.178-5.779,4.588a33.232,33.232,0,0,1-6.394,1.826,3.821,3.821,0,0,1-2.535-.082c-1.014-1.695.188-3.117,1.167-3.846,1.874-1.4.936-3.109,1.066-4.672.063-.761-.939-.658-1.491-.742-5.157-.781-9.616-3.118-13.8-6.091-4.942-3.513-8.471-8.274-11.726-13.276-.725-.94-.983-2.167-1.854-3.018a6.37,6.37,0,0,0-1.538-4.471" transform="translate(-1840.808 -1434.52)" fill="#f39a6d"/>
          <path id="Trazado_1057726" data-name="Trazado 1057726" d="M2381.957,2748.5c1.758-3.454,4.644-6.032,7.024-9,1.269-1.582,2.68-3.051,3.937-4.644.611-.775,1.515-1.03,2.214-1.6a29.146,29.146,0,0,0,4.317-5.04c.306-.391-.075-.5-.379-.581.14-.906.9-.964,1.543-1a27.292,27.292,0,0,1,5.54.071c2.893.421,4.382,2.036,4.739,5.007q.023.792.047,1.584a4.512,4.512,0,0,1-1.629,2.332c-1.549,1.326-2.932,2.849-4.375,4.3-4.364,4.388-9.033,8.442-13.7,12.5a1.7,1.7,0,0,0-.74,1.014c-.814.039-.979-.7-1.253-1.176a6.486,6.486,0,0,0-5.659-3.18c-.6-.04-1.256.069-1.63-.593" transform="translate(-2230.408 -2553.063)" fill="#2d408a"/>
          <path id="Trazado_1057727" data-name="Trazado 1057727" d="M2621.919,1622.659c-1.058-2.39-.753-4.974-1-7.469-.216-2.211-.082-4.456-.1-6.686a.228.228,0,0,1,.066-.364,63.206,63.206,0,0,1,12.774.756,7.99,7.99,0,0,1,4.829,2.947,6.569,6.569,0,0,1-.1,7.959c-.686.951-1.495,1.813-2.247,2.716-.948.792-1.4,2.213-2.906,2.3a34.624,34.624,0,0,1-9.125-.946,3.208,3.208,0,0,1-2.188-1.215" transform="translate(-2454.014 -1505.811)" fill="#e6791c"/>
          <path id="Trazado_1057728" data-name="Trazado 1057728" d="M3139.471,2487.41c-.449.461-.324,1.031-.3,1.582q-.211,1.628-.422,3.256c-.455.518-.88.619-1.291-.059a5.755,5.755,0,0,1-.956-3.13c.045-4.323.112-8.651-.015-12.971a47.5,47.5,0,0,0-1.121-8.951c-.254-1.138-.754-2.127-2.185-2.086,1.01-5.074-.111-9.932-1.427-14.791-.582-2.15-1.9-4-2.49-6.193a52.368,52.368,0,0,1,4.961,4.6,48.079,48.079,0,0,1,4.409,6.406c1.048,1.759,2.227,2.172,3.94,1.087.217-.138.425-.255.667-.057.4.379,0,.756,0,1.134a4.152,4.152,0,0,1-.348,1.8,34.864,34.864,0,0,0-2.279,11.571c-.368,5.6-.761,11.2-1.143,16.8" transform="translate(-2930.173 -2288.567)" fill="#f3a52f"/>
          <path id="Trazado_1057729" data-name="Trazado 1057729" d="M2472.488,2035.017c3.911-2.494,7.686-5.2,11.748-7.462a28.361,28.361,0,0,1,6.368-2.515c-.353,2.356-1.9,3.869-3.258,5.315a61.543,61.543,0,0,1-28,17.436,24.764,24.764,0,0,1-3.267.629,1.863,1.863,0,0,1-2.132-.73c-.858-1.271-.023-2.236.58-3.245,3.61-3.173,8.146-4.649,12.381-6.664,1.46-.695,2.807-1.566,4.223-2.323.44-.235.818-.56,1.36-.44" transform="translate(-2297.472 -1896.2)" fill="#f4a52e"/>
          <path id="Trazado_1057730" data-name="Trazado 1057730" d="M1679.471,1624.706a4.385,4.385,0,0,1,2.575-3.185,16.688,16.688,0,0,1,7.635-2.011c3.15-.116,6.307-.025,9.46-.023a1.876,1.876,0,0,1,.9,1.531,19.2,19.2,0,0,1-.9,10.143,1.861,1.861,0,0,1-.672.861c-1.677.74-3.38.34-5.091.132a31.577,31.577,0,0,1-9.077-2.441,7.893,7.893,0,0,1-4.833-5.007" transform="translate(-1572.617 -1516.418)" fill="#e6791c"/>
          <path id="Trazado_1057731" data-name="Trazado 1057731" d="M2070.84,2709.35c-1.35-3.386-2.8-4.406-6.486-4.366-1.778.02-3.585-.317-5.335.29-7.5.032-15-.045-22.493.146-3.463.089-6.933.123-10.393.31-2.555.138-4.5,1.567-6.186,3.4-.256.278-.263,1.152-1.031.6a7.051,7.051,0,0,1,.323-3.311,8.327,8.327,0,0,1,2.4-2.963,4.441,4.441,0,0,1,2.356-.381c13.209-.326,26.421-.493,39.635-.4a19.864,19.864,0,0,1,5.487.457c2.292,1.6,1.776,3.972,1.72,6.219" transform="translate(-1890.357 -2530.696)" fill="#487bc9"/>
          <path id="Trazado_1057732" data-name="Trazado 1057732" d="M1170.713,2193.136c-1.349-5.155-2.664-10.31-5.264-15.041a50.048,50.048,0,0,1-2.152-5.139c1.041-1.494,1.264.076,1.531.508a71.34,71.34,0,0,1,5.9,12.216,84.648,84.648,0,0,1,5.7,24.121c.254,3.578.76,7.139.668,10.738-.017.665.183,1.38-.344,1.96-.832-.219-.868-.932-1.025-1.6q-1.9-8.024-3-16.194c-.454-3.3-1.129-6.548-1.895-9.78a2.94,2.94,0,0,1-.115-1.794" transform="translate(-1089.285 -2034.115)" fill="#fce267"/>
          <path id="Trazado_1057733" data-name="Trazado 1057733" d="M2253.744,1557.665c-.016.122-.038.244-.065.364-.977.2-1.063,1.133-1.417,1.807-1.955,3.718-3.941,7.363-7.081,10.314-5.394,5.068-10.1,4.052-15.987.042-.509-.346-.826-.791-.094-1.27a18.214,18.214,0,0,0,11.124-1.091c5.458-2.257,9.259-6.317,12.11-11.371.424-.751.863-1.493,1.295-2.238q.058,1.722.116,3.444" transform="translate(-2086.873 -1455.336)" fill="#ec845e"/>
          <path id="Trazado_1057734" data-name="Trazado 1057734" d="M1296.538,3093.919c.037,1.038-.53,1.413-1.491,1.366-2.448-.119-4.908.132-7.349-.22a73.754,73.754,0,0,1,2.858-10.729c.736-2.358,1.473-4.716,2.254-7.06.321-.963.8-1.635,1.554-.253q1.087,8.447,2.174,16.9" transform="translate(-1205.77 -2880.517)" fill="#5fb0f0"/>
          <path id="Trazado_1057735" data-name="Trazado 1057735" d="M1890.972,1867.55c3.331.132,6.359-1.241,9.527-1.919-.965,1.609-2.6,2.432-4.059,3.46l-2.555,1.774c-4.953.908-9.7-.079-14.429-1.474-6.174-1.823-11.459-5.216-16.465-9.133a15.014,15.014,0,0,1-4.051-4.255.8.8,0,0,1-.239,1.287c-.573.317-1.138-.137-1.38-.642-.632-1.315-2.09-2.5-.824-4.2a5.022,5.022,0,0,1,2.753-1.006,1.544,1.544,0,0,1,1.29.581c.331.549.041,1.291.556,1.785a22.83,22.83,0,0,0,9.466,8.638c5.656,2.783,11.548,4.725,17.973,4.526a2.844,2.844,0,0,1,2.437.579" transform="translate(-1737.911 -1733.646)" fill="#66a3e6"/>
          <path id="Trazado_1057736" data-name="Trazado 1057736" d="M2110.963,2681.625a.679.679,0,0,1-.79.587c-10.444-.634-20.9-.234-31.345-.178-3.132.017-6.289.211-9.437.252a24.423,24.423,0,0,1-5.906-.342c1.5-1.507,3.469-1.511,5.375-1.55,7.681-.155,15.363-.241,23.044-.381,4.893-.089,9.785-.242,14.678-.333a4.817,4.817,0,0,1,4.381,1.944" transform="translate(-1932.199 -2509.188)" fill="#62a7e8"/>
          <path id="Trazado_1057737" data-name="Trazado 1057737" d="M2061.339,2161.234a4.527,4.527,0,0,1-.793,3.3c-.693.857-.048,1.594.325,2.338a8.051,8.051,0,0,1,1.617,3.7c.309.8-.211,1.53-.17,2.305.329,4.846-.344,9.425-3.673,13.246a24.253,24.253,0,0,1-2.411,2.309c-.489.425-.992.969-1.717.182-.864-.939.147-1.211.546-1.555a14.256,14.256,0,0,0,5.165-13.258c-.088-.719-.294-1.425-.446-2.136-.6-.411-.545-1.137-.832-1.7a22.277,22.277,0,0,0-1.868-4.623c-.51-.429-1.055-.825-1.527-1.293-1.705-1.692-1.346-4.03.862-5.755a3.3,3.3,0,0,1,4.923,2.933" transform="translate(-1923.482 -2020.569)" fill="#1a1949"/>
          <path id="Trazado_1057738" data-name="Trazado 1057738" d="M2132.7,2098.851a53.26,53.26,0,0,1-7.316,5.985c-.931.707-1.726.337-2.542-.222-1.939-1.329-3.891-2.638-5.838-3.956a9.908,9.908,0,0,1-4.186-2.545c-.477-.408-1.11-.877-.576-1.673.095-.059.3-.165.3-.176-.226-.506-1.161-.8-.658-1.5.54-.746,1.275-.184,1.845.08a39.7,39.7,0,0,0,17.605,3.646c.478-.008,1.008-.12,1.371.356" transform="translate(-1977.375 -1961.144)" fill="#5fa4ec"/>
          <path id="Trazado_1057739" data-name="Trazado 1057739" d="M1680.867,2120.231a3.169,3.169,0,0,1,.295,1.747,37.606,37.606,0,0,1-16.381-4.851,58.185,58.185,0,0,1-14.283-11.412c-.154-.161-.265-.364-.666-.925l12.343,7.126c1.537.037,2.484,1.271,3.752,1.858a143.916,143.916,0,0,0,14.941,6.457" transform="translate(-1544.863 -1970.876)" fill="#f0a12f"/>
          <path id="Trazado_1057740" data-name="Trazado 1057740" d="M1692.837,1711.89l-2.951,1.063a6.212,6.212,0,0,1-3.618,1.487,9.927,9.927,0,0,1-5.73-4.568c-1.7-2.339-3-4.806-2.524-7.844,4.769,6.241,11.736,6.668,18.711,7.073.429,1.551-.75,2.107-1.723,2.792-.72.264-1.442-.152-2.165,0" transform="translate(-1571.16 -1593.738)" fill="#d05c14"/>
          <path id="Trazado_1057741" data-name="Trazado 1057741" d="M2420.223,2197.389a6.706,6.706,0,0,0-.968,2.963c-1.636,6.42-.305,12.02,4.665,16.563-1.233,1.483-2.139,1.246-3.273-.154a18.168,18.168,0,0,1-4.088-12.811c.033-.681.04-1.363.059-2.045.028-1.309-.3-2.663.479-3.879a8.927,8.927,0,0,1,1.458-3.091,2.849,2.849,0,0,0,.541-2.383c-.515-2.2-.078-3.553,1.324-4.1,2.711-1.06,4.189.151,4.074,3.337a1.679,1.679,0,0,1-.877,1.715,16.621,16.621,0,0,0-3.4,3.887" transform="translate(-2262.783 -2048.863)" fill="#1e1b4b"/>
          <path id="Trazado_1057742" data-name="Trazado 1057742" d="M1806.752,1874.849a20.059,20.059,0,0,1,3.768-1.1c-.325,1.833,1.046,2.856,1.87,4.151.064-1.19-1.087-1.981-.959-3.691,2.933,4.572,6.892,7.421,10.945,10.128,7.123,4.758,14.907,7.448,23.579,7.182a2.888,2.888,0,0,1,1.813.234l-.651.49c-7.11.1-14.042-.739-20.527-4.036.438,1.117,1.8,1,2.321,1.981-.891.425-1.622-.339-2.415-.14a2.2,2.2,0,0,1-2.183-.718c-5.267-4.315-10.887-8.169-16.207-12.412-.662-.527-1.44-1.028-1.354-2.067" transform="translate(-1691.794 -1754.534)" fill="#4886d6"/>
          <path id="Trazado_1057743" data-name="Trazado 1057743" d="M1724.067,1829.505c6.325,5.4,13.125,10.181,19.744,15.2l4.927,4a1.985,1.985,0,0,0-1.772,1.151c-.973-2.1-2.522-3.231-4.923-2.934a2.3,2.3,0,0,0-1.082-1.753c-7.22-4.819-13.721-10.568-20.481-15.981-1.224-.981-2.269-2.092-1.992-3.864l5.58,4.182" transform="translate(-1609.109 -1709.19)" fill="#f9dd5a"/>
          <path id="Trazado_1057744" data-name="Trazado 1057744" d="M2178.311,2258.432a1.122,1.122,0,0,1,.249,1.478c-.619,1.387-1.211,2.787-1.814,4.182-3.1,2.246-6.745,2.093-10.255,2.034-2-.033-4.227.116-6-1.321l-1.107-3.756c5.265,2.5,10.528,3.53,15.923.27,1.257-.76,2.976-.9,3-2.886" transform="translate(-2021.997 -2114.743)" fill="#fce265"/>
          <path id="Trazado_1057745" data-name="Trazado 1057745" d="M1275.541,2499.416c1.717,7.022,2.924,14.147,4.344,21.23.544,2.716,1.13,5.423,1.7,8.135l.739,5.974c-.34.871-.539.111-.6-.1a43.526,43.526,0,0,1-1.242-4.435c-.65-3.387-1.643-6.7-2.047-10.145a2.533,2.533,0,0,0-.6-1.717,134.79,134.79,0,0,0-2.318-16.829c-.16-.717-.523-1.416.026-2.115" transform="translate(-1194.113 -2340.394)" fill="#d8741e"/>
          <path id="Trazado_1057746" data-name="Trazado 1057746" d="M1862.521,2220.777c-.289.591-.693.275-1.093.156-6.325-1.873-11.991-5.114-17.6-8.471.888-.719,1.565.06,2.162.439,3.252,2.067,6.633,3.629,10.62,3.326.713-.054,1.289.409,1.936.607.664.2,1.359.348,1.571-.632,1.815.992,2.049,2.815,2.405,4.574" transform="translate(-1726.517 -2071.423)" fill="#fde061"/>
          <path id="Trazado_1057747" data-name="Trazado 1057747" d="M2176.774,2348.085a8.826,8.826,0,0,1,3.294.358c4.433.805,8.693-.108,12.962-1.072q-.458,1.849-.915,3.695c-.172-.752-.729-.446-1.183-.433a68.813,68.813,0,0,1-11.732-.674,2.151,2.151,0,0,0-2.085.377,4.877,4.877,0,0,1-.34-2.252" transform="translate(-2038.28 -2198.023)" fill="#f3a833"/>
          <path id="Trazado_1057748" data-name="Trazado 1057748" d="M3346.722,2385.542c-.363-.379.065-.756,0-1.134a47.03,47.03,0,0,1,3.689-10.044,32.506,32.506,0,0,1,4.6-6.261c.417-.45.877-1.054,1.4-.085v-.007c-1.62,1.954-2.581,4.334-4.1,6.351l-5.593,11.18" transform="translate(-3133.654 -2216.87)" fill="#fce164"/>
          <path id="Trazado_1057749" data-name="Trazado 1057749" d="M2491.66,1853.091l4.057-3.458,4.983-4.136c1.872-2.4,4.8-3.53,6.836-5.733,1.144-.829,2.177-1.8,3.294-2.659a2.691,2.691,0,0,1,1.82-.757l2.606-1.993c-.325,1.215-1.307,1.922-2.127,2.757-3.924,4-8.683,6.905-13.213,10.116-2.017,1.429-3.917,3.023-5.88,4.53a4.434,4.434,0,0,1-2.377,1.333" transform="translate(-2333.132 -1717.646)" fill="#f6e083"/>
          <path id="Trazado_1057750" data-name="Trazado 1057750" d="M2474.562,2187.283a5.576,5.576,0,0,1,2.857-4.208,6.666,6.666,0,0,0,1.414-1.394c.635.737,1.353.587,2.184.331a45.282,45.282,0,0,0,9.507-4.175c.5-.295.953-.924,1.614-.264-4.908,3.206-10.4,5.333-15.437,8.29-.737.432-1.427.944-2.139,1.42" transform="translate(-2317.122 -2038.757)" fill="#fbdc5f"/>
          <path id="Trazado_1057751" data-name="Trazado 1057751" d="M1922.263,1628.835c.712-.8,1.764-1.336,2.019-2.508,1.854-3.185,1.454-6.655,1.262-10.094-.041-.736-.2-1.466-.3-2.2.029-.135.059-.27.089-.405,1.842-.048,1.367,1.837,2.2,2.633a14.7,14.7,0,0,1-4.712,14.044,2.156,2.156,0,0,1-1.613.789c-.5-.545-.232-.983.2-1.4.1-.471.494-.657.865-.862" transform="translate(-1798.717 -1510.965)" fill="#fcd8ac"/>
          <path id="Trazado_1057752" data-name="Trazado 1057752" d="M1532.077,1789.664l.441-.849c.393-.081.738-.862,1.191-.064a40.261,40.261,0,0,0,5.876,7.725c-2.375-2.025-5.041-3.606-7.458-5.526-.52-.413-.721-.83-.05-1.286" transform="translate(-1434.203 -1674.611)" fill="#ec9d2b"/>
          <path id="Trazado_1057753" data-name="Trazado 1057753" d="M1681.106,3089.275c-.049,1.751-1.615,2.613-2.387,3.941-1.76,3.027-3.825,5.879-5.794,8.784-.257.378-.4,1.183-1.194.642a4.927,4.927,0,0,1,2.387-4.289l3.725-5.623c1.18-1.064,1.882-2.581,3.264-3.455" transform="translate(-1565.364 -2892.724)" fill="#fcdaae"/>
          <path id="Trazado_1057754" data-name="Trazado 1057754" d="M2110.057,1396.691c3.788,0,7.576-.006,11.364.007.478,0,1.085-.21,1.4.245.359.526-.24.9-.479,1.286-2.071,3.359-4.582,6.286-8.667,7.1-5.9,1.171-12.037-.194-15.488-5.463a9.83,9.83,0,0,1-.7-1.308c-.563-1.237-.466-1.925,1.211-1.884,3.786.091,7.575.028,11.362.028Z" transform="translate(-1963.745 -1307.791)" fill="#f48c61"/>
          <path id="Trazado_1057755" data-name="Trazado 1057755" d="M1903.584,898.9a18.432,18.432,0,0,1,6.965,1.454c.886.376,1.779.879,1.465,2.043-.331,1.229-1.318,1.323-2.4,1.081a24.963,24.963,0,0,0-6.638-.768,17.593,17.593,0,0,0-6.945,1.925c-.99.483-2.057.882-2.77-.363s.243-2,1.1-2.6a15.742,15.742,0,0,1,9.22-2.772" transform="translate(-1772.57 -841.713)" fill="#1a1850"/>
          <path id="Trazado_1057756" data-name="Trazado 1057756" d="M2424.884,901.374a4.04,4.04,0,0,1-1.948-.574,17.242,17.242,0,0,0-11.271-1.156c-1.078.225-2.543.926-3.041-.7s.981-2.092,2.133-2.5a15.175,15.175,0,0,1,14.52,1.927,1.859,1.859,0,0,1,.941,2.213c-.2.646-.754.759-1.335.79" transform="translate(-2255.286 -838.449)" fill="#19184e"/>
          <path id="Trazado_1057757" data-name="Trazado 1057757" d="M1741.548,858.589a94.585,94.585,0,0,1-5.42-14.379c-1.261-3.943-2.367-7.936-3.506-11.917-.147-.513-.787-1.335.1-1.562.935-.237.85.775,1.04,1.4,1.875,6.143,3.3,12.428,5.762,18.387a3.749,3.749,0,0,0,.875,1.6q.573,3.235,1.146,6.471" transform="translate(-1622.051 -777.844)" fill="#3f5099"/>
          <path id="Trazado_1057758" data-name="Trazado 1057758" d="M2699.791,828.586c1.116-2.5,1.29-5.237,1.888-7.865.4-1.748.574-3.545.926-5.305.11-.55.121-1.279,1.119-1.508-.454,2.665-.84,5.246-1.342,7.8-1.086,5.53-2.229,11.05-3.36,16.571a1.7,1.7,0,0,1-.284.474c.151-3.411.578-6.794,1.053-10.171" transform="translate(-2527.035 -762.124)" fill="#424986"/>
          <path id="Trazado_1057759" data-name="Trazado 1057759" d="M2234.711,1272.824l1.12-.974c.456,1.878-.468,3.437-2.465,4.285-2.683,1.139-6.379-.191-8-2.889.669-.443,1.132.329,1.726.291,2.6.454,5.245,1.3,7.619-.712" transform="translate(-2083.78 -1190.931)" fill="#24173e"/>
          <path id="Trazado_1057760" data-name="Trazado 1057760" d="M2408.933,1048.276c-1.855-.957-1.92-1.527-.319-2.631,2.847-1.962,5.784-2.711,8.974-.776.563.341,1.006.594.2,1.127-.8.691-1.539-.067-2.26-.18a6.582,6.582,0,0,0-6.594,2.459" transform="translate(-2254.302 -977.335)" fill="#e99570"/>
          <path id="Trazado_1057761" data-name="Trazado 1057761" d="M1988.353,1071.308c-.921.048-1.447.3-.589,1.38-3.524-1.6-6.769-1.721-9.622,1.7.662-4.093,6.214-5.562,10.212-3.076" transform="translate(-1852.285 -1002.009)" fill="#261c3c"/>
          <path id="Trazado_1057762" data-name="Trazado 1057762" d="M2429.084,1067.177c-.359-1.022.431-1.448,1.047-1.9,2.509-1.853,5.138-1.613,7.806-.376.526.441,1.269.689,1.483,1.731a14.54,14.54,0,0,0-4.649-1.324c-2.185-.079-3.79,1.271-5.688,1.872" transform="translate(-2274.453 -996.236)" fill="#201335"/>
          <path id="Trazado_1057763" data-name="Trazado 1057763" d="M2260.105,1287.161c-1.8,2.249-4.242,2.477-7.619.712,2.55-.132,5.152.295,7.619-.712" transform="translate(-2109.175 -1205.268)" fill="#d5886d"/>
          <path id="Trazado_1057764" data-name="Trazado 1057764" d="M1631.467,841.193a1.9,1.9,0,0,1-1.957.427,4.82,4.82,0,0,1-1.834-2.908c-2.915-9.416-5.373-18.96-8.013-28.453-.333-1.2-.772-2.353-1.211-3.513-.4-1.057-.475-2.07.623-2.808l-.01.039c1.526-.5,1.734.585,2.022,1.641,2.558,9.354,5.163,18.7,8.033,27.961q1.179,3.8,2.346,7.613" transform="translate(-1515.228 -752.709)" fill="#f6d44b"/>
          <path id="Trazado_1057765" data-name="Trazado 1057765" d="M2072,3692.325l24.936-.06,8.163.119c-6.217,1.761-12.36,3.845-18.994,3.333a30.834,30.834,0,0,1-10.938-2.514c-1.034-.486-2.248-.118-3.167-.878" transform="translate(-1940.176 -3457.35)" fill="#fac23a"/>
          <path id="Trazado_1057766" data-name="Trazado 1057766" d="M1556.655,3013.106q-1.193,2.145-2.387,4.29a1.934,1.934,0,0,0-.3.1,31.633,31.633,0,0,1-7.684-19.256c3.952,4.609,7.022,9.84,10.374,14.87" transform="translate(-1447.901 -2807.478)" fill="#e58223"/>
          <path id="Trazado_1057767" data-name="Trazado 1057767" d="M2550.37,3306.71a2.683,2.683,0,0,1-.066-.3c3.825,1.684,7.758,1.013,11.679.519a57.9,57.9,0,0,0,14.387-4.175,8.073,8.073,0,0,1,1.241-.382,2.093,2.093,0,0,1,.661.13,5.562,5.562,0,0,1-2.965,2.929,40.865,40.865,0,0,1-23.13,2.11,2.714,2.714,0,0,1-1.808-.836" transform="translate(-2388.045 -3092.262)" fill="#f39c6b"/>
          <path id="Trazado_1057768" data-name="Trazado 1057768" d="M2551.46,3471.4a.97.97,0,0,1-.063-.358c3.257.683,6.488,1.558,9.778,2,4.641.625,9.326.935,13.976-.226.029-.506-.7-.2-.681-.627s.4-.392.692-.394c1.155-.013,2.31-.006,3.619-.006a4.817,4.817,0,0,1-4.251,2.836,59.144,59.144,0,0,1-11.8-.045c-1.776-.163-3.53-.566-5.305-.738-2.25-.217-3.869-1.889-5.96-2.443" transform="translate(-2389.068 -3250.202)" fill="#f6a16f"/>
          <path id="Trazado_1057769" data-name="Trazado 1057769" d="M1565.6,805.222a1.95,1.95,0,0,0-.311,1.914c3.228,8.286,4.8,17.057,7.451,25.512,1.074,3.426,1.792,6.967,3.294,10.255a13.337,13.337,0,0,0-2.718-.555c-2.181,0-2.855-1.338-3.42-3.143-2.883-9.209-5.228-18.563-7.648-27.9a7.1,7.1,0,0,0-1.175-3.078,13.292,13.292,0,0,1,4.527-3.008" transform="translate(-1461.755 -753.991)" fill="#385db2"/>
          <path id="Trazado_1057770" data-name="Trazado 1057770" d="M919.377,1719.6c-.394,6.436-1.639,6.257-6.638,4.839a10.189,10.189,0,0,1-5.063-3.277c-2.061-2.392-.44-7.7,2.625-8.534,3.869-1.052,9.08,2.951,9.075,6.972" transform="translate(-849.063 -1603.504)" fill="#91cdf9"/>
          <path id="Trazado_1057771" data-name="Trazado 1057771" d="M323.526,1958.243a9.939,9.939,0,0,1,5.5,1.671c2.237,1.437,2.623,3.251,1.182,5.531a17.585,17.585,0,0,1-2.067,2.61,4.341,4.341,0,0,1-5.982.453c-2.246-1.6-3.335-4.687-2.33-6.642a16.852,16.852,0,0,0,.972-1.792c.525-1.433,1.44-2.118,2.725-1.831" transform="translate(-299.128 -1833.593)" fill="#92cefa"/>
          <path id="Trazado_1057772" data-name="Trazado 1057772" d="M427.939,2404.706a4,4,0,0,1,3.5,2.349,2.782,2.782,0,0,1-.517,3.414c-1.237,1.461-2.463,2.99-4.7,2.818-1.293-.1-2.672-.477-3.12-1.646a4.868,4.868,0,0,1,4.838-6.936" transform="translate(-395.766 -2251.708)" fill="#93cefa"/>
          <path id="Trazado_1057773" data-name="Trazado 1057773" d="M1120.381,1380.244c1.918-1.423,1.932-1.6-.056-2.67-.654-.352-.984-.623-.65-1.41a5.638,5.638,0,0,1,6.007-3.031,3.29,3.29,0,0,1,2.336,4.315,6.158,6.158,0,0,1-4.432,4.259c-1.384.421-1.978-1.212-3.206-1.463" transform="translate(-1048.314 -1285.659)" fill="#93cef8"/>
          <path id="Trazado_1057774" data-name="Trazado 1057774" d="M611.319,2049.311c-.247.842-.487,1.8-1.614,1.639a1.794,1.794,0,0,1-1.655-1.9,1.41,1.41,0,0,1,1.637-1.373,1.549,1.549,0,0,1,1.631,1.628" transform="translate(-569.362 -1917.401)" fill="#93d0fa"/>
          <path id="Trazado_1057775" data-name="Trazado 1057775" d="M3521.182,3443.116l-10.879.734c.088.829.707.975,1.122,1.278a58.834,58.834,0,0,1,14.953,15.071,11.994,11.994,0,0,1,1.939,7.785c-.042.5-.025,1.056-.593,1.25-.526.18-.937-.2-1.343-.479a4.781,4.781,0,0,1-1.641-3.245c-1.6-7.273-5.867-12.519-12.183-16.239a85.967,85.967,0,0,1-8.288-5.963c-.376-.286-.9-.6-.757-1.179.177-.7.84-.621,1.384-.638,4.593-.144,9.134.514,13.692.914.854.074,1.7.2,2.556.3q.018.207.038.412" transform="translate(-3280.583 -3222.513)" fill="#fce46c"/>
          <path id="Trazado_1057776" data-name="Trazado 1057776" d="M3436.8,2381.894c1.064-2.313,1.993-4.713,4.1-6.351-1.152,2.256-2.17,4.6-4.1,6.351" transform="translate(-3218.142 -2224.403)" fill="#fec53d"/>
          <path id="Trazado_1057777" data-name="Trazado 1057777" d="M2311.391,3085.97c-.865,3.171-2.986,4.858-6.392,5.087-.983-.578-2.16-.417-3.194-.888a6.357,6.357,0,0,1-3.613-8.272,6.715,6.715,0,0,1,8.183-3.991c3.838,1.139,5.453,3.736,5.017,8.064" transform="translate(-2151.565 -2881.821)" fill="#7ebaf0"/>
          <path id="Trazado_1057778" data-name="Trazado 1057778" d="M2303.184,3079.938c-.215-4.529-1.577-6.59-5.053-7.646a6.075,6.075,0,0,0-7.876,4.231c-.947,3.544.871,6.5,4.514,7.488.706.191,1.7-.008,2.023,1.013a7.181,7.181,0,0,1-7.676-5.631c-.659-2.952,1.363-6.378,4.565-7.723.4-.168.816-.3,1.225-.445,3.978-.3,6.952,1.127,8.542,4.948-.034,1.258.392,2.549-.265,3.764" transform="translate(-2143.358 -2875.787)" fill="#6697da"/>
          <path id="Trazado_1057779" data-name="Trazado 1057779" d="M1884.7,3153.127l-.717-.065c-.065-.24.026.043-.1-.152-.544-.837.392-2.57-.968-2.635-1.781-.085-3.829-.354-5.257,1.326l-2.438-.871c2.527-3.494,6.189-3.279,9.695-2.141a38.518,38.518,0,0,0,7.928,2c-.532.536-1.321.078-1.762.6a14.142,14.142,0,0,1-4.7-.994c-1.366-.5-1.973-.3-1.751,1.27a16.669,16.669,0,0,1,.076,1.667" transform="translate(-1755.913 -2947.566)" fill="#eb966a"/>
          <path id="Trazado_1057780" data-name="Trazado 1057780" d="M2534.534,2795.413c.945.048,1.386.426,1.369,1.4s-.684,1.19-1.324,1.166a1.316,1.316,0,0,1-1.4-1.417c.041-.849.665-1.1,1.352-1.147" transform="translate(-2372.01 -2617.559)" fill="#abc2e3"/>
          <path id="Trazado_1057781" data-name="Trazado 1057781" d="M2141.583,3202.056l4.153,0a6.819,6.819,0,0,1-4.153,0" transform="translate(-2005.328 -2998.33)" fill="#eb966a"/>
          <path id="Trazado_1057782" data-name="Trazado 1057782" d="M1870.8,3319.745a46.451,46.451,0,0,1,8.128.208c-1.134-.969-2.593-.656-3.876-.933a32.049,32.049,0,0,0-4.023-.173c5.824-1.1,11.042,1.15,16.415,3.047a1.946,1.946,0,0,1-1.885.712,123.538,123.538,0,0,1-14.4-2.494c-.049-.013-.083-.082-.356-.367" transform="translate(-1751.774 -3107.419)" fill="#f29b6b"/>
          <path id="Trazado_1057783" data-name="Trazado 1057783" d="M1910.069,3174.567c-.559-.945-.058-1.389.806-1.538,1.5-.26,3-.508,4.517-.648,1.182-.11,1.384.733,1.374,1.7a3.474,3.474,0,0,1-.37,1.952l-6.327-1.462" transform="translate(-1788.323 -2970.534)" fill="#f5a736"/>
          <path id="Trazado_1057784" data-name="Trazado 1057784" d="M1925.177,1669.865c2.683-2.623,5.1-5.347,5.689-9.32.274-1.838-.032-3.733.635-5.513,2.431,3.2,4.546,6.653,7.454,9.467,5.377,5.2,11.561,8.9,19.118,9.871,1.4.179,1.729.551.726,1.651a.765.765,0,0,0,.11,1.266,1.128,1.128,0,0,1-.111,2.01c-1.681,1.027-2.133,2.828-3.047,4.341-11.246.48-21.134-2.59-28.921-11.1a8.159,8.159,0,0,1-1.653-2.669" transform="translate(-1802.69 -1549.733)" fill="#fdbe86"/>
          <path id="Trazado_1057785" data-name="Trazado 1057785" d="M2650.662,1838.408l-4.761,3.818c-1.744.283-3.124-.176-3.877-1.908-1.107-1.164-2.636-1.992-2.975-3.763a53.289,53.289,0,0,0,9.479,1.494c.721.028,1.5-.22,2.134.359" transform="translate(-2471.144 -1719.707)" fill="#d45e12"/>
          <path id="Trazado_1057786" data-name="Trazado 1057786" d="M2637.058,1895.706c.965,1.3,2.671,1.1,3.877,1.907-2.006,2.3-4.693,3.689-7.189,5.331a17.458,17.458,0,0,1,2.553-3.782c.7-.993,1.6-1.969.355-3.181l.4-.276" transform="translate(-2466.178 -1775.095)" fill="#638bbc"/>
          <path id="Trazado_1057787" data-name="Trazado 1057787" d="M1914.271,1851.116c-.042.535-.428.723-.865.861-.2-.424-.655-.418-1.008-.58a2.243,2.243,0,0,1,1.873-.281" transform="translate(-1790.725 -1733.245)" fill="#fdbe86"/>
          <path id="Trazado_1057788" data-name="Trazado 1057788" d="M2125.006,1414.64c7.242-.1,14.221-.035,21.286-.458-3.366,6.492-17.085,6.859-21.286.458" transform="translate(-1989.805 -1324.207)" fill="#fcfbf9"/>
          <path id="Trazado_1057789" data-name="Trazado 1057789" d="M2547.91,2809.051a.688.688,0,0,1-.511.725.594.594,0,0,1-.79-.5.5.5,0,0,1,.471-.622.72.72,0,0,1,.83.4" transform="translate(-2384.572 -2629.944)" fill="#3d5181"/>
        </g>
      </g>
      <g id="Grupo_1223259" data-name="Grupo 1223259" transform="translate(1286.572 2344.102)">
        <g id="Grupo_1223258" data-name="Grupo 1223258" transform="translate(0 0)" clip-path="url(#clip-path-3)">
          <path id="Trazado_1057793" data-name="Trazado 1057793" d="M219.337,73.982c-.024-1.42-.443-4.461.56-5.488,1.036-1.061,5.482-.622,7.1-.617.974,0,3.345-.293,4.033.406a2.244,2.244,0,0,1,.659,1.2,28.455,28.455,0,0,1,.04,4.386l.019,11.057c.019,1.178.4,4.4-.235,5.282a3.683,3.683,0,0,1-1.949.111,11.121,11.121,0,0,0-2.582-.111l-5.641.028a3.245,3.245,0,0,1-1.757-.173l-.2-.74a59.13,59.13,0,0,1-.007-7.806Z" transform="translate(-167.251 -51.712)" fill="#747eca"/>
          <path id="Trazado_1057794" data-name="Trazado 1057794" d="M232.258,140.079c.019,1.178.4,4.4-.235,5.282a3.683,3.683,0,0,1-1.949.111,11.12,11.12,0,0,0-2.582-.111l-5.641.028a3.245,3.245,0,0,1-1.757-.173l-.2-.74.024-4.33Z" transform="translate(-167.757 -106.866)" fill="#303a72"/>
          <path id="Trazado_1057795" data-name="Trazado 1057795" d="M162.282,437.229l5.311-.081a14.407,14.407,0,0,1,2.665.013l.161.014.062,1.965c.543.429,1.567.256,2.269.253l6.155-.009a21.913,21.913,0,0,1,3.632.115c4.851.848,7.547,4.18,8.9,8.687l-49.663.019a8.958,8.958,0,0,1,3.018-5.87c3.1-2.993,6.4-2.941,10.42-2.946l7.07.06Z" transform="translate(-108.159 -333.454)" fill="#303a72"/>
          <path id="Trazado_1057796" data-name="Trazado 1057796" d="M228.273,437.229l5.311-.081a14.407,14.407,0,0,1,2.665.013v2.085a1.493,1.493,0,0,1-.287.26c-.358.183-6.425.035-7.258,0l-.432-.053Z" transform="translate(-174.15 -333.454)" fill="#1a275f"/>
          <path id="Trazado_1057797" data-name="Trazado 1057797" d="M.105,33.992c.173-2.089.007-4.333.007-6.436l0-13.588c0-2.882-.545-6.928.721-9.534A7.691,7.691,0,0,1,5.445.453,9.131,9.131,0,0,1,8.525.093L22.12.083c1.954,0,4.377-.272,6.245.158a7.514,7.514,0,0,1,5.458,5.367A26.159,26.159,0,0,1,34,11l.031,11.275L34.022,29.8,34,38.584c0,1.838.254,4.041-.434,5.762A7.765,7.765,0,0,1,27.4,48.993a36.39,36.39,0,0,1-3.941.045l-7.623-.015-5.887,0a14.171,14.171,0,0,1-3.414-.191,8.449,8.449,0,0,1-4.216-2.262C-.715,43.44.117,38.031.105,33.992" transform="translate(0 0)" fill="#303a72"/>
          <path id="Trazado_1057798" data-name="Trazado 1057798" d="M228.092,162.322l5.641-.028a11.122,11.122,0,0,1,2.582.111l.012,8.488-8.253-.016Z" transform="translate(-173.997 -123.799)" fill="#1a275f"/>
          <path id="Trazado_1057799" data-name="Trazado 1057799" d="M143.5,93.933l18.053,0,.043,7.534H143.493Z" transform="translate(-109.471 -71.659)" fill="#6c58aa"/>
          <path id="Trazado_1057800" data-name="Trazado 1057800" d="M228.073,198.557l8.253.016-.069,56.628-.161-.014a14.406,14.406,0,0,0-2.665-.013l-5.311.081Z" transform="translate(-173.997 -151.479)" fill="#747eca"/>
        </g>
      </g>
      <g id="Grupo_1223261" data-name="Grupo 1223261" transform="translate(862.909 2338.079)">
        <g id="Grupo_1223260" data-name="Grupo 1223260" transform="translate(0 0)" clip-path="url(#clip-path-4)">
          <path id="Trazado_1057801" data-name="Trazado 1057801" d="M61.72,201.753c.252-.446,20.626-10.556,22.31-11.213a21.665,21.665,0,0,0,2.781,4.028l-14.232,7.092c-2.2,1.111-4.67,2.79-6.979,3.486a2.417,2.417,0,0,1-1.557-.124c-1.179-.412-1.662-1.751-2.125-2.8Z" transform="translate(-46.779 -144.416)" fill="#141e54"/>
          <path id="Trazado_1057802" data-name="Trazado 1057802" d="M73.98,144.989c-1.371,3.582-1.884,7.263-.285,10.891l.061.135c-1.684.657-22.058,10.768-22.31,11.213l-2.458-4.894c-.639-1.268-1.116-2.149-.614-3.569a2.9,2.9,0,0,1,1.143-1.491,72.517,72.517,0,0,1,7.689-3.906Z" transform="translate(-36.505 -109.891)" fill="#1a275f"/>
          <path id="Trazado_1057803" data-name="Trazado 1057803" d="M244.65,79.995l1.08-.645a35.478,35.478,0,0,0,5.836,13.407l-18.143,9.254a17.224,17.224,0,0,0-.787-5.374c-1.118-3.385-3.542-5.469-6.5-7.25Z" transform="translate(-171.393 -60.142)" fill="#1a275f"/>
          <path id="Trazado_1057804" data-name="Trazado 1057804" d="M265.015,79.995l1.08-.645a35.477,35.477,0,0,0,5.836,13.407l-18.143,9.254A17.224,17.224,0,0,0,253,96.636l15.213-7.714a36.182,36.182,0,0,1-3.2-8.927" transform="translate(-191.758 -60.142)" fill="#141e54"/>
          <path id="Trazado_1057805" data-name="Trazado 1057805" d="M305.7,37.784a9.66,9.66,0,0,1-.125-5.3c.916-2.821,3.7-3.794,6.1-5.035l5.79-2.945a34.026,34.026,0,0,0,.015,5.738,30.057,30.057,0,0,0,7.288,15.727,21.756,21.756,0,0,0,8.427,6.022l-11.142,5.9a5.528,5.528,0,0,1-2.826.246c-2.816-.472-6.107-4.68-7.692-6.949A35.478,35.478,0,0,1,305.7,37.784" transform="translate(-231.366 -18.575)" fill="#303a72"/>
          <path id="Trazado_1057806" data-name="Trazado 1057806" d="M150.813,122.276l.107-.217a12.494,12.494,0,0,1,7.363-6.423,12.953,12.953,0,0,1,9.8.787c2.962,1.781,5.386,3.865,6.5,7.25a17.224,17.224,0,0,1,.787,5.374,13.625,13.625,0,0,1-5.38,9.372,3.278,3.278,0,0,1-.864.523,7.01,7.01,0,0,1,.191,2.948l-.44.518a21.934,21.934,0,0,1-12.271.344,2.7,2.7,0,0,1-1.353-1.1c-.383-.734,0-2.04.231-2.775a14.427,14.427,0,0,1-2.114-1.548,21.665,21.665,0,0,1-2.781-4.028l-.061-.135c-1.6-3.629-1.086-7.31.285-10.891" transform="translate(-113.339 -87.178)" fill="#303a72"/>
          <path id="Trazado_1057807" data-name="Trazado 1057807" d="M172.872,213.576c3.449,1.737,6.733,2.52,10.516,1.3l3.125-1.236a7.01,7.01,0,0,1,.191,2.948l-.44.518a21.935,21.935,0,0,1-12.271.344,2.7,2.7,0,0,1-1.353-1.1c-.383-.734,0-2.04.231-2.775" transform="translate(-130.727 -161.876)" fill="#1a275f"/>
          <path id="Trazado_1057808" data-name="Trazado 1057808" d="M177.063,134.946a8.348,8.348,0,0,1,4.886.953,8.141,8.141,0,0,1,3.872,4.831,7.705,7.705,0,0,1-.784,6.013,7.856,7.856,0,0,1-11.25,2.677,7.784,7.784,0,0,1-3.344-4.858,7.946,7.946,0,0,1,1.07-6,8.332,8.332,0,0,1,5.55-3.62" transform="translate(-129.049 -102.252)" fill="#747eca"/>
          <path id="Trazado_1057809" data-name="Trazado 1057809" d="M43.267,228.5a21.934,21.934,0,0,0,12.271-.344c.659,1.631,2.091,3.221,3.057,4.723l22.652,32.258,20.33,28.564H96.942L76.415,264.6,57.029,237.163c-.6-.874-3.4-5.448-4.167-5.531l-1.291.065c-.495,1.312-.159,3.676-.155,5.126l.036,12.823-.027,35.879,8.143.011a19.107,19.107,0,0,1,3.56.067,2.135,2.135,0,0,1,.994.588c1.174,1.147.631,5.7.632,7.41l-29.205-.008c-.007-1.713-.54-6.2.643-7.43a2.866,2.866,0,0,1,.75-.527,9.932,9.932,0,0,1,3.082-.164l7.723.068L47.7,244.751l.031-9.411c0-.929.238-2.826-.153-3.616a6.454,6.454,0,0,0-1.9,0L4.625,293.576l-4.625,0Z" transform="translate(0 -172.924)" fill="#303a72"/>
          <path id="Trazado_1057810" data-name="Trazado 1057810" d="M366.278,0a16.927,16.927,0,0,1,12.857,4.963,18.615,18.615,0,0,1,5.416,13.059c.016,3.371-1.089,7.481-3.553,9.9a6.728,6.728,0,0,1-1.559,1.146l-1.761.915-5.062,2.565-1.55.87a21.757,21.757,0,0,1-8.427-6.021,30.057,30.057,0,0,1-7.288-15.727,34.026,34.026,0,0,1-.015-5.738l1.6-.963A.823.823,0,0,1,357,4.658c.714-1.921,4.011-3.085,5.741-3.85l1.848-.59Z" transform="translate(-269.231 0)" fill="#303a72"/>
          <path id="Trazado_1057811" data-name="Trazado 1057811" d="M384.748,1.488,386.6.9c-.226,1.616-.63,3.209-.732,4.836a24.514,24.514,0,0,0,5.19,16.49,20.517,20.517,0,0,0,7.516,6.209,12.321,12.321,0,0,1,2.877,1.317l-1.761.915c-4.1-1.838-7.253-3.745-9.906-7.482-4.856-6.839-6.438-13.383-5.03-21.695" transform="translate(-291.238 -0.681)" fill="#141e54"/>
          <path id="Trazado_1057812" data-name="Trazado 1057812" d="M362.741,3.336c-1.408,8.311.175,14.856,5.031,21.695,2.654,3.737,5.81,5.644,9.906,7.482l-5.062,2.565-1.55.87a21.757,21.757,0,0,1-8.427-6.022A30.057,30.057,0,0,1,355.35,14.2a34.026,34.026,0,0,1-.015-5.738l1.6-.963A.823.823,0,0,1,357,7.186c.714-1.921,4.011-3.085,5.741-3.85" transform="translate(-269.231 -2.528)" fill="#303a72"/>
          <path id="Trazado_1057813" data-name="Trazado 1057813" d="M355.336,21.493l1.6-.963a37.624,37.624,0,0,0-.037,6.3,29,29,0,0,0,7.2,15.351,21.374,21.374,0,0,0,5.957,4.853,20.463,20.463,0,0,1,2.558,1.075l-1.55.87a21.757,21.757,0,0,1-8.427-6.022,30.057,30.057,0,0,1-7.288-15.727,34.026,34.026,0,0,1-.015-5.738" transform="translate(-269.231 -15.56)" fill="#141e54"/>
        </g>
      </g>
    </g>
  </g>
</svg>
