<svg xmlns="http://www.w3.org/2000/svg" xmlns:xlink="http://www.w3.org/1999/xlink" width="108" height="108" viewBox="0 0 108 108">
  <defs>
    <filter id="Trazado_904820" x="0" y="0" width="108" height="108" filterUnits="userSpaceOnUse">
      <feOffset dy="3" input="SourceAlpha"/>
      <feGaussianBlur stdDeviation="3" result="blur"/>
      <feFlood flood-opacity="0.161"/>
      <feComposite operator="in" in2="blur"/>
      <feComposite in="SourceGraphic"/>
    </filter>
  </defs>
  <g id="Grupo_1223439" data-name="Grupo 1223439" transform="translate(-200.656 -933.013)">
    <g id="Grupo_1174741" data-name="Grupo 1174741" transform="translate(209.656 939.013)">
      <g id="Grupo_1173585" data-name="Grupo 1173585" transform="translate(0 0)">
        <g id="Grupo_1173428" data-name="Grupo 1173428">
          <g id="Grupo_1171958" data-name="Grupo 1171958">
            <g id="Grupo_1167341" data-name="Grupo 1167341">
              <g id="Grupo_1166792" data-name="Grupo 1166792">
                <g transform="matrix(1, 0, 0, 1, -9, -6)" filter="url(#Trazado_904820)">
                  <g id="Trazado_904820-2" data-name="Trazado 904820" transform="translate(9 6)" fill="#efecfa">
                    <path d="M 44.99999618530273 88.50002288818359 C 39.12687301635742 88.50002288818359 33.43022155761719 87.35009765625 28.06829643249512 85.08218383789062 C 22.88852119445801 82.89133453369141 18.23629570007324 79.75460815429688 14.24084663391113 75.75916290283203 C 10.24540901184082 71.76371002197266 7.108683586120605 67.11148834228516 4.917821407318115 61.93171310424805 C 2.649921178817749 56.56978607177734 1.499996185302734 50.87313461303711 1.499996185302734 45.0000114440918 C 1.499996185302734 39.12688827514648 2.649921178817749 33.43023681640625 4.917821407318115 28.06829833984375 C 7.108683586120605 22.88852310180664 10.24540901184082 18.2363109588623 14.24084663391113 14.2408618927002 C 18.23629570007324 10.24541187286377 22.88852119445801 7.108686447143555 28.06829643249512 4.917823791503906 C 33.43022155761719 2.649924039840698 39.12687301635742 1.499998927116394 44.99999618530273 1.499998927116394 C 50.87311935424805 1.499998927116394 56.56977081298828 2.649924039840698 61.93169784545898 4.917823791503906 C 67.11147308349609 7.108686447143555 71.76369476318359 10.24541187286377 75.75914764404297 14.2408618927002 C 79.75458526611328 18.2363109588623 82.89131164550781 22.88852310180664 85.08216857910156 28.06829833984375 C 87.35007476806641 33.43023681640625 88.5 39.12688827514648 88.5 45.0000114440918 C 88.5 50.87313461303711 87.35007476806641 56.56978607177734 85.08216857910156 61.93171310424805 C 82.89131164550781 67.11148834228516 79.75458526611328 71.76371002197266 75.75914764404297 75.75916290283203 C 71.76369476318359 79.75460815429688 67.11147308349609 82.89133453369141 61.93169784545898 85.08218383789062 C 56.56977081298828 87.35009765625 50.87311935424805 88.50002288818359 44.99999618530273 88.50002288818359 Z" stroke="none"/>
                    <path d="M 44.99999618530273 3 C 39.32870864868164 3 33.82865142822266 4.110054016113281 28.65262603759766 6.299339294433594 C 23.65165710449219 8.414566040039062 19.15968322753906 11.44333648681641 15.301513671875 15.30152893066406 C 11.44333648681641 19.15969848632812 8.414566040039062 23.65165710449219 6.299339294433594 28.65264129638672 C 4.110054016113281 33.82866668701172 2.999992370605469 39.3287239074707 2.999992370605469 45.0000114440918 C 2.999992370605469 50.67129898071289 4.110054016113281 56.17135620117188 6.299339294433594 61.34738159179688 C 8.414566040039062 66.34836578369141 11.44333648681641 70.84032440185547 15.301513671875 74.69849395751953 C 19.15968322753906 78.55668640136719 23.65165710449219 81.58545684814453 28.65262603759766 83.70068359375 C 33.82865142822266 85.88996887207031 39.32870864868164 87.00002288818359 44.99999618530273 87.00002288818359 C 50.67128372192383 87.00002288818359 56.17134094238281 85.88996887207031 61.34736633300781 83.70068359375 C 66.34834289550781 81.58545684814453 70.84030914306641 78.55668640136719 74.69847869873047 74.69849395751953 C 78.55665588378906 70.84032440185547 81.58542633056641 66.34836578369141 83.70065307617188 61.34738159179688 C 85.88993835449219 56.17135620117188 87 50.67129898071289 87 45.0000114440918 C 87 39.3287239074707 85.88993835449219 33.82866668701172 83.70065307617188 28.65264129638672 C 81.58542633056641 23.65165710449219 78.55665588378906 19.15969848632812 74.69847869873047 15.30152893066406 C 70.84030914306641 11.44333648681641 66.34834289550781 8.414566040039062 61.34736633300781 6.299339294433594 C 56.17134094238281 4.110054016113281 50.67128372192383 3 44.99999618530273 3 M 44.99999618530273 0 C 69.85281372070312 0 90 20.14719390869141 90 45.0000114440918 C 90 69.85282897949219 69.85281372070312 90.00002288818359 44.99999618530273 90.00002288818359 C 20.14717864990234 90.00002288818359 -7.62939453125e-06 69.85282897949219 -7.62939453125e-06 45.0000114440918 C -7.62939453125e-06 20.14719390869141 20.14717864990234 0 44.99999618530273 0 Z" stroke="none" fill="#6c4dd8"/>
                  </g>
                </g>
              </g>
            </g>
          </g>
        </g>
      </g>
    </g>
    <g id="presentation_8327752" transform="translate(214.566 949.01)">
      <path id="Trazado_1059175" data-name="Trazado 1059175" d="M18.5,18.5H71.023V53.789H18.5Z" transform="translate(-6.67 -6.75)" fill="#eaf6ff"/>
      <path id="Trazado_1059176" data-name="Trazado 1059176" d="M71.023,52.147v1.641H18.5V18.5h1.641A33.653,33.653,0,0,0,53.789,52.147Z" transform="translate(-6.67 -6.75)" fill="#c6e7ff"/>
      <path id="Trazado_1059177" data-name="Trazado 1059177" d="M233.734,48.188h25.441V63.781H233.734Z" transform="translate(-198.105 -33.156)" fill="#d4f2f6"/>
      <path id="Trazado_1059178" data-name="Trazado 1059178" d="M265.776,70.453V83.584h-24.62l5.745-5.745,3.283,1.641,3.283-3.283,3.283,1.641,4.1-4.924Z" transform="translate(-204.706 -52.959)" fill="#23f1a8"/>
      <path id="Trazado_1059179" data-name="Trazado 1059179" d="M269.059,348.695v6.18h-19.7v-6.565H246.08a4.928,4.928,0,0,1-4.924-4.924v-5.745h4.1v4.924a.823.823,0,0,0,.821.821h16.069c1.541,0,3.393-.15,4.538.566A5.322,5.322,0,0,1,269.059,348.695Z" transform="translate(-204.706 -290.602)" fill="#64b9fc"/>
      <path id="Trazado_1059180" data-name="Trazado 1059180" d="M385.975,398.058l-.747,2.24h-1.641l-.747-2.24,1.568-1.042Z" transform="translate(-330.724 -343.412)" fill="#f82f40"/>
      <path id="Trazado_1059181" data-name="Trazado 1059181" d="M350.808,378.694l-2.462,1.641-3.283-2.462,1.979-1.319a.821.821,0,0,1,.948.026Z" transform="translate(-297.124 -325.091)" fill="#46abfb"/>
      <path id="Trazado_1059182" data-name="Trazado 1059182" d="M397.016,378.694l2.462,1.641,3.283-2.462-1.979-1.319a.821.821,0,0,0-.948.026Z" transform="translate(-343.332 -325.091)" fill="#46abfb"/>
      <path id="Trazado_1059183" data-name="Trazado 1059183" d="M460.453,399.458v6.18h-4.1c0-3.6-.188-6.712,1.732-10.923A5.322,5.322,0,0,1,460.453,399.458Z" transform="translate(-396.101 -341.366)" fill="#46abfb"/>
      <path id="Trazado_1059184" data-name="Trazado 1059184" d="M337.641,448.969h3.283v1.641h-3.283Z" transform="translate(-290.522 -389.621)" fill="#094c66"/>
      <path id="Trazado_1059185" data-name="Trazado 1059185" d="M380.079,361.28l-2.413,1.8-2.4-1.8.8-2.413a4.474,4.474,0,0,0,3.2,0Z" transform="translate(-323.991 -309.482)" fill="#ffe1b5"/>
      <path id="Trazado_1059186" data-name="Trazado 1059186" d="M378.076,362.773l-.41.3-2.4-1.8.8-2.413a3.89,3.89,0,0,0,.747.213,3.233,3.233,0,0,0,1.256,3.693Z" transform="translate(-323.99 -309.482)" fill="#ffd391"/>
      <path id="Trazado_1059187" data-name="Trazado 1059187" d="M386.256,434.089h-3.045l.706-7.386h1.641Z" transform="translate(-331.054 -369.817)" fill="#fb4a59"/>
      <path id="Trazado_1059188" data-name="Trazado 1059188" d="M349.47,274.749a1.492,1.492,0,0,1-1.4,1.485l-.435.066c-.3,3.03-2.463,5-4.9,5-2.465,0-4.609-1.994-4.908-5l-.435-.066a1.487,1.487,0,0,1-1.4-1.485,1.564,1.564,0,0,1,1.494-1.674l.96.107,1.009-1.091a6.955,6.955,0,0,0,4.287-1.69l3.279,2.782c1-.111,1.077-.144,1.338-.057A1.649,1.649,0,0,1,349.47,274.749Z" transform="translate(-289.049 -230.797)" fill="#ffd8a0"/>
      <path id="Trazado_1059189" data-name="Trazado 1059189" d="M345.531,301.849c-2.807,2.233-7.255.514-7.706-4.029l-.435-.066a1.487,1.487,0,0,1-1.4-1.485,1.564,1.564,0,0,1,1.494-1.674l.32.033a1.569,1.569,0,0,0,1.231,2.306l.435.066C339.824,300.6,342.777,302.583,345.531,301.849Z" transform="translate(-289.049 -252.315)" fill="#ffc97c"/>
      <path id="Trazado_1059190" data-name="Trazado 1059190" d="M357.373,229.267c0,1.124-.944,1.124-.944,2.273V233.9c-.285-.1-.412-.045-1.338.057l-3.279-2.782a6.955,6.955,0,0,1-4.287,1.69l-1.009,1.091c-.843-.094-1.065-.171-1.453-.008v-3.077a4.182,4.182,0,0,1,2.634-3.89c3.482-1.429,5.5-.342,8.609.763A1.6,1.6,0,0,1,357.373,229.267Z" transform="translate(-297.124 -191.568)" fill="#606060"/>
      <path id="Trazado_1059191" data-name="Trazado 1059191" d="M351.726,226.412a8.9,8.9,0,0,0-2.388.632,4.182,4.182,0,0,0-2.634,3.89v2.88l-.189.205c-.843-.094-1.065-.171-1.453-.008v-3.077a4.182,4.182,0,0,1,2.634-3.89A8.168,8.168,0,0,1,351.726,226.412Z" transform="translate(-297.123 -191.634)" fill="#4e4e4e"/>
      <path id="Trazado_1059192" data-name="Trazado 1059192" d="M241.156,337.641h4.1V340.1h-4.1Z" transform="translate(-204.706 -290.603)" fill="#46abfb"/>
      <path id="Trazado_1059193" data-name="Trazado 1059193" d="M242.8,274.15v-1.641c0-1.749,2.462-2.216,2.462-.821v6.565h-4.1v-2.462a.821.821,0,0,1,.821-.821.825.825,0,0,0,.821-.821Z" transform="translate(-204.706 -231.215)" fill="#ffe1b5"/>
      <path id="Trazado_1059194" data-name="Trazado 1059194" d="M243.035,347.251a4.91,4.91,0,0,1-1.879-3.865v-5.745h.821v6.565A4.878,4.878,0,0,0,243.035,347.251Z" transform="translate(-204.706 -290.603)" fill="#41a9fb"/>
      <path id="Trazado_1059195" data-name="Trazado 1059195" d="M315.375,419.281h.821v8.207h-.821Z" transform="translate(-270.719 -363.215)" fill="#41a9fb"/>
      <path id="Trazado_1059196" data-name="Trazado 1059196" d="M241.156,337.641h.821V340.1h-.821Z" transform="translate(-204.706 -290.603)" fill="#239bfa"/>
      <path id="Trazado_1059197" data-name="Trazado 1059197" d="M245.26,271.665a1.646,1.646,0,0,0-1.641,1.641v1.641a.823.823,0,0,1-.821.821.823.823,0,0,0-.821.821v1.641h-.821v-2.462a.823.823,0,0,1,.821-.821.823.823,0,0,0,.821-.821v-1.641a1.646,1.646,0,0,1,1.641-1.641A.823.823,0,0,1,245.26,271.665Z" transform="translate(-204.707 -231.192)" fill="#ffd391"/>
      <path id="Trazado_1059198" data-name="Trazado 1059198" d="M69.683,50.471,67.5,52.925a5.745,5.745,0,0,0-9.052,1.912l-2.987-1.354a9.03,9.03,0,0,1,14.222-3.012Z" transform="translate(-39.544 -33.157)" fill="#64b9fc"/>
      <path id="Trazado_1059199" data-name="Trazado 1059199" d="M138.856,75.566a9.022,9.022,0,0,1-9.027,9.027V81.31a5.749,5.749,0,0,0,3.816-10.037l2.183-2.454A9.009,9.009,0,0,1,138.856,75.566Z" transform="translate(-105.688 -51.506)" fill="#fb4a59"/>
      <path id="Trazado_1059200" data-name="Trazado 1059200" d="M57.141,105.537v3.283a9.037,9.037,0,0,1-8.223-12.761L51.9,97.413A5.76,5.76,0,0,0,57.141,105.537Z" transform="translate(-33.001 -75.733)" fill="#fddd45"/>
      <path id="Trazado_1059201" data-name="Trazado 1059201" d="M53.541,125.879a9.037,9.037,0,0,1-5.269-9.782,33.52,33.52,0,0,0,5.269,9.782Z" transform="translate(-33.037 -93.556)" fill="#fdd722"/>
      <path id="Trazado_1059202" data-name="Trazado 1059202" d="M345.063,122.406H346.7v7.386h-1.641Z" transform="translate(-297.124 -99.167)" fill="#26d192"/>
      <path id="Trazado_1059203" data-name="Trazado 1059203" d="M411.859,92.719H413.5v10.669h-1.641Z" transform="translate(-356.534 -72.763)" fill="#26d192"/>
      <path id="Trazado_1059204" data-name="Trazado 1059204" d="M285.688,137.25h1.641v5.745h-1.641Z" transform="translate(-244.314 -112.37)" fill="#26d192"/>
      <g id="Grupo_1223438" data-name="Grupo 1223438" transform="translate(11.001 10.91)">
        <path id="Trazado_1059205" data-name="Trazado 1059205" d="M337.667,448.941h3.284v1.642h-3.284Z" transform="translate(-301.546 -400.506)" fill="#020a21"/>
        <path id="Trazado_1059206" data-name="Trazado 1059206" d="M259.763,230.842l-1.98-.792-2.3-1.314a.817.817,0,0,0-.862.036l-.217-.65a6.267,6.267,0,0,0,3.014-4.4,2.314,2.314,0,0,0,1.934-2.271,2.539,2.539,0,0,0-1.114-2.155v-1.845a.82.82,0,0,1,.285-.62,2.426,2.426,0,0,0-.954-3.948l-2.764-.989a8.738,8.738,0,0,0-6.425.232,4.99,4.99,0,0,0-3.154,4.655v2.593a2.441,2.441,0,0,0-1,2.105,2.338,2.338,0,0,0,1.933,2.242,6.266,6.266,0,0,0,3.021,4.4l-.216.647a.816.816,0,0,0-.91-.006l-2.256,1.5h-6.319V218.776a1.644,1.644,0,0,0-1.642-1.642,2.465,2.465,0,0,0-2.463,2.463v1.642a1.644,1.644,0,0,0-1.642,1.642v8.209a5.753,5.753,0,0,0,5.746,5.747h2.463v5.746h1.642v-6.567a.821.821,0,0,0-.821-.821h-3.284a4.109,4.109,0,0,1-4.1-4.1v-1.642h2.463v.821a1.644,1.644,0,0,0,1.642,1.642h6.294l3.065,2.3a.821.821,0,0,0,.949.026l.351,1.054-.691,7.215,1.634.156.636-6.645h.149l.627,6.644,1.634-.154-.68-7.215.352-1.055a.822.822,0,0,0,1-.066l2.77-2.438c1.645.658,1.141.454,1.645.664a18.124,18.124,0,0,0-1.674,7.586v2.6h1.642v-2.6a16.494,16.494,0,0,1,1.4-6.641,4.459,4.459,0,0,1,1.061,3.062v6.182h1.642V236.4a5.572,5.572,0,0,0-3.519-5.56Zm-21.93-3.035H235.37v-1.642h2.463Zm0-3.284H235.37v-1.642a1.644,1.644,0,0,0,1.642-1.642V219.6a.822.822,0,0,1,.821-.821Zm9.03-7.741a3.359,3.359,0,0,1,2.129-3.133,7.05,7.05,0,0,1,5.255-.208l2.765.989a.775.775,0,0,1,.523.749c0,.267-.076.358-.28.6a2.409,2.409,0,0,0-.664,1.669v1.532l-.3.036a.566.566,0,0,1-.367-.082l-2.013-1.257a1.8,1.8,0,0,0-1.712-.1,7.559,7.559,0,0,1-3.432.417.823.823,0,0,0-.863.222l-.729.788-.31-.037Zm.834,6.13a.82.82,0,0,0-.687-.73,4.155,4.155,0,0,0-.564-.08.678.678,0,0,1-.583-.708.759.759,0,0,1,.636-.812l.9.107a.82.82,0,0,0,.7-.258l.684-.74a7.926,7.926,0,0,0,3.764-.474,1.684,1.684,0,0,1,1.626.207,9.35,9.35,0,0,1,1.308,1.025.829.829,0,0,0,.71.252l.884-.12c.25-.017.645.345.635.842a.676.676,0,0,1-.582.68,3.99,3.99,0,0,0-.564.08.82.82,0,0,0-.687.73c-.242,2.463-1.961,4.251-4.088,4.251s-3.846-1.788-4.088-4.251Zm1.655,9.636-1.89-1.417,1.014-.676,1.89,1.417Zm2.666,1.827h-.459l-.361-1.083.59-.394.59.394Zm-.236-3.5-1.435-1.076.369-1.106a5.343,5.343,0,0,0,2.146,0l.368,1.1Zm2.4,1.641c-.548-.365,0,0-.98-.653l1.929-1.439.866.494Z" transform="translate(-209.1 -189.223)" fill="#020a21"/>
        <path id="Trazado_1059207" data-name="Trazado 1059207" d="M300.915,330.153h4.064v1.642h-4.064Z" transform="translate(-268.858 -294.853)" fill="#020a21"/>
        <path id="Trazado_1059208" data-name="Trazado 1059208" d="M64.361,10.91H11.822a.821.821,0,0,0-.821.821v35.3a.821.821,0,0,0,.821.821H33.987V46.21H12.643V12.552h50.9V46.21H60.256v1.642h4.1a.821.821,0,0,0,.821-.821v-35.3a.821.821,0,0,0-.821-.821Z" transform="translate(-11.001 -10.91)" fill="#020a21"/>
        <path id="Trazado_1059209" data-name="Trazado 1059209" d="M50.549,60.309A9.856,9.856,0,1,0,41.9,55.163a9.851,9.851,0,0,0,8.653,5.147ZM56.588,44.9A8.206,8.206,0,0,1,51.37,58.626V56.969a6.556,6.556,0,0,0,4.119-10.83Zm-6.04,10.482a4.926,4.926,0,1,1,4.926-4.926A4.926,4.926,0,0,1,50.549,55.384ZM43.654,46h0A8.211,8.211,0,0,1,55.362,43.81l-1.1,1.238a6.543,6.543,0,0,0-9.3,1.97l-1.5-.678c.066-.113.117-.235.188-.344Zm-.883,1.832,1.509.684a6.562,6.562,0,0,0,5.448,8.457v1.657a8.219,8.219,0,0,1-6.957-10.8Z" transform="translate(-37.414 -37.323)" fill="#020a21"/>
        <path id="Trazado_1059210" data-name="Trazado 1059210" d="M234.548,57.846h24.628a.821.821,0,0,0,.821-.821v-15.6a.821.821,0,0,0-.821-.821H234.548a.821.821,0,0,0-.821.821l.006,15.627a.742.742,0,0,0,.058.287.865.865,0,0,0,.757.5Zm4.926-1.642H236.53l2.944-2.944Zm6.567,0h-4.926v-3.6l2.1,1.048a.823.823,0,0,0,.948-.154l1.882-1.882Zm7.388,0h-5.746V50.965l2.1,1.048a.823.823,0,0,0,1-.209l2.653-3.183Zm4.926,0h-3.284V46.861l3.284-1.642ZM235.369,42.248h22.986v1.134l-4.472,2.236a.834.834,0,0,0-.264.209l-3.688,4.426-2.7-1.351a.822.822,0,0,0-.948.154l-2.865,2.865-2.755-1.377a.82.82,0,0,0-.948.154l-4.345,4.345Z" transform="translate(-209.099 -37.323)" fill="#020a21"/>
        <path id="Trazado_1059211" data-name="Trazado 1059211" d="M40.7,233.638h1.642v1.642H40.7Z" transform="translate(-37.413 -209.01)" fill="#020a21"/>
        <path id="Trazado_1059212" data-name="Trazado 1059212" d="M70.394,233.638H98.305v1.642H70.394Z" transform="translate(-63.827 -209.01)" fill="#020a21"/>
        <path id="Trazado_1059213" data-name="Trazado 1059213" d="M40.7,263.335h1.642v1.642H40.7Z" transform="translate(-37.413 -235.423)" fill="#020a21"/>
        <path id="Trazado_1059214" data-name="Trazado 1059214" d="M70.394,263.335h18.06v1.642H70.394Z" transform="translate(-63.827 -235.423)" fill="#020a21"/>
        <path id="Trazado_1059215" data-name="Trazado 1059215" d="M40.7,293.032h1.642v1.642H40.7Z" transform="translate(-37.413 -261.837)" fill="#020a21"/>
        <path id="Trazado_1059216" data-name="Trazado 1059216" d="M70.394,293.032H86.813v1.642H70.394Z" transform="translate(-63.827 -261.837)" fill="#020a21"/>
      </g>
    </g>
  </g>
</svg>
