<svg xmlns="http://www.w3.org/2000/svg" xmlns:xlink="http://www.w3.org/1999/xlink" width="123" height="123" viewBox="0 0 123 123">
  <defs>
    <filter id="Trazado_982547" x="0" y="0" width="123" height="123" filterUnits="userSpaceOnUse">
      <feOffset dy="3" input="SourceAlpha"/>
      <feGaussianBlur stdDeviation="3" result="blur"/>
      <feFlood flood-opacity="0.161"/>
      <feComposite operator="in" in2="blur"/>
      <feComposite in="SourceGraphic"/>
    </filter>
  </defs>
  <g id="Grupo_1223462" data-name="Grupo 1223462" transform="translate(-737.656 -2562)">
    <g id="Grupo_1223226" data-name="Grupo 1223226" transform="translate(412.886 -418.695)">
      <g id="Grupo_1211203" data-name="Grupo 1211203" transform="translate(333.77 2986.695)">
        <g id="Grupo_1210937" data-name="Grupo 1210937" transform="translate(0 0)">
          <g id="Grupo_1174742" data-name="Grupo 1174742" transform="translate(0)">
            <g id="Grupo_1163948" data-name="Grupo 1163948">
              <g id="Grupo_1158168" data-name="Grupo 1158168">
                <g id="Grupo_1152576" data-name="Grupo 1152576">
                  <g id="Grupo_1148633" data-name="Grupo 1148633">
                    <g id="Grupo_1148525" data-name="Grupo 1148525">
                      <g transform="matrix(1, 0, 0, 1, -9, -6)" filter="url(#Trazado_982547)">
                        <g id="Trazado_982547-2" data-name="Trazado 982547" transform="translate(9 6)" fill="#fdf6e4">
                          <path d="M 52.49996948242188 103.4999389648438 C 45.61435699462891 103.4999389648438 38.93551254272461 102.1517105102539 32.64894104003906 99.49272918701172 C 26.57608413696289 96.92412567138672 21.12178421020508 93.24662780761719 16.43754005432129 88.56240081787109 C 11.75331211090088 83.87815856933594 8.075812339782715 78.42385864257812 5.507212162017822 72.35099792480469 C 2.848226547241211 66.06443023681641 1.499998092651367 59.38558197021484 1.499998092651367 52.49996948242188 C 1.499998092651367 45.61435699462891 2.848226547241211 38.93551254272461 5.507212162017822 32.64894104003906 C 8.075812339782715 26.57608413696289 11.75331211090088 21.12178421020508 16.43754005432129 16.43754005432129 C 21.12178421020508 11.75331211090088 26.57608413696289 8.075812339782715 32.64894104003906 5.507212162017822 C 38.93551254272461 2.848226547241211 45.61435699462891 1.499998092651367 52.49996948242188 1.499998092651367 C 59.38558197021484 1.499998092651367 66.06443023681641 2.848226547241211 72.35099792480469 5.507212162017822 C 78.42385864257812 8.075812339782715 83.87815856933594 11.75331211090088 88.56240081787109 16.43754005432129 C 93.24662780761719 21.12178421020508 96.92412567138672 26.57608413696289 99.49272918701172 32.64894104003906 C 102.1517105102539 38.93551254272461 103.4999389648438 45.61435699462891 103.4999389648438 52.49996948242188 C 103.4999389648438 59.38558197021484 102.1517105102539 66.06443023681641 99.49272918701172 72.35099792480469 C 96.92412567138672 78.42385864257812 93.24662780761719 83.87815856933594 88.56240081787109 88.56240081787109 C 83.87815856933594 93.24662780761719 78.42385864257812 96.92412567138672 72.35099792480469 99.49272918701172 C 66.06443023681641 102.1517105102539 59.38558197021484 103.4999389648438 52.49996948242188 103.4999389648438 Z" stroke="none"/>
                          <path d="M 52.49996948242188 3 C 45.81618499755859 3 39.33393859863281 4.308349609375 33.23326873779297 6.888717651367188 C 27.33920288085938 9.381706237792969 22.045166015625 12.95125579833984 17.49819946289062 17.49819946289062 C 12.95125579833984 22.045166015625 9.381706237792969 27.33920288085938 6.888717651367188 33.23326873779297 C 4.308349609375 39.33393859863281 3 45.81618499755859 3 52.49996948242188 C 3 59.18375396728516 4.308349609375 65.66600036621094 6.888717651367188 71.76667022705078 C 9.381706237792969 77.66073608398438 12.95125579833984 82.95477294921875 17.49819946289062 87.50173950195312 C 22.045166015625 92.04868316650391 27.33920288085938 95.61824035644531 33.23326873779297 98.11122131347656 C 39.33393859863281 100.6915893554688 45.81618499755859 101.9999389648438 52.49996948242188 101.9999389648438 C 59.18375396728516 101.9999389648438 65.66600036621094 100.6915893554688 71.76667022705078 98.11122131347656 C 77.66073608398438 95.61824035644531 82.95477294921875 92.04868316650391 87.50173950195312 87.50173950195312 C 92.04868316650391 82.95477294921875 95.61824035644531 77.66073608398438 98.11122131347656 71.76667022705078 C 100.6915893554688 65.66600036621094 101.9999389648438 59.18375396728516 101.9999389648438 52.49996948242188 C 101.9999389648438 45.81618499755859 100.6915893554688 39.33393859863281 98.11122131347656 33.23326873779297 C 95.61824035644531 27.33920288085938 92.04868316650391 22.045166015625 87.50173950195312 17.49819946289062 C 82.95477294921875 12.95125579833984 77.66073608398438 9.381706237792969 71.76667022705078 6.888717651367188 C 65.66600036621094 4.308349609375 59.18375396728516 3 52.49996948242188 3 M 52.49996948242188 0 C 81.49490356445312 0 104.9999389648438 23.50503540039062 104.9999389648438 52.49996948242188 C 104.9999389648438 81.49490356445312 81.49490356445312 104.9999389648438 52.49996948242188 104.9999389648438 C 23.50503540039062 104.9999389648438 0 81.49490356445312 0 52.49996948242188 C 0 23.50503540039062 23.50503540039062 0 52.49996948242188 0 Z" stroke="none" fill="#f5b104"/>
                        </g>
                      </g>
                    </g>
                  </g>
                </g>
              </g>
            </g>
          </g>
        </g>
      </g>
    </g>
    <g id="risk-analysis_11204897_1_" data-name="risk-analysis_11204897 (1)" transform="translate(747.656 2563.784)">
      <g id="Grupo_1223461" data-name="Grupo 1223461" transform="translate(16 24.216)">
        <path id="Trazado_1059273" data-name="Trazado 1059273" d="M84.751,36.379l-.013,21,3.643,6.312a2.034,2.034,0,0,1-1.76,3.053h-1.87v4.438a5.1,5.1,0,0,1-5.089,5.089H53.227l.039,10.974a3.635,3.635,0,1,1-1.93,0L51.3,76.266H24.59A5.1,5.1,0,0,1,19.5,71.178v-34.8H17.636A1.639,1.639,0,0,1,16,34.742V32.215a1.639,1.639,0,0,1,1.636-1.637h33.32l.027-5.4a.965.965,0,0,1,1.93.008l-.027,5.394H86.615a1.639,1.639,0,0,1,1.637,1.637v2.526a1.639,1.639,0,0,1-1.637,1.637Z" transform="translate(-16 -24.216)" fill-rule="evenodd"/>
        <path id="Trazado_1059274" data-name="Trazado 1059274" d="M113.3,122.232V104.566H51.929v34.8a3.159,3.159,0,0,0,3.151,3.151h55.072a3.159,3.159,0,0,0,3.151-3.151v-4.438H97.882a2.033,2.033,0,0,1-1.76-3.049l9.616-16.657a2.031,2.031,0,0,1,3.52,0q2.032,3.5,4.047,7.013ZM78.574,107.3a.827.827,0,1,1,.7-1.5l2.838,1.328a.828.828,0,0,1,.417,1.148L81.2,111.121a.827.827,0,1,1-1.5-.7l.552-1.179-8.246,2.546-5.7,6.078s-.229.171-.253.182l-7.072,3.31a.827.827,0,1,1-.7-1.5l6.924-3.241,5.744-6.124a.825.825,0,0,1,.385-.232L79.5,107.74Zm2.234,30.163V114.915a.969.969,0,0,1,.969-.969h7.6a.969.969,0,0,1,.969.969v22.553H92.09a.969.969,0,0,1,0,1.938h-37.8a.969.969,0,1,1,0-1.938h1.544V125.5a.969.969,0,0,1,.969-.969h7.6a.969.969,0,0,1,.969.969v11.964h2.812V120.845a.969.969,0,0,1,.969-.969h7.6a.969.969,0,0,1,.969.969v16.623Z" transform="translate(-46.49 -92.403)" fill="#fff" fill-rule="evenodd"/>
        <path id="Trazado_1059275" data-name="Trazado 1059275" d="M363.321,179.362a.374.374,0,0,0-.653,0l-9.615,16.651a.373.373,0,0,0,.326.565h19.23a.37.37,0,0,0,.326-.561S364.123,180.748,363.321,179.362Zm-1.157,4.926a.83.83,0,1,1,1.661,0v6.124a.83.83,0,1,1-1.661,0Zm0,9.423a.83.83,0,0,1,1.661,0v.268a.83.83,0,0,1-1.661,0Z" transform="translate(-301.988 -155.715)" fill="#fdbc31" fill-rule="evenodd"/>
        <path id="Trazado_1059276" data-name="Trazado 1059276" d="M246.3,452.519a1.7,1.7,0,1,0,1.7,1.7,1.7,1.7,0,0,0-1.7-1.7Z" transform="translate(-209.998 -387.687)" fill="#999" fill-rule="evenodd"/>
      </g>
      <path id="Trazado_1059277" data-name="Trazado 1059277" d="M28.8,79.049H97.174v1.925H28.8Z" transform="translate(-10.859 -46.533)" fill="#999"/>
      <path id="Trazado_1059278" data-name="Trazado 1059278" d="M255.511,179.336h5.662V200.92h-5.662Z" transform="translate(-203.256 -131.639)" fill="#12b7ee"/>
      <path id="Trazado_1059279" data-name="Trazado 1059279" d="M172.132,218.509h5.662v15.654h-5.662Z" transform="translate(-132.498 -164.883)" fill="#30c3f0"/>
      <path id="Trazado_1059280" data-name="Trazado 1059280" d="M90.547,249.287h5.662v11H90.547Z" transform="translate(-63.263 -191.002)" fill="#69d6f4"/>
    </g>
  </g>
</svg>
