<svg xmlns="http://www.w3.org/2000/svg" xmlns:xlink="http://www.w3.org/1999/xlink" width="123" height="123" viewBox="0 0 123 123">
  <defs>
    <filter id="Trazado_982547" x="0" y="0" width="123" height="123" filterUnits="userSpaceOnUse">
      <feOffset dy="3" input="SourceAlpha"/>
      <feGaussianBlur stdDeviation="3" result="blur"/>
      <feFlood flood-opacity="0.161"/>
      <feComposite operator="in" in2="blur"/>
      <feComposite in="SourceGraphic"/>
    </filter>
  </defs>
  <g id="Grupo_1223463" data-name="Grupo 1223463" transform="translate(-1158.5 -2562.007)">
    <g id="Grupo_1223227" data-name="Grupo 1223227" transform="translate(833.729 -418.688)">
      <g id="Grupo_1211203" data-name="Grupo 1211203" transform="translate(333.77 2986.695)">
        <g id="Grupo_1210937" data-name="Grupo 1210937" transform="translate(0 0)">
          <g id="Grupo_1174742" data-name="Grupo 1174742" transform="translate(0)">
            <g id="Grupo_1163948" data-name="Grupo 1163948">
              <g id="Grupo_1158168" data-name="Grupo 1158168">
                <g id="Grupo_1152576" data-name="Grupo 1152576">
                  <g id="Grupo_1148633" data-name="Grupo 1148633">
                    <g id="Grupo_1148525" data-name="Grupo 1148525">
                      <g transform="matrix(1, 0, 0, 1, -9, -6)" filter="url(#Trazado_982547)">
                        <g id="Trazado_982547-2" data-name="Trazado 982547" transform="translate(9 6)" fill="#fdf6e4">
                          <path d="M 52.49996948242188 103.4999389648438 C 45.61435699462891 103.4999389648438 38.93551254272461 102.1517105102539 32.64894104003906 99.49272918701172 C 26.57608413696289 96.92412567138672 21.12178421020508 93.24662780761719 16.43754005432129 88.56240081787109 C 11.75331211090088 83.87815856933594 8.075812339782715 78.42385864257812 5.507212162017822 72.35099792480469 C 2.848226547241211 66.06443023681641 1.499998092651367 59.38558197021484 1.499998092651367 52.49996948242188 C 1.499998092651367 45.61435699462891 2.848226547241211 38.93551254272461 5.507212162017822 32.64894104003906 C 8.075812339782715 26.57608413696289 11.75331211090088 21.12178421020508 16.43754005432129 16.43754005432129 C 21.12178421020508 11.75331211090088 26.57608413696289 8.075812339782715 32.64894104003906 5.507212162017822 C 38.93551254272461 2.848226547241211 45.61435699462891 1.499998092651367 52.49996948242188 1.499998092651367 C 59.38558197021484 1.499998092651367 66.06443023681641 2.848226547241211 72.35099792480469 5.507212162017822 C 78.42385864257812 8.075812339782715 83.87815856933594 11.75331211090088 88.56240081787109 16.43754005432129 C 93.24662780761719 21.12178421020508 96.92412567138672 26.57608413696289 99.49272918701172 32.64894104003906 C 102.1517105102539 38.93551254272461 103.4999389648438 45.61435699462891 103.4999389648438 52.49996948242188 C 103.4999389648438 59.38558197021484 102.1517105102539 66.06443023681641 99.49272918701172 72.35099792480469 C 96.92412567138672 78.42385864257812 93.24662780761719 83.87815856933594 88.56240081787109 88.56240081787109 C 83.87815856933594 93.24662780761719 78.42385864257812 96.92412567138672 72.35099792480469 99.49272918701172 C 66.06443023681641 102.1517105102539 59.38558197021484 103.4999389648438 52.49996948242188 103.4999389648438 Z" stroke="none"/>
                          <path d="M 52.49996948242188 3 C 45.81618499755859 3 39.33393859863281 4.308349609375 33.23326873779297 6.888717651367188 C 27.33920288085938 9.381706237792969 22.045166015625 12.95125579833984 17.49819946289062 17.49819946289062 C 12.95125579833984 22.045166015625 9.381706237792969 27.33920288085938 6.888717651367188 33.23326873779297 C 4.308349609375 39.33393859863281 3 45.81618499755859 3 52.49996948242188 C 3 59.18375396728516 4.308349609375 65.66600036621094 6.888717651367188 71.76667022705078 C 9.381706237792969 77.66073608398438 12.95125579833984 82.95477294921875 17.49819946289062 87.50173950195312 C 22.045166015625 92.04868316650391 27.33920288085938 95.61824035644531 33.23326873779297 98.11122131347656 C 39.33393859863281 100.6915893554688 45.81618499755859 101.9999389648438 52.49996948242188 101.9999389648438 C 59.18375396728516 101.9999389648438 65.66600036621094 100.6915893554688 71.76667022705078 98.11122131347656 C 77.66073608398438 95.61824035644531 82.95477294921875 92.04868316650391 87.50173950195312 87.50173950195312 C 92.04868316650391 82.95477294921875 95.61824035644531 77.66073608398438 98.11122131347656 71.76667022705078 C 100.6915893554688 65.66600036621094 101.9999389648438 59.18375396728516 101.9999389648438 52.49996948242188 C 101.9999389648438 45.81618499755859 100.6915893554688 39.33393859863281 98.11122131347656 33.23326873779297 C 95.61824035644531 27.33920288085938 92.04868316650391 22.045166015625 87.50173950195312 17.49819946289062 C 82.95477294921875 12.95125579833984 77.66073608398438 9.381706237792969 71.76667022705078 6.888717651367188 C 65.66600036621094 4.308349609375 59.18375396728516 3 52.49996948242188 3 M 52.49996948242188 0 C 81.49490356445312 0 104.9999389648438 23.50503540039062 104.9999389648438 52.49996948242188 C 104.9999389648438 81.49490356445312 81.49490356445312 104.9999389648438 52.49996948242188 104.9999389648438 C 23.50503540039062 104.9999389648438 0 81.49490356445312 0 52.49996948242188 C 0 23.50503540039062 23.50503540039062 0 52.49996948242188 0 Z" stroke="none" fill="#f5b104"/>
                        </g>
                      </g>
                    </g>
                  </g>
                </g>
              </g>
            </g>
          </g>
        </g>
      </g>
    </g>
    <g id="decision_7690615" transform="translate(1183.786 2584.293)">
      <rect id="Rectángulo_425480" data-name="Rectángulo 425480" width="68" height="5" transform="translate(2.214 54.214)" fill="#9dc8f2"/>
      <path id="Trazado_1059281" data-name="Trazado 1059281" d="M38.9,58.631,37.767,45H28.68L27.544,58.631H23v5.68H43.447v-5.68Z" transform="translate(2.991 5.981)" fill="#72a6e4"/>
      <circle id="Elipse_12848" data-name="Elipse 12848" cx="17" cy="17" r="17" transform="translate(19.214 2.214)" fill="#dae6f2"/>
      <ellipse id="Elipse_12849" data-name="Elipse 12849" cx="10.5" cy="10" rx="10.5" ry="10" transform="translate(47.214 34.214)" fill="#7bcc8f"/>
      <ellipse id="Elipse_12850" data-name="Elipse 12850" cx="10.5" cy="10" rx="10.5" ry="10" transform="translate(4.214 34.214)" fill="#d96d6d"/>
      <path id="Trazado_1059282" data-name="Trazado 1059282" d="M28.442,7.015A4.2,4.2,0,0,0,24.1,11.069a3.77,3.77,0,0,0,.179,1.091A4.066,4.066,0,0,0,21.5,15.934a3.907,3.907,0,0,0,1.245,2.838A3.907,3.907,0,0,0,21.5,21.609a4.059,4.059,0,0,0,2.638,3.729c-.009.109-.035.213-.035.324a4.2,4.2,0,0,0,4.339,4.054,4.423,4.423,0,0,0,3.471-1.644V8.659a4.423,4.423,0,0,0-3.471-1.644Z" transform="translate(2.787 0.817)" fill="#f2d891"/>
      <path id="Trazado_1059283" data-name="Trazado 1059283" d="M42.921,20.007a9.233,9.233,0,0,0,0-3.313l1.949-1.187a11.486,11.486,0,0,0-2.864-5.247l-1.13.688a1.334,1.334,0,0,1-1.49-.038,8.5,8.5,0,0,0-1.28-.778,1.481,1.481,0,0,1-.777-1.342V7.417A10.231,10.231,0,0,0,34.32,7q-.457.006-.9.055v7.192a3.606,3.606,0,0,1,1.041-.153,4.092,4.092,0,0,1,3.9,4.257,4.092,4.092,0,0,1-3.9,4.257,3.606,3.606,0,0,1-1.041-.153v7.192A9.975,9.975,0,0,0,34.6,29.7a10.239,10.239,0,0,0,2.733-.422V27.911a1.482,1.482,0,0,1,.777-1.342,8.484,8.484,0,0,0,1.28-.778,1.335,1.335,0,0,1,1.49-.038L42,26.438a11.484,11.484,0,0,0,2.87-5.243Z" transform="translate(4.407 0.816)" fill="#7483a6"/>
      <path id="Trazado_1059284" data-name="Trazado 1059284" d="M23.117,26.173a5.37,5.37,0,0,0,5.461,4.816,5.533,5.533,0,0,0,4.359-2.072,1.134,1.134,0,0,0,.248-.708V8.795a1.134,1.134,0,0,0-.248-.708,5.533,5.533,0,0,0-4.359-2.072A5.344,5.344,0,0,0,23.1,11.2a4.216,4.216,0,0,0,.023.44A5.086,5.086,0,0,0,20.5,16.07a4.959,4.959,0,0,0,.892,2.838,4.959,4.959,0,0,0-.892,2.837,5.128,5.128,0,0,0,2.617,4.428Zm.547-8.088a2.776,2.776,0,0,1-.892-2.015,2.9,2.9,0,0,1,1.916-2.654,1.11,1.11,0,0,1,.863,1.086h2.272a3.4,3.4,0,0,0-2.446-3.26c0-.012,0-.025,0-.036a3.074,3.074,0,0,1,3.2-2.918,3.3,3.3,0,0,1,2.335.94v6.214A4.412,4.412,0,0,0,27.781,18.2l-.042.116,2.14.764.042-.117a2.05,2.05,0,0,1,.992-1.1v9.913a3.3,3.3,0,0,1-2.335.94,3.137,3.137,0,0,1-3.115-2.3,3.409,3.409,0,0,0,2.086-3.147H25.276a1.119,1.119,0,0,1-.76,1.064,2.9,2.9,0,0,1-1.744-2.589,2.776,2.776,0,0,1,.892-2.015,1.135,1.135,0,0,0,0-1.645Z" transform="translate(2.651 0.681)"/>
      <path id="Trazado_1059285" data-name="Trazado 1059285" d="M34.594,21.607a2.486,2.486,0,0,1-.715-.1,1.135,1.135,0,0,0-1.463,1.088v7.193a1.136,1.136,0,0,0,1.018,1.13,11.228,11.228,0,0,0,1.162.061h.15a11.406,11.406,0,0,0,3.036-.467,1.136,1.136,0,0,0,.818-1.09V28.047a.376.376,0,0,1,.143-.323,9.635,9.635,0,0,0,1.451-.881.217.217,0,0,1,.227.017l1.125.685a1.137,1.137,0,0,0,1.408-.182A12.63,12.63,0,0,0,46.11,21.6,1.135,1.135,0,0,0,45.6,20.36l-1.312-.8a10.129,10.129,0,0,0,0-2.149l1.311-.8a1.135,1.135,0,0,0,.512-1.241A12.634,12.634,0,0,0,42.96,9.609a1.136,1.136,0,0,0-1.408-.182l-1.13.688a.214.214,0,0,1-.227.017,9.6,9.6,0,0,0-1.451-.881.377.377,0,0,1-.143-.324V7.553a1.136,1.136,0,0,0-.817-1.09A11.142,11.142,0,0,0,34.442,6c-.342,0-.678.026-1.011.062a1.136,1.136,0,0,0-1.014,1.129v7.191a1.136,1.136,0,0,0,1.462,1.088,2.5,2.5,0,0,1,.716-.1,2.964,2.964,0,0,1,2.769,3.121A2.964,2.964,0,0,1,34.594,21.607Zm.094-8.512V8.272a9,9,0,0,1,1.641.171v.483a2.623,2.623,0,0,0,1.412,2.362,7.318,7.318,0,0,1,1.108.673,2.468,2.468,0,0,0,2.754.093l.317-.193a10.375,10.375,0,0,1,1.757,3.261l-1.211.737a1.135,1.135,0,0,0-.528,1.166,8.071,8.071,0,0,1,0,2.92,1.135,1.135,0,0,0,.528,1.166l1.211.737a10.359,10.359,0,0,1-1.762,3.258l-.312-.19a2.462,2.462,0,0,0-2.754.093,7.385,7.385,0,0,1-1.109.674,2.622,2.622,0,0,0-1.41,2.361v.479a8.805,8.805,0,0,1-1.613.175h-.027V23.878a5.239,5.239,0,0,0,4.946-5.391A5.239,5.239,0,0,0,34.688,13.1Z" transform="translate(4.271 0.68)"/>
      <path id="Trazado_1059286" data-name="Trazado 1059286" d="M16.32,20.253a18.179,18.179,0,0,0,35.622,0L49.716,19.8a15.907,15.907,0,0,1-31.17,0Z" transform="translate(2.083 2.556)"/>
      <path id="Trazado_1059287" data-name="Trazado 1059287" d="M46,17.145q0,.535-.035,1.062l2.267.148q.039-.6.039-1.21t-.039-1.21l-2.267.148Q46,16.609,46,17.145Z" transform="translate(6.113 2.03)"/>
      <path id="Trazado_1059288" data-name="Trazado 1059288" d="M34.131,3.272A15.944,15.944,0,0,1,49.716,15.993l2.226-.451a18.179,18.179,0,0,0-35.622,0l2.226.451A15.944,15.944,0,0,1,34.131,3.272Z" transform="translate(2.083 0)"/>
      <path id="Trazado_1059289" data-name="Trazado 1059289" d="M18.307,18.207q-.034-.527-.035-1.062t.035-1.062l-2.267-.148q-.039.6-.039,1.21t.039,1.21Z" transform="translate(2.039 2.03)"/>
      <path id="Trazado_1059290" data-name="Trazado 1059290" d="M50.624,45.305a1.134,1.134,0,0,0,.91-.454l6.816-9.088L56.532,34.4,50.4,42.579l-3.635-2.726L45.4,41.67l4.544,3.408A1.13,1.13,0,0,0,50.624,45.305Z" transform="translate(6.036 4.54)"/>
      <path id="Trazado_1059291" data-name="Trazado 1059291" d="M9.656,45.3l4.017-4.017L17.69,45.3,19.3,43.69l-4.017-4.017L19.3,35.656,17.69,34.05l-4.017,4.017L9.656,34.05,8.05,35.656l4.017,4.017L8.05,43.69Z" transform="translate(0.958 4.493)"/>
      <path id="Trazado_1059292" data-name="Trazado 1059292" d="M70.292,49.449H64.584a11.359,11.359,0,1,0-13.574,0H42.087l-.2-2.366a1.136,1.136,0,0,0-1.132-1.042H31.67a1.136,1.136,0,0,0-1.132,1.042l-.2,2.366H21.418a11.359,11.359,0,1,0-13.574,0H2.136A1.136,1.136,0,0,0,1,50.585v4.544a1.136,1.136,0,0,0,1.136,1.136H29.773l-.284,3.408h-3.5a1.136,1.136,0,0,0-1.136,1.136v5.68a1.136,1.136,0,0,0,1.136,1.136H46.438a1.136,1.136,0,0,0,1.136-1.136v-5.68a1.136,1.136,0,0,0-1.136-1.136h-3.5l-.284-3.408H70.292a1.136,1.136,0,0,0,1.136-1.136V50.585A1.136,1.136,0,0,0,70.292,49.449ZM48.709,40.362A9.088,9.088,0,1,1,57.8,49.449,9.088,9.088,0,0,1,48.709,40.362Zm-43.166,0a9.088,9.088,0,1,1,9.088,9.088A9.088,9.088,0,0,1,5.544,40.362ZM3.272,53.993V51.721h26.88l-.189,2.272ZM45.3,61.945v3.408H27.127V61.945h3.408A1.136,1.136,0,0,0,31.666,60.9l1.049-12.59h7L40.762,60.9a1.136,1.136,0,0,0,1.132,1.042Zm23.855-7.952H42.466l-.189-2.272h26.88Z" transform="translate(0 3.804)"/>
    </g>
  </g>
</svg>
