<svg xmlns="http://www.w3.org/2000/svg" xmlns:xlink="http://www.w3.org/1999/xlink" width="801.606" height="560.522" viewBox="0 0 801.606 560.522">
  <defs>
    <clipPath id="clip-path">
      <rect id="Rectángulo_412298" data-name="Rectángulo 412298" width="545.808" height="499.044" fill="none"/>
    </clipPath>
    <filter id="Trazado_998778" x="182.959" y="224.286" width="268.59" height="261.304" filterUnits="userSpaceOnUse">
      <feOffset dy="3" input="SourceAlpha"/>
      <feGaussianBlur stdDeviation="3" result="blur"/>
      <feFlood flood-opacity="0.161"/>
      <feComposite operator="in" in2="blur"/>
      <feComposite in="SourceGraphic"/>
    </filter>
    <filter id="Trazado_998779" x="302.247" y="8.738" width="193.358" height="193.357" filterUnits="userSpaceOnUse">
      <feOffset dy="3" input="SourceAlpha"/>
      <feGaussianBlur stdDeviation="3" result="blur-2"/>
      <feFlood flood-opacity="0.161"/>
      <feComposite operator="in" in2="blur-2"/>
      <feComposite in="SourceGraphic"/>
    </filter>
    <filter id="Trazado_998780" x="318.603" y="25.093" width="160.648" height="160.648" filterUnits="userSpaceOnUse">
      <feOffset dy="3" input="SourceAlpha"/>
      <feGaussianBlur stdDeviation="3" result="blur-3"/>
      <feFlood flood-opacity="0.161"/>
      <feComposite operator="in" in2="blur-3"/>
      <feComposite in="SourceGraphic"/>
    </filter>
    <clipPath id="clip-path-3">
      <rect id="Rectángulo_412294" data-name="Rectángulo 412294" width="163.69" height="44.681" fill="#eaad03"/>
    </clipPath>
    <filter id="Trazado_998798" x="471.437" y="303.593" width="193.386" height="193.387" filterUnits="userSpaceOnUse">
      <feOffset dy="3" input="SourceAlpha"/>
      <feGaussianBlur stdDeviation="3" result="blur-4"/>
      <feFlood flood-opacity="0.161"/>
      <feComposite operator="in" in2="blur-4"/>
      <feComposite in="SourceGraphic"/>
    </filter>
    <filter id="Trazado_998799" x="487.806" y="319.963" width="160.648" height="160.648" filterUnits="userSpaceOnUse">
      <feOffset dy="3" input="SourceAlpha"/>
      <feGaussianBlur stdDeviation="3" result="blur-5"/>
      <feFlood flood-opacity="0.161"/>
      <feComposite operator="in" in2="blur-5"/>
      <feComposite in="SourceGraphic"/>
    </filter>
    <filter id="Trazado_998800" x="147.495" y="319.963" width="160.648" height="160.648" filterUnits="userSpaceOnUse">
      <feOffset dy="3" input="SourceAlpha"/>
      <feGaussianBlur stdDeviation="3" result="blur-6"/>
      <feFlood flood-opacity="0.161"/>
      <feComposite operator="in" in2="blur-6"/>
      <feComposite in="SourceGraphic"/>
    </filter>
    <clipPath id="clip-path-4">
      <rect id="Rectángulo_412295" data-name="Rectángulo 412295" width="92.29" height="142.529" fill="#772d84"/>
    </clipPath>
    <clipPath id="clip-path-5">
      <rect id="Rectángulo_412296" data-name="Rectángulo 412296" width="92.289" height="142.529" fill="#133c70"/>
    </clipPath>
    <filter id="Trazado_998835" x="131.126" y="303.594" width="193.387" height="193.386" filterUnits="userSpaceOnUse">
      <feOffset dy="3" input="SourceAlpha"/>
      <feGaussianBlur stdDeviation="3" result="blur-7"/>
      <feFlood flood-opacity="0.161"/>
      <feComposite operator="in" in2="blur-7"/>
      <feComposite in="SourceGraphic"/>
    </filter>
    <filter id="Trazado_998836" x="302.247" y="96.417" width="193.357" height="213.064" filterUnits="userSpaceOnUse">
      <feOffset dy="3" input="SourceAlpha"/>
      <feGaussianBlur stdDeviation="3" result="blur-8"/>
      <feFlood flood-opacity="0.161"/>
      <feComposite operator="in" in2="blur-8"/>
      <feComposite in="SourceGraphic"/>
    </filter>
    <filter id="Trazado_998837" x="389.757" y="226.531" width="226.835" height="259.058" filterUnits="userSpaceOnUse">
      <feOffset dy="3" input="SourceAlpha"/>
      <feGaussianBlur stdDeviation="3" result="blur-9"/>
      <feFlood flood-opacity="0.161"/>
      <feComposite operator="in" in2="blur-9"/>
      <feComposite in="SourceGraphic"/>
    </filter>
    <filter id="Elipse_12269" x="312.071" y="214.522" width="174" height="174" filterUnits="userSpaceOnUse">
      <feOffset dy="3" input="SourceAlpha"/>
      <feGaussianBlur stdDeviation="3" result="blur-10"/>
      <feFlood flood-opacity="0.161"/>
      <feComposite operator="in" in2="blur-10"/>
      <feComposite in="SourceGraphic"/>
    </filter>
    <clipPath id="clip-path-6">
      <rect id="Rectángulo_414916" data-name="Rectángulo 414916" width="181.133" height="317.057" transform="translate(0 0)" fill="none"/>
    </clipPath>
  </defs>
  <g id="Grupo_1223141" data-name="Grupo 1223141" transform="translate(-401.586 -3490.478)">
    <g id="Grupo_1164037" data-name="Grupo 1164037" transform="translate(526.656 3490.478)" clip-path="url(#clip-path)">
      <g id="Grupo_1164036" data-name="Grupo 1164036">
        <g id="Grupo_1164035" data-name="Grupo 1164035" clip-path="url(#clip-path)">
          <g transform="matrix(1, 0, 0, 1, -125.07, 0)" filter="url(#Trazado_998778)">
            <path id="Trazado_998778-2" data-name="Trazado 998778" d="M299.1,472.073A87.667,87.667,0,0,1,242.794,317.2L92.134,404.184a87.682,87.682,0,0,1,79.733,155.93l.227.392,170.63-100.038-.013-.022a87.233,87.233,0,0,1-43.61,11.628" transform="translate(99.83 -86.92)" fill="#91439f"/>
          </g>
          <g transform="matrix(1, 0, 0, 1, -125.07, 0)" filter="url(#Trazado_998779)">
            <path id="Trazado_998779-2" data-name="Trazado 998779" d="M344.123,20.3A87.679,87.679,0,1,0,431.8,107.979,87.68,87.68,0,0,0,344.123,20.3m0,159a71.324,71.324,0,1,1,71.324-71.324A71.323,71.323,0,0,1,344.123,179.3" transform="translate(54.8 -5.56)" fill="#fee16e"/>
          </g>
          <g transform="matrix(1, 0, 0, 1, -125.07, 0)" filter="url(#Trazado_998780)">
            <path id="Trazado_998780-2" data-name="Trazado 998780" d="M278.972,114.152A71.324,71.324,0,1,1,350.3,185.476a71.323,71.323,0,0,1-71.324-71.324" transform="translate(48.63 -11.74)" fill="#fc0"/>
          </g>
          <g id="Grupo_1164028" data-name="Grupo 1164028" transform="translate(192.01)" opacity="0.7">
            <g id="Grupo_1164027" data-name="Grupo 1164027">
              <g id="Grupo_1164026" data-name="Grupo 1164026" clip-path="url(#clip-path-3)">
                <path id="Trazado_998781" data-name="Trazado 998781" d="M379,2.867A2.867,2.867,0,1,1,376.133,0,2.866,2.866,0,0,1,379,2.867" transform="translate(-294.287)" fill="#eaad03"/>
                <path id="Trazado_998782" data-name="Trazado 998782" d="M361.075,3.666A2.866,2.866,0,1,1,357.859,1.2a2.866,2.866,0,0,1,3.216,2.468" transform="translate(-289.383 -0.322)" fill="#eaad03"/>
                <path id="Trazado_998783" data-name="Trazado 998783" d="M343.412,6.8A2.867,2.867,0,1,1,339.9,4.77,2.867,2.867,0,0,1,343.412,6.8" transform="translate(-284.563 -1.28)" fill="#eaad03"/>
                <path id="Trazado_998784" data-name="Trazado 998784" d="M326.306,12.208a2.866,2.866,0,1,1-3.745-1.551,2.866,2.866,0,0,1,3.745,1.551" transform="translate(-279.909 -2.86)" fill="#eaad03"/>
                <path id="Trazado_998785" data-name="Trazado 998785" d="M310.053,19.8a2.867,2.867,0,1,1-3.916-1.049,2.867,2.867,0,0,1,3.916,1.049" transform="translate(-275.501 -5.034)" fill="#eaad03"/>
                <path id="Trazado_998786" data-name="Trazado 998786" d="M294.932,29.458a2.866,2.866,0,1,1-4.019-.529,2.866,2.866,0,0,1,4.019.529" transform="translate(-271.415 -7.764)" fill="#eaad03"/>
                <path id="Trazado_998787" data-name="Trazado 998787" d="M281.2,41a2.867,2.867,0,1,1-4.054,0,2.865,2.865,0,0,1,4.054,0" transform="translate(-267.72 -11.005)" fill="#eaad03"/>
                <path id="Trazado_998788" data-name="Trazado 998788" d="M269.091,54.24a2.867,2.867,0,1,1-4.02.529,2.868,2.868,0,0,1,4.02-.529" transform="translate(-264.479 -14.7)" fill="#eaad03"/>
                <path id="Trazado_998789" data-name="Trazado 998789" d="M281.2,41a2.867,2.867,0,1,1-4.054,0,2.865,2.865,0,0,1,4.054,0" transform="translate(-267.72 -11.005)" fill="#eaad03"/>
                <path id="Trazado_998790" data-name="Trazado 998790" d="M269.091,54.24a2.867,2.867,0,1,1-4.02.529,2.868,2.868,0,0,1,4.02-.529" transform="translate(-264.479 -14.7)" fill="#eaad03"/>
                <path id="Trazado_998791" data-name="Trazado 998791" d="M391.188,3.666A2.866,2.866,0,1,0,394.4,1.2a2.866,2.866,0,0,0-3.216,2.468" transform="translate(-299.191 -0.322)" fill="#eaad03"/>
                <path id="Trazado_998792" data-name="Trazado 998792" d="M408.854,6.8a2.867,2.867,0,1,0,3.51-2.027,2.867,2.867,0,0,0-3.51,2.027" transform="translate(-304.012 -1.28)" fill="#eaad03"/>
                <path id="Trazado_998793" data-name="Trazado 998793" d="M425.958,12.208a2.867,2.867,0,1,0,3.745-1.551,2.866,2.866,0,0,0-3.745,1.551" transform="translate(-308.665 -2.86)" fill="#eaad03"/>
                <path id="Trazado_998794" data-name="Trazado 998794" d="M442.21,19.8a2.867,2.867,0,1,0,3.917-1.049A2.868,2.868,0,0,0,442.21,19.8" transform="translate(-313.073 -5.034)" fill="#eaad03"/>
                <path id="Trazado_998795" data-name="Trazado 998795" d="M457.333,29.458a2.867,2.867,0,1,0,4.019-.529,2.867,2.867,0,0,0-4.019.529" transform="translate(-317.16 -7.764)" fill="#eaad03"/>
                <path id="Trazado_998796" data-name="Trazado 998796" d="M471.065,41a2.867,2.867,0,1,0,4.054,0,2.867,2.867,0,0,0-4.054,0" transform="translate(-320.855 -11.005)" fill="#eaad03"/>
                <path id="Trazado_998797" data-name="Trazado 998797" d="M483.174,54.24a2.867,2.867,0,1,0,4.019.529,2.866,2.866,0,0,0-4.019-.529" transform="translate(-324.095 -14.7)" fill="#eaad03"/>
              </g>
            </g>
          </g>
          <g transform="matrix(1, 0, 0, 1, -125.07, 0)" filter="url(#Trazado_998798)">
            <path id="Trazado_998798-2" data-name="Trazado 998798" d="M621.022,438.2a87.679,87.679,0,1,0,32.093,119.772A87.678,87.678,0,0,0,621.022,438.2M638.941,549.79a71.312,71.312,0,1,1-26.1-97.415,71.313,71.313,0,0,1,26.1,97.415" transform="translate(-9.05 -116.85)" fill="#154a48"/>
          </g>
          <g transform="matrix(1, 0, 0, 1, -125.07, 0)" filter="url(#Trazado_998799)">
            <path id="Trazado_998799-2" data-name="Trazado 998799" d="M547.7,582.071a71.312,71.312,0,1,1,97.415-26.1,71.313,71.313,0,0,1-97.415,26.1" transform="translate(-15.23 -123.03)" fill="#86c6c4"/>
          </g>
          <g transform="matrix(1, 0, 0, 1, -125.07, 0)" filter="url(#Trazado_998800)">
            <path id="Trazado_998800-2" data-name="Trazado 998800" d="M78.953,458.554a71.312,71.312,0,1,1-26.1,97.415,71.312,71.312,0,0,1,26.1-97.415" transform="translate(113.21 -123.03)" fill="#c961db"/>
          </g>
          <g id="Grupo_1164031" data-name="Grupo 1164031" transform="translate(0 356.515)" opacity="0.7">
            <g id="Grupo_1164030" data-name="Grupo 1164030">
              <g id="Grupo_1164029" data-name="Grupo 1164029" clip-path="url(#clip-path-4)">
                <path id="Trazado_998801" data-name="Trazado 998801" d="M19.8,612.492a2.867,2.867,0,1,1-1.049,3.916,2.866,2.866,0,0,1,1.049-3.916" transform="translate(-5.033 -524.236)" fill="#772d84"/>
                <path id="Trazado_998802" data-name="Trazado 998802" d="M29.458,627.614a2.867,2.867,0,1,1-.529,4.019,2.866,2.866,0,0,1,.529-4.019" transform="translate(-7.764 -528.322)" fill="#772d84"/>
                <path id="Trazado_998803" data-name="Trazado 998803" d="M41,641.347a2.867,2.867,0,1,1,0,4.054,2.867,2.867,0,0,1,0-4.054" transform="translate(-11.004 -532.018)" fill="#772d84"/>
                <path id="Trazado_998804" data-name="Trazado 998804" d="M54.239,653.456a2.866,2.866,0,1,1,.529,4.018,2.867,2.867,0,0,1-.529-4.018" transform="translate(-14.699 -535.258)" fill="#772d84"/>
                <path id="Trazado_998805" data-name="Trazado 998805" d="M68.945,663.732a2.866,2.866,0,1,1,1.05,3.915,2.865,2.865,0,0,1-1.05-3.915" transform="translate(-18.786 -537.988)" fill="#772d84"/>
                <path id="Trazado_998806" data-name="Trazado 998806" d="M84.865,672a2.866,2.866,0,1,1,1.551,3.745A2.866,2.866,0,0,1,84.865,672" transform="translate(-23.194 -540.162)" fill="#772d84"/>
                <path id="Trazado_998807" data-name="Trazado 998807" d="M101.73,678.122a2.867,2.867,0,1,1,2.027,3.511,2.867,2.867,0,0,1-2.027-3.511" transform="translate(-27.848 -541.741)" fill="#772d84"/>
                <path id="Trazado_998808" data-name="Trazado 998808" d="M119.249,681.988a2.867,2.867,0,1,1,2.468,3.217,2.867,2.867,0,0,1-2.468-3.217" transform="translate(-32.668 -542.7)" fill="#772d84"/>
                <path id="Trazado_998809" data-name="Trazado 998809" d="M101.73,678.122a2.867,2.867,0,1,1,2.027,3.511,2.867,2.867,0,0,1-2.027-3.511" transform="translate(-27.848 -541.741)" fill="#772d84"/>
                <path id="Trazado_998810" data-name="Trazado 998810" d="M119.249,681.988a2.867,2.867,0,1,1,2.468,3.217,2.867,2.867,0,0,1-2.468-3.217" transform="translate(-32.668 -542.7)" fill="#772d84"/>
                <path id="Trazado_998811" data-name="Trazado 998811" d="M14.4,601.536a2.867,2.867,0,1,0-3.746-1.551,2.868,2.868,0,0,0,3.746,1.551" transform="translate(-2.86 -519.828)" fill="#772d84"/>
                <path id="Trazado_998812" data-name="Trazado 998812" d="M8.281,584.672a2.866,2.866,0,1,0-3.511-2.026,2.865,2.865,0,0,0,3.511,2.026" transform="translate(-1.28 -515.174)" fill="#772d84"/>
                <path id="Trazado_998813" data-name="Trazado 998813" d="M4.414,567.153A2.866,2.866,0,1,0,1.2,564.686a2.866,2.866,0,0,0,3.216,2.468" transform="translate(-0.321 -510.354)" fill="#772d84"/>
                <path id="Trazado_998814" data-name="Trazado 998814" d="M2.866,549.279A2.866,2.866,0,1,0,0,546.414a2.866,2.866,0,0,0,2.866,2.865" transform="translate(0 -505.45)" fill="#772d84"/>
                <path id="Trazado_998815" data-name="Trazado 998815" d="M3.666,531.357A2.866,2.866,0,1,0,1.2,528.141a2.866,2.866,0,0,0,2.468,3.217" transform="translate(-0.322 -500.545)" fill="#772d84"/>
                <path id="Trazado_998816" data-name="Trazado 998816" d="M6.8,513.693a2.867,2.867,0,1,0-2.027-3.512A2.868,2.868,0,0,0,6.8,513.693" transform="translate(-1.28 -495.725)" fill="#772d84"/>
                <path id="Trazado_998817" data-name="Trazado 998817" d="M12.207,496.588a2.867,2.867,0,1,0-1.551-3.745,2.866,2.866,0,0,0,1.551,3.745" transform="translate(-2.86 -491.071)" fill="#772d84"/>
              </g>
            </g>
          </g>
          <g id="Grupo_1164034" data-name="Grupo 1164034" transform="translate(453.519 356.515)" opacity="0.7">
            <g id="Grupo_1164033" data-name="Grupo 1164033">
              <g id="Grupo_1164032" data-name="Grupo 1164032" clip-path="url(#clip-path-5)">
                <path id="Trazado_998818" data-name="Trazado 998818" d="M726.974,617.457a2.866,2.866,0,1,1,3.915-1.049,2.867,2.867,0,0,1-3.915,1.049" transform="translate(-652.321 -524.236)" fill="#133c70"/>
                <path id="Trazado_998819" data-name="Trazado 998819" d="M735.243,601.536a2.866,2.866,0,1,1,3.745-1.551,2.866,2.866,0,0,1-3.745,1.551" transform="translate(-654.495 -519.828)" fill="#133c70"/>
                <path id="Trazado_998820" data-name="Trazado 998820" d="M741.364,584.672a2.866,2.866,0,1,1,3.51-2.026,2.866,2.866,0,0,1-3.51,2.026" transform="translate(-656.075 -515.174)" fill="#133c70"/>
                <path id="Trazado_998821" data-name="Trazado 998821" d="M745.23,567.153a2.866,2.866,0,1,1,3.216-2.468,2.866,2.866,0,0,1-3.216,2.468" transform="translate(-657.034 -510.354)" fill="#133c70"/>
                <path id="Trazado_998822" data-name="Trazado 998822" d="M746.778,549.279a2.866,2.866,0,1,1,2.865-2.865,2.865,2.865,0,0,1-2.865,2.865" transform="translate(-657.355 -505.45)" fill="#133c70"/>
                <path id="Trazado_998823" data-name="Trazado 998823" d="M745.979,531.357a2.866,2.866,0,1,1,2.467-3.217,2.867,2.867,0,0,1-2.467,3.217" transform="translate(-657.033 -500.545)" fill="#133c70"/>
                <path id="Trazado_998824" data-name="Trazado 998824" d="M742.848,513.693a2.867,2.867,0,1,1,2.026-3.512,2.868,2.868,0,0,1-2.026,3.512" transform="translate(-656.075 -495.725)" fill="#133c70"/>
                <path id="Trazado_998825" data-name="Trazado 998825" d="M737.437,496.588a2.867,2.867,0,1,1,1.552-3.745,2.865,2.865,0,0,1-1.552,3.745" transform="translate(-654.495 -491.071)" fill="#133c70"/>
                <path id="Trazado_998826" data-name="Trazado 998826" d="M742.848,513.693a2.867,2.867,0,1,1,2.026-3.512,2.868,2.868,0,0,1-2.026,3.512" transform="translate(-656.075 -495.725)" fill="#133c70"/>
                <path id="Trazado_998827" data-name="Trazado 998827" d="M737.437,496.588a2.867,2.867,0,1,1,1.552-3.745,2.865,2.865,0,0,1-1.552,3.745" transform="translate(-654.495 -491.071)" fill="#133c70"/>
                <path id="Trazado_998828" data-name="Trazado 998828" d="M720.187,627.614a2.867,2.867,0,1,0,.529,4.019,2.866,2.866,0,0,0-.529-4.019" transform="translate(-649.591 -528.322)" fill="#133c70"/>
                <path id="Trazado_998829" data-name="Trazado 998829" d="M708.643,641.347a2.867,2.867,0,1,0,0,4.054,2.867,2.867,0,0,0,0-4.054" transform="translate(-646.351 -532.018)" fill="#133c70"/>
                <path id="Trazado_998830" data-name="Trazado 998830" d="M695.4,653.456a2.866,2.866,0,1,0-.529,4.018,2.865,2.865,0,0,0,.529-4.018" transform="translate(-642.655 -535.258)" fill="#133c70"/>
                <path id="Trazado_998831" data-name="Trazado 998831" d="M680.7,663.732a2.866,2.866,0,1,0-1.049,3.915,2.865,2.865,0,0,0,1.049-3.915" transform="translate(-638.569 -537.988)" fill="#133c70"/>
                <path id="Trazado_998832" data-name="Trazado 998832" d="M664.778,672a2.867,2.867,0,1,0-1.551,3.745A2.866,2.866,0,0,0,664.778,672" transform="translate(-634.161 -540.162)" fill="#133c70"/>
                <path id="Trazado_998833" data-name="Trazado 998833" d="M647.914,678.122a2.867,2.867,0,1,0-2.026,3.511,2.866,2.866,0,0,0,2.026-3.511" transform="translate(-629.507 -541.741)" fill="#133c70"/>
                <path id="Trazado_998834" data-name="Trazado 998834" d="M630.4,681.988a2.867,2.867,0,1,0-2.468,3.217,2.867,2.867,0,0,0,2.468-3.217" transform="translate(-624.687 -542.7)" fill="#133c70"/>
              </g>
            </g>
          </g>
          <g transform="matrix(1, 0, 0, 1, -125.07, 0)" filter="url(#Trazado_998835)">
            <path id="Trazado_998835-2" data-name="Trazado 998835" d="M184.363,470.3a87.678,87.678,0,1,0-32.093,119.771A87.679,87.679,0,0,0,184.363,470.3m-40.276,105.6a71.312,71.312,0,1,1,26.1-97.414,71.312,71.312,0,0,1-26.1,97.414" transform="translate(119.39 -116.85)" fill="#772d84"/>
          </g>
          <g transform="matrix(1, 0, 0, 1, -125.07, 0)" filter="url(#Trazado_998836)">
            <path id="Trazado_998836-2" data-name="Trazado 998836" d="M431.8,141.071a87.679,87.679,0,1,1-175.357,0V336.135a87.678,87.678,0,0,1,146.578-64.949L431.8,287.8Z" transform="translate(54.8 -38.65)" fill="#eaad03"/>
          </g>
          <g transform="matrix(1, 0, 0, 1, -125.07, 0)" filter="url(#Trazado_998837)">
            <path id="Trazado_998837-2" data-name="Trazado 998837" d="M585.816,406.761,436.049,320.293a87.665,87.665,0,0,1-15.289,141l.013.022L376.981,486.99l125.88,74.361.081-.139c-.142-.08-.286-.15-.426-.231a87.675,87.675,0,0,1,83.3-154.22" transform="translate(21.78 -87.76)" fill="#268985"/>
          </g>
          <path id="Trazado_998838" data-name="Trazado 998838" d="M332.651,334.816a55.346,55.346,0,0,1,78.818,26.545l10.371,3.224,4.452-9.572a71.341,71.341,0,0,0-109.935-28.17l9.98,1.816.009,10.41a56.047,56.047,0,0,1,6.307-4.253" transform="translate(-86.683 -85.346)" fill="#0a62a5"/>
          <path id="Trazado_998839" data-name="Trazado 998839" d="M322.48,441.384a55.352,55.352,0,0,1-16.419-81.533l-2.393-10.592-10.517.931a71.342,71.342,0,0,0,30.572,109.291l-3.417-9.55,9.01-5.213a56.081,56.081,0,0,1-6.836-3.335" transform="translate(-76.376 -95.699)" fill="#00aab4"/>
          <path id="Trazado_998840" data-name="Trazado 998840" d="M427.494,405.646a55.348,55.348,0,0,1-62.4,54.985L357.118,468l6.066,8.642a71.34,71.34,0,0,0,79.362-81.122l-6.562,7.735-9.02-5.2a55.9,55.9,0,0,1,.53,7.588" transform="translate(-97.853 -108.375)" fill="#008cb4"/>
          <g id="business-analyst_12313566" transform="translate(241.081 69.672)">
            <g id="Grupo_1223159" data-name="Grupo 1223159" transform="translate(1.259 18.579)">
              <g id="Grupo_1223158" data-name="Grupo 1223158" transform="translate(0 0)">
                <path id="Trazado_1057533" data-name="Trazado 1057533" d="M49.64,41.119H75.19c0-6.2.979-10.8-5.847-11.395a.877.877,0,0,1-.74-.514.886.886,0,0,1,.081-.893l1.135-1.612a.9.9,0,0,0-.731-1.415H60.869c-5.8,0-11.229,3.711-11.229,9.945Z" transform="translate(-43.196 -25.29)" fill="#231915" fill-rule="evenodd"/>
                <path id="Trazado_1057534" data-name="Trazado 1057534" d="M51.611,113.04H72.763A2.247,2.247,0,0,1,75,115.281v2.857a2.247,2.247,0,0,1-2.241,2.241H51.611a2.247,2.247,0,0,1-2.241-2.241v-2.857A2.246,2.246,0,0,1,51.611,113.04Z" transform="translate(-42.967 -99.453)" fill="#e2aa73" fill-rule="evenodd"/>
                <path id="Trazado_1057535" data-name="Trazado 1057535" d="M22.216,184.17h10.1v3.938a4.769,4.769,0,0,0,2.806,4.405c4.737,2.206,11.39,2.725,11.39,8.857v15.222a.9.9,0,0,1-.893.9H8.917a.9.9,0,0,1-.9-.9V201.369c0-6.132,6.653-6.65,11.39-8.857a4.769,4.769,0,0,0,2.806-4.405Z" transform="translate(-8.02 -159.569)" fill="#006df0" fill-rule="evenodd"/>
                <path id="Trazado_1057536" data-name="Trazado 1057536" d="M89.55,184.17h10.1v3.938a4.769,4.769,0,0,0,1.466,3.495L94.6,198.6l-6.909-6.658a4.754,4.754,0,0,0,1.858-3.831V184.17Z" transform="translate(-75.354 -159.569)" fill="#fbbd80" fill-rule="evenodd"/>
                <path id="Trazado_1057537" data-name="Trazado 1057537" d="M109.142,201.44V202.7a4.993,4.993,0,0,0,.115,1.071,10.755,10.755,0,0,1-4.98,1.215h-.429A10.739,10.739,0,0,1,98.92,203.8a5.2,5.2,0,0,0,.119-1.1v-1.225a8.72,8.72,0,0,0,4.809,1.446h.429A8.722,8.722,0,0,0,109.142,201.44Z" transform="translate(-84.845 -174.165)" fill="#e2aa73" fill-rule="evenodd"/>
                <path id="Trazado_1057538" data-name="Trazado 1057538" d="M85.168,84.37l1.242.828a3.663,3.663,0,0,0,2.131.646h.728a2.775,2.775,0,0,1,2.769,2.772v6.017a8.813,8.813,0,0,1-8.784,8.789h-.429a8.813,8.813,0,0,1-8.784-8.789V88.615a2.774,2.774,0,0,1,2.769-2.772h.728a3.674,3.674,0,0,0,2.131-.646l1.242-.828A3.768,3.768,0,0,1,85.168,84.37Z" transform="translate(-63.818 -74.664)" fill="#fbbd80" fill-rule="evenodd"/>
                <path id="Trazado_1057539" data-name="Trazado 1057539" d="M105.427,281.15l-1.883,1.795-.409,1.318-2.635,12.3.356,2.888H110l.358-2.888-2.637-12.3-.407-1.318Z" transform="translate(-86.181 -241.533)" fill="#2f5274" fill-rule="evenodd"/>
                <path id="Trazado_1057540" data-name="Trazado 1057540" d="M108.782,253.42l-2.99,7.411h-4.583L98.22,253.42h10.562Z" transform="translate(-84.254 -218.097)" fill="#223c55" fill-rule="evenodd"/>
                <path id="Trazado_1057541" data-name="Trazado 1057541" d="M82.78,224.585A4.755,4.755,0,0,0,85,222.23l4.681,4.829-5.91,5.545Z" transform="translate(-71.204 -191.736)" fill="#ebf5fc" fill-rule="evenodd"/>
                <path id="Trazado_1057542" data-name="Trazado 1057542" d="M144.174,224.585a4.775,4.775,0,0,1-2.223-2.355l-4.681,4.829,5.915,5.545Z" transform="translate(-117.257 -191.736)" fill="#ebf5fc" fill-rule="evenodd"/>
                <path id="Trazado_1057543" data-name="Trazado 1057543" d="M287.03,336.02h4V346.4h-4Z" transform="translate(-243.828 -287.907)" fill="#e6e6e6" fill-rule="evenodd"/>
                <path id="Trazado_1057544" data-name="Trazado 1057544" d="M218.722,164.364a14.2,14.2,0,1,1-10.044,17.393A14.2,14.2,0,0,1,218.722,164.364Z" transform="translate(-177.196 -142.417)" fill="#2f5274" fill-rule="evenodd"/>
                <path id="Trazado_1057545" data-name="Trazado 1057545" d="M276.617,385.03h5.766a.863.863,0,0,1,.862.862v11.136a3.748,3.748,0,0,1-7.5,0V385.892A.866.866,0,0,1,276.617,385.03Z" transform="translate(-234.295 -329.328)" fill="#ff4646" fill-rule="evenodd"/>
                <path id="Trazado_1057546" data-name="Trazado 1057546" d="M243.224,191.868a9.924,9.924,0,1,1-7.016,12.156A9.927,9.927,0,0,1,243.224,191.868Z" transform="translate(-200.587 -165.789)" fill="#aae6fa" fill-rule="evenodd"/>
              </g>
              <path id="Trazado_1057547" data-name="Trazado 1057547" d="M246.64,163.707l19.414-19.414a1.936,1.936,0,0,1,2.747,0l5.5,5.5,5.5-5.5a.64.64,0,0,0,0-.914l-1.917-1.922a.647.647,0,0,1,.458-1.106h7.505a.648.648,0,0,1,.646.65v7.5a.647.647,0,0,1-1.106.458l-1.922-1.917a.64.64,0,0,0-.914,0l-6.875,6.87a1.936,1.936,0,0,1-2.747,0l-5.5-5.494L249.39,166.454A9.944,9.944,0,0,1,246.64,163.707Z" transform="translate(-209.692 -122.534)" fill="#0593fc"/>
              <path id="Trazado_1057548" data-name="Trazado 1057548" d="M243.224,191.875a9.871,9.871,0,0,1,3.541-.29,10.076,10.076,0,0,0-1.607.29,9.925,9.925,0,0,0-7.016,12.156,9.8,9.8,0,0,0,.626,1.7l-1.233,1.237a9.931,9.931,0,0,1,5.689-15.094Zm-2.1,17a9.957,9.957,0,0,0,5.625,2.462,9.907,9.907,0,0,1-6.468-1.62Z" transform="translate(-200.587 -165.795)" fill="#99cfe1" fill-rule="evenodd"/>
              <path id="Trazado_1057549" data-name="Trazado 1057549" d="M247.864,283.21a9.912,9.912,0,0,0,2.36,3.142l-.842.842a9.95,9.95,0,0,1-2.751-2.747Z" transform="translate(-209.684 -243.274)" fill="#0584e3" fill-rule="evenodd"/>
              <path id="Trazado_1057550" data-name="Trazado 1057550" d="M276.617,385.03h1.352a.863.863,0,0,0-.862.862v11.136a3.767,3.767,0,0,0,3.07,3.687,3.911,3.911,0,0,1-.677.059,3.76,3.76,0,0,1-3.75-3.746V385.892A.866.866,0,0,1,276.617,385.03Z" transform="translate(-234.295 -329.328)" fill="#e63f3f" fill-rule="evenodd"/>
            </g>
            <path id="Trazado_1057551" data-name="Trazado 1057551" d="M77.4,35.156H69.9a1.891,1.891,0,0,0-1.739,1.15c0,.008-.006.015-.011.025a1.892,1.892,0,0,0,.413,2.047l1.5,1.5-4.207,4.207-4.62-4.62a3.185,3.185,0,0,0-4.5,0l-1.847,1.847a15.46,15.46,0,0,0-23.61,10.044c-.828-.3-1.651-.61-2.4-.957a3.546,3.546,0,0,1-2.093-3.284V46.5a10.035,10.035,0,0,0,3.674-5.751h.587a3.485,3.485,0,0,0,3.481-3.481V34.415a3.588,3.588,0,0,0-.046-.567c0-.508.014-1,.023-1.486.094-4.978.186-9.687-6.417-10.512l.8-1.137a2.121,2.121,0,0,0,.153-2.208,2.1,2.1,0,0,0-1.9-1.155H18.932a13.508,13.508,0,0,0-8.575,2.914,10.494,10.494,0,0,0-3.888,8.261v5.311a3.522,3.522,0,0,0-.048.574v2.852A3.485,3.485,0,0,0,9.9,40.743h.587a10.047,10.047,0,0,0,3.732,5.794v.574A3.544,3.544,0,0,1,12.125,50.4c-1.03.48-2.206.893-3.343,1.293C4.674,53.133.02,54.771.02,60.374V75.6a2.136,2.136,0,0,0,2.134,2.134H38.86A2.136,2.136,0,0,0,40.993,75.6v-6.91a15.381,15.381,0,0,0,2.23.66v3.724a2.106,2.106,0,0,0-1.747,2.07V86.27a4.983,4.983,0,1,0,9.967,0V75.139a2.106,2.106,0,0,0-1.747-2.07V69.336q.381-.081.759-.181a15.441,15.441,0,0,0,9.959-21.52l3.2,3.194a3.184,3.184,0,0,0,4.5,0l6.455-6.455,1.5,1.5a1.892,1.892,0,0,0,2.045.413l.025-.011a1.891,1.891,0,0,0,1.15-1.739v-7.5A1.889,1.889,0,0,0,77.4,35.156ZM38.073,56.493a8.681,8.681,0,0,1,11.85-10.21L38.5,57.71A8.828,8.828,0,0,1,38.073,56.493ZM26.85,52.059s0,.008,0,.012l-.593,4.808-3.218-3.018,2.716-2.806a6.1,6.1,0,0,0,1.1,1Zm-2.866,23.2H17.031l-.2-1.589,2.485-11.117H21.7l2.485,11.117ZM21.965,60.075H19.05L17.932,57.3l2.3-2.157h.553l2.3,2.157Zm10.1-22.811a1.006,1.006,0,0,1-1,1h-.342V33.405h.342a1.009,1.009,0,0,1,.979.776l.009.046a1,1,0,0,1,.017.181ZM18.935,19.821h7.559l-.746,1.062a2.116,2.116,0,0,0-.209,2.127c0,.006.006.012.009.02a2.129,2.129,0,0,0,1.751,1.22c4.294.372,4.791,2.093,4.757,6.827a3.486,3.486,0,0,0-1-.147h-.678a4.013,4.013,0,0,0-3.673-2.4h-.725a2.46,2.46,0,0,1-1.442-.437l-1.24-.828a4.983,4.983,0,0,0-5.638,0l-1.242.828a2.467,2.467,0,0,1-1.446.437H14.25a4.014,4.014,0,0,0-3.673,2.4H9.9a3.493,3.493,0,0,0-.957.135V28.525c0-5.714,5.029-8.7,9.993-8.7ZM8.9,37.264V34.412a.988.988,0,0,1,.015-.167c0-.022.009-.043.014-.067a1.006,1.006,0,0,1,.977-.771h.342V38.27H9.9A1.008,1.008,0,0,1,8.9,37.264Zm3.823,1.285V32.532A1.533,1.533,0,0,1,14.251,31h.725a4.938,4.938,0,0,0,2.821-.853l1.243-.83a2.52,2.52,0,0,1,2.885,0,0,0,0,0,1,0,0l1.243.83A4.922,4.922,0,0,0,25.985,31h.725a1.533,1.533,0,0,1,1.531,1.531v6.017a7.545,7.545,0,0,1-3.262,6.211,1.267,1.267,0,0,0-.2.135,7.5,7.5,0,0,1-4.08,1.2h-.426A7.507,7.507,0,0,1,16.2,44.907a1.1,1.1,0,0,0-.161-.1,7.549,7.549,0,0,1-3.323-6.254Zm7.548,10.026h.426a9.958,9.958,0,0,0,3.674-.7,6.091,6.091,0,0,0,.172.876l-3.79,3.914h-.483L16.5,48.77a.133.133,0,0,0-.022-.02,6.275,6.275,0,0,0,.17-.858A9.924,9.924,0,0,0,20.268,48.575Zm-5.006,2.481,2.716,2.806-3.218,3.016-.595-4.82a6.09,6.09,0,0,0,1.1-1ZM2.5,60.377c0-3.591,2.685-4.794,7.109-6.35.732-.257,1.479-.52,2.21-.808L12.6,59.6a1.238,1.238,0,0,0,2.075.753l1.318-1.236L17,61.6,14.374,73.338a1.2,1.2,0,0,0-.02.421l.184,1.5H10.9V68.925a1.237,1.237,0,1,0-2.474,0v6.333H2.5Zm30.1,14.88V68.924a1.237,1.237,0,0,0-2.474,0v6.333H26.48l.184-1.5a1.241,1.241,0,0,0-.02-.421L24.022,61.6l1-2.487,1.318,1.236a1.238,1.238,0,0,0,2.075-.753l.787-6.379c.6.235,1.212.455,1.818.669a15.514,15.514,0,0,0,.528,4.351,15.318,15.318,0,0,0,6.972,9.242v7.774H32.593ZM48.969,86.273a2.508,2.508,0,1,1-5.017,0V75.515h5.017ZM47.223,73.039H45.7V69.672c.245.012.488.02.732.02.263,0,.526-.009.79-.022v3.369ZM57.69,60.725A13,13,0,0,1,44.719,67.1a.953.953,0,0,0-.133-.02A12.994,12.994,0,0,1,33.53,53.22a1.39,1.39,0,0,0,.015-.159A12.968,12.968,0,0,1,53.1,43.107l-1.325,1.325A11.156,11.156,0,0,0,40.233,63.5c.023.017.045.033.068.046.19.125.382.248.582.362A11.158,11.158,0,0,0,56.274,48.929L57.6,47.6a12.968,12.968,0,0,1,.09,13.121ZM54.423,50.78A8.789,8.789,0,0,1,54.848,52,8.681,8.681,0,0,1,43,62.205Zm22.391-7.655-.915-.915a1.888,1.888,0,0,0-2.663,0l-6.873,6.873a.706.706,0,0,1-1,0l-5.5-5.5a1.237,1.237,0,0,0-1.75,0l-4.278,4.278-.008.008L40.839,60.864a8.543,8.543,0,0,1-1-.994l13-13,0,0,5.652-5.652a.707.707,0,0,1,1,0l5.5,5.5a1.237,1.237,0,0,0,1.75,0l5.5-5.5a1.9,1.9,0,0,0,0-2.669l-.912-.91h5.489v5.494Z"/>
          </g>
        </g>
        <g id="presentation_3029846" transform="translate(406.417 357.25)">
          <g id="Grupo_1223164" data-name="Grupo 1223164" transform="translate(9.009 25.009)">
            <path id="Trazado_1057552" data-name="Trazado 1057552" d="M85.423,160H89.46a5.047,5.047,0,0,1,5.047,5.047V193.31H40V165.047A5.047,5.047,0,0,1,45.047,160Z" transform="translate(-36.972 -143.85)" fill="#83d8f4"/>
            <g id="Grupo_1223163" data-name="Grupo 1223163" transform="translate(0 10.094)">
              <path id="Trazado_1057553" data-name="Trazado 1057553" d="M73.536,431.066H19.028A3.028,3.028,0,0,1,16,428.038V424H76.564v4.038A3.028,3.028,0,0,1,73.536,431.066Z" transform="translate(-16 -384.634)" fill="#57565c"/>
              <path id="Trazado_1057554" data-name="Trazado 1057554" d="M225.085,427.028h-8.075L216,424h10.094Z" transform="translate(-190.765 -384.634)" fill="#2d2d30"/>
              <g id="Grupo_1223161" data-name="Grupo 1223161" transform="translate(25.235)">
                <path id="Trazado_1057555" data-name="Trazado 1057555" d="M244.263,268.038v16.15H216v-16.15a3.029,3.029,0,0,1,3.028-3.028L227.1,264h6.056l8.075,1.009A3.029,3.029,0,0,1,244.263,268.038Z" transform="translate(-216 -244.821)" fill="#ffdaaa"/>
                <g id="Grupo_1223160" data-name="Grupo 1223160" transform="translate(5.047)">
                  <path id="Trazado_1057556" data-name="Trazado 1057556" d="M257.009,152h2.019v5.047h-2.019A1.009,1.009,0,0,1,256,156.038v-3.028A1.009,1.009,0,0,1,257.009,152Z" transform="translate(-256 -146.953)" fill="#ffda44"/>
                  <path id="Trazado_1057557" data-name="Trazado 1057557" d="M376,157.047h2.019a.993.993,0,0,0,1.009-.883v-3.028A1.044,1.044,0,0,0,378.019,152H376Z" transform="translate(-360.859 -146.953)" fill="#ffda44"/>
                  <path id="Trazado_1057558" data-name="Trazado 1057558" d="M292.113,116.038c-3.028,2.019-12.113,2.019-12.113,2.019v-2.019A4.038,4.038,0,0,1,284.038,112h4.038A4.038,4.038,0,0,1,292.113,116.038Z" transform="translate(-276.972 -112)" fill="#ffda44"/>
                </g>
                <path id="Trazado_1057559" data-name="Trazado 1057559" d="M292.113,144v8.075a4.038,4.038,0,0,1-4.038,4.038h-4.038A4.038,4.038,0,0,1,280,152.075v-6.056S289.085,146.019,292.113,144Z" transform="translate(-271.925 -139.962)" fill="#ffdaaa"/>
                <path id="Trazado_1057560" data-name="Trazado 1057560" d="M244.263,261.047V277.2H216v-16.15a3.029,3.029,0,0,1,3.028-3.028L227.1,256c0,1.115,1.913,2.019,3.028,2.019s3.028-.9,3.028-2.019l8.075,2.019A3.029,3.029,0,0,1,244.263,261.047Z" transform="translate(-216 -237.831)" fill="#898890"/>
                <path id="Trazado_1057561" data-name="Trazado 1057561" d="M304,240h6.056v4.038H304Z" transform="translate(-292.897 -223.85)" fill="#ffdaaa"/>
              </g>
              <g id="Grupo_1223162" data-name="Grupo 1223162" transform="translate(36.338 19.179)">
                <path id="Trazado_1057562" data-name="Trazado 1057562" d="M316.038,268.038H312V264h4.038Z" transform="translate(-310.991 -264)" fill="#d80027"/>
                <path id="Trazado_1057563" data-name="Trazado 1057563" d="M310.056,312.15H304V300.038L307.028,296l3.028,4.038Z" transform="translate(-304 -291.962)" fill="#d80027"/>
              </g>
            </g>
            <path id="Trazado_1057564" data-name="Trazado 1057564" d="M98.169,65.085A9.085,9.085,0,1,1,89.085,56v9.085Z" transform="translate(-71.925 -52.972)" fill="#91cc04"/>
            <path id="Trazado_1057565" data-name="Trazado 1057565" d="M185.085,41.085H176V32a9.085,9.085,0,0,1,9.085,9.084Z" transform="translate(-155.812 -32)" fill="#d80027"/>
          </g>
          <g id="Grupo_1223165" data-name="Grupo 1223165" transform="translate(8 24)">
            <path id="Trazado_1057566" data-name="Trazado 1057566" d="M69.573,94.432H67.554V67.179A6.063,6.063,0,0,0,61.5,61.122H58.18a1.955,1.955,0,0,0-1.729-1.009H55.442a5.052,5.052,0,0,0-5.047-5.047H46.357a5.052,5.052,0,0,0-5.047,5.047H40.3a2.018,2.018,0,0,0-1.745,1.009H35.8a10.053,10.053,0,0,0,.464-3.028,1.009,1.009,0,0,0-1.009-1.009H27.179V49.009A1.009,1.009,0,0,0,26.169,48a10.093,10.093,0,0,0-9.621,13.147,6.064,6.064,0,0,0-5.52,6.031V94.432H9.009A1.009,1.009,0,0,0,8,95.442v4.038a4.043,4.043,0,0,0,4.038,4.038H66.545a4.043,4.043,0,0,0,4.038-4.038V95.442A1.009,1.009,0,0,0,69.573,94.432Zm-14.132-32.3h.988a.3.3,0,0,1,.021.126v2.9H55.442Zm0,6.056V67.179h1.009a1.985,1.985,0,0,0,2.019-1.893V63.141H61.5a4.043,4.043,0,0,1,4.038,4.038V94.432H63.517V79.291a4.043,4.043,0,0,0-3.971-4.038l-7.14-.892a.916.916,0,0,0,.008-.117V72.812a5.055,5.055,0,0,0,3.028-4.624ZM57.46,82.319a1.009,1.009,0,0,0-1.009,1.009v11.1H52.413v-11.1a1.007,1.007,0,0,0-.2-.606L50.395,80.3A1.009,1.009,0,0,0,51.4,79.291V76.271l7.95.994a1.039,1.039,0,0,0,.125.008A2.021,2.021,0,0,1,61.5,79.291V94.432H58.47v-11.1A1.009,1.009,0,0,0,57.46,82.319ZM40.3,94.432v-11.1a1.009,1.009,0,0,0-2.019,0v11.1H35.254V79.291a2.021,2.021,0,0,1,2.019-2.019,1.037,1.037,0,0,0,.125-.008l7.95-.994v3.021A1.009,1.009,0,0,0,46.357,80.3L44.54,82.723a1.007,1.007,0,0,0-.2.606v11.1Zm2.637,2.019L42.6,97.46H35.982l-.337-1.009Zm3.419-12.785,2.019-2.693,2.019,2.693V94.432H46.357Zm1.009-5.384V76.263h2.019v2.019Zm-1.009-4.038V73.235h4.038v1.009ZM43.329,60.113a3.032,3.032,0,0,1,3.028-3.028h4.038a3.032,3.032,0,0,1,2.975,2.47c-2.319,1.118-7.307,1.479-10.041,1.552Zm0,3.012c.925-.025,2.39-.087,4.007-.241a25.653,25.653,0,0,0,6.087-1.172v6.477a3.032,3.032,0,0,1-3.028,3.028H46.357A3.02,3.02,0,0,1,44.1,70.207h3.264a1.009,1.009,0,1,0,0-2.019H43.329ZM40.3,62.132H41.31V65.16H40.3Zm0,5.047H41.31v1.009H40.3ZM25.16,50.082v8.012A1.009,1.009,0,0,0,26.169,59.1h8.012a8.1,8.1,0,0,1-5.866,6.774l-3.451-3.451a1.01,1.01,0,0,0-1.428,1.428l2.3,2.3a8.075,8.075,0,0,1-.579-16.076Zm-12.113,17.1a4.043,4.043,0,0,1,4.038-4.038h.348a10.081,10.081,0,0,0,10.226,4.936l3.852,3.853a1.01,1.01,0,0,0,.714.3h4.038a1.009,1.009,0,1,0,0-2.019h-3.62l-2.738-2.738a10.151,10.151,0,0,0,5-4.328h3.376V69.2a1.009,1.009,0,0,0,1.009,1.009h2.441a5.079,5.079,0,0,0,2.605,2.605v1.432a.916.916,0,0,0,.008.117l-7.14.892a4.043,4.043,0,0,0-3.971,4.038V94.432H13.047Zm55.517,32.3a2.021,2.021,0,0,1-2.019,2.019H12.038a2.021,2.021,0,0,1-2.019-2.019V96.451h23.5l.78,2.338a1.009,1.009,0,0,0,.958.69h8.075a1.009,1.009,0,0,0,.958-.69l.78-2.338h23.5Z" transform="translate(-8 -44.972)"/>
            <path id="Trazado_1057567" data-name="Trazado 1057567" d="M67.1,440H57.009a1.009,1.009,0,0,0,0,2.019H67.1a1.009,1.009,0,1,0,0-2.019Z" transform="translate(-49.944 -387.511)"/>
            <path id="Trazado_1057568" data-name="Trazado 1057568" d="M162.019,440h-1.009a1.009,1.009,0,1,0,0,2.019h1.009a1.009,1.009,0,1,0,0-2.019Z" transform="translate(-140.821 -387.511)"/>
            <path id="Trazado_1057569" data-name="Trazado 1057569" d="M169.009,35.1h9.085a1.009,1.009,0,0,0,1.009-1.009A10.105,10.105,0,0,0,169.009,24,1.009,1.009,0,0,0,168,25.009v9.085A1.009,1.009,0,0,0,169.009,35.1Zm1.009-9.021a8.093,8.093,0,0,1,7,7h-7Z" transform="translate(-147.812 -24)"/>
            <path id="Trazado_1057570" data-name="Trazado 1057570" d="M75.1,312H65.009a1.009,1.009,0,0,0,0,2.019H75.1a1.009,1.009,0,0,0,0-2.019Z" transform="translate(-56.934 -275.662)"/>
            <path id="Trazado_1057571" data-name="Trazado 1057571" d="M75.1,336H65.009a1.009,1.009,0,1,0,0,2.019H75.1a1.009,1.009,0,1,0,0-2.019Z" transform="translate(-56.934 -296.634)"/>
            <path id="Trazado_1057572" data-name="Trazado 1057572" d="M75.1,360H65.009a1.009,1.009,0,0,0,0,2.019H75.1a1.009,1.009,0,0,0,0-2.019Z" transform="translate(-56.934 -317.605)"/>
            <path id="Trazado_1057573" data-name="Trazado 1057573" d="M69.047,384H65.009a1.009,1.009,0,0,0,0,2.019h4.038a1.009,1.009,0,0,0,0-2.019Z" transform="translate(-56.934 -338.577)"/>
            <path id="Trazado_1057574" data-name="Trazado 1057574" d="M122.019,384h-1.009a1.009,1.009,0,0,0,0,2.019h1.009a1.009,1.009,0,0,0,0-2.019Z" transform="translate(-105.868 -338.577)"/>
          </g>
        </g>
      </g>
    </g>
    <path id="Trazado_1057493" data-name="Trazado 1057493" d="M-337.188,1445.24h136.239" transform="translate(1242.447 2137.76)" fill="none" stroke="#772d84" stroke-linecap="round" stroke-width="2"/>
    <path id="Trazado_1057492" data-name="Trazado 1057492" d="M5,0a5,5,0,1,0,5,5A5,5,0,0,0,5,0Z" transform="translate(898.227 3577.5)" fill="#772d84"/>
    <text id="_01" data-name="01" transform="translate(608.656 3860)" fill="#fff" font-size="28" font-family="SegoeUI-Bold, Segoe UI" font-weight="700" letter-spacing="0em"><tspan x="0" y="0">01</tspan></text>
    <text id="_03" data-name="03" transform="translate(953.656 3860)" fill="#fff" font-size="28" font-family="SegoeUI-Bold, Segoe UI" font-weight="700" letter-spacing="0em"><tspan x="0" y="0">03</tspan></text>
    <text id="_02" data-name="02" transform="translate(783.656 3565)" fill="#0b0a0a" font-size="28" font-family="SegoeUI-Bold, Segoe UI" font-weight="700" letter-spacing="0em"><tspan x="0" y="0">02</tspan></text>
    <g transform="matrix(1, 0, 0, 1, 401.59, 3490.48)" filter="url(#Elipse_12269)">
      <circle id="Elipse_12269-2" data-name="Elipse 12269" cx="78" cy="78" r="78" transform="translate(321.07 220.52)" fill="#fff"/>
    </g>
    <g id="Rectángulo_423247" data-name="Rectángulo 423247" transform="translate(427.656 4008)" fill="#fff" stroke="#772d84" stroke-width="2">
      <rect width="361" height="43" rx="21.5" stroke="none"/>
      <rect x="1" y="1" width="359" height="41" rx="20.5" fill="none"/>
    </g>
    <g id="Rectángulo_423248" data-name="Rectángulo 423248" transform="translate(848.656 4008)" fill="#fff" stroke="#772d84" stroke-width="2">
      <rect width="332" height="43" rx="21.5" stroke="none"/>
      <rect x="1" y="1" width="330" height="41" rx="20.5" fill="none"/>
    </g>
    <g id="Rectángulo_423249" data-name="Rectángulo 423249" transform="translate(944.656 3561)" fill="#fff" stroke="#772d84" stroke-width="2">
      <rect width="247" height="43" rx="21.5" stroke="none"/>
      <rect x="1" y="1" width="245" height="41" rx="20.5" fill="none"/>
    </g>
    <path id="Trazado_1059399" data-name="Trazado 1059399" d="M1.441,0V-12.6H5.906q6.715,0,6.715,6.144a6.212,6.212,0,0,1-1.833,4.7A6.757,6.757,0,0,1,5.906,0ZM4.28-10.292V-2.3H5.687a3.8,3.8,0,0,0,2.9-1.107,4.2,4.2,0,0,0,1.05-3.015A3.812,3.812,0,0,0,8.591-9.259a3.971,3.971,0,0,0-2.922-1.033ZM22.528-3.709H16.657q.141,1.96,2.47,1.96a4.822,4.822,0,0,0,2.61-.7v2A6.858,6.858,0,0,1,18.494.22,4.565,4.565,0,0,1,15.11-.989a4.566,4.566,0,0,1-1.2-3.371,4.816,4.816,0,0,1,1.3-3.551,4.334,4.334,0,0,1,3.2-1.31,3.933,3.933,0,0,1,3.045,1.169,4.5,4.5,0,0,1,1.077,3.173ZM19.953-5.414q0-1.934-1.564-1.934a1.494,1.494,0,0,0-1.156.554,2.513,2.513,0,0,0-.593,1.38Zm9.67,5.309A4.105,4.105,0,0,1,27.768.22q-2.936,0-2.936-3.05V-6.952H23.374V-9h1.459v-1.942l2.769-.791V-9h2.021v2.048H27.6v3.639q0,1.406,1.116,1.406a1.882,1.882,0,0,0,.905-.255Zm9.582-3.6H33.334q.141,1.96,2.47,1.96a4.822,4.822,0,0,0,2.61-.7v2A6.858,6.858,0,0,1,35.17.22,4.565,4.565,0,0,1,31.787-.989a4.566,4.566,0,0,1-1.2-3.371,4.816,4.816,0,0,1,1.3-3.551,4.334,4.334,0,0,1,3.2-1.31,3.933,3.933,0,0,1,3.045,1.169A4.5,4.5,0,0,1,39.2-4.878ZM36.629-5.414q0-1.934-1.564-1.934a1.494,1.494,0,0,0-1.156.554,2.513,2.513,0,0,0-.593,1.38ZM47.679-.325A5.492,5.492,0,0,1,44.963.22a4.593,4.593,0,0,1-3.357-1.257A4.341,4.341,0,0,1,40.323-4.28,4.782,4.782,0,0,1,41.7-7.9,5.083,5.083,0,0,1,45.376-9.22a4.72,4.72,0,0,1,2.3.422v2.355a3.166,3.166,0,0,0-1.942-.65,2.559,2.559,0,0,0-1.894.7,2.607,2.607,0,0,0-.7,1.929,2.565,2.565,0,0,0,.668,1.876,2.455,2.455,0,0,0,1.837.681,3.666,3.666,0,0,0,2.03-.65Zm7.262.22A4.105,4.105,0,0,1,53.086.22q-2.936,0-2.936-3.05V-6.952H48.692V-9h1.459v-1.942l2.769-.791V-9h2.021v2.048H52.919v3.639q0,1.406,1.116,1.406a1.882,1.882,0,0,0,.905-.255ZM64,0H61.367V-1.292h-.035A2.933,2.933,0,0,1,58.651.22,2.8,2.8,0,0,1,56.59-.523,2.661,2.661,0,0,1,55.839-2.5q0-2.619,3.1-3.023l2.443-.325q0-1.477-1.6-1.477a5.46,5.46,0,0,0-3.059.958V-8.464a6.881,6.881,0,0,1,1.586-.527,8.339,8.339,0,0,1,1.833-.229Q64-9.22,64-5.379Zm-2.61-3.656v-.606l-1.635.211Q58.4-3.876,58.4-2.83a1.01,1.01,0,0,0,.33.778,1.266,1.266,0,0,0,.892.3,1.644,1.644,0,0,0,1.274-.541A1.952,1.952,0,0,0,61.385-3.656ZM72.065-6.5A2.409,2.409,0,0,0,70.9-6.768a1.684,1.684,0,0,0-1.415.664,2.9,2.9,0,0,0-.51,1.806V0H66.194V-9h2.777v1.67h.035A2.4,2.4,0,0,1,71.38-9.158a1.788,1.788,0,0,1,.686.105ZM82.616.22a4.838,4.838,0,0,1-3.538-1.261,4.573,4.573,0,0,1-1.288-3.423,4.573,4.573,0,0,1,1.336-3.494A5.048,5.048,0,0,1,82.739-9.22a4.78,4.78,0,0,1,3.516,1.261,4.483,4.483,0,0,1,1.274,3.335,4.759,4.759,0,0,1-1.314,3.542A4.892,4.892,0,0,1,82.616.22Zm.07-7.312a1.852,1.852,0,0,0-1.529.677A2.984,2.984,0,0,0,80.612-4.5q0,2.593,2.092,2.593,2,0,2-2.663Q84.7-7.093,82.686-7.093Zm9.459,6.047H92.11V4.14H89.332V-9H92.11v1.354h.035A3.265,3.265,0,0,1,95.037-9.22a3.253,3.253,0,0,1,2.7,1.2,5.108,5.108,0,0,1,.954,3.265,5.537,5.537,0,0,1-1.112,3.612A3.625,3.625,0,0,1,94.623.22,2.8,2.8,0,0,1,92.145-1.046Zm-.079-3.691v.721A2.291,2.291,0,0,0,92.558-2.5a1.6,1.6,0,0,0,1.292.589,1.7,1.7,0,0,0,1.472-.734,3.543,3.543,0,0,0,.523-2.079q0-2.373-1.846-2.373a1.733,1.733,0,0,0-1.393.646A2.576,2.576,0,0,0,92.066-4.737ZM104.785.22a4.838,4.838,0,0,1-3.538-1.261A4.573,4.573,0,0,1,99.96-4.465,4.573,4.573,0,0,1,101.3-7.958a5.048,5.048,0,0,1,3.612-1.261,4.78,4.78,0,0,1,3.516,1.261A4.483,4.483,0,0,1,109.7-4.623a4.759,4.759,0,0,1-1.314,3.542A4.892,4.892,0,0,1,104.785.22Zm.07-7.312a1.852,1.852,0,0,0-1.529.677,2.984,2.984,0,0,0-.545,1.916q0,2.593,2.092,2.593,2,0,2-2.663Q106.868-7.093,104.856-7.093Zm12.517.6a2.409,2.409,0,0,0-1.169-.272,1.684,1.684,0,0,0-1.415.664,2.9,2.9,0,0,0-.51,1.806V0H111.5V-9h2.777v1.67h.035a2.4,2.4,0,0,1,2.373-1.828,1.788,1.788,0,0,1,.686.105Zm7.253,6.39a4.105,4.105,0,0,1-1.854.325q-2.936,0-2.936-3.05V-6.952h-1.459V-9h1.459v-1.942l2.769-.791V-9h2.021v2.048H122.6v3.639q0,1.406,1.116,1.406a1.882,1.882,0,0,0,.905-.255ZM134.744,0h-2.769V-1.371h-.044A3.141,3.141,0,0,1,129.18.22q-3.129,0-3.129-3.788V-9h2.769v5.186q0,1.907,1.512,1.907a1.5,1.5,0,0,0,1.2-.523,2.109,2.109,0,0,0,.448-1.419V-9h2.769Zm11.032,0h-2.769V-5q0-2.092-1.494-2.092a1.483,1.483,0,0,0-1.187.554,2.109,2.109,0,0,0-.466,1.406V0h-2.777V-9h2.777v1.424h.035a3.183,3.183,0,0,1,2.892-1.644q2.988,0,2.988,3.709Zm3.605-10.424a1.622,1.622,0,0,1-1.151-.417,1.345,1.345,0,0,1-.448-1.024,1.3,1.3,0,0,1,.448-1.02,1.676,1.676,0,0,1,1.151-.4,1.672,1.672,0,0,1,1.156.4,1.3,1.3,0,0,1,.444,1.02,1.34,1.34,0,0,1-.444,1.037A1.65,1.65,0,0,1,149.381-10.424ZM150.752,0h-2.777V-9h2.777ZM161.9,0h-2.777V-1.239h-.035A3.114,3.114,0,0,1,156.3.22a3.412,3.412,0,0,1-2.716-1.191A4.93,4.93,0,0,1,152.556-4.3a5.366,5.366,0,0,1,1.134-3.577A3.7,3.7,0,0,1,156.66-9.22a2.527,2.527,0,0,1,2.426,1.248h.035v-5.353H161.9Zm-2.725-4.377v-.677a2.13,2.13,0,0,0-.51-1.459,1.683,1.683,0,0,0-1.327-.58,1.673,1.673,0,0,0-1.441.725,3.367,3.367,0,0,0-.519,1.991,2.914,2.914,0,0,0,.5,1.828,1.663,1.663,0,0,0,1.389.642,1.67,1.67,0,0,0,1.375-.677A2.821,2.821,0,0,0,159.174-4.377ZM171.727,0H169.1V-1.292h-.035A2.933,2.933,0,0,1,166.383.22a2.8,2.8,0,0,1-2.061-.743A2.661,2.661,0,0,1,163.57-2.5q0-2.619,3.1-3.023l2.443-.325q0-1.477-1.6-1.477a5.46,5.46,0,0,0-3.059.958V-8.464a6.881,6.881,0,0,1,1.586-.527,8.339,8.339,0,0,1,1.833-.229q3.85,0,3.85,3.841Zm-2.61-3.656v-.606l-1.635.211q-1.354.176-1.354,1.222a1.01,1.01,0,0,0,.33.778,1.266,1.266,0,0,0,.892.3,1.644,1.644,0,0,0,1.274-.541A1.952,1.952,0,0,0,169.116-3.656ZM182.732,0h-2.777V-1.239h-.035A3.114,3.114,0,0,1,177.134.22a3.412,3.412,0,0,1-2.716-1.191A4.93,4.93,0,0,1,173.39-4.3a5.366,5.366,0,0,1,1.134-3.577,3.7,3.7,0,0,1,2.971-1.345,2.527,2.527,0,0,1,2.426,1.248h.035v-5.353h2.777Zm-2.725-4.377v-.677a2.13,2.13,0,0,0-.51-1.459,1.683,1.683,0,0,0-1.327-.58,1.673,1.673,0,0,0-1.441.725,3.367,3.367,0,0,0-.519,1.991,2.914,2.914,0,0,0,.5,1.828,1.663,1.663,0,0,0,1.389.642,1.67,1.67,0,0,0,1.375-.677A2.821,2.821,0,0,0,180.008-4.377Zm13.15.668h-5.871q.141,1.96,2.47,1.96a4.822,4.822,0,0,0,2.61-.7v2a6.858,6.858,0,0,1-3.243.668A4.565,4.565,0,0,1,185.74-.989a4.566,4.566,0,0,1-1.2-3.371,4.816,4.816,0,0,1,1.3-3.551,4.334,4.334,0,0,1,3.2-1.31,3.933,3.933,0,0,1,3.045,1.169,4.5,4.5,0,0,1,1.077,3.173Zm-2.575-1.705q0-1.934-1.564-1.934a1.494,1.494,0,0,0-1.156.554,2.513,2.513,0,0,0-.593,1.38Zm3.64,5.177v-2.25a5.913,5.913,0,0,0,1.367.615,4.531,4.531,0,0,0,1.288.2,2.762,2.762,0,0,0,1.165-.2.653.653,0,0,0,.426-.615.569.569,0,0,0-.193-.439,1.8,1.8,0,0,0-.5-.308,5.635,5.635,0,0,0-.664-.237q-.36-.105-.694-.237a6.653,6.653,0,0,1-.945-.435,2.731,2.731,0,0,1-.686-.541,2.125,2.125,0,0,1-.422-.712,2.841,2.841,0,0,1-.145-.958,2.466,2.466,0,0,1,.33-1.3,2.692,2.692,0,0,1,.879-.892,4.016,4.016,0,0,1,1.257-.51,6.553,6.553,0,0,1,1.472-.163,8.168,8.168,0,0,1,1.213.092,9.053,9.053,0,0,1,1.213.268v2.145a4.383,4.383,0,0,0-1.129-.461,4.764,4.764,0,0,0-1.182-.154,2.619,2.619,0,0,0-.514.048,1.693,1.693,0,0,0-.426.141.783.783,0,0,0-.29.237.546.546,0,0,0-.105.33.609.609,0,0,0,.158.422,1.374,1.374,0,0,0,.413.3,4.078,4.078,0,0,0,.567.229q.312.1.62.207a8.056,8.056,0,0,1,1,.422,3.2,3.2,0,0,1,.769.536,2.105,2.105,0,0,1,.492.721,2.562,2.562,0,0,1,.171.984,2.568,2.568,0,0,1-.347,1.367,2.78,2.78,0,0,1-.923.923,4.185,4.185,0,0,1-1.327.519,7.357,7.357,0,0,1-1.56.163A8.042,8.042,0,0,1,194.223-.237ZM216.507,0H213.73V-1.239h-.035A3.114,3.114,0,0,1,210.909.22a3.412,3.412,0,0,1-2.716-1.191A4.93,4.93,0,0,1,207.164-4.3,5.366,5.366,0,0,1,208.3-7.875a3.7,3.7,0,0,1,2.971-1.345,2.527,2.527,0,0,1,2.426,1.248h.035v-5.353h2.777Zm-2.725-4.377v-.677a2.13,2.13,0,0,0-.51-1.459,1.683,1.683,0,0,0-1.327-.58,1.673,1.673,0,0,0-1.441.725,3.367,3.367,0,0,0-.519,1.991,2.914,2.914,0,0,0,.5,1.828,1.663,1.663,0,0,0,1.389.642,1.67,1.67,0,0,0,1.375-.677A2.821,2.821,0,0,0,213.783-4.377Zm13.15.668h-5.871q.141,1.96,2.47,1.96a4.822,4.822,0,0,0,2.61-.7v2A6.858,6.858,0,0,1,222.9.22a4.565,4.565,0,0,1-3.384-1.208,4.566,4.566,0,0,1-1.2-3.371,4.816,4.816,0,0,1,1.3-3.551,4.334,4.334,0,0,1,3.2-1.31,3.933,3.933,0,0,1,3.045,1.169,4.5,4.5,0,0,1,1.077,3.173Zm-2.575-1.705q0-1.934-1.564-1.934a1.494,1.494,0,0,0-1.156.554,2.513,2.513,0,0,0-.593,1.38ZM247.846,0h-2.769V-5.133q0-1.96-1.441-1.96a1.324,1.324,0,0,0-1.116.589,2.42,2.42,0,0,0-.431,1.468V0h-2.777V-5.186q0-1.907-1.415-1.907a1.356,1.356,0,0,0-1.138.563A2.475,2.475,0,0,0,236.332-5V0h-2.777V-9h2.777v1.406h.035a3.321,3.321,0,0,1,1.208-1.173,3.321,3.321,0,0,1,1.7-.453,2.592,2.592,0,0,1,2.61,1.679A3.329,3.329,0,0,1,244.91-9.22q2.936,0,2.936,3.621Zm10.285-3.709H252.26q.141,1.96,2.47,1.96a4.822,4.822,0,0,0,2.61-.7v2A6.857,6.857,0,0,1,254.1.22a4.565,4.565,0,0,1-3.384-1.208,4.566,4.566,0,0,1-1.2-3.371,4.816,4.816,0,0,1,1.3-3.551,4.334,4.334,0,0,1,3.2-1.31,3.933,3.933,0,0,1,3.045,1.169,4.5,4.5,0,0,1,1.077,3.173Zm-2.575-1.705q0-1.934-1.564-1.934a1.494,1.494,0,0,0-1.156.554,2.513,2.513,0,0,0-.593,1.38Zm5.636-5.01a1.622,1.622,0,0,1-1.151-.417,1.345,1.345,0,0,1-.448-1.024,1.3,1.3,0,0,1,.448-1.02,1.676,1.676,0,0,1,1.151-.4,1.672,1.672,0,0,1,1.156.4,1.3,1.3,0,0,1,.444,1.02,1.34,1.34,0,0,1-.444,1.037A1.65,1.65,0,0,1,261.191-10.424ZM262.562-.158a4.892,4.892,0,0,1-.976,3.19,3.421,3.421,0,0,1-2.812,1.2,3.889,3.889,0,0,1-1.327-.264V1.784a2.163,2.163,0,0,0,1.028.325q1.31,0,1.31-2.057V-9h2.777Zm6.629.378a4.838,4.838,0,0,1-3.538-1.261,4.573,4.573,0,0,1-1.288-3.423A4.573,4.573,0,0,1,265.7-7.958a5.048,5.048,0,0,1,3.612-1.261,4.78,4.78,0,0,1,3.516,1.261A4.483,4.483,0,0,1,274.1-4.623a4.759,4.759,0,0,1-1.314,3.542A4.892,4.892,0,0,1,269.191.22Zm.07-7.312a1.852,1.852,0,0,0-1.529.677,2.984,2.984,0,0,0-.545,1.916q0,2.593,2.092,2.593,2,0,2-2.663Q271.274-7.093,269.261-7.093Zm12.517.6a2.409,2.409,0,0,0-1.169-.272,1.684,1.684,0,0,0-1.415.664,2.9,2.9,0,0,0-.51,1.806V0h-2.777V-9h2.777v1.67h.035a2.4,2.4,0,0,1,2.373-1.828,1.788,1.788,0,0,1,.686.105ZM290.561,0h-2.628V-1.292H287.9A2.933,2.933,0,0,1,285.217.22a2.8,2.8,0,0,1-2.061-.743A2.661,2.661,0,0,1,282.4-2.5q0-2.619,3.1-3.023l2.443-.325q0-1.477-1.6-1.477a5.46,5.46,0,0,0-3.059.958V-8.464a6.881,6.881,0,0,1,1.586-.527,8.339,8.339,0,0,1,1.833-.229q3.85,0,3.85,3.841Zm-2.61-3.656v-.606l-1.635.211q-1.354.176-1.354,1.222a1.01,1.01,0,0,0,.33.778,1.266,1.266,0,0,0,.892.3,1.644,1.644,0,0,0,1.274-.541A1.952,1.952,0,0,0,287.95-3.656Z" transform="translate(476.656 4036)" fill="#212429"/>
    <path id="Trazado_1059400" data-name="Trazado 1059400" d="M10.477-.448a8.311,8.311,0,0,1-3.6.668A6.074,6.074,0,0,1,2.312-1.485,6.233,6.233,0,0,1,.65-6.029a6.659,6.659,0,0,1,1.868-4.9,6.533,6.533,0,0,1,4.847-1.881,9.065,9.065,0,0,1,3.111.466v2.733a5.513,5.513,0,0,0-2.883-.756A3.824,3.824,0,0,0,4.729-9.255a4.142,4.142,0,0,0-1.09,3.023A4.062,4.062,0,0,0,4.667-3.318,3.633,3.633,0,0,0,7.436-2.232a5.905,5.905,0,0,0,3.041-.809ZM16.692.22a4.838,4.838,0,0,1-3.538-1.261,4.573,4.573,0,0,1-1.288-3.423A4.573,4.573,0,0,1,13.2-7.958,5.048,5.048,0,0,1,16.815-9.22a4.78,4.78,0,0,1,3.516,1.261,4.483,4.483,0,0,1,1.274,3.335,4.759,4.759,0,0,1-1.314,3.542A4.892,4.892,0,0,1,16.692.22Zm.07-7.312a1.852,1.852,0,0,0-1.529.677A2.984,2.984,0,0,0,14.688-4.5q0,2.593,2.092,2.593,2,0,2-2.663Q18.775-7.093,16.763-7.093ZM37.7,0H34.931V-5.133q0-1.96-1.441-1.96a1.324,1.324,0,0,0-1.116.589,2.42,2.42,0,0,0-.431,1.468V0H29.166V-5.186q0-1.907-1.415-1.907a1.356,1.356,0,0,0-1.138.563A2.475,2.475,0,0,0,26.186-5V0H23.409V-9h2.777v1.406h.035A3.321,3.321,0,0,1,27.43-8.767a3.321,3.321,0,0,1,1.7-.453,2.592,2.592,0,0,1,2.61,1.679A3.329,3.329,0,0,1,34.764-9.22Q37.7-9.22,37.7-5.6ZM48.451,0H45.682V-1.371h-.044A3.141,3.141,0,0,1,42.887.22q-3.129,0-3.129-3.788V-9h2.769v5.186q0,1.907,1.512,1.907a1.5,1.5,0,0,0,1.2-.523,2.109,2.109,0,0,0,.448-1.419V-9h2.769ZM59.483,0H56.714V-5q0-2.092-1.494-2.092a1.483,1.483,0,0,0-1.187.554,2.109,2.109,0,0,0-.466,1.406V0H50.79V-9h2.777v1.424H53.6A3.183,3.183,0,0,1,56.495-9.22q2.988,0,2.988,3.709Zm3.605-10.424a1.622,1.622,0,0,1-1.151-.417,1.345,1.345,0,0,1-.448-1.024,1.3,1.3,0,0,1,.448-1.02,1.676,1.676,0,0,1,1.151-.4,1.672,1.672,0,0,1,1.156.4,1.3,1.3,0,0,1,.444,1.02,1.34,1.34,0,0,1-.444,1.037A1.65,1.65,0,0,1,63.088-10.424ZM64.459,0H61.682V-9h2.777Zm9.16-.325A5.492,5.492,0,0,1,70.9.22a4.593,4.593,0,0,1-3.357-1.257A4.341,4.341,0,0,1,66.263-4.28,4.782,4.782,0,0,1,67.638-7.9,5.083,5.083,0,0,1,71.316-9.22a4.72,4.72,0,0,1,2.3.422v2.355a3.166,3.166,0,0,0-1.942-.65,2.559,2.559,0,0,0-1.894.7,2.607,2.607,0,0,0-.7,1.929,2.565,2.565,0,0,0,.668,1.876,2.455,2.455,0,0,0,1.837.681,3.666,3.666,0,0,0,2.03-.65ZM82.929,0H80.3V-1.292h-.035A2.933,2.933,0,0,1,77.585.22a2.8,2.8,0,0,1-2.061-.743A2.661,2.661,0,0,1,74.772-2.5q0-2.619,3.1-3.023l2.443-.325q0-1.477-1.6-1.477a5.46,5.46,0,0,0-3.059.958V-8.464a6.881,6.881,0,0,1,1.586-.527,8.339,8.339,0,0,1,1.833-.229q3.85,0,3.85,3.841Zm-2.61-3.656v-.606l-1.635.211Q77.33-3.876,77.33-2.83a1.01,1.01,0,0,0,.33.778,1.266,1.266,0,0,0,.892.3,1.644,1.644,0,0,0,1.274-.541A1.952,1.952,0,0,0,80.318-3.656ZM91-6.5a2.409,2.409,0,0,0-1.169-.272,1.684,1.684,0,0,0-1.415.664,2.9,2.9,0,0,0-.51,1.806V0H85.128V-9h2.777v1.67h.035a2.4,2.4,0,0,1,2.373-1.828A1.788,1.788,0,0,1,91-9.053ZM108.009,0h-3.586l-3.674-5.476a5.248,5.248,0,0,1-.334-.694h-.044V0H97.533V-12.6h2.839v5.959h.044q.105-.246.352-.7l3.48-5.256h3.384l-4.395,6.012Zm4.045-4.342V0h-2.839V-12.6h4.447q4.764,0,4.764,4.017a3.854,3.854,0,0,1-1.367,3.072,5.414,5.414,0,0,1-3.652,1.173Zm0-6.082V-6.5h1.116q2.268,0,2.268-1.986,0-1.942-2.268-1.942ZM123.112,0h-2.839V-12.6h2.839Zm2.006-.237v-2.25a5.913,5.913,0,0,0,1.367.615,4.531,4.531,0,0,0,1.288.2,2.762,2.762,0,0,0,1.165-.2.653.653,0,0,0,.426-.615.569.569,0,0,0-.193-.439,1.8,1.8,0,0,0-.5-.308,5.635,5.635,0,0,0-.664-.237q-.36-.105-.694-.237a6.653,6.653,0,0,1-.945-.435,2.731,2.731,0,0,1-.686-.541,2.125,2.125,0,0,1-.422-.712,2.841,2.841,0,0,1-.145-.958,2.466,2.466,0,0,1,.33-1.3,2.692,2.692,0,0,1,.879-.892,4.016,4.016,0,0,1,1.257-.51,6.553,6.553,0,0,1,1.472-.163,8.168,8.168,0,0,1,1.213.092,9.053,9.053,0,0,1,1.213.268v2.145a4.383,4.383,0,0,0-1.129-.461,4.764,4.764,0,0,0-1.182-.154,2.619,2.619,0,0,0-.514.048,1.693,1.693,0,0,0-.426.141.783.783,0,0,0-.29.237.546.546,0,0,0-.105.33.609.609,0,0,0,.158.422,1.374,1.374,0,0,0,.413.3,4.078,4.078,0,0,0,.567.229q.312.1.62.207a8.056,8.056,0,0,1,1,.422,3.2,3.2,0,0,1,.769.536,2.105,2.105,0,0,1,.492.721,2.562,2.562,0,0,1,.171.984,2.568,2.568,0,0,1-.347,1.367,2.78,2.78,0,0,1-.923.923,4.185,4.185,0,0,1-1.327.519,7.357,7.357,0,0,1-1.56.163A8.042,8.042,0,0,1,125.118-.237ZM146.084,0h-2.628V-1.292h-.035A2.933,2.933,0,0,1,140.74.22a2.8,2.8,0,0,1-2.061-.743,2.661,2.661,0,0,1-.751-1.982q0-2.619,3.1-3.023l2.443-.325q0-1.477-1.6-1.477a5.46,5.46,0,0,0-3.059.958V-8.464a6.881,6.881,0,0,1,1.586-.527,8.339,8.339,0,0,1,1.833-.229q3.85,0,3.85,3.841Zm-2.61-3.656v-.606l-1.635.211q-1.354.176-1.354,1.222a1.01,1.01,0,0,0,.33.778,1.266,1.266,0,0,0,.892.3,1.644,1.644,0,0,0,1.274-.541A1.952,1.952,0,0,0,143.473-3.656Zm9.188,3.419v-2.25a5.913,5.913,0,0,0,1.367.615,4.531,4.531,0,0,0,1.288.2,2.762,2.762,0,0,0,1.165-.2.653.653,0,0,0,.426-.615.569.569,0,0,0-.193-.439,1.8,1.8,0,0,0-.5-.308,5.635,5.635,0,0,0-.664-.237q-.36-.105-.694-.237a6.653,6.653,0,0,1-.945-.435,2.731,2.731,0,0,1-.686-.541,2.125,2.125,0,0,1-.422-.712,2.841,2.841,0,0,1-.145-.958,2.466,2.466,0,0,1,.33-1.3,2.692,2.692,0,0,1,.879-.892,4.016,4.016,0,0,1,1.257-.51A6.553,6.553,0,0,1,156.6-9.22a8.168,8.168,0,0,1,1.213.092,9.053,9.053,0,0,1,1.213.268v2.145a4.383,4.383,0,0,0-1.129-.461,4.764,4.764,0,0,0-1.182-.154,2.619,2.619,0,0,0-.514.048,1.693,1.693,0,0,0-.426.141.783.783,0,0,0-.29.237.546.546,0,0,0-.105.33.609.609,0,0,0,.158.422,1.374,1.374,0,0,0,.413.3,4.078,4.078,0,0,0,.567.229q.312.1.62.207a8.056,8.056,0,0,1,1,.422,3.2,3.2,0,0,1,.769.536,2.105,2.105,0,0,1,.492.721,2.562,2.562,0,0,1,.171.984,2.568,2.568,0,0,1-.347,1.367,2.78,2.78,0,0,1-.923.923,4.185,4.185,0,0,1-1.327.519,7.357,7.357,0,0,1-1.56.163A8.042,8.042,0,0,1,152.661-.237Zm13.95.132a4.105,4.105,0,0,1-1.854.325q-2.936,0-2.936-3.05V-6.952h-1.459V-9h1.459v-1.942l2.769-.791V-9h2.021v2.048H164.59v3.639q0,1.406,1.116,1.406a1.882,1.882,0,0,0,.905-.255ZM175.666,0h-2.628V-1.292H173A2.933,2.933,0,0,1,170.322.22a2.8,2.8,0,0,1-2.061-.743A2.661,2.661,0,0,1,167.51-2.5q0-2.619,3.1-3.023l2.443-.325q0-1.477-1.6-1.477a5.46,5.46,0,0,0-3.059.958V-8.464a6.881,6.881,0,0,1,1.586-.527,8.339,8.339,0,0,1,1.833-.229q3.85,0,3.85,3.841Zm-2.61-3.656v-.606l-1.635.211q-1.354.176-1.354,1.222a1.01,1.01,0,0,0,.33.778,1.266,1.266,0,0,0,.892.3,1.644,1.644,0,0,0,1.274-.541A1.952,1.952,0,0,0,173.056-3.656ZM186.883,0h-3.331l-2.874-4.465h-.035V0h-2.777V-13.324h2.777v8.481h.035L183.358-9h3.3l-3.226,4.228Zm8.879-3.709H189.89q.141,1.96,2.47,1.96a4.822,4.822,0,0,0,2.61-.7v2a6.858,6.858,0,0,1-3.243.668,4.565,4.565,0,0,1-3.384-1.208,4.566,4.566,0,0,1-1.2-3.371,4.816,4.816,0,0,1,1.3-3.551,4.334,4.334,0,0,1,3.2-1.31,3.933,3.933,0,0,1,3.045,1.169,4.5,4.5,0,0,1,1.077,3.173Zm-2.575-1.705q0-1.934-1.564-1.934a1.494,1.494,0,0,0-1.156.554,2.513,2.513,0,0,0-.593,1.38ZM206.055,0h-2.769V-5.115q0-1.978-1.441-1.978a1.476,1.476,0,0,0-1.2.554,2.136,2.136,0,0,0-.457,1.406V0h-2.777V-13.324h2.777v5.66h.035A3.156,3.156,0,0,1,203-9.22q3.059,0,3.059,3.691Zm6.488.22a4.838,4.838,0,0,1-3.538-1.261,4.573,4.573,0,0,1-1.288-3.423,4.573,4.573,0,0,1,1.336-3.494,5.048,5.048,0,0,1,3.612-1.261,4.78,4.78,0,0,1,3.516,1.261,4.483,4.483,0,0,1,1.274,3.335,4.759,4.759,0,0,1-1.314,3.542A4.892,4.892,0,0,1,212.543.22Zm.07-7.312a1.852,1.852,0,0,0-1.529.677,2.984,2.984,0,0,0-.545,1.916q0,2.593,2.092,2.593,2,0,2-2.663Q214.626-7.093,212.614-7.093ZM222.037,0H219.26V-13.324h2.777Zm11.146,0h-2.777V-1.239h-.035A3.114,3.114,0,0,1,227.585.22a3.412,3.412,0,0,1-2.716-1.191A4.93,4.93,0,0,1,223.841-4.3a5.366,5.366,0,0,1,1.134-3.577,3.7,3.7,0,0,1,2.971-1.345,2.527,2.527,0,0,1,2.426,1.248h.035v-5.353h2.777Zm-2.725-4.377v-.677a2.13,2.13,0,0,0-.51-1.459,1.683,1.683,0,0,0-1.327-.58,1.673,1.673,0,0,0-1.441.725,3.367,3.367,0,0,0-.519,1.991,2.914,2.914,0,0,0,.5,1.828,1.663,1.663,0,0,0,1.389.642,1.67,1.67,0,0,0,1.375-.677A2.821,2.821,0,0,0,230.459-4.377Zm13.15.668h-5.871q.141,1.96,2.47,1.96a4.822,4.822,0,0,0,2.61-.7v2a6.858,6.858,0,0,1-3.243.668,4.565,4.565,0,0,1-3.384-1.208,4.566,4.566,0,0,1-1.2-3.371,4.816,4.816,0,0,1,1.3-3.551,4.334,4.334,0,0,1,3.2-1.31,3.933,3.933,0,0,1,3.045,1.169,4.5,4.5,0,0,1,1.077,3.173Zm-2.575-1.705q0-1.934-1.564-1.934a1.494,1.494,0,0,0-1.156.554,2.513,2.513,0,0,0-.593,1.38Zm10.1-1.081a2.409,2.409,0,0,0-1.169-.272,1.684,1.684,0,0,0-1.415.664,2.9,2.9,0,0,0-.51,1.806V0h-2.777V-9h2.777v1.67h.035a2.4,2.4,0,0,1,2.373-1.828,1.788,1.788,0,0,1,.686.105Zm.81,6.258v-2.25a5.913,5.913,0,0,0,1.367.615,4.531,4.531,0,0,0,1.288.2,2.762,2.762,0,0,0,1.165-.2.653.653,0,0,0,.426-.615A.569.569,0,0,0,256-2.927a1.8,1.8,0,0,0-.5-.308,5.635,5.635,0,0,0-.664-.237q-.36-.105-.694-.237a6.653,6.653,0,0,1-.945-.435,2.731,2.731,0,0,1-.686-.541,2.125,2.125,0,0,1-.422-.712,2.841,2.841,0,0,1-.145-.958,2.466,2.466,0,0,1,.33-1.3,2.692,2.692,0,0,1,.879-.892,4.016,4.016,0,0,1,1.257-.51,6.553,6.553,0,0,1,1.472-.163,8.168,8.168,0,0,1,1.213.092,9.053,9.053,0,0,1,1.213.268v2.145a4.383,4.383,0,0,0-1.129-.461A4.764,4.764,0,0,0,256-7.33a2.619,2.619,0,0,0-.514.048,1.693,1.693,0,0,0-.426.141.783.783,0,0,0-.29.237.546.546,0,0,0-.105.33.609.609,0,0,0,.158.422,1.374,1.374,0,0,0,.413.3,4.078,4.078,0,0,0,.567.229q.312.1.62.207a8.056,8.056,0,0,1,1,.422,3.2,3.2,0,0,1,.769.536,2.105,2.105,0,0,1,.492.721,2.562,2.562,0,0,1,.171.984,2.568,2.568,0,0,1-.347,1.367,2.78,2.78,0,0,1-.923.923,4.185,4.185,0,0,1-1.327.519A7.357,7.357,0,0,1,254.7.22,8.042,8.042,0,0,1,251.945-.237Z" transform="translate(896.863 4036)" fill="#212429"/>
    <path id="Trazado_1059398" data-name="Trazado 1059398" d="M4.28,0H1.441V-12.6H4.28Zm11.4,0H12.9V-1.239h-.035A3.114,3.114,0,0,1,10.083.22,3.412,3.412,0,0,1,7.367-.971,4.93,4.93,0,0,1,6.339-4.3,5.366,5.366,0,0,1,7.473-7.875,3.7,3.7,0,0,1,10.443-9.22a2.527,2.527,0,0,1,2.426,1.248H12.9v-5.353h2.777ZM12.957-4.377v-.677a2.13,2.13,0,0,0-.51-1.459,1.683,1.683,0,0,0-1.327-.58,1.673,1.673,0,0,0-1.441.725A3.367,3.367,0,0,0,9.16-4.377a2.914,2.914,0,0,0,.5,1.828,1.663,1.663,0,0,0,1.389.642,1.67,1.67,0,0,0,1.375-.677A2.821,2.821,0,0,0,12.957-4.377Zm13.15.668H20.236q.141,1.96,2.47,1.96a4.822,4.822,0,0,0,2.61-.7v2A6.858,6.858,0,0,1,22.073.22,4.565,4.565,0,0,1,18.689-.989a4.566,4.566,0,0,1-1.2-3.371,4.816,4.816,0,0,1,1.3-3.551,4.334,4.334,0,0,1,3.2-1.31A3.933,3.933,0,0,1,25.03-8.051a4.5,4.5,0,0,1,1.077,3.173ZM23.532-5.414q0-1.934-1.564-1.934a1.494,1.494,0,0,0-1.156.554,2.513,2.513,0,0,0-.593,1.38ZM36.454,0H33.685V-5q0-2.092-1.494-2.092A1.483,1.483,0,0,0,31-6.539a2.109,2.109,0,0,0-.466,1.406V0H27.761V-9h2.777v1.424h.035A3.183,3.183,0,0,1,33.465-9.22q2.988,0,2.988,3.709Zm7.639-.105A4.105,4.105,0,0,1,42.239.22Q39.3.22,39.3-2.83V-6.952H37.844V-9H39.3v-1.942l2.769-.791V-9h2.021v2.048H42.072v3.639q0,1.406,1.116,1.406a1.882,1.882,0,0,0,.905-.255Zm2.973-10.318a1.622,1.622,0,0,1-1.151-.417,1.345,1.345,0,0,1-.448-1.024,1.3,1.3,0,0,1,.448-1.02,1.676,1.676,0,0,1,1.151-.4,1.672,1.672,0,0,1,1.156.4,1.3,1.3,0,0,1,.444,1.02,1.34,1.34,0,0,1-.444,1.037A1.65,1.65,0,0,1,47.066-10.424ZM48.437,0H45.659V-9h2.777Zm8.211-11.2a2.806,2.806,0,0,0-1.028-.211q-1.336,0-1.336,1.45V-9H56.34v2.048H54.283V0H51.515V-6.952H50V-9h1.512v-1.116a3.24,3.24,0,0,1,1-2.479,3.821,3.821,0,0,1,2.725-.94,4.785,4.785,0,0,1,1.406.176Zm2.436.773a1.622,1.622,0,0,1-1.151-.417,1.345,1.345,0,0,1-.448-1.024,1.3,1.3,0,0,1,.448-1.02,1.676,1.676,0,0,1,1.151-.4,1.672,1.672,0,0,1,1.156.4,1.3,1.3,0,0,1,.444,1.02,1.34,1.34,0,0,1-.444,1.037A1.65,1.65,0,0,1,59.084-10.424ZM60.455,0H57.678V-9h2.777Zm9.16-.325A5.492,5.492,0,0,1,66.9.22a4.593,4.593,0,0,1-3.357-1.257A4.341,4.341,0,0,1,62.259-4.28,4.782,4.782,0,0,1,63.634-7.9,5.083,5.083,0,0,1,67.312-9.22a4.72,4.72,0,0,1,2.3.422v2.355a3.166,3.166,0,0,0-1.942-.65,2.559,2.559,0,0,0-1.894.7,2.607,2.607,0,0,0-.7,1.929,2.565,2.565,0,0,0,.668,1.876,2.455,2.455,0,0,0,1.837.681,3.666,3.666,0,0,0,2.03-.65ZM78.924,0H76.3V-1.292h-.035A2.933,2.933,0,0,1,73.581.22,2.8,2.8,0,0,1,71.52-.523,2.661,2.661,0,0,1,70.768-2.5q0-2.619,3.1-3.023l2.443-.325q0-1.477-1.6-1.477a5.46,5.46,0,0,0-3.059.958V-8.464a6.881,6.881,0,0,1,1.586-.527,8.339,8.339,0,0,1,1.833-.229q3.85,0,3.85,3.841Zm-2.61-3.656v-.606l-1.635.211q-1.354.176-1.354,1.222a1.01,1.01,0,0,0,.33.778,1.266,1.266,0,0,0,.892.3,1.644,1.644,0,0,0,1.274-.541A1.952,1.952,0,0,0,76.314-3.656ZM86.995-6.5a2.409,2.409,0,0,0-1.169-.272,1.684,1.684,0,0,0-1.415.664A2.9,2.9,0,0,0,83.9-4.3V0H81.123V-9H83.9v1.67h.035a2.4,2.4,0,0,1,2.373-1.828,1.788,1.788,0,0,1,.686.105ZM100.744,0H98.116V-1.292h-.035A2.933,2.933,0,0,1,95.4.22a2.8,2.8,0,0,1-2.061-.743A2.661,2.661,0,0,1,92.588-2.5q0-2.619,3.1-3.023l2.443-.325q0-1.477-1.6-1.477a5.46,5.46,0,0,0-3.059.958V-8.464a6.881,6.881,0,0,1,1.586-.527,8.339,8.339,0,0,1,1.833-.229q3.85,0,3.85,3.841Zm-2.61-3.656v-.606L96.5-4.052q-1.354.176-1.354,1.222a1.01,1.01,0,0,0,.33.778,1.266,1.266,0,0,0,.892.3,1.644,1.644,0,0,0,1.274-.541A1.952,1.952,0,0,0,98.134-3.656ZM111.636,0h-2.769V-5q0-2.092-1.494-2.092a1.483,1.483,0,0,0-1.187.554,2.109,2.109,0,0,0-.466,1.406V0h-2.777V-9h2.777v1.424h.035a3.183,3.183,0,0,1,2.892-1.644q2.988,0,2.988,3.709Zm6.488.22a4.838,4.838,0,0,1-3.538-1.261A4.573,4.573,0,0,1,113.3-4.465a4.573,4.573,0,0,1,1.336-3.494,5.048,5.048,0,0,1,3.612-1.261,4.78,4.78,0,0,1,3.516,1.261,4.483,4.483,0,0,1,1.274,3.335,4.759,4.759,0,0,1-1.314,3.542A4.892,4.892,0,0,1,118.124.22Zm.07-7.312a1.852,1.852,0,0,0-1.529.677A2.984,2.984,0,0,0,116.12-4.5q0,2.593,2.092,2.593,2,0,2-2.663Q120.207-7.093,118.194-7.093ZM139.132,0h-2.769V-5.133q0-1.96-1.441-1.96a1.324,1.324,0,0,0-1.116.589,2.42,2.42,0,0,0-.431,1.468V0H130.6V-5.186q0-1.907-1.415-1.907a1.356,1.356,0,0,0-1.138.563A2.475,2.475,0,0,0,127.618-5V0H124.84V-9h2.777v1.406h.035a3.321,3.321,0,0,1,1.209-1.173,3.321,3.321,0,0,1,1.7-.453,2.592,2.592,0,0,1,2.61,1.679A3.329,3.329,0,0,1,136.2-9.22q2.936,0,2.936,3.621Zm9.687,0h-2.628V-1.292h-.035A2.933,2.933,0,0,1,143.475.22a2.8,2.8,0,0,1-2.061-.743,2.661,2.661,0,0,1-.751-1.982q0-2.619,3.1-3.023l2.443-.325q0-1.477-1.6-1.477a5.46,5.46,0,0,0-3.059.958V-8.464a6.881,6.881,0,0,1,1.586-.527,8.339,8.339,0,0,1,1.833-.229q3.85,0,3.85,3.841Zm-2.61-3.656v-.606l-1.635.211q-1.354.176-1.354,1.222a1.01,1.01,0,0,0,.33.778,1.266,1.266,0,0,0,.892.3,1.644,1.644,0,0,0,1.274-.541A1.952,1.952,0,0,0,146.208-3.656ZM153.8,0h-2.777V-13.324H153.8Zm5.117,0h-2.777V-9h2.777Zm1.433-13.263-2.751,2.839h-2l2.285-2.839ZM168.74,0h-2.628V-1.292h-.035A2.933,2.933,0,0,1,163.4.22a2.8,2.8,0,0,1-2.061-.743,2.661,2.661,0,0,1-.751-1.982q0-2.619,3.1-3.023l2.443-.325q0-1.477-1.6-1.477a5.46,5.46,0,0,0-3.059.958V-8.464a6.881,6.881,0,0,1,1.586-.527,8.339,8.339,0,0,1,1.833-.229q3.85,0,3.85,3.841Zm-2.61-3.656v-.606l-1.635.211q-1.354.176-1.354,1.222a1.01,1.01,0,0,0,.33.778,1.266,1.266,0,0,0,.892.3,1.644,1.644,0,0,0,1.274-.541A1.952,1.952,0,0,0,166.13-3.656ZM170.35-.237v-2.25a5.913,5.913,0,0,0,1.367.615,4.531,4.531,0,0,0,1.288.2,2.762,2.762,0,0,0,1.165-.2.653.653,0,0,0,.426-.615.569.569,0,0,0-.193-.439,1.8,1.8,0,0,0-.5-.308,5.635,5.635,0,0,0-.664-.237q-.36-.105-.694-.237a6.653,6.653,0,0,1-.945-.435,2.731,2.731,0,0,1-.686-.541A2.125,2.125,0,0,1,170.5-5.4a2.841,2.841,0,0,1-.145-.958,2.466,2.466,0,0,1,.33-1.3,2.692,2.692,0,0,1,.879-.892,4.016,4.016,0,0,1,1.257-.51,6.553,6.553,0,0,1,1.472-.163,8.168,8.168,0,0,1,1.213.092,9.053,9.053,0,0,1,1.213.268v2.145a4.383,4.383,0,0,0-1.129-.461A4.764,4.764,0,0,0,174.4-7.33a2.619,2.619,0,0,0-.514.048,1.693,1.693,0,0,0-.426.141.783.783,0,0,0-.29.237.546.546,0,0,0-.105.33.609.609,0,0,0,.158.422,1.374,1.374,0,0,0,.413.3,4.078,4.078,0,0,0,.567.229q.312.1.62.207a8.056,8.056,0,0,1,1,.422,3.2,3.2,0,0,1,.769.536,2.105,2.105,0,0,1,.492.721,2.562,2.562,0,0,1,.171.984,2.568,2.568,0,0,1-.347,1.367,2.78,2.78,0,0,1-.923.923,4.185,4.185,0,0,1-1.327.519A7.357,7.357,0,0,1,173.1.22,8.042,8.042,0,0,1,170.35-.237Z" transform="translate(992.863 3589)" fill="#212429"/>
    <g id="Grupo_1223134" data-name="Grupo 1223134" transform="translate(401.586 3937.143)">
      <path id="Trazado_998842" data-name="Trazado 998842" d="M-350.806,1535.477l11.377-90.237H-225.6" transform="translate(354.22 -1440.24)" fill="none" stroke="#772d84" stroke-linecap="round" stroke-width="2"/>
      <path id="Trazado_1037160" data-name="Trazado 1037160" d="M5,0a5,5,0,1,0,5,5A5,5,0,0,0,5,0Z" transform="translate(0 88.615)" fill="#772d84"/>
      <path id="Trazado_1037161" data-name="Trazado 1037161" d="M5,0a5,5,0,1,0,5,5A5,5,0,0,0,5,0Z" transform="translate(123.616)" fill="#772d84"/>
    </g>
    <g id="Grupo_1223135" data-name="Grupo 1223135" transform="translate(1069.576 3937.143)">
      <path id="Trazado_998842-2" data-name="Trazado 998842" d="M-225.6,1535.477l-11.377-90.237H-350.806" transform="translate(355.806 -1440.24)" fill="none" stroke="#772d84" stroke-linecap="round" stroke-width="2"/>
      <path id="Trazado_1037160-2" data-name="Trazado 1037160" d="M5,0A5,5,0,1,1,0,5,5,5,0,0,1,5,0Z" transform="translate(123.616 88.615)" fill="#772d84"/>
      <path id="Trazado_1037161-2" data-name="Trazado 1037161" d="M5,0A5,5,0,1,1,0,5,5,5,0,0,1,5,0Z" fill="#772d84"/>
    </g>
    <g id="Grupo_1223136" data-name="Grupo 1223136" transform="translate(709.59 3672.465)">
      <g id="Grupo_1173498" data-name="Grupo 1173498" transform="translate(0 0)" clip-path="url(#clip-path-6)">
        <path id="Trazado_1029294" data-name="Trazado 1029294" d="M258.811,2092.964c-3.936,7.922-10.92,34.339-12.849,43.573H364.02c-.146-2.339-.271-3.882-.373-4.463-1.21-6.941-8.963-36.828-13.194-45.344-2.662-5.358-63.229.279-63.059,4.225,0,.067.012.183.027.343-14.081-.933-27.393-.782-28.61,1.667" transform="translate(-214.688 -1819.48)" fill="#27081c"/>
        <path id="Trazado_1029295" data-name="Trazado 1029295" d="M377.079,2089.488c-9.508.453-16.006-1.814-22.922-2.431-11.875-1.059-18.295-4.881-20.143-6.251l-.695-4.167c-.05-.037-.626-4.828-.694-4.863,2.231,1.122,21.673,8.626,49.943,6.965,24.151-1.417,44.282-4.627,47.3-6.27l.347,10.766c-7.786,4.236-41.228,6.159-45.478,6.4-1.61.091-6.079-.223-7.659-.148" transform="translate(-290.331 -1808.346)" fill="#958a9f"/>
        <line id="Línea_760" data-name="Línea 760" x2="1.794" y2="12.889" transform="translate(118.655 268.84)" fill="none" stroke="#27081c" stroke-miterlimit="10" stroke-width="1"/>
        <line id="Línea_761" data-name="Línea 761" x2="0.159" y2="9.724" transform="translate(63.313 271.369)" fill="none" stroke="#27081c" stroke-miterlimit="10" stroke-width="1"/>
        <path id="Trazado_1029296" data-name="Trazado 1029296" d="M678.4,2151.271l-16.385.78-.242-5.082-.206-4.324,16.385-.78Z" transform="translate(-577.446 -1869.524)" fill="none" stroke="#141212" stroke-miterlimit="10" stroke-width="1"/>
        <line id="Línea_762" data-name="Línea 762" x1="8.799" y2="0.419" transform="translate(84.332 277.179)" fill="none" stroke="#141212" stroke-miterlimit="10" stroke-width="1"/>
        <path id="Trazado_1029297" data-name="Trazado 1029297" d="M297.4,2175.567c-.347,6.946-9.377,20.144-16.67,25.7" transform="translate(-245.034 -1898.94)" fill="none" stroke="#eee9ec" stroke-miterlimit="10" stroke-width="1"/>
        <path id="Trazado_1029298" data-name="Trazado 1029298" d="M1018.2,2197.418c1.389,6.946,14.934,27.784,18.059,30.215" transform="translate(-888.731 -1918.013)" fill="none" stroke="#eee9ec" stroke-miterlimit="10" stroke-width="1"/>
        <path id="Trazado_1029299" data-name="Trazado 1029299" d="M40.437,1073.5c-12.233,7.4-20.164,17.8-21.891,24.467-2.254,8.692-18.994,53.118-16.1,66s22.535,26.076,28.33,20.925S40.437,1073.5,40.437,1073.5" transform="translate(-1.845 -937.006)" fill="#eee9ec" stroke="#707070" stroke-width="1"/>
        <path id="Trazado_1029300" data-name="Trazado 1029300" d="M40.437,1073.5c-12.233,7.4-20.164,17.8-21.891,24.467-2.254,8.692-18.994,53.118-16.1,66s22.535,26.076,28.33,20.925S40.437,1073.5,40.437,1073.5Z" transform="translate(-1.845 -937.006)" fill="none" stroke="#141212" stroke-miterlimit="10" stroke-width="1"/>
        <path id="Trazado_1029301" data-name="Trazado 1029301" d="M1116.249,1114.014c8.048,8.37,13.2,16.982,15.935,38.953-.644,28.33-13.843,39.919-14.809,39.919s-11.267.966-11.267-.322,10.141-78.55,10.141-78.55" transform="translate(-965.464 -972.366)" fill="#eee9ec" stroke="#707070" stroke-width="1"/>
        <path id="Trazado_1029302" data-name="Trazado 1029302" d="M1116.249,1114.014c8.048,8.37,13.2,16.982,15.935,38.953-.644,28.33-13.843,39.919-14.809,39.919s-11.267.966-11.267-.322S1116.249,1114.014,1116.249,1114.014Z" transform="translate(-965.464 -972.366)" fill="none" stroke="#141212" stroke-miterlimit="10" stroke-width="1"/>
        <path id="Trazado_1029303" data-name="Trazado 1029303" d="M284.2,935.145c-.8,1.127-21.328,12.958-21.328,12.958s-1.832,21.015-2.978,43.38c-1.107,21.621-.966,44-.966,47.163,0,6.439-8.692,36.7,18.35,42.816,27.042,6.439,81.126.322,87.887-6.761s6.76-35.412,7.726-44.1,3.863-73.722,3.219-76.941-43.139-24.467-43.139-24.467l-49.9,5.795" transform="translate(-224.845 -811.041)" fill="#eee9ec"/>
        <path id="Trazado_1029304" data-name="Trazado 1029304" d="M572.7,761.97l-1.449,22.454,19.074,18.833,21.006-20.282-4.346-23.42Z" transform="translate(-498.62 -662.977)" fill="#da826f"/>
        <path id="Trazado_1029306" data-name="Trazado 1029306" d="M421.244,169.544s3.863,20.684,5.312,30.825c1.246,8.724,8.15,17.861,21.247,21.891,3.139.966,6.761,3.139,11.348,2.414,3.451-.133,7.485-.483,10.865-3.863,12.783-2.937,18.2-9.9,20.04-21.73,2.173-13.763,4.587-29.456,4.587-29.456l4.99-25.915-23.34-10.785L433.558,135.1l-10.865,9.255Z" transform="translate(-367.682 -116.024)" fill="#e48a77"/>
        <path id="Trazado_1029307" data-name="Trazado 1029307" d="M571.263,474.924c0,2.884-1.642,5.221-3.669,5.221s-3.669-2.338-3.669-5.221,1.643-5.221,3.669-5.221,3.669,2.338,3.669,5.221" transform="translate(-492.222 -409.979)" fill="#141212"/>
        <path id="Trazado_1029308" data-name="Trazado 1029308" d="M838.75,482c0,2.884-1.642,5.221-3.669,5.221s-3.669-2.338-3.669-5.221,1.643-5.222,3.669-5.222,3.669,2.338,3.669,5.222" transform="translate(-725.697 -416.154)" fill="#141212"/>
        <path id="Trazado_1029310" data-name="Trazado 1029310" d="M612.082,795.771a14.09,14.09,0,0,0,13.038,6.519c5.2-.32,11.31-1.023,12.193-7.606" transform="translate(-534.255 -693.64)" fill="none" stroke="#141212" stroke-miterlimit="10" stroke-width="1"/>
        <path id="Trazado_1029311" data-name="Trazado 1029311" d="M689.052,533.589c2.9,2.414,7.243,5.07,5.553,6.761a18.752,18.752,0,0,1-9.416,4.1" transform="translate(-598.066 -465.742)" fill="none" stroke="#141212" stroke-miterlimit="10" stroke-width="1"/>
        <path id="Trazado_1029312" data-name="Trazado 1029312" d="M497.2,362.406c2.414-.724,7.968-2.173,12.555,0" transform="translate(-433.979 -315.324)" fill="none" stroke="#141212" stroke-miterlimit="10" stroke-width="1"/>
        <path id="Trazado_1029313" data-name="Trazado 1029313" d="M801.021,356.474c1.932-1.207,11.107-1.207,13.28,0" transform="translate(-699.17 -310.358)" fill="none" stroke="#141212" stroke-miterlimit="10" stroke-width="1"/>
        <path id="Trazado_1029316" data-name="Trazado 1029316" d="M426.768,20.47c.033-.339.052-.683.052-1.031a10.49,10.49,0,0,0-14.389-9.751,10.078,10.078,0,0,0-11.413-4.743,10.606,10.606,0,0,0-17.666-.4A12.4,12.4,0,0,0,365.2,7.824a10.378,10.378,0,0,0-13.821,6.083,9.406,9.406,0,0,0-10.287,12.846,7.843,7.843,0,1,0,10.321,8.471,7.826,7.826,0,0,0,10.536-3.971,6.261,6.261,0,0,0,8.789-1.733A12.145,12.145,0,0,0,386.951,26.5a11.1,11.1,0,0,0,17.6,1.04A8.9,8.9,0,0,0,414.8,32.852,9.655,9.655,0,1,0,426.768,20.47" transform="translate(-293.098 -0.003)" fill="#141212"/>
        <path id="Trazado_1029317" data-name="Trazado 1029317" d="M384.533,262.092l2.414,21.086,3.863.966,3.38-24.628Z" transform="translate(-335.639 -226.519)" fill="#141212"/>
        <path id="Trazado_1029318" data-name="Trazado 1029318" d="M994.406,264.58l-.966,22.374h3.7l4.507-20.6Z" transform="translate(-867.123 -230.938)" fill="#141212"/>
        <path id="Trazado_1029319" data-name="Trazado 1029319" d="M964.587,435.625c4.785-6.633,14.169-5.835,15.334,3.122s-9.853,11.519-14.812,12.388a58.24,58.24,0,0,0-.522-15.51" transform="translate(-841.938 -376.414)" fill="#e48a77"/>
        <path id="Trazado_1029320" data-name="Trazado 1029320" d="M996.75,470.606c-2.227-.673-7.124,1.029-8.328,5.137" transform="translate(-862.742 -410.643)" fill="none" stroke="#141212" stroke-miterlimit="10" stroke-width="1"/>
        <path id="Trazado_1029321" data-name="Trazado 1029321" d="M371.563,452.226c-4.785-6.633-14.169-5.835-15.334,3.122s9.853,11.519,14.812,12.388a58.234,58.234,0,0,1,.522-15.51" transform="translate(-310.86 -390.904)" fill="#e48a77"/>
        <path id="Trazado_1029322" data-name="Trazado 1029322" d="M388.08,487.206c2.227-.673,7.124,1.029,8.328,5.137" transform="translate(-338.735 -425.133)" fill="none" stroke="#141212" stroke-miterlimit="10" stroke-width="1"/>
        <path id="Trazado_1029323" data-name="Trazado 1029323" d="M463.513,409.56c-1.288,4.507,1.932,15.131,3.541,18.189s19.477,3.219,21.086-.322,4.507-14.326,2.576-18.511S464.8,405.053,463.513,409.56Z" transform="translate(-404.317 -354.349)" fill="none" stroke="#141212" stroke-miterlimit="10" stroke-width="1"/>
        <path id="Trazado_1029324" data-name="Trazado 1029324" d="M752.143,412.092c-1.288,4.507,1.932,15.131,3.541,18.189s19.477,3.219,21.086-.322,4.507-14.326,2.575-18.511S753.431,407.584,752.143,412.092Z" transform="translate(-656.248 -356.559)" fill="none" stroke="#141212" stroke-miterlimit="10" stroke-width="1"/>
        <path id="Trazado_1029325" data-name="Trazado 1029325" d="M915.629,958.076c-.644-3.219-39.919-23.823-39.919-23.823" transform="translate(-764.362 -815.461)" fill="none" stroke="#141212" stroke-miterlimit="10" stroke-width="1"/>
        <path id="Trazado_1029326" data-name="Trazado 1029326" d="M375.8,1270.945c-.733,20.87-2.253,52.115-2.9,57.953-.966,8.692-.966,37.022-7.726,44.1s-60.845,13.2-87.887,6.76c-27.042-6.117-18.35-36.378-18.35-42.817,0-3.109,1.051-24.455,2.138-45.7" transform="translate(-224.846 -1109.342)" fill="none" stroke="#141212" stroke-miterlimit="10" stroke-width="1"/>
        <path id="Trazado_1029327" data-name="Trazado 1029327" d="M682.024,436.384c1.127-1.127,7.887-.483,9.175.322" transform="translate(-595.304 -380.368)" fill="none" stroke="#141212" stroke-miterlimit="10" stroke-width="1"/>
        <line id="Línea_764" data-name="Línea 764" y1="1.61" x2="3.219" transform="translate(123.903 55.372)" fill="none" stroke="#141212" stroke-miterlimit="10" stroke-width="1"/>
        <path id="Trazado_1029328" data-name="Trazado 1029328" d="M433.9,450.9c0-.644,3.7-.161,3.7-.161" transform="translate(-378.731 -393.279)" fill="none" stroke="#141212" stroke-miterlimit="10" stroke-width="1"/>
        <path id="Trazado_1029329" data-name="Trazado 1029329" d="M657.144,1106.441c.4-.265,15.453-.161,15.453-.161s2.736,14.648-7.726,19.638c-3.541-.161-14-8.853-7.726-19.477" transform="translate(-571.872 -965.597)" fill="#141212"/>
        <path id="Trazado_1029330" data-name="Trazado 1029330" d="M635.772,1229.786l-11.348,95.13s11.59,19.316,12.073,18.591,15.935-21.006,15.935-21.006l-13.521-93.923Z" transform="translate(-545.027 -1072.363)" fill="#141212"/>
        <path id="Trazado_1029331" data-name="Trazado 1029331" d="M535.863,1431.333c2.016-1.649,18.51,6.231,17.044,12.462-.367,3.665-14.478-6.414-16.861-13.012" transform="translate(-467.727 -1248.857)" fill="#141212"/>
        <path id="Trazado_1029332" data-name="Trazado 1029332" d="M555.708,1285.424s-4.628,10.309-5.59,12.1-1.283,2.474-1.283,2.474,7.01,8.384,9.9,8.8c3.711-4.124,4.123-4.948,4.123-4.948s13.2-1.1,14.57-8.659S572.751,1278,572.751,1278s-17.181,6.323-17.044,7.422" transform="translate(-479.05 -1115.502)" fill="#e48a77" stroke="#707070" stroke-width="1"/>
        <path id="Trazado_1029333" data-name="Trazado 1029333" d="M555.708,1285.424s-4.628,10.309-5.59,12.1-1.283,2.474-1.283,2.474,7.01,8.384,9.9,8.8c3.711-4.124,4.123-4.948,4.123-4.948s13.2-1.1,14.57-8.659S572.751,1278,572.751,1278,555.57,1284.325,555.708,1285.424Z" transform="translate(-479.05 -1115.502)" fill="none" stroke="#141212" stroke-miterlimit="10" stroke-width="1"/>
        <path id="Trazado_1029334" data-name="Trazado 1029334" d="M617.8,1251.633c3.161.55,11.408,7.7,11.134,13.608-.275,3.436-3.024,2.886-3.574,2.2-.137,2.611-2.887,3.574-4.261.412.825,3.574-2.749,4.673-5.086,1.237-.275,4.123-2.474,7.422-4.261,3.986s-5.635-7.56-6.46-7.834-4.284-.687-5.384-1.512,2.543-5.43,7.079-4.33c-1.1-2.886,2.291-5.154,4.215-4.467-.3-1.718,2.864-2.474,3.551-2.062.252-1.718,3.047-1.237,3.047-1.237" transform="translate(-523.455 -1092.432)" fill="#e48a77"/>
        <path id="Trazado_1029335" data-name="Trazado 1029335" d="M96.168,1457.283c4.507-.823,24.191-7.88,27.857-11s3.849-2.932,5.131-2.566c2.749-2.749,10.263-8.614,10.263-8.614s11.363,14.661,17.044,12.462c-3.849,5.132-11.546,13.562-11.546,13.562l.733,2.2s-28.773,48.2-55.714,36.1c-4.765-3.3-18.877-37.57,6.231-42.151" transform="translate(-71.283 -1252.631)" fill="#eee9ec"/>
        <path id="Trazado_1029336" data-name="Trazado 1029336" d="M446.5,1521.587c1.283,5.865,12.829,16.311,16.494,16.128" transform="translate(-389.727 -1328.115)" fill="none" stroke="#141212" stroke-miterlimit="10" stroke-width="1"/>
        <path id="Trazado_1029337" data-name="Trazado 1029337" d="M152.935,1457.283c4.507-.823,24.191-7.88,27.857-11s3.849-2.932,5.131-2.566c2.749-2.749,10.263-8.614,10.263-8.614s11.363,14.661,17.044,12.462c-3.849,5.132-11.546,13.562-11.546,13.562l.733,2.2s-28.773,48.2-55.713,36.1" transform="translate(-128.05 -1252.631)" fill="none" stroke="#141212" stroke-miterlimit="10" stroke-width="1"/>
        <path id="Trazado_1029338" data-name="Trazado 1029338" d="M601.044,1263.729c-.206-.344.412-4.536,7.079-4.33-1.1-2.886,2.291-5.154,4.215-4.467-.3-1.718,2.864-2.474,3.551-2.062.252-1.718,3.047-1.237,3.047-1.237,3.161.55,11.408,7.7,11.134,13.608-.275,3.436-3.024,2.886-3.574,2.2-.137,2.611-2.886,3.574-4.261.412.825,3.574-2.749,4.673-5.086,1.237-.275,4.123-2.474,7.422-4.261,3.986-1.047-2.013-3.5-5.739-5.865-7.56-1.718-.55-3.507-1.032-3.849-1.146" transform="translate(-524.592 -1092.432)" fill="none" stroke="#141212" stroke-miterlimit="10" stroke-width="1"/>
        <path id="Trazado_1029339" data-name="Trazado 1029339" d="M729.362,1275.3c2.612,1.443,8.591,8.866,9.278,12.783" transform="translate(-636.622 -1113.143)" fill="none" stroke="#141212" stroke-miterlimit="10" stroke-width="1"/>
        <path id="Trazado_1029340" data-name="Trazado 1029340" d="M707.2,1294.757c1.306.825,6.323,6.941,7.972,11.134" transform="translate(-617.279 -1130.127)" fill="none" stroke="#141212" stroke-miterlimit="10" stroke-width="1"/>
        <path id="Trazado_1029341" data-name="Trazado 1029341" d="M674.771,1328.268a16.736,16.736,0,0,1,6.6,7.354" transform="translate(-588.973 -1159.377)" fill="none" stroke="#141212" stroke-miterlimit="10" stroke-width="1"/>
        <path id="Trazado_1029342" data-name="Trazado 1029342" d="M762.369,1334.222c3.952-3.458,7.214-6.54,7.01-.893-.206,5.7-1.649,5.635-5.773,8.522s-4.536-4.742-1.237-7.629" transform="translate(-663.513 -1161.07)" fill="#e48a77" stroke="#707070" stroke-width="1"/>
        <path id="Trazado_1029343" data-name="Trazado 1029343" d="M762.369,1334.222c3.952-3.458,7.214-6.54,7.01-.893-.206,5.7-1.649,5.635-5.773,8.522S759.07,1337.109,762.369,1334.222Z" transform="translate(-663.513 -1161.07)" fill="none" stroke="#141212" stroke-miterlimit="10" stroke-width="1"/>
        <line id="Línea_765" data-name="Línea 765" y1="0.046" x2="3.528" transform="translate(79.178 173.267)" fill="#eee9ec" stroke="#707070" stroke-width="1"/>
        <line id="Línea_766" data-name="Línea 766" y1="0.046" x2="3.528" transform="translate(79.178 173.267)" fill="none" stroke="#141212" stroke-miterlimit="10" stroke-width="1"/>
        <path id="Trazado_1029344" data-name="Trazado 1029344" d="M651.53,1423.868a5.514,5.514,0,0,1,3.253-3.894" transform="translate(-568.687 -1239.422)" fill="none" stroke="#141212" stroke-miterlimit="10" stroke-width="1"/>
        <path id="Trazado_1029345" data-name="Trazado 1029345" d="M598.257,1364.739l-2.9-2.092,8.692-67.364,3.219-.242Z" transform="translate(-519.658 -1130.375)" fill="#eee9ec" stroke="#707070" stroke-width="1"/>
        <path id="Trazado_1029346" data-name="Trazado 1029346" d="M598.257,1364.739l-2.9-2.092,8.692-67.364,3.219-.242Z" transform="translate(-519.658 -1130.375)" fill="none" stroke="#141212" stroke-miterlimit="10" stroke-width="1"/>
        <path id="Trazado_1029347" data-name="Trazado 1029347" d="M709.3,1362.92H615.614l9.175-69.778H718.47Z" transform="translate(-537.338 -1128.717)" fill="#141212"/>
        <path id="Trazado_1029348" data-name="Trazado 1029348" d="M1280.306,1653.213c-2.108,1.686-1.9,3.584.843,5.059s11.384,2.741,12.859-.843-1.476-5.481-4.849-5.481a51.616,51.616,0,0,0-8.854,1.265" transform="translate(-1116.275 -1441.9)" fill="#e48a77" stroke="#707070" stroke-width="1"/>
        <path id="Trazado_1029349" data-name="Trazado 1029349" d="M1280.306,1653.213c-2.108,1.686-1.9,3.584.843,5.059s11.384,2.741,12.859-.843-1.476-5.481-4.849-5.481A51.616,51.616,0,0,0,1280.306,1653.213Z" transform="translate(-1116.275 -1441.9)" fill="none" stroke="#141212" stroke-miterlimit="10" stroke-width="1"/>
        <path id="Trazado_1029350" data-name="Trazado 1029350" d="M1259.323,1604.385c0,2.929,5.9,4.006,9.908,3.373s8.854-3.162,9.065-6.114-1.265-3.162-4.638-2.74-14.335.843-14.335,5.481" transform="translate(-1099.198 -1395.457)" fill="#e48a77" stroke="#707070" stroke-width="1"/>
        <path id="Trazado_1029351" data-name="Trazado 1029351" d="M1259.323,1604.385c0,2.929,5.9,4.006,9.908,3.373s8.854-3.162,9.065-6.114-1.265-3.162-4.638-2.74S1259.323,1599.748,1259.323,1604.385Z" transform="translate(-1099.198 -1395.457)" fill="none" stroke="#141212" stroke-miterlimit="10" stroke-width="1"/>
        <path id="Trazado_1029352" data-name="Trazado 1029352" d="M1254.471,1554.967c-4.638.843-8.643,2.319-6.746,5.27s13.281,2.319,17.287.211,4.111-6.746-.316-6.957a38.276,38.276,0,0,0-10.224,1.476" transform="translate(-1088.654 -1355.946)" fill="#e48a77" stroke="#707070" stroke-width="1"/>
        <path id="Trazado_1029353" data-name="Trazado 1029353" d="M1254.471,1554.967c-4.638.843-8.643,2.319-6.746,5.27s13.281,2.319,17.287.211,4.111-6.746-.316-6.957A38.276,38.276,0,0,0,1254.471,1554.967Z" transform="translate(-1088.654 -1355.946)" fill="none" stroke="#141212" stroke-miterlimit="10" stroke-width="1"/>
        <path id="Trazado_1029354" data-name="Trazado 1029354" d="M1279.812,1507.05c-1.265-2.135-16.338-5.059-18.024-1.476s14.335,7.589,16.232,6.957a3.836,3.836,0,0,0,1.792-5.481" transform="translate(-1101.24 -1312.667)" fill="#e48a77" stroke="#707070" stroke-width="1"/>
        <path id="Trazado_1029355" data-name="Trazado 1029355" d="M1279.812,1507.05c-1.265-2.135-16.338-5.059-18.024-1.476s14.335,7.589,16.232,6.957A3.836,3.836,0,0,0,1279.812,1507.05Z" transform="translate(-1101.24 -1312.667)" fill="none" stroke="#141212" stroke-miterlimit="10" stroke-width="1"/>
        <line id="Línea_767" data-name="Línea 767" x1="93.681" transform="translate(78.276 234.203)" fill="none" stroke="#fff" stroke-miterlimit="10" stroke-width="1"/>
        <path id="Trazado_1029356" data-name="Trazado 1029356" d="M324.277,976.028c-.8,1.127-20.764,12.394-20.764,12.394" transform="translate(-264.921 -851.924)" fill="none" stroke="#141212" stroke-miterlimit="10" stroke-width="1"/>
        <path id="Trazado_1029357" data-name="Trazado 1029357" d="M479.534,915.447l-12.716,6.439L481.3,953.757l17.867-15.694,20.282,14,12.8-27.042L520.258,914l-20.925,23.984Z" transform="translate(-407.461 -797.782)" fill="#eee9ec" stroke="#707070" stroke-width="1"/>
        <path id="Trazado_1029358" data-name="Trazado 1029358" d="M479.534,915.447l-12.716,6.439L481.3,953.757l17.867-15.694,20.282,14,12.8-27.042L520.258,914l-20.925,23.984Z" transform="translate(-407.461 -797.782)" fill="none" stroke="#141212" stroke-miterlimit="10" stroke-width="1"/>
        <path id="Trazado_1029359" data-name="Trazado 1029359" d="M280.309,1461.953c-.724-.724-2.414-16.9-2.414-16.9l-.966,17.384Z" transform="translate(-241.717 -1261.311)" fill="#141212"/>
        <path id="Trazado_1029360" data-name="Trazado 1029360" d="M733.146,200.942a16.837,16.837,0,0,0,2.509,4.666,8.507,8.507,0,0,0,3.991,2.562,11.388,11.388,0,0,0,4.724.4,9.005,9.005,0,0,0,2.624-.667,5.809,5.809,0,0,0,2.045-1.612,18.286,18.286,0,0,0,1.722-2.552,27.978,27.978,0,0,0,1.469-2.907.438.438,0,0,0-.152-.58.427.427,0,0,0-.581.152,25.774,25.774,0,0,1-2.669,4.782,6.259,6.259,0,0,1-1.629,1.644,6.357,6.357,0,0,1-2.409.831,11,11,0,0,1-4.363-.15,7.927,7.927,0,0,1-3.75-2.038,13.922,13.922,0,0,1-2.714-4.753.438.438,0,0,0-.522-.3.427.427,0,0,0-.3.522" transform="translate(-639.906 -174.739)" fill="#141212"/>
        <path id="Trazado_1029361" data-name="Trazado 1029361" d="M1047.058,160.194a6.441,6.441,0,0,1,2.718-.206,3.822,3.822,0,0,1,1.1.374,4.516,4.516,0,0,1,.878.6,8.324,8.324,0,0,1,1.488,1.754,19.2,19.2,0,0,1,1.259,2.17,4.038,4.038,0,0,1,.481,2.824.425.425,0,0,0,.818.226,4.488,4.488,0,0,0-.328-2.952,16.6,16.6,0,0,0-1.35-2.471,6.918,6.918,0,0,0-3.812-3.272,7.017,7.017,0,0,0-3.479.137.424.424,0,0,0,.226.818" transform="translate(-913.455 -138.848)" fill="#141212"/>
        <path id="Trazado_1029362" data-name="Trazado 1029362" d="M360.433,110.291c-.035.068.033-.024.069-.04.013-.006.111-.025.058-.017s.02,0,.029.005c-.024-.007-.047-.012-.07-.021.008,0,.057.027.013,0l-.053-.029s-.088-.06-.06-.038a.628.628,0,0,1-.129-.138q-.1-.154-.2-.313a9.553,9.553,0,0,1-.613-1.214,10.259,10.259,0,0,1,.156-8.118,9.218,9.218,0,0,1,1.5-2.278,9.679,9.679,0,0,1,2.007-1.7,10.341,10.341,0,0,1,4.962-1.622,9.945,9.945,0,0,1,1.348.018,8.214,8.214,0,0,1,1.3.208,5.91,5.91,0,0,1,2.524,1.2,4.585,4.585,0,0,1,.509.52.428.428,0,0,0,.6,0,.433.433,0,0,0,0-.6,7.431,7.431,0,0,0-5.675-2.205A11.113,11.113,0,0,0,363.1,95.43a10.415,10.415,0,0,0-4.052,4.227,10.994,10.994,0,0,0-1.119,6,10.87,10.87,0,0,0,.719,3.011,10.471,10.471,0,0,0,.692,1.42,1.682,1.682,0,0,0,1.117.981.677.677,0,0,0,.712-.351.434.434,0,0,0-.152-.58.429.429,0,0,0-.581.152" transform="translate(-312.37 -81.968)" fill="#141212"/>
        <path id="Trazado_1029363" data-name="Trazado 1029363" d="M450.039,231.994a10.375,10.375,0,0,0,7.077.876,8.563,8.563,0,0,0,3.377-1.553,6.715,6.715,0,0,0,1.949-2.728,18.62,18.62,0,0,0,.98-3.569.435.435,0,0,0-.3-.522.428.428,0,0,0-.522.3,21.278,21.278,0,0,1-.784,3.068,6.555,6.555,0,0,1-1.531,2.51,6.933,6.933,0,0,1-2.96,1.567,9.483,9.483,0,0,1-3.312.324,9.309,9.309,0,0,1-3.549-1,.434.434,0,0,0-.58.152.428.428,0,0,0,.152.58" transform="translate(-392.634 -195.941)" fill="#141212"/>
        <path id="Trazado_1029364" data-name="Trazado 1029364" d="M670.846,6.438a2.038,2.038,0,0,0-.31-1.75,8.142,8.142,0,0,0-.994-1.363,4.143,4.143,0,0,0-2.861-1.454,2.841,2.841,0,0,0-1.746.489.436.436,0,0,0-.152.58.428.428,0,0,0,.58.152,2.33,2.33,0,0,1,2.34-.123,4.9,4.9,0,0,1,1.921,1.857,3.742,3.742,0,0,1,.379.685.871.871,0,0,1,.026.7.427.427,0,0,0,.3.522.435.435,0,0,0,.522-.3" transform="translate(-580.204 -1.631)" fill="#141212"/>
        <path id="Trazado_1029365" data-name="Trazado 1029365" d="M847.608,25.648c0-.06,0-.12,0-.18,0-.03.005-.059.009-.089q-.007.059.006-.019c.025-.1.05-.2.085-.3.029-.082-.01.01.027-.062.027-.053.053-.106.083-.157s.063-.1.1-.151-.011.007.042-.057a2.135,2.135,0,0,1,.962-.676,3.26,3.26,0,0,1,2.725.542.424.424,0,1,0,.428-.733,4.332,4.332,0,0,0-2.7-.758,2.978,2.978,0,0,0-2.2,1.272,2.356,2.356,0,0,0-.412,1.363.424.424,0,1,0,.848,0" transform="translate(-739.092 -20.074)" fill="#141212"/>
        <path id="Trazado_1029366" data-name="Trazado 1029366" d="M329.133,207.3a6.482,6.482,0,0,0-4.677,2.627,9.522,9.522,0,0,0-1.955,5.545,9.054,9.054,0,0,0,1.946,6.052,7.5,7.5,0,0,0,5.021,2.756,6.558,6.558,0,0,0,5.25-1.9,6.291,6.291,0,0,0,.49-.585.427.427,0,0,0-.152-.58.434.434,0,0,0-.58.152,5.243,5.243,0,0,1-1.952,1.545,5.993,5.993,0,0,1-1.205.407,5.366,5.366,0,0,1-1.24.14,5.229,5.229,0,0,1-1.268-.135,6.447,6.447,0,0,1-.644-.181q-.147-.049-.291-.106c-.117-.046-.152-.061-.272-.116a6.946,6.946,0,0,1-2.141-1.529,7.964,7.964,0,0,1-2.11-5.179,8.835,8.835,0,0,1,1.383-5.228,6.854,6.854,0,0,1,.748-.964q.222-.241.465-.463.108-.1.22-.192c.09-.075.155-.126.213-.168a6,6,0,0,1,1.062-.633c.12-.055.12-.055.223-.094s.206-.076.312-.109a5.118,5.118,0,0,1,.6-.15,3.556,3.556,0,0,1,.555-.064.434.434,0,0,0,.424-.424.428.428,0,0,0-.424-.424" transform="translate(-281.489 -180.942)" fill="#141212"/>
        <path id="Trazado_1029367" data-name="Trazado 1029367" d="M693.854,2219.2l-.554-.023c-.049,1.175-1.028,25.151.033,34.885h.553c-1.062-9.677-.044-34.573-.032-34.861" transform="translate(-604.746 -1937.006)" fill="#ede0d0"/>
        <path id="Trazado_1029368" data-name="Trazado 1029368" d="M746.749,2296.973h.555l1.244-28.61-.554-.024Z" transform="translate(-651.798 -1979.916)" fill="#ede0d0"/>
        <path id="Trazado_1029369" data-name="Trazado 1029369" d="M440.369,262.8s6.434,2.892,11.12-1.957" transform="translate(-352.711 -170.619)" fill="none" stroke="#10002b" stroke-miterlimit="10" stroke-width="1.426"/>
      </g>
    </g>
    <path id="Trazado_1057494" data-name="Trazado 1057494" d="M321.375,3989.522H669.1" transform="translate(304.281)" fill="none" stroke="#772d84" stroke-linecap="round" stroke-width="3"/>
    <g id="goal_2974655" transform="translate(595.579 3874.989)">
      <g id="Grupo_1223156" data-name="Grupo 1223156" transform="translate(1.938 1.938)">
        <g id="Grupo_1223142" data-name="Grupo 1223142" transform="translate(22.511 0)">
          <path id="Trazado_1057495" data-name="Trazado 1057495" d="M59.767,18.884A16.887,16.887,0,0,1,47.226,35.2l-3.208-5.121a11.256,11.256,0,1,0-12.391-11.2H26a16.884,16.884,0,0,1,33.767,0Z" transform="translate(-26 -2)" fill="#ccd1d9"/>
        </g>
        <g id="Grupo_1223143" data-name="Grupo 1223143" transform="translate(23.477 22.333)">
          <path id="Trazado_1057496" data-name="Trazado 1057496" d="M33.089,25.81a11.294,11.294,0,0,0,8.723,5.75L38.6,36.681A16.866,16.866,0,0,1,27.03,25.988h5.234a1.991,1.991,0,0,0,.7-.131Z" transform="translate(-27.03 -25.81)" fill="#ccd1d9"/>
        </g>
        <g id="Grupo_1223144" data-name="Grupo 1223144" transform="translate(28.139 5.628)">
          <path id="Trazado_1057497" data-name="Trazado 1057497" d="M36.756,23.355a1.383,1.383,0,0,0,0-2.57l-3.48-1.4a1.991,1.991,0,0,0-.7-.131H32a11.256,11.256,0,1,1,12.391,11.2l-1.135-1.82-1.135,1.82a11.294,11.294,0,0,1-8.723-5.75Z" transform="translate(-32 -8)" fill="#e6e9ed"/>
        </g>
        <g id="Grupo_1223145" data-name="Grupo 1223145" transform="translate(33.767 11.256)">
          <path id="Trazado_1057498" data-name="Trazado 1057498" d="M38.76,22.442A5.519,5.519,0,0,1,38,19.628a5.642,5.642,0,1,1,.76,2.814Z" transform="translate(-38 -14)" fill="#b4dd7f"/>
        </g>
        <g id="Grupo_1223146" data-name="Grupo 1223146" transform="translate(0 13.132)">
          <path id="Trazado_1057499" data-name="Trazado 1057499" d="M9.5,19.752V25.38l-1.7,2.27-.2.253a3.087,3.087,0,0,1-2.457,1.229H5.123a3.018,3.018,0,0,1-2.129-.882,3.4,3.4,0,0,1,0-4.8l.882-.882-.882-.882a3.4,3.4,0,0,1,0-4.8A3.018,3.018,0,0,1,5.123,16h.028a3.087,3.087,0,0,1,2.457,1.229Z" transform="translate(-2 -16)" fill="#fcd770"/>
        </g>
        <g id="Grupo_1223147" data-name="Grupo 1223147" transform="translate(7.504 16.884)">
          <path id="Trazado_1057500" data-name="Trazado 1057500" d="M35.391,21.529l-3.48-1.4a1.991,1.991,0,0,0-.7-.131H10v5.628h8.461a2.182,2.182,0,0,1,4.23-.385l.131.385h8.385a1.991,1.991,0,0,0,.7-.131l.122-.047L35.391,24.1a1.383,1.383,0,0,0,0-2.57Z" transform="translate(-10 -20)" fill="#cf9e76"/>
        </g>
        <g id="Grupo_1223148" data-name="Grupo 1223148" transform="translate(7.813 11.256)">
          <path id="Trazado_1057501" data-name="Trazado 1057501" d="M25.028,19.628H10.33l2.823-3.621a5.187,5.187,0,0,1,7.766-.488Z" transform="translate(-10.33 -14)" fill="#f0d0b4"/>
        </g>
        <g id="Grupo_1223149" data-name="Grupo 1223149" transform="translate(5.806 20.635)">
          <path id="Trazado_1057502" data-name="Trazado 1057502" d="M18.348,25.876a2.182,2.182,0,0,1,4.23-.385l.131.385,1.745,5.234a8.728,8.728,0,0,1,0,5.478l-1.435,4.3H9.888L8.19,28.146l1.7-2.27Z" transform="translate(-8.19 -24)" fill="#f0d0b4"/>
        </g>
        <g id="Grupo_1223150" data-name="Grupo 1223150" transform="translate(45.961 39.395)">
          <path id="Trazado_1057503" data-name="Trazado 1057503" d="M55.69,44l4.69,7.5H57.566v9.38H53.814V51.5H51Z" transform="translate(-51 -44)" fill="#ffeaa7"/>
        </g>
        <g id="Grupo_1223151" data-name="Grupo 1223151" transform="translate(34.705 26.263)">
          <path id="Trazado_1057504" data-name="Trazado 1057504" d="M42.555,31.82,43.69,30l1.135,1.82,3.208,5.121.347.563H45.566V60.015H41.814V37.5H39l.347-.563Z" transform="translate(-39 -30)" fill="#ffeaa7"/>
        </g>
        <g id="Grupo_1223152" data-name="Grupo 1223152" transform="translate(23.449 39.395)">
          <path id="Trazado_1057505" data-name="Trazado 1057505" d="M31.69,44l4.69,7.5H33.566v9.38H29.814V51.5H27Z" transform="translate(-27 -44)" fill="#ffeaa7"/>
        </g>
        <g id="Grupo_1223153" data-name="Grupo 1223153" transform="translate(4.69 37.519)">
          <path id="Trazado_1057506" data-name="Trazado 1057506" d="M24.634,53.256l1.126,7.5H7L9.814,42h3.752v4.849a6.4,6.4,0,0,0,6.406,6.406Z" transform="translate(-7 -42)" fill="#ef7385"/>
        </g>
        <g id="Grupo_1223154" data-name="Grupo 1223154" transform="translate(11.256 37.519)">
          <path id="Trazado_1057507" data-name="Trazado 1057507" d="M23.38,42l1.688,11.256H20.406A6.4,6.4,0,0,1,14,46.849V42Z" transform="translate(-14 -42)" fill="#ed5565"/>
        </g>
        <g id="Grupo_1223155" data-name="Grupo 1223155" transform="translate(15.099 40.938)">
          <ellipse id="Elipse_12578" data-name="Elipse 12578" cx="1.782" cy="2.227" rx="1.782" ry="2.227" transform="translate(0 0)" fill="#e6e9ed"/>
        </g>
      </g>
      <g id="Grupo_1223157" data-name="Grupo 1223157" transform="translate(1 1)">
        <path id="Trazado_1057508" data-name="Trazado 1057508" d="M19.814,50.628A2.814,2.814,0,1,0,17,47.814,2.817,2.817,0,0,0,19.814,50.628Zm0-3.752a.938.938,0,1,1-.938.938A.939.939,0,0,1,19.814,46.876Z" transform="translate(-1.992 -3.729)"/>
        <path id="Trazado_1057509" data-name="Trazado 1057509" d="M46.207,49.775h3.568v7.5H44.147V36.643h3.568l-.6-.966A17.818,17.818,0,1,0,23.65,16.7l-2.645-2.645a6.131,6.131,0,0,0-9.173.57L9.608,17.48,8.3,15.737A4.05,4.05,0,0,0,5.06,14.132a3.921,3.921,0,0,0-2.79,1.156,4.334,4.334,0,0,0,0,6.131l.218.218-.218.218a4.334,4.334,0,0,0,0,6.131,3.935,3.935,0,0,0,2.819,1.156,4.015,4.015,0,0,0,1.961-.522L8.494,39.449l-2.956,19.7H55.4v-9.38H58.97L52.588,39.563ZM42.271,34.767V57.278H40.395V34.767h-2.06l3-4.8,3,4.8ZM10.262,38.519,8.723,26.971l1.187-1.583h7.035v5.628h1.876V24.753a1.242,1.242,0,0,1,2.421-.392l1.872,5.616a7.731,7.731,0,0,1,0,4.89L21.9,38.519Zm17-18.759v3.752H22.914a3.108,3.108,0,0,0-5.707,0H10.38V19.759Zm14.07,6.672L39.73,29a10.3,10.3,0,0,1-6.856-4.28l2.306-.923a2.313,2.313,0,0,0,1.054-.84,6.561,6.561,0,1,0-1.468-4.131c0,.169.013.335.025.5l-3.1-1.239a2.851,2.851,0,0,0-.636-.161A10.314,10.314,0,1,1,42.941,29Zm-4.755,7.608A15.907,15.907,0,0,1,26.8,25.387h3.849a2.757,2.757,0,0,0,.4-.038,12.182,12.182,0,0,0,7.6,5.369ZM31,23.444a.936.936,0,0,1-.35.068H29.139V19.759h1.515a.937.937,0,0,1,.348.067l3.485,1.394a.447.447,0,0,1,0,.83Zm5.639-4.622a4.69,4.69,0,1,1,4.69,4.69,4.645,4.645,0,0,1-2.785-.938h2.785V20.7H37.041A4.643,4.643,0,0,1,36.643,18.821ZM14.132,40.395h7.634l1.407,9.38H19.6a5.467,5.467,0,0,1-5.467-5.467ZM27.263,57.278H26.195l-1.126-7.5h2.194Zm-.184-9.38,3-4.8,3,4.8h-2.06v9.38H29.139V47.9Zm5.812,1.876h3.568L30.077,39.563,24.8,48,23.534,39.54l1.36-4.08a9.609,9.609,0,0,0,0-6.076l-1.333-4h1.206A17.784,17.784,0,0,0,35.552,35.681l-.6.962h3.568V57.278H32.891Zm8.442-46.9a15.94,15.94,0,0,1,4.751,31.157l-2.076-3.321A12.189,12.189,0,1,0,29.187,17.884H25.435a15.952,15.952,0,0,1,15.9-15.008Zm-28.02,12.9a4.254,4.254,0,0,1,6.366-.4l2.506,2.506H11.672ZM3.6,26.657a2.459,2.459,0,0,1,0-3.478L5.14,21.635,3.6,20.091a2.459,2.459,0,0,1,0-3.478,2.214,2.214,0,0,1,3.205.25l1.7,2.271v5L6.8,26.409a2.209,2.209,0,0,1-3.205.249Zm6.653,13.738h2.006v3.913A7.343,7.343,0,0,0,19.6,51.651h3.855l.844,5.628H7.717Zm43.277,7.5v9.38H51.651V47.9h-2.06l3-4.8,3,4.8Z" transform="translate(-1 -1)"/>
      </g>
    </g>
  </g>
</svg>
