<svg xmlns="http://www.w3.org/2000/svg" xmlns:xlink="http://www.w3.org/1999/xlink" width="108" height="108" viewBox="0 0 108 108">
  <defs>
    <filter id="Trazado_904820" x="0" y="0" width="108" height="108" filterUnits="userSpaceOnUse">
      <feOffset dy="3" input="SourceAlpha"/>
      <feGaussianBlur stdDeviation="3" result="blur"/>
      <feFlood flood-opacity="0.161"/>
      <feComposite operator="in" in2="blur"/>
      <feComposite in="SourceGraphic"/>
    </filter>
    <clipPath id="clip-path">
      <path id="SVGID_153_" d="M277.458,217.6c1.392-.15,3.946.6,3.992-1.174v-7.87a1.178,1.178,0,0,0-1.174-1.174c-1.392.15-3.946-.6-3.992,1.174v7.87A1.179,1.179,0,0,0,277.458,217.6Zm-18.385,0c1.392-.15,3.946.6,3.992-1.174v-5.569a1.178,1.178,0,0,0-1.174-1.174c-1.392.15-3.946-.6-3.992,1.174v5.569A1.164,1.164,0,0,0,259.072,217.6Zm9.193,0c1.392-.15,3.946.6,3.992-1.174V204.98c-.046-1.772-2.612-1.035-3.992-1.174a1.178,1.178,0,0,0-1.174,1.174v11.448A1.164,1.164,0,0,0,268.265,217.6Z" transform="translate(-257.898 -203.768)"/>
    </clipPath>
    <clipPath id="clip-path-2">
      <path id="SVGID_155_" d="M278.708,107.722a2.635,2.635,0,0,1,0,5.269A2.635,2.635,0,0,1,278.708,107.722Zm-18.386,2.922a2.635,2.635,0,0,1,0,5.269A2.635,2.635,0,0,1,260.322,110.644Zm9.193-7.444a2.635,2.635,0,0,1,0,5.269A2.635,2.635,0,0,1,269.515,103.2Z" transform="translate(-257.725 -103.2)"/>
    </clipPath>
    <clipPath id="clip-path-3">
      <path id="SVGID_157_" d="M190.952,404.7H176.271l-2.071,7.456h18.823Z" transform="translate(-174.2 -404.7)"/>
    </clipPath>
  </defs>
  <g id="Grupo_1223273" data-name="Grupo 1223273" transform="translate(-200.656 -525)">
    <g id="Grupo_1174741" data-name="Grupo 1174741" transform="translate(209.656 531)">
      <g id="Grupo_1173585" data-name="Grupo 1173585" transform="translate(0 0)">
        <g id="Grupo_1173428" data-name="Grupo 1173428">
          <g id="Grupo_1171958" data-name="Grupo 1171958">
            <g id="Grupo_1167341" data-name="Grupo 1167341">
              <g id="Grupo_1166792" data-name="Grupo 1166792">
                <g transform="matrix(1, 0, 0, 1, -9, -6)" filter="url(#Trazado_904820)">
                  <g id="Trazado_904820-2" data-name="Trazado 904820" transform="translate(9 6)" fill="#ebfefd">
                    <path d="M 44.99999618530273 88.50002288818359 C 39.12687301635742 88.50002288818359 33.43022155761719 87.35009765625 28.06829643249512 85.08218383789062 C 22.88852119445801 82.89133453369141 18.23629570007324 79.75460815429688 14.24084663391113 75.75916290283203 C 10.24540901184082 71.76371002197266 7.108683586120605 67.11148834228516 4.917821407318115 61.93171310424805 C 2.649921178817749 56.56978607177734 1.499996185302734 50.87313461303711 1.499996185302734 45.0000114440918 C 1.499996185302734 39.12688827514648 2.649921178817749 33.43023681640625 4.917821407318115 28.06829833984375 C 7.108683586120605 22.88852310180664 10.24540901184082 18.2363109588623 14.24084663391113 14.2408618927002 C 18.23629570007324 10.24541187286377 22.88852119445801 7.108686447143555 28.06829643249512 4.917823791503906 C 33.43022155761719 2.649924039840698 39.12687301635742 1.499998927116394 44.99999618530273 1.499998927116394 C 50.87311935424805 1.499998927116394 56.56977081298828 2.649924039840698 61.93169784545898 4.917823791503906 C 67.11147308349609 7.108686447143555 71.76369476318359 10.24541187286377 75.75914764404297 14.2408618927002 C 79.75458526611328 18.2363109588623 82.89131164550781 22.88852310180664 85.08216857910156 28.06829833984375 C 87.35007476806641 33.43023681640625 88.5 39.12688827514648 88.5 45.0000114440918 C 88.5 50.87313461303711 87.35007476806641 56.56978607177734 85.08216857910156 61.93171310424805 C 82.89131164550781 67.11148834228516 79.75458526611328 71.76371002197266 75.75914764404297 75.75916290283203 C 71.76369476318359 79.75460815429688 67.11147308349609 82.89133453369141 61.93169784545898 85.08218383789062 C 56.56977081298828 87.35009765625 50.87311935424805 88.50002288818359 44.99999618530273 88.50002288818359 Z" stroke="none"/>
                    <path d="M 44.99999618530273 3 C 39.32870864868164 3 33.82865142822266 4.110054016113281 28.65262603759766 6.299339294433594 C 23.65165710449219 8.414566040039062 19.15968322753906 11.44333648681641 15.301513671875 15.30152893066406 C 11.44333648681641 19.15969848632812 8.414566040039062 23.65165710449219 6.299339294433594 28.65264129638672 C 4.110054016113281 33.82866668701172 2.999992370605469 39.3287239074707 2.999992370605469 45.0000114440918 C 2.999992370605469 50.67129898071289 4.110054016113281 56.17135620117188 6.299339294433594 61.34738159179688 C 8.414566040039062 66.34836578369141 11.44333648681641 70.84032440185547 15.301513671875 74.69849395751953 C 19.15968322753906 78.55668640136719 23.65165710449219 81.58545684814453 28.65262603759766 83.70068359375 C 33.82865142822266 85.88996887207031 39.32870864868164 87.00002288818359 44.99999618530273 87.00002288818359 C 50.67128372192383 87.00002288818359 56.17134094238281 85.88996887207031 61.34736633300781 83.70068359375 C 66.34834289550781 81.58545684814453 70.84030914306641 78.55668640136719 74.69847869873047 74.69849395751953 C 78.55665588378906 70.84032440185547 81.58542633056641 66.34836578369141 83.70065307617188 61.34738159179688 C 85.88993835449219 56.17135620117188 87 50.67129898071289 87 45.0000114440918 C 87 39.3287239074707 85.88993835449219 33.82866668701172 83.70065307617188 28.65264129638672 C 81.58542633056641 23.65165710449219 78.55665588378906 19.15969848632812 74.69847869873047 15.30152893066406 C 70.84030914306641 11.44333648681641 66.34834289550781 8.414566040039062 61.34736633300781 6.299339294433594 C 56.17134094238281 4.110054016113281 50.67128372192383 3 44.99999618530273 3 M 44.99999618530273 0 C 69.85281372070312 0 90 20.14719390869141 90 45.0000114440918 C 90 69.85282897949219 69.85281372070312 90.00002288818359 44.99999618530273 90.00002288818359 C 20.14717864990234 90.00002288818359 -7.62939453125e-06 69.85282897949219 -7.62939453125e-06 45.0000114440918 C -7.62939453125e-06 20.14719390869141 20.14717864990234 0 44.99999618530273 0 Z" stroke="none" fill="#268985"/>
                  </g>
                </g>
              </g>
            </g>
          </g>
        </g>
      </g>
    </g>
    <g id="web-analytics_18570985" transform="translate(224.849 515.653)">
      <g id="Grupo_1223242" data-name="Grupo 1223242" transform="translate(0.883 38.783)">
        <path id="Trazado_1057661" data-name="Trazado 1057661" d="M9.007,42.5H58.042a4.414,4.414,0,0,1,4.407,4.407V79.766a4.414,4.414,0,0,1-4.407,4.407H9.007A4.414,4.414,0,0,1,4.6,79.766V46.907A4.414,4.414,0,0,1,9.007,42.5Z" transform="translate(-4.6 -42.5)" fill="#daeefe" fill-rule="evenodd"/>
      </g>
      <g id="Grupo_1223243" data-name="Grupo 1223243" transform="translate(0.883 76.049)">
        <path id="Trazado_1057662" data-name="Trazado 1057662" d="M4.6,366.4H62.449a4.414,4.414,0,0,1-4.407,4.407H9.007A4.414,4.414,0,0,1,4.6,366.4Z" transform="translate(-4.6 -366.4)" fill="#01a1ff" fill-rule="evenodd"/>
      </g>
      <g id="Grupo_1223244" data-name="Grupo 1223244" transform="translate(7.732 46.289)">
        <path id="Trazado_1057663" data-name="Trazado 1057663" d="M76.547,119.769c-5.028,4.878-12.414-2.508-7.536-7.536.748-1.082,2.807-.989,2.853-2.52.288-3.739-3.923-1.277-5.223.15-5.431,5.177-1.473,14.991,6.144,14.819a8.685,8.685,0,0,0,8.261-5.994,1.352,1.352,0,0,0-1.289-1.772h-.69C77.536,116.961,77.628,119.021,76.547,119.769Z" transform="translate(-64.124 -107.738)" fill="#ffb43f" fill-rule="evenodd"/>
      </g>
      <g id="Grupo_1223245" data-name="Grupo 1223245" transform="translate(17.301 46.245)">
        <path id="Trazado_1057664" data-name="Trazado 1057664" d="M150.153,111.893c1.082.748.989,2.807,2.52,2.853h.679c4.9-.9-5.154-10.953-6.052-6.052v.679C147.346,110.9,149.405,110.811,150.153,111.893Z" transform="translate(-147.3 -107.354)" fill="#59d96c" fill-rule="evenodd"/>
      </g>
      <g id="Grupo_1223246" data-name="Grupo 1223246" transform="translate(30.026 57.338)">
        <path id="Trazado_1057665" data-name="Trazado 1057665" d="M277.458,217.6c1.392-.15,3.946.6,3.992-1.174v-7.87a1.178,1.178,0,0,0-1.174-1.174c-1.392.15-3.946-.6-3.992,1.174v7.87A1.179,1.179,0,0,0,277.458,217.6Zm-18.385,0c1.392-.15,3.946.6,3.992-1.174v-5.569a1.178,1.178,0,0,0-1.174-1.174c-1.392.15-3.946-.6-3.992,1.174v5.569A1.164,1.164,0,0,0,259.072,217.6Zm9.193,0c1.392-.15,3.946.6,3.992-1.174V204.98c-.046-1.772-2.612-1.035-3.992-1.174a1.178,1.178,0,0,0-1.174,1.174v11.448A1.164,1.164,0,0,0,268.265,217.6Z" transform="translate(-257.898 -203.768)" fill="#54b76a" fill-rule="evenodd"/>
      </g>
      <g id="Grupo_1223249" data-name="Grupo 1223249" transform="translate(30.026 57.338)">
        <g id="Grupo_1223248" data-name="Grupo 1223248" transform="translate(0 0)" clip-path="url(#clip-path)">
          <g id="Grupo_1223247" data-name="Grupo 1223247" transform="translate(-1.645 -1.473)">
            <path id="Trazado_1057666" data-name="Trazado 1057666" d="M263.159,204.8c1.392-.15,3.946.6,3.992-1.174v-7.87a1.178,1.178,0,0,0-1.174-1.174c-1.392.15-3.946-.6-3.992,1.174v7.87A1.178,1.178,0,0,0,263.159,204.8Zm-18.386,0c1.381-.15,3.946.6,3.992-1.174v-5.569a1.178,1.178,0,0,0-1.174-1.174c-1.392.15-3.946-.6-3.992,1.174v5.569A1.178,1.178,0,0,0,244.774,204.8Zm9.193,0c1.392-.15,3.946.6,3.992-1.174V192.18c-.046-1.772-2.612-1.035-3.992-1.174a1.179,1.179,0,0,0-1.174,1.174v11.448A1.178,1.178,0,0,0,253.966,204.8Z" transform="translate(-243.6 -190.968)" fill="#59d96c" fill-rule="evenodd"/>
          </g>
        </g>
      </g>
      <g id="Grupo_1223250" data-name="Grupo 1223250" transform="translate(30.006 45.767)">
        <path id="Trazado_1057667" data-name="Trazado 1057667" d="M278.708,107.722a2.635,2.635,0,0,1,0,5.269A2.635,2.635,0,0,1,278.708,107.722Zm-18.386,2.922a2.635,2.635,0,0,1,0,5.269A2.635,2.635,0,0,1,260.322,110.644Zm9.193-7.444a2.635,2.635,0,0,1,0,5.269A2.635,2.635,0,0,1,269.515,103.2Z" transform="translate(-257.725 -103.2)" fill="#fd8644" fill-rule="evenodd"/>
      </g>
      <g id="Grupo_1223253" data-name="Grupo 1223253" transform="translate(30.006 45.767)">
        <g id="Grupo_1223252" data-name="Grupo 1223252" transform="translate(0 0)" clip-path="url(#clip-path-2)">
          <g id="Grupo_1223251" data-name="Grupo 1223251" transform="translate(-1.634 -1.473)">
            <path id="Trazado_1057668" data-name="Trazado 1057668" d="M264.508,94.922a2.635,2.635,0,0,1,0,5.269A2.635,2.635,0,0,1,264.508,94.922Zm-18.386,2.922a2.635,2.635,0,0,1,0,5.269A2.635,2.635,0,0,1,246.122,97.844Zm9.193-7.444a2.635,2.635,0,0,1,0,5.269A2.635,2.635,0,0,1,255.315,90.4Z" transform="translate(-243.525 -90.4)" fill="#ffb43f" fill-rule="evenodd"/>
          </g>
        </g>
      </g>
      <g id="Grupo_1223254" data-name="Grupo 1223254" transform="translate(20.396 80.456)">
        <path id="Trazado_1057669" data-name="Trazado 1057669" d="M190.952,404.7H176.271l-2.071,7.456h18.823Z" transform="translate(-174.2 -404.7)" fill="#ff005c" fill-rule="evenodd"/>
      </g>
      <g id="Grupo_1223257" data-name="Grupo 1223257" transform="translate(20.396 80.456)">
        <g id="Grupo_1223256" data-name="Grupo 1223256" clip-path="url(#clip-path-3)">
          <g id="Grupo_1223255" data-name="Grupo 1223255" transform="translate(-1.76 -6.788)">
            <path id="Trazado_1057670" data-name="Trazado 1057670" d="M158.9,345.7h22.6v9.193H158.9Z" transform="translate(-158.9 -345.7)" fill="#e91861" fill-rule="evenodd"/>
          </g>
        </g>
      </g>
      <g id="Grupo_1223258" data-name="Grupo 1223258" transform="translate(0.4 38.3)">
        <path id="Trazado_1057671" data-name="Trazado 1057671" d="M54.326,80.939H5.29A4.9,4.9,0,0,1,.4,76.049V43.19A4.9,4.9,0,0,1,5.29,38.3H54.326a4.9,4.9,0,0,1,4.89,4.89V76.049A4.9,4.9,0,0,1,54.326,80.939ZM5.29,39.255a3.928,3.928,0,0,0-3.923,3.923V76.038A3.928,3.928,0,0,0,5.29,79.961H54.326a3.928,3.928,0,0,0,3.923-3.923V43.19a3.928,3.928,0,0,0-3.923-3.923H5.29Z" transform="translate(-0.4 -38.3)" fill="#1d1d27"/>
      </g>
      <g id="Grupo_1223259" data-name="Grupo 1223259" transform="translate(0.4 75.566)">
        <path id="Trazado_1057672" data-name="Trazado 1057672" d="M54.326,367.573H5.29a4.9,4.9,0,0,1-4.89-4.89.486.486,0,0,1,.483-.483H58.732a.486.486,0,0,1,.483.483A4.9,4.9,0,0,1,54.326,367.573ZM1.389,363.166a3.939,3.939,0,0,0,3.9,3.452H54.326a3.939,3.939,0,0,0,3.9-3.452Z" transform="translate(-0.4 -362.2)" fill="#1d1d27"/>
      </g>
      <g id="Grupo_1223260" data-name="Grupo 1223260" transform="translate(13.425 87.428)">
        <path id="Trazado_1057673" data-name="Trazado 1057673" d="M145.837,466.266H114.083a.483.483,0,0,1,0-.966h31.755A.483.483,0,0,1,145.837,466.266Z" transform="translate(-113.612 -465.299)" fill="#1d1d27"/>
      </g>
      <g id="Grupo_1223261" data-name="Grupo 1223261" transform="translate(19.916 79.972)">
        <path id="Trazado_1057674" data-name="Trazado 1057674" d="M189.331,408.922H170.508a.478.478,0,0,1-.46-.61l2.082-7.455a.48.48,0,0,1,.46-.357H187.26a.467.467,0,0,1,.46.357l2.082,7.455A.485.485,0,0,1,189.331,408.922Zm-18.19-.955H188.7l-1.806-6.489H172.947Z" transform="translate(-170.028 -400.5)" fill="#1d1d27"/>
      </g>
      <g id="Grupo_1223262" data-name="Grupo 1223262" transform="translate(7.211 66.523)">
        <path id="Trazado_1057675" data-name="Trazado 1057675" d="M73.786,288.719H66.1a.483.483,0,0,1,0-.966h7.686A.484.484,0,0,1,73.786,288.719Zm-10.769,0H60.083a.483.483,0,1,1,0-.966h2.945A.483.483,0,0,1,63.017,288.719Zm14.106-4.153H71.243a.483.483,0,0,1,0-.966h5.879A.484.484,0,0,1,77.123,284.566Zm-9.354,0H60.083a.483.483,0,0,1,0-.966h7.686A.484.484,0,0,1,67.769,284.566Z" transform="translate(-59.6 -283.599)" fill="#1d1d27"/>
      </g>
      <g id="Grupo_1223263" data-name="Grupo 1223263" transform="translate(0.646 42.216)">
        <path id="Trazado_1057676" data-name="Trazado 1057676" d="M2.775,72.343a.242.242,0,0,0,0,.483c.138,0,.391.035.449-.115C3.373,72.389,3.016,72.309,2.775,72.343Zm57.849.483a.242.242,0,0,0,0-.483c-.127,0-.38-.023-.437.115C60.037,72.78,60.393,72.861,60.624,72.826Zm-2.646,0a.242.242,0,0,0,0-.483h-.483a.242.242,0,0,0,0,.483Zm-2.888,0a.242.242,0,0,0,0-.483h-.483a.242.242,0,0,0,0,.483Zm-2.9,0a.242.242,0,0,0,0-.483h-.483a.242.242,0,0,0,0,.483Zm-2.888,0a.242.242,0,0,0,0-.483h-.483a.242.242,0,0,0,0,.483Zm-2.888,0a.242.242,0,0,0,0-.483h-.483a.242.242,0,0,0,0,.483Zm-2.9,0a.242.242,0,0,0,0-.483h-.483a.242.242,0,0,0,0,.483Zm-2.888,0a.242.242,0,0,0,0-.483h-.483a.242.242,0,0,0,0,.483Zm-2.9,0a.242.242,0,0,0,0-.483h-.483a.242.242,0,0,0,0,.483Zm-2.888,0a.242.242,0,0,0,0-.483h-.483a.242.242,0,0,0,0,.483Zm-2.9,0a.242.242,0,0,0,0-.483h-.483a.242.242,0,0,0,0,.483Zm-2.888,0a.242.242,0,0,0,0-.483H28.57a.242.242,0,0,0,0,.483Zm-2.888,0a.242.242,0,0,0,0-.483h-.483a.242.242,0,0,0,0,.483Zm-2.9,0a.242.242,0,0,0,0-.483h-.483a.242.242,0,0,0,0,.483Zm-2.888,0a.242.242,0,0,0,0-.483h-.483a.242.242,0,0,0,0,.483Zm-2.9,0a.242.242,0,0,0,0-.483H17a.242.242,0,0,0,0,.483Zm-2.888,0a.242.242,0,0,0,0-.483h-.483a.242.242,0,0,0,0,.483Zm-2.9,0a.242.242,0,0,0,0-.483h-.483a.242.242,0,0,0,0,.483Zm-2.888,0a.242.242,0,0,0,0-.483H8.32a.242.242,0,0,0,0,.483Zm-2.9,0a.242.242,0,0,0,0-.483H5.421a.242.242,0,0,0,0,.483Z" transform="translate(-2.537 -72.336)" fill="#1d1d27" fill-rule="evenodd"/>
      </g>
      <g id="Grupo_1223264" data-name="Grupo 1223264" transform="translate(7.24 45.791)">
        <path id="Trazado_1057677" data-name="Trazado 1057677" d="M69,121.334c-7.985.2-12.265-10.136-6.489-15.647,1.427-1.553,5.592-3.981,6.052-.483v.679c.046,1.772-2.082,1.76-2.991,2.865a4.882,4.882,0,0,0,0,6.857,4.97,4.97,0,0,0,6.857,0c1.116-.92,1.093-3.037,2.865-2.991h.679a1.847,1.847,0,0,1,1.749,2.4A9.215,9.215,0,0,1,69,121.334Zm-2.267-17c-5.879,1.369-7.939,9.549-3.532,13.645a8.25,8.25,0,0,0,11.6,0c.794-.84,3.337-3.992,1.162-4.407-.541-.023-1.3-.069-1.5.575a5.812,5.812,0,1,1-7.444-7.432c.656-.184.6-.966.575-1.5a.874.874,0,0,0-.863-.886Z" transform="translate(-59.848 -103.41)" fill="#1d1d27"/>
      </g>
      <g id="Grupo_1223265" data-name="Grupo 1223265" transform="translate(16.817 45.754)">
        <path id="Trazado_1057678" data-name="Trazado 1057678" d="M149.626,111.456h-.679c-1.772.046-1.76-2.082-2.865-2.991-.92-1.1-3.049-1.093-2.991-2.865v-.679C144.184,98.662,155.885,110.375,149.626,111.456Zm-4.706-7.409c-.851,0-.932.9-.874,1.553.023,1.047,2.059,1.2,2.715,2.175,1,.656,1.128,2.681,2.186,2.715.437-.011,1.1.1,1.381-.357a.835.835,0,0,0,.127-.782A8.008,8.008,0,0,0,144.921,104.047Z" transform="translate(-143.09 -103.091)" fill="#1d1d27"/>
      </g>
      <g id="Grupo_1223266" data-name="Grupo 1223266" transform="translate(47.929 60.442)">
        <path id="Trazado_1057679" data-name="Trazado 1057679" d="M417.976,241.958c-1.45-.115-4.43.633-4.476-1.657v-7.87a1.657,1.657,0,0,1,1.657-1.657c1.45.115,4.43-.633,4.476,1.657v7.87A1.665,1.665,0,0,1,417.976,241.958Zm-2.819-10.24a.692.692,0,0,0-.69.69v7.87a.7.7,0,0,0,.69.7h2.819a.7.7,0,0,0,.69-.7v-7.87a.692.692,0,0,0-.69-.69Z" transform="translate(-413.5 -230.746)" fill="#1d1d27"/>
      </g>
      <g id="Grupo_1223267" data-name="Grupo 1223267" transform="translate(38.736 56.863)">
        <path id="Trazado_1057680" data-name="Trazado 1057680" d="M338.076,214.436c-1.45-.115-4.43.633-4.476-1.657V201.332c.046-2.29,3.026-1.542,4.476-1.657a1.657,1.657,0,0,1,1.657,1.657V212.78A1.665,1.665,0,0,1,338.076,214.436Zm-2.819-13.806a.692.692,0,0,0-.69.69v11.448a.7.7,0,0,0,.69.7h2.819a.7.7,0,0,0,.69-.7V201.32a.692.692,0,0,0-.69-.69Z" transform="translate(-333.6 -199.646)" fill="#1d1d27"/>
      </g>
      <g id="Grupo_1223268" data-name="Grupo 1223268" transform="translate(29.532 62.743)">
        <path id="Trazado_1057681" data-name="Trazado 1057681" d="M258.076,259.657c-1.45-.115-4.43.633-4.476-1.657v-5.569a1.657,1.657,0,0,1,1.657-1.657c1.45.115,4.43-.633,4.476,1.657V258A1.65,1.65,0,0,1,258.076,259.657Zm-2.807-7.927a.692.692,0,0,0-.69.69v5.569a.7.7,0,0,0,.69.7h2.819a.7.7,0,0,0,.7-.7V252.42a.7.7,0,0,0-.7-.69Z" transform="translate(-253.6 -250.746)" fill="#1d1d27"/>
      </g>
      <g id="Grupo_1223269" data-name="Grupo 1223269" transform="translate(34.174 49.089)">
        <path id="Trazado_1057682" data-name="Trazado 1057682" d="M294.427,137.655a.481.481,0,0,1-.3-.851l5.1-4.13a.482.482,0,0,1,.61.748l-5.1,4.13A.557.557,0,0,1,294.427,137.655Zm13.979-2.428a.451.451,0,0,1-.207-.046l-4.476-2.2a.481.481,0,0,1,.426-.863l4.476,2.2A.484.484,0,0,1,308.406,135.228Z" transform="translate(-293.95 -132.072)" fill="#1d1d27"/>
      </g>
      <g id="Grupo_1223270" data-name="Grupo 1223270" transform="translate(29.532 52.728)">
        <path id="Trazado_1057683" data-name="Trazado 1057683" d="M256.672,169.936c-4.1-.069-4.1-6.155,0-6.236A3.118,3.118,0,0,1,256.672,169.936Zm0-5.269a2.152,2.152,0,0,0,0,4.3A2.152,2.152,0,0,0,256.672,164.666Z" transform="translate(-253.6 -163.7)" fill="#1d1d27"/>
      </g>
      <g id="Grupo_1223271" data-name="Grupo 1223271" transform="translate(38.724 45.272)">
        <path id="Trazado_1057684" data-name="Trazado 1057684" d="M336.572,105.136c-4.1-.069-4.1-6.155,0-6.236C340.668,98.981,340.668,105.067,336.572,105.136Zm0-5.258a2.152,2.152,0,0,0,0,4.3A2.152,2.152,0,0,0,336.572,99.878Z" transform="translate(-333.5 -98.9)" fill="#1d1d27"/>
      </g>
      <g id="Grupo_1223272" data-name="Grupo 1223272" transform="translate(47.917 49.794)">
        <path id="Trazado_1057685" data-name="Trazado 1057685" d="M416.472,144.436c-4.1-.069-4.1-6.155,0-6.236C420.568,138.281,420.568,144.367,416.472,144.436Zm0-5.258a2.152,2.152,0,0,0,0,4.3A2.152,2.152,0,0,0,416.472,139.178Z" transform="translate(-413.4 -138.2)" fill="#1d1d27"/>
      </g>
    </g>
  </g>
</svg>
