<svg xmlns="http://www.w3.org/2000/svg" xmlns:xlink="http://www.w3.org/1999/xlink" width="123" height="123" viewBox="0 0 123 123">
  <defs>
    <filter id="Trazado_982547" x="0" y="0" width="123" height="123" filterUnits="userSpaceOnUse">
      <feOffset dy="3" input="SourceAlpha"/>
      <feGaussianBlur stdDeviation="3" result="blur"/>
      <feFlood flood-opacity="0.161"/>
      <feComposite operator="in" in2="blur"/>
      <feComposite in="SourceGraphic"/>
    </filter>
  </defs>
  <g id="Grupo_1223283" data-name="Grupo 1223283" transform="translate(-318.625 -3988.439)">
    <g id="Grupo_1223225" data-name="Grupo 1223225" transform="translate(-6.146 1007.744)">
      <g id="Grupo_1211203" data-name="Grupo 1211203" transform="translate(333.77 2986.695)">
        <g id="Grupo_1210937" data-name="Grupo 1210937" transform="translate(0 0)">
          <g id="Grupo_1174742" data-name="Grupo 1174742" transform="translate(0)">
            <g id="Grupo_1163948" data-name="Grupo 1163948">
              <g id="Grupo_1158168" data-name="Grupo 1158168">
                <g id="Grupo_1152576" data-name="Grupo 1152576">
                  <g id="Grupo_1148633" data-name="Grupo 1148633">
                    <g id="Grupo_1148525" data-name="Grupo 1148525">
                      <g transform="matrix(1, 0, 0, 1, -9, -6)" filter="url(#Trazado_982547)">
                        <g id="Trazado_982547-2" data-name="Trazado 982547" transform="translate(9 6)" fill="#fdf6e4">
                          <path d="M 52.49996948242188 103.4999389648438 C 45.61435699462891 103.4999389648438 38.93551254272461 102.1517105102539 32.64894104003906 99.49272918701172 C 26.57608413696289 96.92412567138672 21.12178421020508 93.24662780761719 16.43754005432129 88.56240081787109 C 11.75331211090088 83.87815856933594 8.075812339782715 78.42385864257812 5.507212162017822 72.35099792480469 C 2.848226547241211 66.06443023681641 1.499998092651367 59.38558197021484 1.499998092651367 52.49996948242188 C 1.499998092651367 45.61435699462891 2.848226547241211 38.93551254272461 5.507212162017822 32.64894104003906 C 8.075812339782715 26.57608413696289 11.75331211090088 21.12178421020508 16.43754005432129 16.43754005432129 C 21.12178421020508 11.75331211090088 26.57608413696289 8.075812339782715 32.64894104003906 5.507212162017822 C 38.93551254272461 2.848226547241211 45.61435699462891 1.499998092651367 52.49996948242188 1.499998092651367 C 59.38558197021484 1.499998092651367 66.06443023681641 2.848226547241211 72.35099792480469 5.507212162017822 C 78.42385864257812 8.075812339782715 83.87815856933594 11.75331211090088 88.56240081787109 16.43754005432129 C 93.24662780761719 21.12178421020508 96.92412567138672 26.57608413696289 99.49272918701172 32.64894104003906 C 102.1517105102539 38.93551254272461 103.4999389648438 45.61435699462891 103.4999389648438 52.49996948242188 C 103.4999389648438 59.38558197021484 102.1517105102539 66.06443023681641 99.49272918701172 72.35099792480469 C 96.92412567138672 78.42385864257812 93.24662780761719 83.87815856933594 88.56240081787109 88.56240081787109 C 83.87815856933594 93.24662780761719 78.42385864257812 96.92412567138672 72.35099792480469 99.49272918701172 C 66.06443023681641 102.1517105102539 59.38558197021484 103.4999389648438 52.49996948242188 103.4999389648438 Z" stroke="none"/>
                          <path d="M 52.49996948242188 3 C 45.81618499755859 3 39.33393859863281 4.308349609375 33.23326873779297 6.888717651367188 C 27.33920288085938 9.381706237792969 22.045166015625 12.95125579833984 17.49819946289062 17.49819946289062 C 12.95125579833984 22.045166015625 9.381706237792969 27.33920288085938 6.888717651367188 33.23326873779297 C 4.308349609375 39.33393859863281 3 45.81618499755859 3 52.49996948242188 C 3 59.18375396728516 4.308349609375 65.66600036621094 6.888717651367188 71.76667022705078 C 9.381706237792969 77.66073608398438 12.95125579833984 82.95477294921875 17.49819946289062 87.50173950195312 C 22.045166015625 92.04868316650391 27.33920288085938 95.61824035644531 33.23326873779297 98.11122131347656 C 39.33393859863281 100.6915893554688 45.81618499755859 101.9999389648438 52.49996948242188 101.9999389648438 C 59.18375396728516 101.9999389648438 65.66600036621094 100.6915893554688 71.76667022705078 98.11122131347656 C 77.66073608398438 95.61824035644531 82.95477294921875 92.04868316650391 87.50173950195312 87.50173950195312 C 92.04868316650391 82.95477294921875 95.61824035644531 77.66073608398438 98.11122131347656 71.76667022705078 C 100.6915893554688 65.66600036621094 101.9999389648438 59.18375396728516 101.9999389648438 52.49996948242188 C 101.9999389648438 45.81618499755859 100.6915893554688 39.33393859863281 98.11122131347656 33.23326873779297 C 95.61824035644531 27.33920288085938 92.04868316650391 22.045166015625 87.50173950195312 17.49819946289062 C 82.95477294921875 12.95125579833984 77.66073608398438 9.381706237792969 71.76667022705078 6.888717651367188 C 65.66600036621094 4.308349609375 59.18375396728516 3 52.49996948242188 3 M 52.49996948242188 0 C 81.49490356445312 0 104.9999389648438 23.50503540039062 104.9999389648438 52.49996948242188 C 104.9999389648438 81.49490356445312 81.49490356445312 104.9999389648438 52.49996948242188 104.9999389648438 C 23.50503540039062 104.9999389648438 0 81.49490356445312 0 52.49996948242188 C 0 23.50503540039062 23.50503540039062 0 52.49996948242188 0 Z" stroke="none" fill="#f5b104"/>
                        </g>
                      </g>
                    </g>
                  </g>
                </g>
              </g>
            </g>
          </g>
        </g>
      </g>
    </g>
    <g id="business-analysis_9154912" transform="translate(336.586 3996.361)">
      <path id="Trazado_1057745" data-name="Trazado 1057745" d="M79.364,128.581a8.668,8.668,0,0,0,0,16.89.539.539,0,0,1,.418.525v2.282a.539.539,0,0,1-.539.539h-43.8a.539.539,0,0,1-.539-.539V133.724a.539.539,0,0,1,.675-.521c3.832,1.006,7.63,2.507,9.626,2.442,1.295-.042,2.125-.979,2.807-2.108.779-1.291,1.351-2.85,2.008-3.966a3.234,3.234,0,0,1,1.852-1.687c.721-.171,1.623.076,2.746,1.141,1.87,1.775,3.417,4.163,4.928,5.8.981,1.06,1.907,1.822,2.96,1.643a3.1,3.1,0,0,0,1.615-.98,13.347,13.347,0,0,0,2.061-2.944,20.366,20.366,0,0,1,12.933-10.146.539.539,0,0,1,.667.523v5.14A.538.538,0,0,1,79.364,128.581Z" transform="translate(-15.067 -74.632)" fill="#1a7ae6" fill-rule="evenodd"/>
      <path id="Trazado_1057746" data-name="Trazado 1057746" d="M69.221,138.025l.067.012c-.036.05-.055.078-.055.078Zm4.644-2.7c.582-1.115,1.062-2.321,1.6-3.233a3.234,3.234,0,0,1,1.852-1.687c.721-.171,1.623.076,2.745,1.141,1.87,1.775,3.417,4.163,4.928,5.8.981,1.06,1.907,1.822,2.96,1.643a3.1,3.1,0,0,0,1.615-.98,13.345,13.345,0,0,0,2.061-2.944,20.527,20.527,0,0,1,10.291-9.283c-2.9,3.69-6.846,10.643-11.714,14.308-6.022,4.534-4.18,1.063-10.768-3.188A8.369,8.369,0,0,0,73.865,135.322Z" transform="translate(-40.51 -77.15)" fill="#3a6cdb" fill-rule="evenodd"/>
      <path id="Trazado_1057747" data-name="Trazado 1057747" d="M35.261,95.82a57.33,57.33,0,0,0,7.454-3.493,15.1,15.1,0,0,1,5.352-1.988c2.288-.254,4.57.493,9.163,1.95a5.62,5.62,0,0,0,3.791.2,5.161,5.161,0,0,0,2.16-1.937c1.441-1.956,2.877-4.589,6.652-6.147a11.815,11.815,0,0,1,7.075-.418l.017,0a3.768,3.768,0,0,1,2.857,3.657V94.2a.538.538,0,0,1-.41.523,19.305,19.305,0,0,0-12.245,9.62c-1.657,3-3.134,4.244-4.439,4.466-1.368.232-2.657-.6-3.932-1.974-1.5-1.618-3.026-3.987-4.879-5.745-.74-.7-1.28-.986-1.756-.874a1.625,1.625,0,0,0-.863.71,10.739,10.739,0,0,0-.926,1.672,22.144,22.144,0,0,1-1.83,3.438A4.151,4.151,0,0,1,45.24,108c-2.057.067-5.984-1.439-9.935-2.476a.539.539,0,0,1-.4-.521v-8.68A.539.539,0,0,1,35.261,95.82Z" transform="translate(-15.067 -45.915)" fill="#1ae679" fill-rule="evenodd"/>
      <circle id="Elipse_12585" data-name="Elipse 12585" cx="9.744" cy="9.744" r="9.744" transform="translate(56.507 52.651)" fill="#f39332"/>
      <circle id="Elipse_12586" data-name="Elipse 12586" cx="5.845" cy="5.845" r="5.845" transform="translate(60.405 56.549)" fill="#e65111"/>
      <path id="Trazado_1057748" data-name="Trazado 1057748" d="M75.416,30.762a2.522,2.522,0,0,1,5-.66c.029.156.978,5.264,1.085,6.612a2.954,2.954,0,0,1-.553,1.975,2.681,2.681,0,0,1-1.884.911l-6.646.151a2.522,2.522,0,1,1-.114-5.043.53.53,0,0,1,.135.014s.2.05.447.093a19.025,19.025,0,0,0-2.046-2.7,4.524,4.524,0,0,0-.591-.53.827.827,0,0,0-.331-.173c-.1-.013-.19.057-.291.134a3.239,3.239,0,0,0-.575.62c-.683.905-1.317,2.152-1.747,2.559a2.311,2.311,0,0,1-1.525.647,2.041,2.041,0,0,1-1.491-.861l-.008-.012s-5.324-8.7-6.339-10.682a1.5,1.5,0,0,1,.435-1.875,1.39,1.39,0,0,1,1.922.407l.012.019s2.228,3.766,4.069,6.294a8.471,8.471,0,0,0,1.78,2.032c.109.058.2.006.288-.072a2.176,2.176,0,0,0,.4-.526,18.219,18.219,0,0,0,.887-1.972,4.291,4.291,0,0,1,.607-1.106,2.476,2.476,0,0,1,1.58-.774,2.306,2.306,0,0,1,1.653.676c.111.114,2.383,2.435,3.848,3.842Z" transform="translate(-32.028 0)" fill="#6563c7" fill-rule="evenodd"/>
      <path id="Trazado_1057749" data-name="Trazado 1057749" d="M20.915,81.22H66.25a3.166,3.166,0,1,1,0,6.332h-48.5a3.166,3.166,0,0,1-3.166-3.166V35.825a3.166,3.166,0,0,1,6.332,0Z" transform="translate(0 -8.112)" fill="#e1e1f5" fill-rule="evenodd"/>
      <g id="Grupo_1223282" data-name="Grupo 1223282" transform="translate(14.583 21.718)">
        <path id="Trazado_1057750" data-name="Trazado 1057750" d="M75.416,30.762a2.522,2.522,0,0,1,5-.66c.029.156.978,5.264,1.085,6.612a2.954,2.954,0,0,1-.553,1.975,2.681,2.681,0,0,1-1.884.911l-6.646.151a2.522,2.522,0,1,1-.114-5.043.53.53,0,0,1,.135.014s.2.05.447.093a19.025,19.025,0,0,0-2.046-2.7,4.524,4.524,0,0,0-.591-.53.827.827,0,0,0-.331-.173c-.1-.013-.19.057-.291.134a3.239,3.239,0,0,0-.575.62c-.683.905-1.317,2.152-1.747,2.559a2.311,2.311,0,0,1-1.525.647,2.041,2.041,0,0,1-1.491-.861l-.008-.012s-5.324-8.7-6.339-10.682a1.5,1.5,0,0,1,.435-1.875,1.39,1.39,0,0,1,1.922.407l.012.019s2.228,3.766,4.069,6.294a8.471,8.471,0,0,0,1.78,2.032c.109.058.2.006.288-.072a2.176,2.176,0,0,0,.4-.526,18.219,18.219,0,0,0,.887-1.972,4.291,4.291,0,0,1,.607-1.106,2.476,2.476,0,0,1,1.58-.774,2.306,2.306,0,0,1,1.653.676c.111.114,2.383,2.435,3.848,3.842Zm-3.151,5.027a1.445,1.445,0,0,0,.126,2.886l6.646-.151A1.537,1.537,0,0,0,80.116,38a1.794,1.794,0,0,0,.308-1.2c-.107-1.346-1.071-6.5-1.071-6.5l0-.011a1.445,1.445,0,0,0-2.858.422c.05.143.2.566.281.911a1.887,1.887,0,0,1,.067.6.58.58,0,0,1-.379.5.588.588,0,0,1-.593-.1c-.808-.6-5.076-4.95-5.076-4.95l-.007-.007a1.157,1.157,0,0,0-.833-.341,1.312,1.312,0,0,0-.826.426,4.182,4.182,0,0,0-.5,1.01,10.53,10.53,0,0,1-1.214,2.4,1.325,1.325,0,0,1-1.767.487A9.417,9.417,0,0,1,63.507,29.3c-1.8-2.477-3.975-6.126-4.124-6.376a.312.312,0,0,0-.421-.076.376.376,0,0,0-.064.48c.991,1.93,6.115,10.31,6.3,10.609a.885.885,0,0,0,.638.362,1.141,1.141,0,0,0,.728-.353,5.058,5.058,0,0,0,.607-.866A14.062,14.062,0,0,1,68.56,31.07a1.827,1.827,0,0,1,1.493-.726,3.153,3.153,0,0,1,1.56,1.024,21.137,21.137,0,0,1,2.612,3.593.624.624,0,0,1,.034.569.648.648,0,0,1-.383.354,1.7,1.7,0,0,1-.666.055,7.936,7.936,0,0,1-.946-.152Z" transform="translate(-46.611 -21.718)" fill="#092f4d" fill-rule="evenodd"/>
        <path id="Trazado_1057751" data-name="Trazado 1057751" d="M20.915,81.22H66.25a3.166,3.166,0,1,1,0,6.332h-48.5a3.166,3.166,0,0,1-3.166-3.166V35.825a3.166,3.166,0,0,1,6.332,0ZM20.376,82.3a.539.539,0,0,1-.539-.539V35.825a2.088,2.088,0,1,0-4.177,0V84.385a2.088,2.088,0,0,0,2.088,2.088h48.5a2.088,2.088,0,1,0,0-4.177Z" transform="translate(-14.583 -29.83)" fill="#092f4d" fill-rule="evenodd"/>
        <path id="Trazado_1057752" data-name="Trazado 1057752" d="M35.261,95.82a57.33,57.33,0,0,0,7.454-3.493,15.1,15.1,0,0,1,5.352-1.988c2.288-.254,4.57.493,9.163,1.95a5.62,5.62,0,0,0,3.791.2,5.161,5.161,0,0,0,2.16-1.937c1.441-1.956,2.877-4.589,6.652-6.147a11.815,11.815,0,0,1,7.075-.418l.017,0a3.768,3.768,0,0,1,2.857,3.657V94.2a.538.538,0,0,1-.41.523,19.305,19.305,0,0,0-12.245,9.62c-1.657,3-3.134,4.244-4.439,4.466-1.368.232-2.657-.6-3.932-1.974-1.5-1.618-3.026-3.987-4.879-5.745-.74-.7-1.28-.986-1.756-.874a1.625,1.625,0,0,0-.863.71,10.739,10.739,0,0,0-.926,1.672,22.144,22.144,0,0,1-1.83,3.438A4.151,4.151,0,0,1,45.24,108c-2.057.067-5.984-1.439-9.935-2.476a.539.539,0,0,1-.4-.521v-8.68A.539.539,0,0,1,35.261,95.82Zm.72.884s0,7.89,0,7.89c3.694,1,7.3,2.4,9.224,2.334,1.295-.042,2.125-.979,2.807-2.108.779-1.291,1.351-2.85,2.008-3.966a3.234,3.234,0,0,1,1.852-1.687c.721-.171,1.623.076,2.746,1.141,1.87,1.775,3.417,4.163,4.928,5.8.981,1.06,1.907,1.822,2.96,1.643a3.1,3.1,0,0,0,1.615-.98,13.346,13.346,0,0,0,2.061-2.944A20.4,20.4,0,0,1,78.7,93.782v-6.13a2.691,2.691,0,0,0-2.032-2.61,10.742,10.742,0,0,0-6.429.363c-3.534,1.459-4.847,3.959-6.2,5.79a6.2,6.2,0,0,1-2.631,2.3,6.6,6.6,0,0,1-4.513-.178c-4.375-1.388-6.538-2.148-8.718-1.906a14.113,14.113,0,0,0-4.966,1.869A60.847,60.847,0,0,1,35.981,96.7Z" transform="translate(-29.65 -67.633)" fill="#092f4d" fill-rule="evenodd"/>
        <path id="Trazado_1057753" data-name="Trazado 1057753" d="M186.463,141.348a9.743,9.743,0,1,1-9.744,9.744A9.748,9.748,0,0,1,186.463,141.348Zm0,1.077a8.666,8.666,0,1,0,8.666,8.666A8.67,8.67,0,0,0,186.463,142.425Zm0,2.821a5.845,5.845,0,1,1-5.845,5.845A5.848,5.848,0,0,1,186.463,145.246Zm0,1.077a4.768,4.768,0,1,0,4.768,4.768A4.77,4.77,0,0,0,186.463,146.323Z" transform="translate(-134.795 -110.415)" fill="#092f4d" fill-rule="evenodd"/>
        <path id="Trazado_1057754" data-name="Trazado 1057754" d="M79.364,128.581a8.668,8.668,0,0,0,0,16.89.539.539,0,0,1,.418.525v2.282a.539.539,0,0,1-.539.539h-43.8a.539.539,0,0,1-.539-.539V133.724a.539.539,0,0,1,.675-.521c3.832,1.006,7.63,2.507,9.626,2.442,1.295-.042,2.125-.979,2.807-2.108.779-1.291,1.351-2.85,2.008-3.966a3.234,3.234,0,0,1,1.852-1.687c.721-.171,1.623.076,2.746,1.141,1.87,1.775,3.417,4.163,4.928,5.8.981,1.06,1.907,1.822,2.96,1.643a3.1,3.1,0,0,0,1.615-.98,13.347,13.347,0,0,0,2.061-2.944,20.366,20.366,0,0,1,12.933-10.146.539.539,0,0,1,.667.523v5.14A.538.538,0,0,1,79.364,128.581Zm-.66-.944v-4.02a19.365,19.365,0,0,0-11.579,9.441c-1.657,3-3.134,4.244-4.439,4.466-1.368.232-2.657-.6-3.932-1.974-1.5-1.618-3.026-3.987-4.879-5.745-.74-.7-1.28-.986-1.756-.874a1.625,1.625,0,0,0-.863.71,10.738,10.738,0,0,0-.926,1.672,22.143,22.143,0,0,1-1.83,3.438,4.151,4.151,0,0,1-3.26,1.969c-1.94.063-5.542-1.272-9.259-2.295v13.313H78.7v-1.325a9.746,9.746,0,0,1,0-18.777Z" transform="translate(-29.65 -96.35)" fill="#092f4d" fill-rule="evenodd"/>
        <path id="Trazado_1057755" data-name="Trazado 1057755" d="M47.923,68.858a.539.539,0,0,1,0-1.077h5.93a.539.539,0,1,1,0,1.077Z" transform="translate(-38.903 -55.87)" fill="#092f4d" fill-rule="evenodd"/>
        <path id="Trazado_1057756" data-name="Trazado 1057756" d="M47.923,86.633a.539.539,0,0,1,0-1.077H57.1a.539.539,0,0,1,0,1.077Z" transform="translate(-38.903 -69.049)" fill="#092f4d" fill-rule="evenodd"/>
      </g>
    </g>
  </g>
</svg>
