<svg xmlns="http://www.w3.org/2000/svg" xmlns:xlink="http://www.w3.org/1999/xlink" width="123" height="123" viewBox="0 0 123 123">
  <defs>
    <filter id="Trazado_982547" x="0" y="0" width="123" height="123" filterUnits="userSpaceOnUse">
      <feOffset dy="3" input="SourceAlpha"/>
      <feGaussianBlur stdDeviation="3" result="blur"/>
      <feFlood flood-opacity="0.161"/>
      <feComposite operator="in" in2="blur"/>
      <feComposite in="SourceGraphic"/>
    </filter>
  </defs>
  <g id="Grupo_1223285" data-name="Grupo 1223285" transform="translate(-738 -3988.439)">
    <g id="Grupo_1223226" data-name="Grupo 1223226" transform="translate(413.229 1007.744)">
      <g id="Grupo_1211203" data-name="Grupo 1211203" transform="translate(333.77 2986.695)">
        <g id="Grupo_1210937" data-name="Grupo 1210937" transform="translate(0 0)">
          <g id="Grupo_1174742" data-name="Grupo 1174742" transform="translate(0)">
            <g id="Grupo_1163948" data-name="Grupo 1163948">
              <g id="Grupo_1158168" data-name="Grupo 1158168">
                <g id="Grupo_1152576" data-name="Grupo 1152576">
                  <g id="Grupo_1148633" data-name="Grupo 1148633">
                    <g id="Grupo_1148525" data-name="Grupo 1148525">
                      <g transform="matrix(1, 0, 0, 1, -9, -6)" filter="url(#Trazado_982547)">
                        <g id="Trazado_982547-2" data-name="Trazado 982547" transform="translate(9 6)" fill="#fdf6e4">
                          <path d="M 52.49996948242188 103.4999389648438 C 45.61435699462891 103.4999389648438 38.93551254272461 102.1517105102539 32.64894104003906 99.49272918701172 C 26.57608413696289 96.92412567138672 21.12178421020508 93.24662780761719 16.43754005432129 88.56240081787109 C 11.75331211090088 83.87815856933594 8.075812339782715 78.42385864257812 5.507212162017822 72.35099792480469 C 2.848226547241211 66.06443023681641 1.499998092651367 59.38558197021484 1.499998092651367 52.49996948242188 C 1.499998092651367 45.61435699462891 2.848226547241211 38.93551254272461 5.507212162017822 32.64894104003906 C 8.075812339782715 26.57608413696289 11.75331211090088 21.12178421020508 16.43754005432129 16.43754005432129 C 21.12178421020508 11.75331211090088 26.57608413696289 8.075812339782715 32.64894104003906 5.507212162017822 C 38.93551254272461 2.848226547241211 45.61435699462891 1.499998092651367 52.49996948242188 1.499998092651367 C 59.38558197021484 1.499998092651367 66.06443023681641 2.848226547241211 72.35099792480469 5.507212162017822 C 78.42385864257812 8.075812339782715 83.87815856933594 11.75331211090088 88.56240081787109 16.43754005432129 C 93.24662780761719 21.12178421020508 96.92412567138672 26.57608413696289 99.49272918701172 32.64894104003906 C 102.1517105102539 38.93551254272461 103.4999389648438 45.61435699462891 103.4999389648438 52.49996948242188 C 103.4999389648438 59.38558197021484 102.1517105102539 66.06443023681641 99.49272918701172 72.35099792480469 C 96.92412567138672 78.42385864257812 93.24662780761719 83.87815856933594 88.56240081787109 88.56240081787109 C 83.87815856933594 93.24662780761719 78.42385864257812 96.92412567138672 72.35099792480469 99.49272918701172 C 66.06443023681641 102.1517105102539 59.38558197021484 103.4999389648438 52.49996948242188 103.4999389648438 Z" stroke="none"/>
                          <path d="M 52.49996948242188 3 C 45.81618499755859 3 39.33393859863281 4.308349609375 33.23326873779297 6.888717651367188 C 27.33920288085938 9.381706237792969 22.045166015625 12.95125579833984 17.49819946289062 17.49819946289062 C 12.95125579833984 22.045166015625 9.381706237792969 27.33920288085938 6.888717651367188 33.23326873779297 C 4.308349609375 39.33393859863281 3 45.81618499755859 3 52.49996948242188 C 3 59.18375396728516 4.308349609375 65.66600036621094 6.888717651367188 71.76667022705078 C 9.381706237792969 77.66073608398438 12.95125579833984 82.95477294921875 17.49819946289062 87.50173950195312 C 22.045166015625 92.04868316650391 27.33920288085938 95.61824035644531 33.23326873779297 98.11122131347656 C 39.33393859863281 100.6915893554688 45.81618499755859 101.9999389648438 52.49996948242188 101.9999389648438 C 59.18375396728516 101.9999389648438 65.66600036621094 100.6915893554688 71.76667022705078 98.11122131347656 C 77.66073608398438 95.61824035644531 82.95477294921875 92.04868316650391 87.50173950195312 87.50173950195312 C 92.04868316650391 82.95477294921875 95.61824035644531 77.66073608398438 98.11122131347656 71.76667022705078 C 100.6915893554688 65.66600036621094 101.9999389648438 59.18375396728516 101.9999389648438 52.49996948242188 C 101.9999389648438 45.81618499755859 100.6915893554688 39.33393859863281 98.11122131347656 33.23326873779297 C 95.61824035644531 27.33920288085938 92.04868316650391 22.045166015625 87.50173950195312 17.49819946289062 C 82.95477294921875 12.95125579833984 77.66073608398438 9.381706237792969 71.76667022705078 6.888717651367188 C 65.66600036621094 4.308349609375 59.18375396728516 3 52.49996948242188 3 M 52.49996948242188 0 C 81.49490356445312 0 104.9999389648438 23.50503540039062 104.9999389648438 52.49996948242188 C 104.9999389648438 81.49490356445312 81.49490356445312 104.9999389648438 52.49996948242188 104.9999389648438 C 23.50503540039062 104.9999389648438 0 81.49490356445312 0 52.49996948242188 C 0 23.50503540039062 23.50503540039062 0 52.49996948242188 0 Z" stroke="none" fill="#f5b104"/>
                        </g>
                      </g>
                    </g>
                  </g>
                </g>
              </g>
            </g>
          </g>
        </g>
      </g>
    </g>
    <g id="diagram_9768553" transform="translate(761.625 4006.805)">
      <path id="Trazado_1057757" data-name="Trazado 1057757" d="M13.84,23.5v6.026a1.153,1.153,0,0,1-1.158,1.158H5.948A1.153,1.153,0,0,1,4.79,29.524V23.5A1.153,1.153,0,0,1,5.948,22.34h6.744A1.151,1.151,0,0,1,13.84,23.5Z" transform="translate(0.193 1.221)" fill="#fc635b"/>
      <path id="Trazado_1057758" data-name="Trazado 1057758" d="M13.84,27.862v1.662a1.151,1.151,0,0,1-1.158,1.147H5.948A1.151,1.151,0,0,1,4.79,29.524V23.5A1.153,1.153,0,0,1,5.948,22.34H7.91V26.7a1.153,1.153,0,0,0,1.158,1.158Z" transform="translate(0.193 1.221)" fill="#f34234"/>
      <path id="Trazado_1057759" data-name="Trazado 1057759" d="M56.42,7.6v6.026a1.153,1.153,0,0,1-1.158,1.158H48.518a1.153,1.153,0,0,1-1.158-1.158V7.6A1.153,1.153,0,0,1,48.518,6.44h6.744A1.16,1.16,0,0,1,56.42,7.6Z" transform="translate(3.267 0.072)" fill="#7ec927"/>
      <path id="Trazado_1057760" data-name="Trazado 1057760" d="M56.42,11.63v1.994a1.16,1.16,0,0,1-1.158,1.158H48.528a1.16,1.16,0,0,1-1.158-1.158V7.6A1.153,1.153,0,0,1,48.528,6.44h1.758v4.042a1.151,1.151,0,0,0,1.158,1.147Z" transform="translate(3.268 0.072)" fill="#60a917"/>
      <g id="Grupo_1223284" data-name="Grupo 1223284" transform="translate(62.497 25.694)">
        <path id="Trazado_1057761" data-name="Trazado 1057761" d="M67.49,25.488v6.026a1.153,1.153,0,0,1-1.158,1.158H59.588a1.153,1.153,0,0,1-1.158-1.158V25.488a1.153,1.153,0,0,1,1.158-1.158h6.744A1.153,1.153,0,0,1,67.49,25.488Z" transform="translate(-58.43 -24.33)" fill="#07beef"/>
      </g>
      <path id="Trazado_1057762" data-name="Trazado 1057762" d="M67.49,29.777v1.737a1.151,1.151,0,0,1-1.158,1.147H59.6a1.151,1.151,0,0,1-1.158-1.147V25.488A1.153,1.153,0,0,1,59.6,24.33h1.8v4.289a1.16,1.16,0,0,0,1.158,1.158Z" transform="translate(4.067 1.364)" fill="#00b6e0"/>
      <path id="Trazado_1057763" data-name="Trazado 1057763" d="M5.06,65.417h32l-16-27.577Z" transform="translate(0.212 2.34)" fill="#fc635b"/>
      <path id="Trazado_1057764" data-name="Trazado 1057764" d="M37.055,65.407h-32l16-27.577,2.863,4.943L16.157,56.165a2.776,2.776,0,0,0,2.4,4.171H34.117Z" transform="translate(0.212 2.339)" fill="#f34234"/>
      <path id="Trazado_1057765" data-name="Trazado 1057765" d="M50.9,37.83l-16,27.588H66.906Z" transform="translate(2.367 2.339)" fill="#07beef"/>
      <path id="Trazado_1057766" data-name="Trazado 1057766" d="M66.906,65.407H34.9l16-27.577,2.734,4.718L46.887,54.181A4.076,4.076,0,0,0,50.415,60.3H63.946Z" transform="translate(2.367 2.339)" fill="#00b6e0"/>
      <path id="Trazado_1057767" data-name="Trazado 1057767" d="M33.662,15.94,19.98,39.508h32L38.3,15.94a2.678,2.678,0,0,0-4.643,0Z" transform="translate(1.29 0.661)" fill="#7ec927"/>
      <path id="Trazado_1057768" data-name="Trazado 1057768" d="M51.975,39.507h-32L33.662,15.94a2.7,2.7,0,0,1,4.653,0l1.158,1.994-7.42,12.781a2.77,2.77,0,0,0,2.4,4.16h14.85Z" transform="translate(1.29 0.662)" fill="#60a917"/>
      <path id="Trazado_1057769" data-name="Trazado 1057769" d="M19.98,37.83v.011Z" transform="translate(1.29 2.339)" fill="none" stroke="#000" stroke-linecap="round" stroke-linejoin="round" stroke-miterlimit="10" stroke-width="2"/>
      <path id="Trazado_1057770" data-name="Trazado 1057770" d="M19.98,37.83v.011l16,27.577,16-27.588Z" transform="translate(1.29 2.339)" fill="#ffe0b2"/>
      <path id="Trazado_1057771" data-name="Trazado 1057771" d="M51.975,37.831l-16,27.577-16-27.577h6.326L33.64,50.472a3.714,3.714,0,0,0,6.433,0L47.418,37.82h4.557Z" transform="translate(1.29 2.338)" fill="#e8bd89"/>
      <path id="Trazado_1057772" data-name="Trazado 1057772" d="M68.1,43.107V35.1H70.4a2.229,2.229,0,0,0,2.23-2.23V26.842a2.229,2.229,0,0,0-2.23-2.23H63.655a2.229,2.229,0,0,0-2.23,2.23v6.026a2.229,2.229,0,0,0,2.23,2.23h2.295v8a3.186,3.186,0,0,1-1.533,2.713l-4.921,2.959-5.307-9.146-5.211-8.985,4.675-2.809a5.345,5.345,0,0,0,2.573-4.557V15.9h2.295a2.229,2.229,0,0,0,2.23-2.23v-6a2.229,2.229,0,0,0-2.23-2.23H51.775a2.229,2.229,0,0,0-2.23,2.23V13.7a2.229,2.229,0,0,0,2.23,2.23h2.295v7.366a3.186,3.186,0,0,1-1.533,2.713l-4.643,2.788L40.505,16.055a3.751,3.751,0,0,0-6.5,0L20.348,39.633l-3.871,6.658-4.364-2.627a3.186,3.186,0,0,1-1.533-2.713v-8h2.295a2.229,2.229,0,0,0,2.23-2.23V24.7a2.229,2.229,0,0,0-2.23-2.23H6.141a2.229,2.229,0,0,0-2.23,2.23v6.026a2.229,2.229,0,0,0,2.23,2.23H8.435v8a5.345,5.345,0,0,0,2.573,4.557l4.385,2.638L4.65,66.685H3.192a1.072,1.072,0,1,0,0,2.144H71.353a1.072,1.072,0,0,0,0-2.144H69.9L60.588,50.634l4.954-2.981A5.341,5.341,0,0,0,68.1,43.107ZM63.58,32.878V26.852a.085.085,0,0,1,.086-.086H70.41a.085.085,0,0,1,.086.086v6.026a.085.085,0,0,1-.086.086H63.665c-.054-.011-.086-.043-.086-.086ZM51.71,13.7V7.67a.085.085,0,0,1,.086-.086H58.54a.085.085,0,0,1,.086.086V13.7a.085.085,0,0,1-.086.086H51.8A.085.085,0,0,1,51.71,13.7ZM6.055,30.744V24.719a.085.085,0,0,1,.086-.086h6.744a.085.085,0,0,1,.086.086v6.026a.085.085,0,0,1-.086.086H6.141c-.043-.011-.086-.043-.086-.086ZM37.267,65.613,23.136,41.241H51.41ZM35.884,17.138a1.61,1.61,0,0,1,2.788,0L51.41,39.108H23.136ZM21.27,42.314,35.4,66.685H7.127ZM39.133,66.685,53.276,42.314,67.418,66.685Z" transform="translate(0 0)"/>
    </g>
  </g>
</svg>
