<svg xmlns="http://www.w3.org/2000/svg" xmlns:xlink="http://www.w3.org/1999/xlink" width="123" height="123" viewBox="0 0 123 123">
  <defs>
    <filter id="Trazado_982547" x="0" y="0" width="123" height="123" filterUnits="userSpaceOnUse">
      <feOffset dy="3" input="SourceAlpha"/>
      <feGaussianBlur stdDeviation="3" result="blur"/>
      <feFlood flood-opacity="0.161"/>
      <feComposite operator="in" in2="blur"/>
      <feComposite in="SourceGraphic"/>
    </filter>
  </defs>
  <g id="Grupo_1223286" data-name="Grupo 1223286" transform="translate(-1158.5 -3988.439)">
    <g id="Grupo_1223227" data-name="Grupo 1223227" transform="translate(833.729 1007.744)">
      <g id="Grupo_1211203" data-name="Grupo 1211203" transform="translate(333.77 2986.695)">
        <g id="Grupo_1210937" data-name="Grupo 1210937" transform="translate(0 0)">
          <g id="Grupo_1174742" data-name="Grupo 1174742" transform="translate(0)">
            <g id="Grupo_1163948" data-name="Grupo 1163948">
              <g id="Grupo_1158168" data-name="Grupo 1158168">
                <g id="Grupo_1152576" data-name="Grupo 1152576">
                  <g id="Grupo_1148633" data-name="Grupo 1148633">
                    <g id="Grupo_1148525" data-name="Grupo 1148525">
                      <g transform="matrix(1, 0, 0, 1, -9, -6)" filter="url(#Trazado_982547)">
                        <g id="Trazado_982547-2" data-name="Trazado 982547" transform="translate(9 6)" fill="#fdf6e4">
                          <path d="M 52.49996948242188 103.4999389648438 C 45.61435699462891 103.4999389648438 38.93551254272461 102.1517105102539 32.64894104003906 99.49272918701172 C 26.57608413696289 96.92412567138672 21.12178421020508 93.24662780761719 16.43754005432129 88.56240081787109 C 11.75331211090088 83.87815856933594 8.075812339782715 78.42385864257812 5.507212162017822 72.35099792480469 C 2.848226547241211 66.06443023681641 1.499998092651367 59.38558197021484 1.499998092651367 52.49996948242188 C 1.499998092651367 45.61435699462891 2.848226547241211 38.93551254272461 5.507212162017822 32.64894104003906 C 8.075812339782715 26.57608413696289 11.75331211090088 21.12178421020508 16.43754005432129 16.43754005432129 C 21.12178421020508 11.75331211090088 26.57608413696289 8.075812339782715 32.64894104003906 5.507212162017822 C 38.93551254272461 2.848226547241211 45.61435699462891 1.499998092651367 52.49996948242188 1.499998092651367 C 59.38558197021484 1.499998092651367 66.06443023681641 2.848226547241211 72.35099792480469 5.507212162017822 C 78.42385864257812 8.075812339782715 83.87815856933594 11.75331211090088 88.56240081787109 16.43754005432129 C 93.24662780761719 21.12178421020508 96.92412567138672 26.57608413696289 99.49272918701172 32.64894104003906 C 102.1517105102539 38.93551254272461 103.4999389648438 45.61435699462891 103.4999389648438 52.49996948242188 C 103.4999389648438 59.38558197021484 102.1517105102539 66.06443023681641 99.49272918701172 72.35099792480469 C 96.92412567138672 78.42385864257812 93.24662780761719 83.87815856933594 88.56240081787109 88.56240081787109 C 83.87815856933594 93.24662780761719 78.42385864257812 96.92412567138672 72.35099792480469 99.49272918701172 C 66.06443023681641 102.1517105102539 59.38558197021484 103.4999389648438 52.49996948242188 103.4999389648438 Z" stroke="none"/>
                          <path d="M 52.49996948242188 3 C 45.81618499755859 3 39.33393859863281 4.308349609375 33.23326873779297 6.888717651367188 C 27.33920288085938 9.381706237792969 22.045166015625 12.95125579833984 17.49819946289062 17.49819946289062 C 12.95125579833984 22.045166015625 9.381706237792969 27.33920288085938 6.888717651367188 33.23326873779297 C 4.308349609375 39.33393859863281 3 45.81618499755859 3 52.49996948242188 C 3 59.18375396728516 4.308349609375 65.66600036621094 6.888717651367188 71.76667022705078 C 9.381706237792969 77.66073608398438 12.95125579833984 82.95477294921875 17.49819946289062 87.50173950195312 C 22.045166015625 92.04868316650391 27.33920288085938 95.61824035644531 33.23326873779297 98.11122131347656 C 39.33393859863281 100.6915893554688 45.81618499755859 101.9999389648438 52.49996948242188 101.9999389648438 C 59.18375396728516 101.9999389648438 65.66600036621094 100.6915893554688 71.76667022705078 98.11122131347656 C 77.66073608398438 95.61824035644531 82.95477294921875 92.04868316650391 87.50173950195312 87.50173950195312 C 92.04868316650391 82.95477294921875 95.61824035644531 77.66073608398438 98.11122131347656 71.76667022705078 C 100.6915893554688 65.66600036621094 101.9999389648438 59.18375396728516 101.9999389648438 52.49996948242188 C 101.9999389648438 45.81618499755859 100.6915893554688 39.33393859863281 98.11122131347656 33.23326873779297 C 95.61824035644531 27.33920288085938 92.04868316650391 22.045166015625 87.50173950195312 17.49819946289062 C 82.95477294921875 12.95125579833984 77.66073608398438 9.381706237792969 71.76667022705078 6.888717651367188 C 65.66600036621094 4.308349609375 59.18375396728516 3 52.49996948242188 3 M 52.49996948242188 0 C 81.49490356445312 0 104.9999389648438 23.50503540039062 104.9999389648438 52.49996948242188 C 104.9999389648438 81.49490356445312 81.49490356445312 104.9999389648438 52.49996948242188 104.9999389648438 C 23.50503540039062 104.9999389648438 0 81.49490356445312 0 52.49996948242188 C 0 23.50503540039062 23.50503540039062 0 52.49996948242188 0 Z" stroke="none" fill="#f5b104"/>
                        </g>
                      </g>
                    </g>
                  </g>
                </g>
              </g>
            </g>
          </g>
        </g>
      </g>
    </g>
    <g id="Layer_x0020_1" transform="translate(1185.27 4019.058)">
      <path id="Trazado_1057773" data-name="Trazado 1057773" d="M51.426,32.794h-7.59a.926.926,0,0,1,0-1.852h7.59A.926.926,0,0,1,51.426,32.794ZM5.7,46.2V5.375A2.772,2.772,0,0,1,6.647,0H62.829a2.775,2.775,0,0,1,.944,5.375V46.2a2.775,2.775,0,0,1-.944,5.375h-26.4v3.414a3.55,3.55,0,1,1-1.888,0V51.57H6.647A2.772,2.772,0,0,1,5.7,46.2ZM6.611,3.668H62.829a.89.89,0,0,0,0-1.78H6.647A.89.89,0,0,0,6.611,3.668ZM61.885,46.05V5.556H7.592V46.05Zm.944,3.632a.89.89,0,0,0,0-1.78H6.647a.89.89,0,0,0,0,1.78ZM35.483,56.763a1.671,1.671,0,0,0,0,3.341A1.671,1.671,0,0,0,35.483,56.763ZM34.72,33.92a30.818,30.818,0,0,1-23.5-11.113.984.984,0,0,1,0-1.235c12.784-14.89,34.247-14.89,47.03,0a.984.984,0,0,1,0,1.235c-1.053,1.162-2.143,2.288-3.3,3.341A9.3,9.3,0,1,1,38.5,33.7,32.456,32.456,0,0,1,34.72,33.92ZM53.641,24.8c.908-.835,1.816-1.707,2.651-2.615a30.268,30.268,0,0,0-12.747-8.462,12.429,12.429,0,0,1,3.523,8.861A9.23,9.23,0,0,1,53.641,24.8ZM38.461,12.566a27.38,27.38,0,0,0-7.445,0,10.447,10.447,0,0,0-.944,19.1,28.349,28.349,0,0,0,4.649.4,29.392,29.392,0,0,0,3.6-.254,9.313,9.313,0,0,1,6.864-8.9A10.541,10.541,0,0,0,38.461,12.566ZM25.9,13.728A29.935,29.935,0,0,0,13.184,22.19a29.936,29.936,0,0,0,12.348,8.317A12.327,12.327,0,0,1,25.9,13.728ZM34.72,28.073a5.762,5.762,0,1,1,1.2-11.4,3.045,3.045,0,0,1,5.193,2.143,3.005,3.005,0,0,1-.8,2.07A5.778,5.778,0,0,1,34.72,28.073Zm.327-9.624a3.874,3.874,0,1,0,3.523,3.377A3.031,3.031,0,0,1,35.047,18.449Zm3.014-.8a1.18,1.18,0,0,0,0,2.361A1.18,1.18,0,0,0,38.061,17.65Zm9.551,6.791a7.409,7.409,0,1,0,7.409,7.409A7.44,7.44,0,0,0,47.613,24.441Z" fill="#333" fill-rule="evenodd"/>
      <path id="Trazado_1057774" data-name="Trazado 1057774" d="M1015.222,681.353h-7.59a.926.926,0,0,1,0-1.852h7.59A.926.926,0,0,1,1015.222,681.353ZM1004,680.409a7.409,7.409,0,1,0,7.409-7.409A7.416,7.416,0,0,0,1004,680.409Z" transform="translate(-963.796 -648.559)" fill="#ff3131" fill-rule="evenodd"/>
      <path id="Trazado_1057775" data-name="Trazado 1057775" d="M749.886,515.4a3.878,3.878,0,0,0,3.85-4.358,3.031,3.031,0,0,1-3.523-3.377,3.875,3.875,0,1,0-.327,7.736Z" transform="translate(-715.166 -489.212)" fill="#58535a" fill-rule="evenodd"/>
      <path id="Trazado_1057776" data-name="Trazado 1057776" d="M913.921,488.361a1.18,1.18,0,0,0,0-2.361A1.18,1.18,0,0,0,913.921,488.361Z" transform="translate(-875.86 -468.35)" fill="#ccc" fill-rule="evenodd"/>
      <path id="Trazado_1057777" data-name="Trazado 1057777" d="M577.621,343.358a3.045,3.045,0,0,1,5.193,2.143,3.005,3.005,0,0,1-.8,2.07,5.754,5.754,0,1,1-4.394-4.213Zm2.4,15.144a9.313,9.313,0,0,1,6.864-8.9,10.541,10.541,0,0,0-6.719-10.35,27.382,27.382,0,0,0-7.445,0,10.447,10.447,0,0,0-.944,19.1,28.349,28.349,0,0,0,4.649.4A29.393,29.393,0,0,0,580.018,358.5Z" transform="translate(-541.703 -326.689)" fill="#1aa1ff" fill-rule="evenodd"/>
      <path id="Trazado_1057778" data-name="Trazado 1057778" d="M1096,378a12.43,12.43,0,0,1,3.523,8.861,9.23,9.23,0,0,1,6.573,2.215c.908-.835,1.816-1.707,2.651-2.615A30.268,30.268,0,0,0,1096,378Z" transform="translate(-1052.455 -364.272)" fill="#ccc" fill-rule="evenodd"/>
      <path id="Trazado_1057779" data-name="Trazado 1057779" d="M272.348,394.778A12.327,12.327,0,0,1,272.711,378,29.935,29.935,0,0,0,260,386.462,29.937,29.937,0,0,0,272.348,394.778Z" transform="translate(-246.816 -364.272)" fill="#ccc" fill-rule="evenodd"/>
      <path id="Trazado_1057780" data-name="Trazado 1057780" d="M109.632,169.016c12.784-14.89,34.247-14.89,47.03,0a.984.984,0,0,1,0,1.235c-1.053,1.162-2.143,2.288-3.3,3.341a9.3,9.3,0,1,1-16.452,7.554,32.457,32.457,0,0,1-3.777.218,30.818,30.818,0,0,1-23.5-11.113A.984.984,0,0,1,109.632,169.016ZM106,153v40.493h54.294V153Z" transform="translate(-98.408 -147.444)" fill="#ffe4af" fill-rule="evenodd"/>
      <path id="Trazado_1057781" data-name="Trazado 1057781" d="M56.384,53.78h56.182a.89.89,0,0,0,0-1.78H56.384a.89.89,0,0,0-.036,1.78Z" transform="translate(-49.737 -50.112)" fill="#c06000" fill-rule="evenodd"/>
      <path id="Trazado_1057782" data-name="Trazado 1057782" d="M113.054,1319H56.872a.89.89,0,0,0,0,1.779h56.182A.89.89,0,0,0,113.054,1319Z" transform="translate(-50.224 -1271.098)" fill="#c06000" fill-rule="evenodd"/>
      <path id="Trazado_1057783" data-name="Trazado 1057783" d="M830.634,1566.341a1.671,1.671,0,0,0,0-3.341A1.671,1.671,0,0,0,830.634,1566.341Z" transform="translate(-795.151 -1506.237)" fill="#ff3131" fill-rule="evenodd"/>
    </g>
  </g>
</svg>
