<svg xmlns="http://www.w3.org/2000/svg" xmlns:xlink="http://www.w3.org/1999/xlink" width="108" height="108" viewBox="0 0 108 108">
  <defs>
    <filter id="Trazado_904820" x="0" y="0" width="108" height="108" filterUnits="userSpaceOnUse">
      <feOffset dy="3" input="SourceAlpha"/>
      <feGaussianBlur stdDeviation="3" result="blur"/>
      <feFlood flood-opacity="0.161"/>
      <feComposite operator="in" in2="blur"/>
      <feComposite in="SourceGraphic"/>
    </filter>
  </defs>
  <g id="Grupo_1223549" data-name="Grupo 1223549" transform="translate(-191.828 -5552)">
    <g id="Grupo_1223290" data-name="Grupo 1223290">
      <g id="Grupo_1223228" data-name="Grupo 1223228" transform="translate(200.828 5558)">
        <g id="Grupo_1173585" data-name="Grupo 1173585" transform="translate(0 0)">
          <g id="Grupo_1173428" data-name="Grupo 1173428">
            <g id="Grupo_1171958" data-name="Grupo 1171958">
              <g id="Grupo_1167341" data-name="Grupo 1167341">
                <g id="Grupo_1166792" data-name="Grupo 1166792">
                  <g transform="matrix(1, 0, 0, 1, -9, -6)" filter="url(#Trazado_904820)">
                    <g id="Trazado_904820-2" data-name="Trazado 904820" transform="translate(9 6)" fill="#efecfa">
                      <path d="M 44.99999618530273 88.50002288818359 C 39.12687301635742 88.50002288818359 33.43022155761719 87.35009765625 28.06829643249512 85.08218383789062 C 22.88852119445801 82.89133453369141 18.23629570007324 79.75460815429688 14.24084663391113 75.75916290283203 C 10.24540901184082 71.76371002197266 7.108683586120605 67.11148834228516 4.917821407318115 61.93171310424805 C 2.649921178817749 56.56978607177734 1.499996185302734 50.87313461303711 1.499996185302734 45.0000114440918 C 1.499996185302734 39.12688827514648 2.649921178817749 33.43023681640625 4.917821407318115 28.06829833984375 C 7.108683586120605 22.88852310180664 10.24540901184082 18.2363109588623 14.24084663391113 14.2408618927002 C 18.23629570007324 10.24541187286377 22.88852119445801 7.108686447143555 28.06829643249512 4.917823791503906 C 33.43022155761719 2.649924039840698 39.12687301635742 1.499998927116394 44.99999618530273 1.499998927116394 C 50.87311935424805 1.499998927116394 56.56977081298828 2.649924039840698 61.93169784545898 4.917823791503906 C 67.11147308349609 7.108686447143555 71.76369476318359 10.24541187286377 75.75914764404297 14.2408618927002 C 79.75458526611328 18.2363109588623 82.89131164550781 22.88852310180664 85.08216857910156 28.06829833984375 C 87.35007476806641 33.43023681640625 88.5 39.12688827514648 88.5 45.0000114440918 C 88.5 50.87313461303711 87.35007476806641 56.56978607177734 85.08216857910156 61.93171310424805 C 82.89131164550781 67.11148834228516 79.75458526611328 71.76371002197266 75.75914764404297 75.75916290283203 C 71.76369476318359 79.75460815429688 67.11147308349609 82.89133453369141 61.93169784545898 85.08218383789062 C 56.56977081298828 87.35009765625 50.87311935424805 88.50002288818359 44.99999618530273 88.50002288818359 Z" stroke="none"/>
                      <path d="M 44.99999618530273 3 C 39.32870864868164 3 33.82865142822266 4.110054016113281 28.65262603759766 6.299339294433594 C 23.65165710449219 8.414566040039062 19.15968322753906 11.44333648681641 15.301513671875 15.30152893066406 C 11.44333648681641 19.15969848632812 8.414566040039062 23.65165710449219 6.299339294433594 28.65264129638672 C 4.110054016113281 33.82866668701172 2.999992370605469 39.3287239074707 2.999992370605469 45.0000114440918 C 2.999992370605469 50.67129898071289 4.110054016113281 56.17135620117188 6.299339294433594 61.34738159179688 C 8.414566040039062 66.34836578369141 11.44333648681641 70.84032440185547 15.301513671875 74.69849395751953 C 19.15968322753906 78.55668640136719 23.65165710449219 81.58545684814453 28.65262603759766 83.70068359375 C 33.82865142822266 85.88996887207031 39.32870864868164 87.00002288818359 44.99999618530273 87.00002288818359 C 50.67128372192383 87.00002288818359 56.17134094238281 85.88996887207031 61.34736633300781 83.70068359375 C 66.34834289550781 81.58545684814453 70.84030914306641 78.55668640136719 74.69847869873047 74.69849395751953 C 78.55665588378906 70.84032440185547 81.58542633056641 66.34836578369141 83.70065307617188 61.34738159179688 C 85.88993835449219 56.17135620117188 87 50.67129898071289 87 45.0000114440918 C 87 39.3287239074707 85.88993835449219 33.82866668701172 83.70065307617188 28.65264129638672 C 81.58542633056641 23.65165710449219 78.55665588378906 19.15969848632812 74.69847869873047 15.30152893066406 C 70.84030914306641 11.44333648681641 66.34834289550781 8.414566040039062 61.34736633300781 6.299339294433594 C 56.17134094238281 4.110054016113281 50.67128372192383 3 44.99999618530273 3 M 44.99999618530273 0 C 69.85281372070312 0 90 20.14719390869141 90 45.0000114440918 C 90 69.85282897949219 69.85281372070312 90.00002288818359 44.99999618530273 90.00002288818359 C 20.14717864990234 90.00002288818359 -7.62939453125e-06 69.85282897949219 -7.62939453125e-06 45.0000114440918 C -7.62939453125e-06 20.14719390869141 20.14717864990234 0 44.99999618530273 0 Z" stroke="none" fill="#6c4dd8"/>
                    </g>
                  </g>
                </g>
              </g>
            </g>
          </g>
        </g>
      </g>
    </g>
    <g id="meeting_1900481_1_" data-name="meeting_1900481 (1)" transform="translate(215.441 5570)">
      <path id="Trazado_1057850" data-name="Trazado 1057850" d="M49.814,30h2.86a3.814,3.814,0,0,1,3.814,3.814v9.535a3.814,3.814,0,0,1-3.814,3.814H50.11A4.11,4.11,0,0,1,46,43.053V33.814A3.814,3.814,0,0,1,49.814,30Z" transform="translate(-2.093 -1.302)" fill="#cfcfcf"/>
      <path id="Trazado_1057851" data-name="Trazado 1057851" d="M13.674,30h-2.86A3.814,3.814,0,0,0,7,33.814v9.535a3.814,3.814,0,0,0,3.814,3.814h2.565a4.11,4.11,0,0,0,4.11-4.11V33.814A3.814,3.814,0,0,0,13.674,30Z" transform="translate(-0.279 -1.302)" fill="#cfcfcf"/>
      <path id="Trazado_1057852" data-name="Trazado 1057852" d="M16.239,44.308H13.674A3.814,3.814,0,0,1,9.86,40.494V30.959a3.789,3.789,0,0,1,.1-.851A3.81,3.81,0,0,0,7,33.819v9.535a3.814,3.814,0,0,0,3.814,3.814h2.565a4.1,4.1,0,0,0,3.947-3.024A4.086,4.086,0,0,1,16.239,44.308Z" transform="translate(-0.279 -1.307)" fill="#c2c2c2"/>
      <path id="Trazado_1057853" data-name="Trazado 1057853" d="M47.257,44.308h2.565a3.814,3.814,0,0,0,3.814-3.814V30.959a3.789,3.789,0,0,0-.1-.851A3.81,3.81,0,0,1,56.5,33.819v9.535a3.814,3.814,0,0,1-3.814,3.814H50.118a4.1,4.1,0,0,1-3.947-3.024A4.086,4.086,0,0,0,47.257,44.308Z" transform="translate(-2.1 -1.307)" fill="#c2c2c2"/>
      <path id="Trazado_1057854" data-name="Trazado 1057854" d="M40.465,25H21.4L9,59.326H52.861Z" transform="translate(-0.372 -1.07)" fill="#83ade6"/>
      <g id="Grupo_1223291" data-name="Grupo 1223291" transform="translate(21.977 26.791)">
        <path id="Trazado_1057855" data-name="Trazado 1057855" d="M39,40.954l3.814,3.814L43.767,40Z" transform="translate(-23.744 -28.558)" fill="#fe5f55"/>
        <path id="Trazado_1057856" data-name="Trazado 1057856" d="M27.767,28A4.768,4.768,0,0,0,23,32.767h4.767Z" transform="translate(-23 -28)" fill="#fe5f55"/>
        <path id="Trazado_1057857" data-name="Trazado 1057857" d="M30.767,31v4.767H26A4.767,4.767,0,1,0,30.767,31Z" transform="translate(-23.14 -28.14)" fill="#fe5f55"/>
      </g>
      <ellipse id="Elipse_12587" data-name="Elipse 12587" cx="5" cy="4.5" rx="5" ry="4.5" transform="translate(6.558 19.605)" fill="#ffdbac"/>
      <path id="Trazado_1057858" data-name="Trazado 1057858" d="M11.767,20a4.753,4.753,0,0,0-2.859,8.561,8.594,8.594,0,0,1,5.258-7.891A4.714,4.714,0,0,0,11.767,20Z" transform="translate(-0.279 -0.837)" fill="#495867"/>
      <ellipse id="Elipse_12588" data-name="Elipse 12588" cx="5" cy="4.5" rx="5" ry="4.5" transform="translate(44.558 19.605)" fill="#ffdbac"/>
      <path id="Trazado_1057859" data-name="Trazado 1057859" d="M51.883,20a4.753,4.753,0,0,1,2.859,8.561,8.594,8.594,0,0,0-5.258-7.891A4.714,4.714,0,0,1,51.883,20Z" transform="translate(-2.255 -0.837)" fill="#495867"/>
      <path id="Trazado_1057860" data-name="Trazado 1057860" d="M38.349,24.442H25V18.721A5.721,5.721,0,0,1,30.721,13h1.907a5.721,5.721,0,0,1,5.721,5.721Z" transform="translate(-1.116 -0.512)" fill="#cfcfcf"/>
      <path id="Trazado_1057861" data-name="Trazado 1057861" d="M32.86,13H30.954L30,17.767l1.907,3.814,1.907-3.814Z" transform="translate(-1.349 -0.512)" fill="#759acc"/>
      <circle id="Elipse_12589" data-name="Elipse 12589" cx="5" cy="5" r="5" transform="translate(25.558 2.605)" fill="#ffdbac"/>
      <path id="Trazado_1057862" data-name="Trazado 1057862" d="M31.783,6.814A14.1,14.1,0,0,0,36.235,6.1a4.746,4.746,0,0,0-8.9,0,14.1,14.1,0,0,0,4.452.712Z" transform="translate(-1.224 -0.047)" fill="#495867"/>
      <path id="Trazado_1057863" data-name="Trazado 1057863" d="M56.3,37.279v7.628a2.864,2.864,0,0,1-2.86,2.86H49.715l-.344-.953h1.211a4.773,4.773,0,0,0,4.767-4.767V32.512a4.757,4.757,0,0,0-2.26-4.037,5.722,5.722,0,1,0-7.3-.314,4.777,4.777,0,0,0-2.337,2.267L40.99,23.606a.953.953,0,0,0-.9-.629H38.186V18.209a6.681,6.681,0,0,0-3.968-6.1,5.721,5.721,0,1,0-7.319,0,6.681,6.681,0,0,0-3.968,6.1v4.767H21.023a.953.953,0,0,0-.9.629l-2.464,6.822a4.777,4.777,0,0,0-2.337-2.267,5.72,5.72,0,1,0-7.3.314,4.757,4.757,0,0,0-2.26,4.037v9.535a4.773,4.773,0,0,0,4.767,4.767h1.211l-.344.953H7.674a2.864,2.864,0,0,1-2.86-2.86V37.279a.954.954,0,0,0-.953-.953H1v1.907H2.907v6.674a4.773,4.773,0,0,0,4.767,4.767h3.039L7.732,57.932a.953.953,0,0,0,.9,1.278H52.489a.953.953,0,0,0,.9-1.278L50.4,49.675h3.039a4.773,4.773,0,0,0,4.767-4.767V38.233h1.907V36.326H57.256a.954.954,0,0,0-.953.953ZM49.628,20.116a3.81,3.81,0,0,1,3.506,5.311A9.478,9.478,0,0,0,49.6,20.119C49.607,20.119,49.617,20.116,49.628,20.116Zm-2.331.817a7.59,7.59,0,0,1,4.2,6.3,3.762,3.762,0,0,1-1.869.51A3.8,3.8,0,0,1,47.3,20.934ZM44.861,32.512a2.864,2.864,0,0,1,2.86-2.861h2.86a2.864,2.864,0,0,1,2.861,2.861v9.535a2.864,2.864,0,0,1-2.861,2.861h-1.9L44.861,34.326Zm-14.3-28.6a3.8,3.8,0,0,1,3.052,1.55,13.5,13.5,0,0,1-6.105,0A3.8,3.8,0,0,1,30.558,3.907ZM26.744,7.721a3.9,3.9,0,0,1,.048-.476,15.129,15.129,0,0,0,3.766.476,15.129,15.129,0,0,0,3.766-.476,3.9,3.9,0,0,1,.048.476,3.814,3.814,0,1,1-7.628,0Zm4.722,9.4-.908,1.815-.908-1.815.736-3.681h.343Zm-6.629,1.087a4.763,4.763,0,0,1,3.57-4.6l-.691,3.455a.956.956,0,0,0,.082.614L29.705,21.5a.954.954,0,0,0,1.707,0l1.907-3.814a.955.955,0,0,0,.082-.614l-.691-3.455a4.763,4.763,0,0,1,3.57,4.6v4.767H24.837ZM13.82,20.934a3.794,3.794,0,0,1-4.2,6.3A7.588,7.588,0,0,1,13.82,20.934ZM7.982,25.427a3.81,3.81,0,0,1,3.506-5.311c.011,0,.021,0,.032,0A9.478,9.478,0,0,0,7.982,25.427Zm2.553,19.48a2.864,2.864,0,0,1-2.86-2.861V32.512a2.864,2.864,0,0,1,2.86-2.861H13.4a2.864,2.864,0,0,1,2.86,2.861v1.814L12.434,44.907Zm40.6,12.4H9.986L21.693,24.884H39.424Z"/>
      <path id="Trazado_1057864" data-name="Trazado 1057864" d="M37.041,40.631a.953.953,0,0,0,.238.951l1.143,1.143-7.135,5.55-4.18-3.344a.953.953,0,0,0-1.086-.073l-9.535,5.721.981,1.635,8.967-5.38,4.25,3.4a.954.954,0,0,0,1.18.009l7.917-6.158L41.093,45.4a.954.954,0,0,0,1.61-.488l.953-4.767a.952.952,0,0,0-1.121-1.121l-4.767.953a.952.952,0,0,0-.727.658Zm4.464.539-.323,1.618-1.294-1.294Z" transform="translate(-0.72 -1.721)"/>
      <path id="Trazado_1057865" data-name="Trazado 1057865" d="M40,48h1.907V58.488H40Z" transform="translate(-1.814 -2.139)"/>
      <path id="Trazado_1057866" data-name="Trazado 1057866" d="M36,51h1.907v7.628H36Z" transform="translate(-1.628 -2.279)"/>
      <path id="Trazado_1057867" data-name="Trazado 1057867" d="M32,53h1.907v5.721H32Z" transform="translate(-1.442 -2.372)"/>
      <path id="Trazado_1057868" data-name="Trazado 1057868" d="M28,51h1.907v7.628H28Z" transform="translate(-1.256 -2.279)"/>
      <path id="Trazado_1057869" data-name="Trazado 1057869" d="M24,51h1.907v7.628H24Z" transform="translate(-1.07 -2.279)"/>
      <path id="Trazado_1057870" data-name="Trazado 1057870" d="M20,53h1.907v5.721H20Z" transform="translate(-0.884 -2.372)"/>
      <path id="Trazado_1057871" data-name="Trazado 1057871" d="M22.953,33.674h4.767a.954.954,0,0,0,.953-.953V27.954A.954.954,0,0,0,27.721,27,5.727,5.727,0,0,0,22,32.721.954.954,0,0,0,22.953,33.674Zm3.814-4.647v2.74h-2.74A3.83,3.83,0,0,1,26.767,29.027Z" transform="translate(-0.977 -1.163)"/>
      <path id="Trazado_1057872" data-name="Trazado 1057872" d="M25,35.721A5.721,5.721,0,1,0,30.721,30a.954.954,0,0,0-.954.954v3.814H25.953A.954.954,0,0,0,25,35.721Zm5.721.953a.954.954,0,0,0,.953-.953V32.027a3.815,3.815,0,1,1-4.647,4.647Z" transform="translate(-1.116 -1.302)"/>
    </g>
  </g>
</svg>
