<svg xmlns="http://www.w3.org/2000/svg" xmlns:xlink="http://www.w3.org/1999/xlink" width="108" height="108" viewBox="0 0 108 108">
  <defs>
    <filter id="Trazado_904820" x="0" y="0" width="108" height="108" filterUnits="userSpaceOnUse">
      <feOffset dy="3" input="SourceAlpha"/>
      <feGaussianBlur stdDeviation="3" result="blur"/>
      <feFlood flood-opacity="0.161"/>
      <feComposite operator="in" in2="blur"/>
      <feComposite in="SourceGraphic"/>
    </filter>
  </defs>
  <g id="Grupo_1223293" data-name="Grupo 1223293" transform="translate(-611.828 -5552)">
    <g id="Grupo_1223229" data-name="Grupo 1223229" transform="translate(620.828 5558)">
      <g id="Grupo_1173585" data-name="Grupo 1173585" transform="translate(0 0)">
        <g id="Grupo_1173428" data-name="Grupo 1173428">
          <g id="Grupo_1171958" data-name="Grupo 1171958">
            <g id="Grupo_1167341" data-name="Grupo 1167341">
              <g id="Grupo_1166792" data-name="Grupo 1166792">
                <g transform="matrix(1, 0, 0, 1, -9, -6)" filter="url(#Trazado_904820)">
                  <g id="Trazado_904820-2" data-name="Trazado 904820" transform="translate(9 6)" fill="#efecfa">
                    <path d="M 44.99999618530273 88.50002288818359 C 39.12687301635742 88.50002288818359 33.43022155761719 87.35009765625 28.06829643249512 85.08218383789062 C 22.88852119445801 82.89133453369141 18.23629570007324 79.75460815429688 14.24084663391113 75.75916290283203 C 10.24540901184082 71.76371002197266 7.108683586120605 67.11148834228516 4.917821407318115 61.93171310424805 C 2.649921178817749 56.56978607177734 1.499996185302734 50.87313461303711 1.499996185302734 45.0000114440918 C 1.499996185302734 39.12688827514648 2.649921178817749 33.43023681640625 4.917821407318115 28.06829833984375 C 7.108683586120605 22.88852310180664 10.24540901184082 18.2363109588623 14.24084663391113 14.2408618927002 C 18.23629570007324 10.24541187286377 22.88852119445801 7.108686447143555 28.06829643249512 4.917823791503906 C 33.43022155761719 2.649924039840698 39.12687301635742 1.499998927116394 44.99999618530273 1.499998927116394 C 50.87311935424805 1.499998927116394 56.56977081298828 2.649924039840698 61.93169784545898 4.917823791503906 C 67.11147308349609 7.108686447143555 71.76369476318359 10.24541187286377 75.75914764404297 14.2408618927002 C 79.75458526611328 18.2363109588623 82.89131164550781 22.88852310180664 85.08216857910156 28.06829833984375 C 87.35007476806641 33.43023681640625 88.5 39.12688827514648 88.5 45.0000114440918 C 88.5 50.87313461303711 87.35007476806641 56.56978607177734 85.08216857910156 61.93171310424805 C 82.89131164550781 67.11148834228516 79.75458526611328 71.76371002197266 75.75914764404297 75.75916290283203 C 71.76369476318359 79.75460815429688 67.11147308349609 82.89133453369141 61.93169784545898 85.08218383789062 C 56.56977081298828 87.35009765625 50.87311935424805 88.50002288818359 44.99999618530273 88.50002288818359 Z" stroke="none"/>
                    <path d="M 44.99999618530273 3 C 39.32870864868164 3 33.82865142822266 4.110054016113281 28.65262603759766 6.299339294433594 C 23.65165710449219 8.414566040039062 19.15968322753906 11.44333648681641 15.301513671875 15.30152893066406 C 11.44333648681641 19.15969848632812 8.414566040039062 23.65165710449219 6.299339294433594 28.65264129638672 C 4.110054016113281 33.82866668701172 2.999992370605469 39.3287239074707 2.999992370605469 45.0000114440918 C 2.999992370605469 50.67129898071289 4.110054016113281 56.17135620117188 6.299339294433594 61.34738159179688 C 8.414566040039062 66.34836578369141 11.44333648681641 70.84032440185547 15.301513671875 74.69849395751953 C 19.15968322753906 78.55668640136719 23.65165710449219 81.58545684814453 28.65262603759766 83.70068359375 C 33.82865142822266 85.88996887207031 39.32870864868164 87.00002288818359 44.99999618530273 87.00002288818359 C 50.67128372192383 87.00002288818359 56.17134094238281 85.88996887207031 61.34736633300781 83.70068359375 C 66.34834289550781 81.58545684814453 70.84030914306641 78.55668640136719 74.69847869873047 74.69849395751953 C 78.55665588378906 70.84032440185547 81.58542633056641 66.34836578369141 83.70065307617188 61.34738159179688 C 85.88993835449219 56.17135620117188 87 50.67129898071289 87 45.0000114440918 C 87 39.3287239074707 85.88993835449219 33.82866668701172 83.70065307617188 28.65264129638672 C 81.58542633056641 23.65165710449219 78.55665588378906 19.15969848632812 74.69847869873047 15.30152893066406 C 70.84030914306641 11.44333648681641 66.34834289550781 8.414566040039062 61.34736633300781 6.299339294433594 C 56.17134094238281 4.110054016113281 50.67128372192383 3 44.99999618530273 3 M 44.99999618530273 0 C 69.85281372070312 0 90 20.14719390869141 90 45.0000114440918 C 90 69.85282897949219 69.85281372070312 90.00002288818359 44.99999618530273 90.00002288818359 C 20.14717864990234 90.00002288818359 -7.62939453125e-06 69.85282897949219 -7.62939453125e-06 45.0000114440918 C -7.62939453125e-06 20.14719390869141 20.14717864990234 0 44.99999618530273 0 Z" stroke="none" fill="#6c4dd8"/>
                  </g>
                </g>
              </g>
            </g>
          </g>
        </g>
      </g>
    </g>
    <g id="data-report_12177091" transform="translate(639.342 5555.67)">
      <g id="Grupo_1223292" data-name="Grupo 1223292" transform="translate(0.74 23.987)">
        <path id="Trazado_1057873" data-name="Trazado 1057873" d="M53.833,30.249l32.209,0a4.862,4.862,0,0,1,4.669,4.842V75.7a1.235,1.235,0,0,1-1.23,1.23H63.517a4.855,4.855,0,0,1-4.842-4.842V37.445Z" transform="translate(-48.991 -30.249)" fill="#eaf6ff" fill-rule="evenodd"/>
        <path id="Trazado_1057874" data-name="Trazado 1057874" d="M193.308,61.249a7.977,7.977,0,1,1-10.9-2.919,7.977,7.977,0,0,1,10.9,2.919Z" transform="translate(-160.697 -54.467)" fill="#ffba57" fill-rule="evenodd"/>
        <path id="Trazado_1057875" data-name="Trazado 1057875" d="M202.579,95.842a7.977,7.977,0,0,1-13.817,7.975Z" transform="translate(-169.968 -89.06)" fill="#4bd16d" fill-rule="evenodd"/>
        <path id="Trazado_1057876" data-name="Trazado 1057876" d="M243.556,74.193l4.367-6.735.651-1.008a7.976,7.976,0,0,1,4.2,7.269l-1.2.062Z" transform="translate(-219.097 -62.706)" fill="#fa4655" fill-rule="evenodd"/>
        <path id="Trazado_1057877" data-name="Trazado 1057877" d="M152.932,397.721h27.326a4.86,4.86,0,0,0,4.279-4.81v-4.845H157.214v4.845A4.86,4.86,0,0,1,152.932,397.721Z" transform="translate(-137.843 -351.068)" fill="#d3dde6" fill-rule="evenodd"/>
        <path id="Trazado_1057878" data-name="Trazado 1057878" d="M335.836,176.187a7.778,7.778,0,0,1-.976,2.351l.451.753.548.917a9.55,9.55,0,0,1-1.867,1.867l-.917-.548-.753-.451a7.778,7.778,0,0,1-2.351.976l-.214.85-.264,1.038a9.628,9.628,0,0,1-2.638,0l-.261-1.038-.217-.85a7.793,7.793,0,0,1-2.347-.976l-.756.451-.917.548a9.634,9.634,0,0,1-1.867-1.867l.548-.917.451-.753a7.77,7.77,0,0,1-.973-2.351l-.85-.214-1.041-.264a9.616,9.616,0,0,1,0-2.638l1.041-.261.85-.214a7.77,7.77,0,0,1,.973-2.351l-.451-.753-.548-.92a9.721,9.721,0,0,1,1.867-1.867l.918.551.756.448a7.858,7.858,0,0,1,2.347-.973l.217-.85.261-1.041a9.941,9.941,0,0,1,2.638,0l.264,1.041.214.85a7.843,7.843,0,0,1,2.351.973l.753-.448.917-.551a9.63,9.63,0,0,1,1.867,1.867l-.548.92-.451.753a7.78,7.78,0,0,1,.976,2.351l.85.214,1.038.261a9.628,9.628,0,0,1,0,2.638l-1.038.264Z" transform="translate(-286.322 -150.845)" fill="#8d9ca8" fill-rule="evenodd"/>
        <path id="Trazado_1057879" data-name="Trazado 1057879" d="M365.049,216.071a4.83,4.83,0,1,1,4.83,4.83,4.83,4.83,0,0,1-4.83-4.83Z" transform="translate(-328.027 -192.526)" fill="#eaf6ff" fill-rule="evenodd"/>
        <path id="Trazado_1057880" data-name="Trazado 1057880" d="M7,45.23h9.684V35.094a4.842,4.842,0,1,0-9.684,0Z" transform="translate(-7.005 -30.249)" fill="#d3dde6" fill-rule="evenodd"/>
        <path id="Trazado_1057881" data-name="Trazado 1057881" d="M196.529,170.31a7.969,7.969,0,0,1-6.061-3.945,8.085,8.085,0,0,1-.387-.762l-1.319.762A7.978,7.978,0,0,0,196.529,170.31Z" transform="translate(-169.968 -151.607)" fill="#44bc62" fill-rule="evenodd"/>
        <path id="Trazado_1057882" data-name="Trazado 1057882" d="M180.831,68.457A7.983,7.983,0,0,1,187.268,57.3a7.979,7.979,0,0,0-7.755,11.921Z" transform="translate(-160.718 -54.462)" fill="#e6a74e" fill-rule="evenodd"/>
        <path id="Trazado_1057883" data-name="Trazado 1057883" d="M252.73,72.62l-7.087.366-.07,0L249.456,67a7.656,7.656,0,0,0-.882-.551l-.651,1.008-4.367,6.736,8.016-.414,1.2-.062a7.622,7.622,0,0,0-.041-1.1Z" transform="translate(-219.097 -62.704)" fill="#e63140" fill-rule="evenodd"/>
        <path id="Trazado_1057884" data-name="Trazado 1057884" d="M328.3,182.9l-.214-.85-.044-.012a7.723,7.723,0,0,1-2.307-.964l-.753.451-.053.032a7.878,7.878,0,0,0,1.448.492l.217.85.261,1.038a9.832,9.832,0,0,0,1.187.091h.132c.287,0,.571-.012.853-.038q-.233-.022-.466-.053Zm-2.565-15.2a7.8,7.8,0,0,1,2.307-.964l.044-.009.214-.85.261-1.041q.233-.031.466-.053-.422-.035-.853-.035h-.132a9.829,9.829,0,0,0-1.187.088l-.261,1.041-.217.85a7.664,7.664,0,0,0-1.448.492l.053.032Zm-2.99,11.586.448-.753a7.772,7.772,0,0,1-.973-2.351l-.85-.214-1.04-.264a9.925,9.925,0,0,1,0-2.638l1.04-.261.85-.214a7.845,7.845,0,0,1,.973-2.351l-.448-.753-.551-.92a9.92,9.92,0,0,1,1.158-1.272l-.079-.044-.917-.551a9.719,9.719,0,0,0-1.867,1.867l.548.92.451.753a7.768,7.768,0,0,0-.973,2.351l-.85.214-1.041.261a9.618,9.618,0,0,0,0,2.638l1.041.264.85.214a7.769,7.769,0,0,0,.973,2.351l-.451.753-.548.917a9.636,9.636,0,0,0,1.867,1.867l.917-.548.079-.047a9.548,9.548,0,0,1-1.158-1.272Z" transform="translate(-286.32 -150.847)" fill="#7a8b99" fill-rule="evenodd"/>
        <path id="Trazado_1057885" data-name="Trazado 1057885" d="M407.26,211.32a4.833,4.833,0,0,1,0,9.505c-.123.021-.246.038-.372.053.123.012.246.021.372.023h.132a4.83,4.83,0,1,0,0-9.661c-.044,0-.088,0-.132,0-.126,0-.249.012-.372.023C407.014,211.279,407.137,211.3,407.26,211.32Z" transform="translate(-365.54 -192.526)" fill="#d3dde6" fill-rule="evenodd"/>
      </g>
      <path id="Trazado_1057886" data-name="Trazado 1057886" d="M18.908,39.106h0a8.637,8.637,0,0,0,5.281,4.053,8.684,8.684,0,0,0,10.94-8.067.72.72,0,0,0,.006-.122,8.7,8.7,0,1,0-16.228,4.134ZM30.07,41.039a7.254,7.254,0,0,1-9.519-2.047l4.859-2.805,8.211-.423a7.241,7.241,0,0,1-3.551,5.276Zm2.655-9.908a7.208,7.208,0,0,1,.956,3.183l-7.105.366,3.869-5.971a7.213,7.213,0,0,1,2.281,2.422ZM19.433,32.879a7.25,7.25,0,0,1,9.725-4.844l-4.471,6.9-4.859,2.805a7.2,7.2,0,0,1-.4-4.862Zm-6.18,20.764a.722.722,0,0,1,.722-.722h2.055a.722.722,0,1,1,0,1.445H13.976A.722.722,0,0,1,13.254,53.643Zm2.777,4.249H13.976a.723.723,0,1,1,0-1.445h2.055a.723.723,0,1,1,0,1.445Zm-2.777-11.3a.722.722,0,0,1,.722-.722h2.055a.723.723,0,1,1,0,1.445H13.976A.722.722,0,0,1,13.254,46.594ZM30.52,57.169a.723.723,0,0,1-.722.722H18.555a.723.723,0,1,1,0-1.445H29.8A.723.723,0,0,1,30.52,57.169Zm0-10.575a.723.723,0,0,1-.723.723H18.555a.723.723,0,1,1,0-1.445H29.8A.723.723,0,0,1,30.52,46.594Zm0,3.526a.723.723,0,0,1-.722.722H18.555a.722.722,0,1,1,0-1.445H29.8a.722.722,0,0,1,.723.723Zm0,3.523a.723.723,0,0,1-.722.722H18.555a.722.722,0,1,1,0-1.445H29.8a.723.723,0,0,1,.723.723ZM13.254,50.12a.722.722,0,0,1,.722-.722h2.055a.722.722,0,1,1,0,1.445H13.976A.722.722,0,0,1,13.254,50.12Zm39.066-.569a.722.722,0,0,0,.538-.6,10.337,10.337,0,0,0,0-2.833.722.722,0,0,0-.54-.6l-1.474-.372a8.565,8.565,0,0,0-.726-1.749l.78-1.308a.723.723,0,0,0-.045-.807,10.348,10.348,0,0,0-2.007-2.007.722.722,0,0,0-.806-.044l-1.3.78a8.472,8.472,0,0,0-1.75-.724L44.611,37.8a.723.723,0,0,0-.6-.538c-.277-.038-.554-.063-.829-.079V28.829a5.582,5.582,0,0,0-5.362-5.561h-.026l-32.209,0A5.571,5.571,0,0,0,.017,28.829V38.968a.723.723,0,0,0,.723.723H9.7V65.83a5.5,5.5,0,0,0,1.632,3.929,5.648,5.648,0,0,0,3.932,1.635c4.65,0,9.377-.008,13.948-.016s9.295-.016,13.941-.016a.694.694,0,0,0,.084,0,5.566,5.566,0,0,0,4.918-5.527V60.986a.722.722,0,0,0-.722-.722H43.179V57.877c.275-.016.552-.041.829-.079a.723.723,0,0,0,.6-.538l.374-1.475a8.475,8.475,0,0,0,1.751-.727l1.3.78a.723.723,0,0,0,.807-.044,10.343,10.343,0,0,0,2.007-2.007.723.723,0,0,0,.044-.807l-.78-1.3a8.56,8.56,0,0,0,.726-1.75ZM1.462,38.245V28.829a4.12,4.12,0,0,1,8.239,0v9.416ZM11.146,65.83v-37A5.552,5.552,0,0,0,9.319,24.71l28.458,0a4.156,4.156,0,0,1,3.957,4.117v8.378c-.186.016-.372.035-.559.06a.723.723,0,0,0-.6.54L40.2,39.282a8.486,8.486,0,0,0-1.75.725l-1.306-.78a.722.722,0,0,0-.807.045,10.418,10.418,0,0,0-2.006,2.006.723.723,0,0,0-.045.807l.78,1.308a8.481,8.481,0,0,0-.724,1.749l-1.476.372a.723.723,0,0,0-.54.6,10.347,10.347,0,0,0,0,2.833.722.722,0,0,0,.538.6l1.476.374a8.554,8.554,0,0,0,.726,1.75l-.78,1.3a.723.723,0,0,0,.044.807,10.339,10.339,0,0,0,2.007,2.007.722.722,0,0,0,.807.044l1.306-.78a8.481,8.481,0,0,0,1.75.728l.372,1.473a.722.722,0,0,0,.6.54c.186.025.373.044.559.06v2.406H20.111a.722.722,0,0,0-.722.722v4.845a4.122,4.122,0,0,1-3.644,4.091.722.722,0,0,0-.128.027h-.341a4.119,4.119,0,0,1-4.129-4.12Zm35.565,0a4.121,4.121,0,0,1-3.6,4.087c-4.634,0-9.345.008-13.9.016-3.349.006-6.782.012-10.2.015a5.556,5.556,0,0,0,1.825-4.118V61.708H46.711Zm3.366-17.2a.723.723,0,0,0-.527.535,7.122,7.122,0,0,1-.886,2.135.723.723,0,0,0-.007.753l.742,1.24a8.878,8.878,0,0,1-1.05,1.049L47.11,53.6a.723.723,0,0,0-.753.007,7.049,7.049,0,0,1-2.132.886.722.722,0,0,0-.537.527l-.354,1.4a8.766,8.766,0,0,1-1.483,0l-.356-1.4a.722.722,0,0,0-.536-.525,7.06,7.06,0,0,1-2.13-.886.723.723,0,0,0-.752-.007l-1.243.742a8.886,8.886,0,0,1-1.05-1.049l.742-1.24a.722.722,0,0,0-.007-.753,7.124,7.124,0,0,1-.886-2.135.723.723,0,0,0-.527-.535l-1.4-.354c-.021-.25-.031-.5-.031-.742s.01-.491.031-.741l1.406-.356a.722.722,0,0,0,.525-.536,7.051,7.051,0,0,1,.883-2.13.722.722,0,0,0,.006-.753l-.742-1.242a8.978,8.978,0,0,1,1.05-1.05l1.243.742a.723.723,0,0,0,.752-.007,7.053,7.053,0,0,1,2.13-.883.723.723,0,0,0,.536-.525l.356-1.406a8.8,8.8,0,0,1,1.482,0l.354,1.4a.722.722,0,0,0,.537.527,7.042,7.042,0,0,1,2.132.883.723.723,0,0,0,.753.007l1.24-.742a8.9,8.9,0,0,1,1.05,1.05l-.742,1.242a.722.722,0,0,0,.007.753A7.134,7.134,0,0,1,49.55,45.9a.722.722,0,0,0,.524.533l1.4.356c.021.25.031.5.031.741s-.01.492-.032.742Zm-7.485-6.649a5.553,5.553,0,1,0,5.553,5.553,5.553,5.553,0,0,0-5.553-5.553Zm0,9.661A4.108,4.108,0,1,1,46.7,47.532a4.108,4.108,0,0,1-4.108,4.108Z" transform="translate(0)"/>
    </g>
  </g>
</svg>
