<svg xmlns="http://www.w3.org/2000/svg" xmlns:xlink="http://www.w3.org/1999/xlink" width="108" height="108" viewBox="0 0 108 108">
  <defs>
    <filter id="Trazado_904820" x="0" y="0" width="108" height="108" filterUnits="userSpaceOnUse">
      <feOffset dy="3" input="SourceAlpha"/>
      <feGaussianBlur stdDeviation="3" result="blur"/>
      <feFlood flood-opacity="0.161"/>
      <feComposite operator="in" in2="blur"/>
      <feComposite in="SourceGraphic"/>
    </filter>
  </defs>
  <g id="Grupo_1223295" data-name="Grupo 1223295" transform="translate(-1031.828 -5552)">
    <g id="Grupo_1223230" data-name="Grupo 1223230" transform="translate(1040.828 5558)">
      <g id="Grupo_1173585" data-name="Grupo 1173585" transform="translate(0 0)">
        <g id="Grupo_1173428" data-name="Grupo 1173428">
          <g id="Grupo_1171958" data-name="Grupo 1171958">
            <g id="Grupo_1167341" data-name="Grupo 1167341">
              <g id="Grupo_1166792" data-name="Grupo 1166792">
                <g transform="matrix(1, 0, 0, 1, -9, -6)" filter="url(#Trazado_904820)">
                  <g id="Trazado_904820-2" data-name="Trazado 904820" transform="translate(9 6)" fill="#efecfa">
                    <path d="M 44.99999618530273 88.50002288818359 C 39.12687301635742 88.50002288818359 33.43022155761719 87.35009765625 28.06829643249512 85.08218383789062 C 22.88852119445801 82.89133453369141 18.23629570007324 79.75460815429688 14.24084663391113 75.75916290283203 C 10.24540901184082 71.76371002197266 7.108683586120605 67.11148834228516 4.917821407318115 61.93171310424805 C 2.649921178817749 56.56978607177734 1.499996185302734 50.87313461303711 1.499996185302734 45.0000114440918 C 1.499996185302734 39.12688827514648 2.649921178817749 33.43023681640625 4.917821407318115 28.06829833984375 C 7.108683586120605 22.88852310180664 10.24540901184082 18.2363109588623 14.24084663391113 14.2408618927002 C 18.23629570007324 10.24541187286377 22.88852119445801 7.108686447143555 28.06829643249512 4.917823791503906 C 33.43022155761719 2.649924039840698 39.12687301635742 1.499998927116394 44.99999618530273 1.499998927116394 C 50.87311935424805 1.499998927116394 56.56977081298828 2.649924039840698 61.93169784545898 4.917823791503906 C 67.11147308349609 7.108686447143555 71.76369476318359 10.24541187286377 75.75914764404297 14.2408618927002 C 79.75458526611328 18.2363109588623 82.89131164550781 22.88852310180664 85.08216857910156 28.06829833984375 C 87.35007476806641 33.43023681640625 88.5 39.12688827514648 88.5 45.0000114440918 C 88.5 50.87313461303711 87.35007476806641 56.56978607177734 85.08216857910156 61.93171310424805 C 82.89131164550781 67.11148834228516 79.75458526611328 71.76371002197266 75.75914764404297 75.75916290283203 C 71.76369476318359 79.75460815429688 67.11147308349609 82.89133453369141 61.93169784545898 85.08218383789062 C 56.56977081298828 87.35009765625 50.87311935424805 88.50002288818359 44.99999618530273 88.50002288818359 Z" stroke="none"/>
                    <path d="M 44.99999618530273 3 C 39.32870864868164 3 33.82865142822266 4.110054016113281 28.65262603759766 6.299339294433594 C 23.65165710449219 8.414566040039062 19.15968322753906 11.44333648681641 15.301513671875 15.30152893066406 C 11.44333648681641 19.15969848632812 8.414566040039062 23.65165710449219 6.299339294433594 28.65264129638672 C 4.110054016113281 33.82866668701172 2.999992370605469 39.3287239074707 2.999992370605469 45.0000114440918 C 2.999992370605469 50.67129898071289 4.110054016113281 56.17135620117188 6.299339294433594 61.34738159179688 C 8.414566040039062 66.34836578369141 11.44333648681641 70.84032440185547 15.301513671875 74.69849395751953 C 19.15968322753906 78.55668640136719 23.65165710449219 81.58545684814453 28.65262603759766 83.70068359375 C 33.82865142822266 85.88996887207031 39.32870864868164 87.00002288818359 44.99999618530273 87.00002288818359 C 50.67128372192383 87.00002288818359 56.17134094238281 85.88996887207031 61.34736633300781 83.70068359375 C 66.34834289550781 81.58545684814453 70.84030914306641 78.55668640136719 74.69847869873047 74.69849395751953 C 78.55665588378906 70.84032440185547 81.58542633056641 66.34836578369141 83.70065307617188 61.34738159179688 C 85.88993835449219 56.17135620117188 87 50.67129898071289 87 45.0000114440918 C 87 39.3287239074707 85.88993835449219 33.82866668701172 83.70065307617188 28.65264129638672 C 81.58542633056641 23.65165710449219 78.55665588378906 19.15969848632812 74.69847869873047 15.30152893066406 C 70.84030914306641 11.44333648681641 66.34834289550781 8.414566040039062 61.34736633300781 6.299339294433594 C 56.17134094238281 4.110054016113281 50.67128372192383 3 44.99999618530273 3 M 44.99999618530273 0 C 69.85281372070312 0 90 20.14719390869141 90 45.0000114440918 C 90 69.85282897949219 69.85281372070312 90.00002288818359 44.99999618530273 90.00002288818359 C 20.14717864990234 90.00002288818359 -7.62939453125e-06 69.85282897949219 -7.62939453125e-06 45.0000114440918 C -7.62939453125e-06 20.14719390869141 20.14717864990234 0 44.99999618530273 0 Z" stroke="none" fill="#6c4dd8"/>
                  </g>
                </g>
              </g>
            </g>
          </g>
        </g>
      </g>
    </g>
    <g id="Training-study-learn-learning-presentation" transform="translate(1057.267 5573.874)">
      <path id="Trazado_1057887" data-name="Trazado 1057887" d="M3,51H54.685v3.564H3Z" transform="translate(-0.109 -5.335)" fill="#a78966"/>
      <path id="Trazado_1057888" data-name="Trazado 1057888" d="M6,55H52.338v5.347H6Z" transform="translate(-0.436 -5.771)" fill="#c0ab91"/>
      <path id="Trazado_1057889" data-name="Trazado 1057889" d="M51.556,3V6.564H7V3Z" transform="translate(-0.544 -0.109)" fill="#c0ab91"/>
      <path id="Trazado_1057890" data-name="Trazado 1057890" d="M51.556,35v3.564H7V35Z" transform="translate(-0.544 -3.593)" fill="#c0ab91"/>
      <path id="Trazado_1057891" data-name="Trazado 1057891" d="M9,7H49.991V31.951H9Z" transform="translate(-0.762 -0.544)" fill="#46f8ff"/>
      <path id="Trazado_1057892" data-name="Trazado 1057892" d="M51,7h3.564V31.951H51Z" transform="translate(-5.335 -0.544)" fill="#00d7df"/>
      <path id="Trazado_1057893" data-name="Trazado 1057893" d="M57,51h3.564v3.564H57Z" transform="translate(-5.989 -5.335)" fill="#806749"/>
      <g id="Grupo_1223294" data-name="Grupo 1223294" transform="translate(47.447 2.891)">
        <path id="Trazado_1057894" data-name="Trazado 1057894" d="M54,55h3.564v5.347H54Z" transform="translate(-53.109 -8.662)" fill="#a78966"/>
        <path id="Trazado_1057895" data-name="Trazado 1057895" d="M53,35h3.564v3.564H53Z" transform="translate(-53 -6.484)" fill="#a78966"/>
        <path id="Trazado_1057896" data-name="Trazado 1057896" d="M53,3h3.564V6.564H53Z" transform="translate(-53 -3)" fill="#a78966"/>
      </g>
      <path id="Trazado_1057897" data-name="Trazado 1057897" d="M51.258,44.347v5.347H37V44.347A5.347,5.347,0,0,1,42.347,39h3.564a5.347,5.347,0,0,1,5.347,5.347Z" transform="translate(-3.811 -4.029)" fill="#898890"/>
      <path id="Trazado_1057898" data-name="Trazado 1057898" d="M48.911,31.891v2.673a3.564,3.564,0,0,1-3.564,3.564H43.564A3.564,3.564,0,0,1,40,34.564V31.891L46.238,31Z" transform="translate(-4.138 -3.158)" fill="#ffc477"/>
      <path id="Trazado_1057899" data-name="Trazado 1057899" d="M48.911,30.564v.891l-2.673-.891L40,31.456v-.891A3.572,3.572,0,0,1,43.564,27h1.782a3.259,3.259,0,0,1,.891.116,3.557,3.557,0,0,1,2.673,3.449Z" transform="translate(-4.138 -2.722)" fill="#ffcd00"/>
      <path id="Trazado_1057900" data-name="Trazado 1057900" d="M52.129,44.347v5.347H50.347V44.347A5.347,5.347,0,0,0,45,39h1.782a5.347,5.347,0,0,1,5.347,5.347Z" transform="translate(-4.682 -4.029)" fill="#57565c"/>
      <path id="Trazado_1057901" data-name="Trazado 1057901" d="M49.347,31.927V34.6a3.564,3.564,0,0,1-3.564,3.564H44A3.564,3.564,0,0,0,47.564,34.6V31.33Z" transform="translate(-4.573 -3.194)" fill="#ffa733"/>
      <path id="Trazado_1057902" data-name="Trazado 1057902" d="M49.347,30.564v.891l-1.782-.6v-.294a3.557,3.557,0,0,0-2.673-3.449A3.259,3.259,0,0,0,44,27h1.782a3.259,3.259,0,0,1,.891.116,3.557,3.557,0,0,1,2.673,3.449Z" transform="translate(-4.573 -2.722)" fill="#ddb200"/>
      <path id="Trazado_1057903" data-name="Trazado 1057903" d="M46.564,39v5.347l-1.782,1.782L43,44.347V39Z" transform="translate(-4.464 -4.029)" fill="#ff3051"/>
      <path id="Trazado_1057904" data-name="Trazado 1057904" d="M46.782,39v5.347L45,46.129V39Z" transform="translate(-4.682 -4.029)" fill="#cd2a00"/>
      <path id="Trazado_1057905" data-name="Trazado 1057905" d="M46.347,11V25.374a3.259,3.259,0,0,0-.891-.116H43.673A3.55,3.55,0,0,0,41,26.47V11Z" transform="translate(-4.247 -0.98)" fill="#9cdd05"/>
      <path id="Trazado_1057906" data-name="Trazado 1057906" d="M29,15h5.347V32.822H29Z" transform="translate(-2.94 -1.416)" fill="#ffcd00"/>
      <path id="Trazado_1057907" data-name="Trazado 1057907" d="M25.258,44.347v5.347H11V44.347A5.347,5.347,0,0,1,16.347,39h3.564A5.347,5.347,0,0,1,25.258,44.347Z" transform="translate(-0.98 -4.029)" fill="#57a4ff"/>
      <path id="Trazado_1057908" data-name="Trazado 1057908" d="M22.911,31.891v2.673a3.564,3.564,0,0,1-3.564,3.564H17.564A3.564,3.564,0,0,1,14,34.564V31.891L20.238,31Z" transform="translate(-1.307 -3.158)" fill="#ffc477"/>
      <path id="Trazado_1057909" data-name="Trazado 1057909" d="M22.911,30.564v.891l-2.673-.891L14,31.456v-.891a3.557,3.557,0,0,1,2.673-3.449A3.259,3.259,0,0,1,17.564,27h1.782a3.572,3.572,0,0,1,3.564,3.564Z" transform="translate(-1.307 -2.722)" fill="#ffcd00"/>
      <path id="Trazado_1057910" data-name="Trazado 1057910" d="M22.347,19v8.341a3.55,3.55,0,0,0-2.673-1.212H17.891a3.259,3.259,0,0,0-.891.116V19Z" transform="translate(-1.633 -1.851)" fill="#ff3051"/>
      <path id="Trazado_1057911" data-name="Trazado 1057911" d="M46.673,11V25.374a3.259,3.259,0,0,0-.891-.116H44V11Z" transform="translate(-4.573 -0.98)" fill="#5eac24"/>
      <path id="Trazado_1057912" data-name="Trazado 1057912" d="M32,15h2.673V32.822H32Z" transform="translate(-3.267 -1.416)" fill="#ddb200"/>
      <path id="Trazado_1057913" data-name="Trazado 1057913" d="M22.673,19v8.341A3.55,3.55,0,0,0,20,26.129V19Z" transform="translate(-1.96 -1.851)" fill="#cd2a00"/>
      <path id="Trazado_1057914" data-name="Trazado 1057914" d="M20.564,39v5.347l-1.782,1.782L17,44.347V39h3.564Z" transform="translate(-1.633 -4.029)" fill="#ffde55"/>
      <path id="Trazado_1057915" data-name="Trazado 1057915" d="M26.129,44.347v5.347H24.347V44.347A5.347,5.347,0,0,0,19,39h1.782A5.347,5.347,0,0,1,26.129,44.347Z" transform="translate(-1.851 -4.029)" fill="#006df0"/>
      <path id="Trazado_1057916" data-name="Trazado 1057916" d="M23.347,31.927V34.6a3.564,3.564,0,0,1-3.564,3.564H18A3.564,3.564,0,0,0,21.564,34.6V31.33Z" transform="translate(-1.742 -3.194)" fill="#ffa733"/>
      <path id="Trazado_1057917" data-name="Trazado 1057917" d="M23.347,30.564v.891l-1.782-.6v-.294a3.557,3.557,0,0,0-2.673-3.449A3.259,3.259,0,0,0,18,27h1.782a3.259,3.259,0,0,1,.891.116,3.557,3.557,0,0,1,2.673,3.449Z" transform="translate(-1.742 -2.722)" fill="#ddb200"/>
      <path id="Trazado_1057918" data-name="Trazado 1057918" d="M20.782,39v5.347L19,46.129V39Z" transform="translate(-1.851 -4.029)" fill="#ffcd00"/>
      <path id="Trazado_1057919" data-name="Trazado 1057919" d="M54.576,44.773H48.338V40.318a6.211,6.211,0,0,0-1.88-4.456h4.554a.891.891,0,0,0,.891-.891V31.407a.891.891,0,0,0-.891-.891H50.12V7.347h.891a.891.891,0,0,0,.891-.891V2.891A.891.891,0,0,0,51.011,2H6.456a.891.891,0,0,0-.891.891V6.456a.891.891,0,0,0,.891.891h.891V30.516H6.456a.891.891,0,0,0-.891.891v3.564a.891.891,0,0,0,.891.891h4.554a6.211,6.211,0,0,0-1.88,4.456v4.456H2.891A.891.891,0,0,0,2,45.665v3.564a.891.891,0,0,0,.891.891H4.673v4.456a.891.891,0,0,0,.891.891H51.9a.891.891,0,0,0,.891-.891V50.12h1.782a.891.891,0,0,0,.891-.891V45.665A.891.891,0,0,0,54.576,44.773Zm-8.02-4.456v4.456H34.08V40.318a4.471,4.471,0,0,1,3.564-4.366v4.366a.921.921,0,0,0,.258.633l1.782,1.782a.9.9,0,0,0,1.265,0l1.782-1.782a.921.921,0,0,0,.258-.633V35.951a4.471,4.471,0,0,1,3.564,4.366ZM23.289,35.862H34.178a6.211,6.211,0,0,0-1.88,4.456v4.456H25.169V40.318a6.211,6.211,0,0,0-1.88-4.456ZM16.258,34.08a2.681,2.681,0,0,1-2.673-2.673v-1.9l5.266-.757,1.862.624v2.032A2.681,2.681,0,0,1,18.04,34.08Zm1.782,1.782v4.09l-.891.891-.891-.891v-4.09Zm0-10.693a2.673,2.673,0,0,1,2.638,2.317L19.216,27a.92.92,0,0,0-.41-.036l-5.2.74a2.663,2.663,0,0,1,2.656-2.531Zm-1.782-1.782V18.04h3.564v5.721a4.4,4.4,0,0,0-1.782-.374Zm-.891-7.129a.891.891,0,0,0-.891.891v6.612A4.468,4.468,0,0,0,11.8,27.842v2.673H9.129V7.347H48.338V30.516H45.665V27.842a4.468,4.468,0,0,0-2.673-4.081V10.02a.891.891,0,0,0-.891-.891H36.753a.891.891,0,0,0-.891.891V25.2a4.4,4.4,0,0,0-.891,2.647v2.673H32.3V13.584a.891.891,0,0,0-.891-.891H26.06a.891.891,0,0,0-.891.891V30.516H22.5V27.842A4.4,4.4,0,0,0,21.6,25.2V17.149a.891.891,0,0,0-.891-.891ZM39.427,34.08a2.681,2.681,0,0,1-2.673-2.673v-1.9l5.266-.757,1.862.624v2.032a2.681,2.681,0,0,1-2.673,2.673Zm1.782,1.782v4.09l-.891.891-.891-.891v-4.09ZM39.427,25.169h1.782a2.673,2.673,0,0,1,2.638,2.317L42.385,27a.92.92,0,0,0-.41-.036l-5.2.74a2.663,2.663,0,0,1,2.656-2.531Zm-1.782-1.408V10.911h3.564V23.387H39.427a4.4,4.4,0,0,0-1.782.374Zm-7.129-9.285v16.04H26.951V14.476ZM22.406,32.3H35.06a4.313,4.313,0,0,0,.829,1.782H21.578a4.313,4.313,0,0,0,.829-1.782ZM50.12,34.08H44.747a4.313,4.313,0,0,0,.829-1.782H50.12ZM7.347,3.782H50.12V5.564H7.347Zm0,30.3V32.3h4.545a4.313,4.313,0,0,0,.829,1.782Zm3.564,6.238a4.471,4.471,0,0,1,3.564-4.366v4.366a.921.921,0,0,0,.258.633l1.782,1.782a.9.9,0,0,0,1.265,0l1.782-1.782a.921.921,0,0,0,.258-.633V35.951a4.471,4.471,0,0,1,3.564,4.366v4.456H10.911Zm40.1,13.367H6.456V50.12H51.011Zm2.673-5.347H3.782V46.556h49.9Z"/>
    </g>
  </g>
</svg>
