<svg xmlns="http://www.w3.org/2000/svg" xmlns:xlink="http://www.w3.org/1999/xlink" width="108" height="108" viewBox="0 0 108 108">
  <defs>
    <filter id="Trazado_904820" x="0" y="0" width="108" height="108" filterUnits="userSpaceOnUse">
      <feOffset dy="3" input="SourceAlpha"/>
      <feGaussianBlur stdDeviation="3" result="blur"/>
      <feFlood flood-opacity="0.161"/>
      <feComposite operator="in" in2="blur"/>
      <feComposite in="SourceGraphic"/>
    </filter>
  </defs>
  <g id="Grupo_1223280" data-name="Grupo 1223280" transform="translate(-200 -434)">
    <g id="Grupo_1223210" data-name="Grupo 1223210" transform="translate(209 440)">
      <g id="Grupo_1173585" data-name="Grupo 1173585" transform="translate(0 0)">
        <g id="Grupo_1173428" data-name="Grupo 1173428">
          <g id="Grupo_1171958" data-name="Grupo 1171958">
            <g id="Grupo_1167341" data-name="Grupo 1167341">
              <g id="Grupo_1166792" data-name="Grupo 1166792">
                <g transform="matrix(1, 0, 0, 1, -9, -6)" filter="url(#Trazado_904820)">
                  <g id="Trazado_904820-2" data-name="Trazado 904820" transform="translate(9 6)" fill="#fdf6e4">
                    <path d="M 44.99999618530273 88.50002288818359 C 39.12687301635742 88.50002288818359 33.43022155761719 87.35009765625 28.06829643249512 85.08218383789062 C 22.88852119445801 82.89133453369141 18.23629570007324 79.75460815429688 14.24084663391113 75.75916290283203 C 10.24540901184082 71.76371002197266 7.108683586120605 67.11148834228516 4.917821407318115 61.93171310424805 C 2.649921178817749 56.56978607177734 1.499996185302734 50.87313461303711 1.499996185302734 45.0000114440918 C 1.499996185302734 39.12688827514648 2.649921178817749 33.43023681640625 4.917821407318115 28.06829833984375 C 7.108683586120605 22.88852310180664 10.24540901184082 18.2363109588623 14.24084663391113 14.2408618927002 C 18.23629570007324 10.24541187286377 22.88852119445801 7.108686447143555 28.06829643249512 4.917823791503906 C 33.43022155761719 2.649924039840698 39.12687301635742 1.499998927116394 44.99999618530273 1.499998927116394 C 50.87311935424805 1.499998927116394 56.56977081298828 2.649924039840698 61.93169784545898 4.917823791503906 C 67.11147308349609 7.108686447143555 71.76369476318359 10.24541187286377 75.75914764404297 14.2408618927002 C 79.75458526611328 18.2363109588623 82.89131164550781 22.88852310180664 85.08216857910156 28.06829833984375 C 87.35007476806641 33.43023681640625 88.5 39.12688827514648 88.5 45.0000114440918 C 88.5 50.87313461303711 87.35007476806641 56.56978607177734 85.08216857910156 61.93171310424805 C 82.89131164550781 67.11148834228516 79.75458526611328 71.76371002197266 75.75914764404297 75.75916290283203 C 71.76369476318359 79.75460815429688 67.11147308349609 82.89133453369141 61.93169784545898 85.08218383789062 C 56.56977081298828 87.35009765625 50.87311935424805 88.50002288818359 44.99999618530273 88.50002288818359 Z" stroke="none"/>
                    <path d="M 44.99999618530273 3 C 39.32870864868164 3 33.82865142822266 4.110054016113281 28.65262603759766 6.299339294433594 C 23.65165710449219 8.414566040039062 19.15968322753906 11.44333648681641 15.301513671875 15.30152893066406 C 11.44333648681641 19.15969848632812 8.414566040039062 23.65165710449219 6.299339294433594 28.65264129638672 C 4.110054016113281 33.82866668701172 2.999992370605469 39.3287239074707 2.999992370605469 45.0000114440918 C 2.999992370605469 50.67129898071289 4.110054016113281 56.17135620117188 6.299339294433594 61.34738159179688 C 8.414566040039062 66.34836578369141 11.44333648681641 70.84032440185547 15.301513671875 74.69849395751953 C 19.15968322753906 78.55668640136719 23.65165710449219 81.58545684814453 28.65262603759766 83.70068359375 C 33.82865142822266 85.88996887207031 39.32870864868164 87.00002288818359 44.99999618530273 87.00002288818359 C 50.67128372192383 87.00002288818359 56.17134094238281 85.88996887207031 61.34736633300781 83.70068359375 C 66.34834289550781 81.58545684814453 70.84030914306641 78.55668640136719 74.69847869873047 74.69849395751953 C 78.55665588378906 70.84032440185547 81.58542633056641 66.34836578369141 83.70065307617188 61.34738159179688 C 85.88993835449219 56.17135620117188 87 50.67129898071289 87 45.0000114440918 C 87 39.3287239074707 85.88993835449219 33.82866668701172 83.70065307617188 28.65264129638672 C 81.58542633056641 23.65165710449219 78.55665588378906 19.15969848632812 74.69847869873047 15.30152893066406 C 70.84030914306641 11.44333648681641 66.34834289550781 8.414566040039062 61.34736633300781 6.299339294433594 C 56.17134094238281 4.110054016113281 50.67128372192383 3 44.99999618530273 3 M 44.99999618530273 0 C 69.85281372070312 0 90 20.14719390869141 90 45.0000114440918 C 90 69.85282897949219 69.85281372070312 90.00002288818359 44.99999618530273 90.00002288818359 C 20.14717864990234 90.00002288818359 -7.62939453125e-06 69.85282897949219 -7.62939453125e-06 45.0000114440918 C -7.62939453125e-06 20.14719390869141 20.14717864990234 0 44.99999618530273 0 Z" stroke="none" fill="#856002"/>
                  </g>
                </g>
              </g>
            </g>
          </g>
        </g>
      </g>
    </g>
    <g id="Icon" transform="translate(218.756 452.756)">
      <g id="Grupo_1223279" data-name="Grupo 1223279" transform="translate(6 6)">
        <path id="Trazado_1057736" data-name="Trazado 1057736" d="M37.045,69.7,32,81.8a.5.5,0,0,1-.465.31H27.5a.5.5,0,0,1-.465-.7l5.042-12.1a.5.5,0,0,1,.465-.31H36.58a.5.5,0,0,1,.465.7Z" transform="translate(-16.411 -37.235)" fill="#00695c" fill-rule="evenodd"/>
        <path id="Trazado_1057737" data-name="Trazado 1057737" d="M40.93,36.244H10.5a.5.5,0,0,1-.5-.5V7.5a.5.5,0,0,1,.5-.5H55.883a.5.5,0,0,1,.5.5V33.469A17.159,17.159,0,0,0,40.93,36.244Z" transform="translate(-7.983 -6.496)" fill="#b2dfdb" fill-rule="evenodd"/>
        <circle id="Elipse_12581" data-name="Elipse 12581" cx="4.5" cy="4.5" r="4.5" transform="translate(36.244 12.244)" fill="#e57373"/>
        <path id="Trazado_1057738" data-name="Trazado 1057738" d="M36.379,67.034H7.5a.5.5,0,0,1-.5-.5V63.5a.5.5,0,0,1,.5-.5H40.91A17.25,17.25,0,0,0,36.379,67.034Z" transform="translate(-6.496 -34.26)" fill="#00897b" fill-rule="evenodd"/>
        <path id="Trazado_1057739" data-name="Trazado 1057739" d="M26.034,33.546v7.563H22V33.546a.5.5,0,0,1,.5-.5h3.025A.5.5,0,0,1,26.034,33.546Zm14.118,0v7.563H36.118V33.546a.5.5,0,0,1,.5-.5h3.025A.5.5,0,0,1,40.152,33.546ZM47.21,28.5V41.109H43.177V28.5a.5.5,0,0,1,.5-.5h3.025A.5.5,0,0,1,47.21,28.5Z" transform="translate(-13.933 -16.907)" fill="#4db6ac" fill-rule="evenodd"/>
        <path id="Trazado_1057740" data-name="Trazado 1057740" d="M40.034,42.5v5.546H36V42.5a.5.5,0,0,1,.5-.5h3.025A.5.5,0,0,1,40.034,42.5Z" transform="translate(-20.874 -23.848)" fill="#ef5350" fill-rule="evenodd"/>
        <path id="Trazado_1057741" data-name="Trazado 1057741" d="M72.3,13.695l-1.8,4.4a.5.5,0,0,1-.876.1l-2.95-4.089a.5.5,0,0,1,.375-.8L71.8,13a.5.5,0,0,1,.5.694Z" transform="translate(-36.038 -9.47)" fill="#ef5350" fill-rule="evenodd"/>
        <circle id="Elipse_12582" data-name="Elipse 12582" cx="15" cy="15" r="15" transform="translate(28.244 28.244)" fill="#ffad32"/>
        <path id="Trazado_1057742" data-name="Trazado 1057742" d="M81.593,81a12.418,12.418,0,0,1,6.272,1.909A19.3,19.3,0,0,1,92.1,86.36a.276.276,0,0,1,0,.372,19.3,19.3,0,0,1-4.24,3.451,11.255,11.255,0,0,1-12.544,0,19.3,19.3,0,0,1-4.24-3.451.276.276,0,0,1,0-.372,19.3,19.3,0,0,1,4.24-3.451A12.418,12.418,0,0,1,81.593,81Z" transform="translate(-38.231 -43.184)" fill="#e0f7fa" fill-rule="evenodd"/>
        <circle id="Elipse_12583" data-name="Elipse 12583" cx="5" cy="5" r="5" transform="translate(38.244 38.244)" fill="#7d90fe"/>
        <circle id="Elipse_12584" data-name="Elipse 12584" cx="2.5" cy="2.5" r="2.5" transform="translate(41.244 41.244)" fill="#3a48d6"/>
        <path id="Trazado_1057743" data-name="Trazado 1057743" d="M77.7,37.988a4.538,4.538,0,0,1,3.332-6.933v4.268Z" transform="translate(-41.201 -18.422)" fill="#ffeb3b" fill-rule="evenodd"/>
        <path id="Trazado_1057744" data-name="Trazado 1057744" d="M35.5,39.278H26.84l-4.783,11.48a1.008,1.008,0,0,1-.931.621H17.093a1.008,1.008,0,0,1-.931-1.4l4.46-10.7H7.008A1.008,1.008,0,0,1,6,38.269V35.244a1.008,1.008,0,0,1,1.008-1.008h.5V7.008A1.008,1.008,0,0,1,8.521,6H53.9a1.008,1.008,0,0,1,1.008,1.008V33.138a16.974,16.974,0,0,0-2.017-.554V8.017H9.529V34.236H41.293a17.2,17.2,0,0,0-2.973,2.017H8.017v1.008H37.224A17.3,17.3,0,0,0,35.5,39.278Zm-12.694,0-4.2,10.084h1.849l4.2-10.084ZM39.782,29.7H41.8a1.008,1.008,0,1,1,0,2.017H12.051a1.008,1.008,0,0,1,0-2.017h1.513V22.639a1.008,1.008,0,0,1,1.008-1.008H17.6a1.008,1.008,0,0,1,1.008,1.008V29.7h2.017V24.656a1.008,1.008,0,0,1,1.008-1.008h3.025a1.008,1.008,0,0,1,1.008,1.008V29.7h2.017V22.639a1.008,1.008,0,0,1,1.008-1.008h3.025a1.008,1.008,0,0,1,1.008,1.008V29.7H34.74V17.6a1.008,1.008,0,0,1,1.008-1.008h3.025A1.008,1.008,0,0,1,39.782,17.6Zm-2.017,0V18.605H36.757V29.7Zm-14.118,0V25.664H22.639V29.7Zm7.059,0V23.647H29.7V29.7Zm-14.118,0V23.647H15.58V29.7ZM38.264,13.752,23.683,22.987a1.009,1.009,0,0,1-1.163-.059l-6.4-5.025-3.908,3.473a1.009,1.009,0,0,1-1.34-1.508l4.538-4.034a1.009,1.009,0,0,1,1.293-.039l6.5,5.106,13.876-8.788-.847-1.174a1.008,1.008,0,0,1,.751-1.6l4.746-.316a1.009,1.009,0,0,1,1,1.387l-1.8,4.4a1.008,1.008,0,0,1-1.752.209Zm1.992-2.6-1.321.088.821,1.138ZM46.337,18.1a5.042,5.042,0,1,1-5.042,5.042A5.045,5.045,0,0,1,46.337,18.1Zm-1.545,7.643a3.025,3.025,0,1,0,2.554-5.454v2.853a1.008,1.008,0,0,1-.363.774Zm.537-5.454a3.028,3.028,0,0,0-1.829,3.9l1.829-1.524Zm4.034,13.945A15.126,15.126,0,1,1,34.236,49.362,15.134,15.134,0,0,1,49.362,34.236Zm0,2.017A13.109,13.109,0,1,0,62.471,49.362,13.116,13.116,0,0,0,49.362,36.253Zm0,6.051a11.66,11.66,0,0,1,6.53,2.31,20.972,20.972,0,0,1,4.362,4.145,1.007,1.007,0,0,1,0,1.207,20.972,20.972,0,0,1-4.362,4.145,11.66,11.66,0,0,1-6.53,2.31,11.66,11.66,0,0,1-6.53-2.31,20.972,20.972,0,0,1-4.362-4.145,1.007,1.007,0,0,1,0-1.207,20.972,20.972,0,0,1,4.362-4.145,11.66,11.66,0,0,1,6.53-2.31Zm-6,4.424a19.481,19.481,0,0,0-2.779,2.635A19.481,19.481,0,0,0,43.359,52a6.564,6.564,0,0,1,0-5.27Zm6-1.9A4.538,4.538,0,1,0,53.9,49.362,4.54,4.54,0,0,0,49.362,44.824Zm0,1.008a3.529,3.529,0,1,1-3.529,3.529A3.531,3.531,0,0,1,49.362,45.832Zm0,2.017a1.513,1.513,0,1,0,1.513,1.513A1.513,1.513,0,0,0,49.362,47.849Zm6,4.148a19.482,19.482,0,0,0,2.779-2.635,19.481,19.481,0,0,0-2.779-2.635,6.564,6.564,0,0,1,0,5.27Z" transform="translate(-6 -6)" fill-rule="evenodd"/>
      </g>
    </g>
  </g>
</svg>
