<svg xmlns="http://www.w3.org/2000/svg" xmlns:xlink="http://www.w3.org/1999/xlink" width="113" height="113" viewBox="0 0 113 113">
  <defs>
    <filter id="Trazado_982547" x="0" y="0" width="113" height="113" filterUnits="userSpaceOnUse">
      <feOffset dy="3" input="SourceAlpha"/>
      <feGaussianBlur stdDeviation="3" result="blur"/>
      <feFlood flood-opacity="0.161"/>
      <feComposite operator="in" in2="blur"/>
      <feComposite in="SourceGraphic"/>
    </filter>
  </defs>
  <g id="Grupo_1223297" data-name="Grupo 1223297" transform="translate(-792 -6547.443)">
    <g id="Grupo_1223233" data-name="Grupo 1223233" transform="translate(801 6553.443)">
      <g id="Grupo_1211208" data-name="Grupo 1211208" transform="translate(0)">
        <g id="Grupo_1210736" data-name="Grupo 1210736">
          <g id="Grupo_1210537" data-name="Grupo 1210537">
            <g id="Grupo_1164202" data-name="Grupo 1164202">
              <g id="Grupo_1158168" data-name="Grupo 1158168">
                <g id="Grupo_1152576" data-name="Grupo 1152576">
                  <g id="Grupo_1148633" data-name="Grupo 1148633">
                    <g id="Grupo_1148525" data-name="Grupo 1148525">
                      <g transform="matrix(1, 0, 0, 1, -9, -6)" filter="url(#Trazado_982547)">
                        <g id="Trazado_982547-2" data-name="Trazado 982547" transform="translate(9 6)" fill="#fdf6e4">
                          <path d="M 47.5 93.5 C 41.28937149047852 93.5 35.26533508300781 92.28397369384766 29.59518623352051 89.88570404052734 C 24.11771965026855 87.56893157958984 19.19813346862793 84.25196075439453 14.97309303283691 80.02691650390625 C 10.74804019927979 75.80186462402344 7.431066513061523 70.88229370117188 5.114293098449707 65.40481567382812 C 2.716026782989502 59.73468017578125 1.5 53.71062850952148 1.5 47.5 C 1.5 41.28937149047852 2.716026782989502 35.26533508300781 5.114293098449707 29.59518623352051 C 7.431066513061523 24.11771965026855 10.74804019927979 19.19813346862793 14.97309303283691 14.97309303283691 C 19.19813346862793 10.74804019927979 24.11771965026855 7.431066513061523 29.59518623352051 5.114293098449707 C 35.26533508300781 2.716026782989502 41.28937149047852 1.5 47.5 1.5 C 53.71062850952148 1.5 59.73468017578125 2.716026782989502 65.40481567382812 5.114293098449707 C 70.88229370117188 7.431066513061523 75.80186462402344 10.74804019927979 80.02691650390625 14.97309303283691 C 84.25196075439453 19.19813346862793 87.56893157958984 24.11771965026855 89.88570404052734 29.59518623352051 C 92.28397369384766 35.26533508300781 93.5 41.28937149047852 93.5 47.5 C 93.5 53.71062850952148 92.28397369384766 59.73468017578125 89.88570404052734 65.40481567382812 C 87.56893157958984 70.88229370117188 84.25196075439453 75.80186462402344 80.02691650390625 80.02691650390625 C 75.80186462402344 84.25196075439453 70.88229370117188 87.56893157958984 65.40481567382812 89.88570404052734 C 59.73468017578125 92.28397369384766 53.71062850952148 93.5 47.5 93.5 Z" stroke="none"/>
                          <path d="M 47.5 3 C 41.49121475219727 3 35.66376876831055 4.176155090332031 30.17950439453125 6.495796203613281 C 24.88084411621094 8.736953735351562 20.12152099609375 11.94598388671875 16.03375244140625 16.03375244140625 C 11.94598388671875 20.12152099609375 8.736953735351562 24.88084411621094 6.495796203613281 30.17950439453125 C 4.176155090332031 35.66376876831055 3 41.49121475219727 3 47.5 C 3 53.50878524780273 4.176155090332031 59.33623123168945 6.495796203613281 64.82049560546875 C 8.736953735351562 70.11915588378906 11.94598388671875 74.87847900390625 16.03375244140625 78.96624755859375 C 20.12152099609375 83.05401611328125 24.88084411621094 86.26304626464844 30.17950439453125 88.50419616699219 C 35.66376876831055 90.82384490966797 41.49121475219727 92 47.5 92 C 53.50878524780273 92 59.33623123168945 90.82384490966797 64.82049560546875 88.50419616699219 C 70.11915588378906 86.26304626464844 74.87847900390625 83.05401611328125 78.96624755859375 78.96624755859375 C 83.05401611328125 74.87847900390625 86.26304626464844 70.11915588378906 88.50419616699219 64.82049560546875 C 90.82384490966797 59.33623123168945 92 53.50878524780273 92 47.5 C 92 41.49121475219727 90.82384490966797 35.66376876831055 88.50419616699219 30.17950439453125 C 86.26304626464844 24.88084411621094 83.05401611328125 20.12152099609375 78.96624755859375 16.03375244140625 C 74.87847900390625 11.94598388671875 70.11915588378906 8.736953735351562 64.82049560546875 6.495796203613281 C 59.33623123168945 4.176155090332031 53.50878524780273 3 47.5 3 M 47.5 0 C 73.7335205078125 0 95 21.2664794921875 95 47.5 C 95 73.7335205078125 73.7335205078125 95 47.5 95 C 21.2664794921875 95 0 73.7335205078125 0 47.5 C 0 21.2664794921875 21.2664794921875 0 47.5 0 Z" stroke="none" fill="#f5b104"/>
                        </g>
                      </g>
                    </g>
                  </g>
                </g>
              </g>
            </g>
          </g>
        </g>
      </g>
    </g>
    <g id="bar-chart_656662" transform="translate(818.246 6531.429)">
      <path id="Trazado_1057920" data-name="Trazado 1057920" d="M11.13,299.307H21.653V278.261H11.13Z" transform="translate(-9.815 -206.116)" fill="#339eff"/>
      <path id="Trazado_1057921" data-name="Trazado 1057921" d="M144.7,142.267h10.523V100.174H144.7Z" transform="translate(-127.596 -49.075)" fill="#4cd964"/>
      <path id="Trazado_1057922" data-name="Trazado 1057922" d="M278.261,220.787h10.523v-31.57H278.261Z" transform="translate(-245.376 -127.595)" fill="#fc0"/>
      <path id="Trazado_1057923" data-name="Trazado 1057923" d="M411.826,103.007h10.523V55.652H411.826Z" transform="translate(-363.156 -9.815)" fill="#ff2c55"/>
      <g id="Grupo_1223296" data-name="Grupo 1223296" transform="translate(0 86.615)" opacity="0.24">
        <path id="Trazado_1057924" data-name="Trazado 1057924" d="M1.315,408.588A1.316,1.316,0,0,1,0,407.273v-5.262A1.316,1.316,0,0,1,1.315,400.7H11.839a1.316,1.316,0,0,1,1.315,1.315v5.262a1.316,1.316,0,0,1-1.315,1.315Zm15.785,0a1.316,1.316,0,0,1-1.315-1.315v-5.262A1.316,1.316,0,0,1,17.1,400.7H27.623a1.316,1.316,0,0,1,1.315,1.315v5.262a1.316,1.316,0,0,1-1.315,1.315Zm15.785,0a1.316,1.316,0,0,1-1.315-1.315v-5.262a1.316,1.316,0,0,1,1.315-1.315H43.408a1.316,1.316,0,0,1,1.315,1.315v5.262a1.316,1.316,0,0,1-1.315,1.315Zm15.785,0a1.316,1.316,0,0,1-1.315-1.315v-5.262A1.316,1.316,0,0,1,48.67,400.7H59.193a1.316,1.316,0,0,1,1.315,1.315v5.262a1.316,1.316,0,0,1-1.315,1.315Z" transform="translate(0 -400.696)"/>
      </g>
      <path id="Trazado_1057925" data-name="Trazado 1057925" d="M11.839,290.808H1.315A1.316,1.316,0,0,1,0,289.493V268.446a1.316,1.316,0,0,1,1.315-1.315H11.839a1.316,1.316,0,0,1,1.315,1.315v21.046A1.316,1.316,0,0,1,11.839,290.808Zm-9.208-2.631h7.892V269.762H2.631Z" transform="translate(0 -196.301)"/>
      <path id="Trazado_1057926" data-name="Trazado 1057926" d="M145.4,133.768H134.881a1.316,1.316,0,0,1-1.315-1.315V90.359a1.316,1.316,0,0,1,1.315-1.315H145.4a1.316,1.316,0,0,1,1.315,1.315v42.093A1.316,1.316,0,0,1,145.4,133.768Zm-9.208-2.631h7.892V91.675H136.2Z" transform="translate(-117.781 -39.26)"/>
      <path id="Trazado_1057927" data-name="Trazado 1057927" d="M278.97,212.288H268.446a1.316,1.316,0,0,1-1.315-1.315V179.4a1.316,1.316,0,0,1,1.315-1.315H278.97a1.316,1.316,0,0,1,1.315,1.315v31.57A1.316,1.316,0,0,1,278.97,212.288Zm-9.208-2.631h7.892V180.719h-7.892Z" transform="translate(-235.561 -117.781)"/>
      <path id="Trazado_1057928" data-name="Trazado 1057928" d="M412.535,94.507H402.012a1.316,1.316,0,0,1-1.315-1.315V45.837a1.316,1.316,0,0,1,1.315-1.315h10.523a1.316,1.316,0,0,1,1.315,1.315V93.192A1.316,1.316,0,0,1,412.535,94.507Zm-9.208-2.631h7.892V47.153h-7.892Z" transform="translate(-353.342)"/>
    </g>
  </g>
</svg>
