<svg xmlns="http://www.w3.org/2000/svg" xmlns:xlink="http://www.w3.org/1999/xlink" width="113" height="113" viewBox="0 0 113 113">
  <defs>
    <filter id="Trazado_982547" x="0" y="0" width="113" height="113" filterUnits="userSpaceOnUse">
      <feOffset dy="3" input="SourceAlpha"/>
      <feGaussianBlur stdDeviation="3" result="blur"/>
      <feFlood flood-opacity="0.161"/>
      <feComposite operator="in" in2="blur"/>
      <feComposite in="SourceGraphic"/>
    </filter>
  </defs>
  <g id="Grupo_1223298" data-name="Grupo 1223298" transform="translate(-1110.509 -6547.443)">
    <g id="Grupo_1223232" data-name="Grupo 1223232" transform="translate(1119.509 6553.443)">
      <g id="Grupo_1211209" data-name="Grupo 1211209">
        <g id="Grupo_1210737" data-name="Grupo 1210737">
          <g id="Grupo_1210537" data-name="Grupo 1210537">
            <g id="Grupo_1164202" data-name="Grupo 1164202">
              <g id="Grupo_1158168" data-name="Grupo 1158168">
                <g id="Grupo_1152576" data-name="Grupo 1152576">
                  <g id="Grupo_1148633" data-name="Grupo 1148633">
                    <g id="Grupo_1148525" data-name="Grupo 1148525">
                      <g transform="matrix(1, 0, 0, 1, -9, -6)" filter="url(#Trazado_982547)">
                        <g id="Trazado_982547-2" data-name="Trazado 982547" transform="translate(9 6)" fill="#fdf6e4">
                          <path d="M 47.5 93.5 C 41.28937149047852 93.5 35.26533508300781 92.28397369384766 29.59518623352051 89.88570404052734 C 24.11771965026855 87.56893157958984 19.19813346862793 84.25196075439453 14.97309303283691 80.02691650390625 C 10.74804019927979 75.80186462402344 7.431066513061523 70.88229370117188 5.114293098449707 65.40481567382812 C 2.716026782989502 59.73468017578125 1.5 53.71062850952148 1.5 47.5 C 1.5 41.28937149047852 2.716026782989502 35.26533508300781 5.114293098449707 29.59518623352051 C 7.431066513061523 24.11771965026855 10.74804019927979 19.19813346862793 14.97309303283691 14.97309303283691 C 19.19813346862793 10.74804019927979 24.11771965026855 7.431066513061523 29.59518623352051 5.114293098449707 C 35.26533508300781 2.716026782989502 41.28937149047852 1.5 47.5 1.5 C 53.71062850952148 1.5 59.73468017578125 2.716026782989502 65.40481567382812 5.114293098449707 C 70.88229370117188 7.431066513061523 75.80186462402344 10.74804019927979 80.02691650390625 14.97309303283691 C 84.25196075439453 19.19813346862793 87.56893157958984 24.11771965026855 89.88570404052734 29.59518623352051 C 92.28397369384766 35.26533508300781 93.5 41.28937149047852 93.5 47.5 C 93.5 53.71062850952148 92.28397369384766 59.73468017578125 89.88570404052734 65.40481567382812 C 87.56893157958984 70.88229370117188 84.25196075439453 75.80186462402344 80.02691650390625 80.02691650390625 C 75.80186462402344 84.25196075439453 70.88229370117188 87.56893157958984 65.40481567382812 89.88570404052734 C 59.73468017578125 92.28397369384766 53.71062850952148 93.5 47.5 93.5 Z" stroke="none"/>
                          <path d="M 47.5 3 C 41.49121475219727 3 35.66376876831055 4.176155090332031 30.17950439453125 6.495796203613281 C 24.88084411621094 8.736953735351562 20.12152099609375 11.94598388671875 16.03375244140625 16.03375244140625 C 11.94598388671875 20.12152099609375 8.736953735351562 24.88084411621094 6.495796203613281 30.17950439453125 C 4.176155090332031 35.66376876831055 3 41.49121475219727 3 47.5 C 3 53.50878524780273 4.176155090332031 59.33623123168945 6.495796203613281 64.82049560546875 C 8.736953735351562 70.11915588378906 11.94598388671875 74.87847900390625 16.03375244140625 78.96624755859375 C 20.12152099609375 83.05401611328125 24.88084411621094 86.26304626464844 30.17950439453125 88.50419616699219 C 35.66376876831055 90.82384490966797 41.49121475219727 92 47.5 92 C 53.50878524780273 92 59.33623123168945 90.82384490966797 64.82049560546875 88.50419616699219 C 70.11915588378906 86.26304626464844 74.87847900390625 83.05401611328125 78.96624755859375 78.96624755859375 C 83.05401611328125 74.87847900390625 86.26304626464844 70.11915588378906 88.50419616699219 64.82049560546875 C 90.82384490966797 59.33623123168945 92 53.50878524780273 92 47.5 C 92 41.49121475219727 90.82384490966797 35.66376876831055 88.50419616699219 30.17950439453125 C 86.26304626464844 24.88084411621094 83.05401611328125 20.12152099609375 78.96624755859375 16.03375244140625 C 74.87847900390625 11.94598388671875 70.11915588378906 8.736953735351562 64.82049560546875 6.495796203613281 C 59.33623123168945 4.176155090332031 53.50878524780273 3 47.5 3 M 47.5 0 C 73.7335205078125 0 95 21.2664794921875 95 47.5 C 95 73.7335205078125 73.7335205078125 95 47.5 95 C 21.2664794921875 95 0 73.7335205078125 0 47.5 C 0 21.2664794921875 21.2664794921875 0 47.5 0 Z" stroke="none" fill="#f5b104"/>
                        </g>
                      </g>
                    </g>
                  </g>
                </g>
              </g>
            </g>
          </g>
        </g>
      </g>
    </g>
    <g id="analytics_500957" transform="translate(1127.063 6572.825)">
      <rect id="Rectángulo_423342" data-name="Rectángulo 423342" width="10.984" height="32.225" transform="translate(50.67 9.333)" fill="#ffeeac"/>
      <rect id="Rectángulo_423343" data-name="Rectángulo 423343" width="10.984" height="13.58" transform="translate(50.67 41.557)" fill="#f9d973"/>
      <path id="Trazado_1057929" data-name="Trazado 1057929" d="M394.72,114.7a1.112,1.112,0,0,1-.421-.085,1.168,1.168,0,0,1-.19-.1,1.067,1.067,0,0,1-.3-.3,1.118,1.118,0,0,1-.164-.4,1.086,1.086,0,0,1-.022-.214,1.1,1.1,0,0,1,.022-.215,1.178,1.178,0,0,1,.063-.205,1.123,1.123,0,0,1,.1-.189,1.051,1.051,0,0,1,.136-.167,1.082,1.082,0,0,1,.357-.238,1.11,1.11,0,0,1,.205-.063,1.087,1.087,0,0,1,.429,0,1.11,1.11,0,0,1,.205.063,1.163,1.163,0,0,1,.19.1,1.255,1.255,0,0,1,.167.137,1.115,1.115,0,0,1,.237.356,1.163,1.163,0,0,1,.063.205,1.1,1.1,0,0,1,.022.215,1.082,1.082,0,0,1-.022.214,1.109,1.109,0,0,1-.063.205,1.134,1.134,0,0,1-.1.19,1.189,1.189,0,0,1-.136.167,1.105,1.105,0,0,1-.357.237,1.109,1.109,0,0,1-.205.063A1.089,1.089,0,0,1,394.72,114.7Z" transform="translate(-338.559 -100.147)"/>
      <rect id="Rectángulo_423344" data-name="Rectángulo 423344" width="10.984" height="19.607" transform="translate(19.108 35.531)" fill="#3b4268"/>
      <rect id="Rectángulo_423345" data-name="Rectángulo 423345" width="10.984" height="26.197" transform="translate(19.108 9.333)" fill="#21d8de"/>
      <rect id="Rectángulo_423346" data-name="Rectángulo 423346" width="10.984" height="19.044" transform="translate(34.888 9.333)" fill="#e93233"/>
      <rect id="Rectángulo_423347" data-name="Rectángulo 423347" width="10.984" height="26.76" transform="translate(34.888 28.377)" fill="#f77935"/>
      <path id="Trazado_1057930" data-name="Trazado 1057930" d="M107.377,114.707a1.1,1.1,0,0,1-.215-.022,1.158,1.158,0,0,1-.205-.063,1.112,1.112,0,0,1-.189-.1,1.051,1.051,0,0,1-.167-.136,1.182,1.182,0,0,1-.137-.167,1.092,1.092,0,0,1-.163-.4,1.06,1.06,0,0,1,0-.429,1.15,1.15,0,0,1,.062-.205,1.1,1.1,0,0,1,.594-.594,1.158,1.158,0,0,1,.205-.063,1.109,1.109,0,0,1,.992.3,1.052,1.052,0,0,1,.136.167,1.115,1.115,0,0,1,.1.189,1.162,1.162,0,0,1,.063.205,1.066,1.066,0,0,1,0,.429,1.109,1.109,0,0,1-.063.205,1.13,1.13,0,0,1-.1.19,1.114,1.114,0,0,1-.136.167,1.051,1.051,0,0,1-.167.136,1.085,1.085,0,0,1-.19.1,1.106,1.106,0,0,1-.205.063A1.082,1.082,0,0,1,107.377,114.707Z" transform="translate(-82.777 -100.153)"/>
      <path id="Trazado_1057931" data-name="Trazado 1057931" d="M251.049,289.611a1.079,1.079,0,0,1-.214-.022,1.106,1.106,0,0,1-.205-.063,1.084,1.084,0,0,1-.19-.1,1.052,1.052,0,0,1-.167-.136,1.1,1.1,0,0,1,0-1.553,1.053,1.053,0,0,1,.167-.136,1.088,1.088,0,0,1,.19-.1,1.029,1.029,0,0,1,.205-.063,1.087,1.087,0,0,1,.429,0,1.073,1.073,0,0,1,.205.063,1.115,1.115,0,0,1,.189.1,1.051,1.051,0,0,1,.167.136,1.1,1.1,0,0,1,0,1.553,1.051,1.051,0,0,1-.167.136,1.11,1.11,0,0,1-.189.1,1.16,1.16,0,0,1-.205.063A1.1,1.1,0,0,1,251.049,289.611Z" transform="translate(-210.669 -255.846)"/>
      <path id="Trazado_1057932" data-name="Trazado 1057932" d="M65.506,54.039H62.751V9.333a1.1,1.1,0,0,0-1.1-1.1H50.669a1.1,1.1,0,0,0-1.1,1.1V54.039h-2.6V9.333a1.1,1.1,0,0,0-1.1-1.1H34.889a1.1,1.1,0,0,0-1.1,1.1V54.039h-2.6V9.333a1.1,1.1,0,0,0-1.1-1.1H19.108a1.1,1.1,0,0,0-1.1,1.1V54.039H15.485V1.1a1.1,1.1,0,0,0-2.2,0V55.138a1.1,1.1,0,0,0,1.1,1.1h51.12a1.1,1.1,0,0,0,0-2.2ZM51.768,10.431h8.787V40.459h-3.3V18.047a1.1,1.1,0,1,0-2.2,0V40.459h-3.3Zm-15.78,0h8.787V27.279H35.987V10.431Zm-15.78,0h8.787v24H25.7V18.047a1.1,1.1,0,1,0-2.2,0V34.432h-3.3S20.207,10.431,20.207,10.431Zm0,43.608V36.628h8.787V54.039Zm21.272,0V37.258a1.1,1.1,0,1,0-2.2,0V54.039h-3.3V29.476h8.787V54.039Zm10.289,0V42.656h8.787V54.039Z"/>
    </g>
  </g>
</svg>
