<svg xmlns="http://www.w3.org/2000/svg" xmlns:xlink="http://www.w3.org/1999/xlink" width="113" height="113" viewBox="0 0 113 113">
  <defs>
    <filter id="Trazado_982547" x="0" y="0" width="113" height="113" filterUnits="userSpaceOnUse">
      <feOffset dy="3" input="SourceAlpha"/>
      <feGaussianBlur stdDeviation="3" result="blur"/>
      <feFlood flood-opacity="0.161"/>
      <feComposite operator="in" in2="blur"/>
      <feComposite in="SourceGraphic"/>
    </filter>
  </defs>
  <g id="Grupo_1223304" data-name="Grupo 1223304" transform="translate(-5599.509 -6547.443)">
    <g id="Grupo_1223234" data-name="Grupo 1223234" transform="translate(5608.509 6553.443)">
      <g id="Grupo_1211209" data-name="Grupo 1211209">
        <g id="Grupo_1210737" data-name="Grupo 1210737">
          <g id="Grupo_1210537" data-name="Grupo 1210537">
            <g id="Grupo_1164202" data-name="Grupo 1164202">
              <g id="Grupo_1158168" data-name="Grupo 1158168">
                <g id="Grupo_1152576" data-name="Grupo 1152576">
                  <g id="Grupo_1148633" data-name="Grupo 1148633">
                    <g id="Grupo_1148525" data-name="Grupo 1148525">
                      <g transform="matrix(1, 0, 0, 1, -9, -6)" filter="url(#Trazado_982547)">
                        <g id="Trazado_982547-2" data-name="Trazado 982547" transform="translate(9 6)" fill="#fdf6e4">
                          <path d="M 47.5 93.5 C 41.28937149047852 93.5 35.26533508300781 92.28397369384766 29.59518623352051 89.88570404052734 C 24.11771965026855 87.56893157958984 19.19813346862793 84.25196075439453 14.97309303283691 80.02691650390625 C 10.74804019927979 75.80186462402344 7.431066513061523 70.88229370117188 5.114293098449707 65.40481567382812 C 2.716026782989502 59.73468017578125 1.5 53.71062850952148 1.5 47.5 C 1.5 41.28937149047852 2.716026782989502 35.26533508300781 5.114293098449707 29.59518623352051 C 7.431066513061523 24.11771965026855 10.74804019927979 19.19813346862793 14.97309303283691 14.97309303283691 C 19.19813346862793 10.74804019927979 24.11771965026855 7.431066513061523 29.59518623352051 5.114293098449707 C 35.26533508300781 2.716026782989502 41.28937149047852 1.5 47.5 1.5 C 53.71062850952148 1.5 59.73468017578125 2.716026782989502 65.40481567382812 5.114293098449707 C 70.88229370117188 7.431066513061523 75.80186462402344 10.74804019927979 80.02691650390625 14.97309303283691 C 84.25196075439453 19.19813346862793 87.56893157958984 24.11771965026855 89.88570404052734 29.59518623352051 C 92.28397369384766 35.26533508300781 93.5 41.28937149047852 93.5 47.5 C 93.5 53.71062850952148 92.28397369384766 59.73468017578125 89.88570404052734 65.40481567382812 C 87.56893157958984 70.88229370117188 84.25196075439453 75.80186462402344 80.02691650390625 80.02691650390625 C 75.80186462402344 84.25196075439453 70.88229370117188 87.56893157958984 65.40481567382812 89.88570404052734 C 59.73468017578125 92.28397369384766 53.71062850952148 93.5 47.5 93.5 Z" stroke="none"/>
                          <path d="M 47.5 3 C 41.49121475219727 3 35.66376876831055 4.176155090332031 30.17950439453125 6.495796203613281 C 24.88084411621094 8.736953735351562 20.12152099609375 11.94598388671875 16.03375244140625 16.03375244140625 C 11.94598388671875 20.12152099609375 8.736953735351562 24.88084411621094 6.495796203613281 30.17950439453125 C 4.176155090332031 35.66376876831055 3 41.49121475219727 3 47.5 C 3 53.50878524780273 4.176155090332031 59.33623123168945 6.495796203613281 64.82049560546875 C 8.736953735351562 70.11915588378906 11.94598388671875 74.87847900390625 16.03375244140625 78.96624755859375 C 20.12152099609375 83.05401611328125 24.88084411621094 86.26304626464844 30.17950439453125 88.50419616699219 C 35.66376876831055 90.82384490966797 41.49121475219727 92 47.5 92 C 53.50878524780273 92 59.33623123168945 90.82384490966797 64.82049560546875 88.50419616699219 C 70.11915588378906 86.26304626464844 74.87847900390625 83.05401611328125 78.96624755859375 78.96624755859375 C 83.05401611328125 74.87847900390625 86.26304626464844 70.11915588378906 88.50419616699219 64.82049560546875 C 90.82384490966797 59.33623123168945 92 53.50878524780273 92 47.5 C 92 41.49121475219727 90.82384490966797 35.66376876831055 88.50419616699219 30.17950439453125 C 86.26304626464844 24.88084411621094 83.05401611328125 20.12152099609375 78.96624755859375 16.03375244140625 C 74.87847900390625 11.94598388671875 70.11915588378906 8.736953735351562 64.82049560546875 6.495796203613281 C 59.33623123168945 4.176155090332031 53.50878524780273 3 47.5 3 M 47.5 0 C 73.7335205078125 0 95 21.2664794921875 95 47.5 C 95 73.7335205078125 73.7335205078125 95 47.5 95 C 21.2664794921875 95 0 73.7335205078125 0 47.5 C 0 21.2664794921875 21.2664794921875 0 47.5 0 Z" stroke="none" fill="#f5b104"/>
                        </g>
                      </g>
                    </g>
                  </g>
                </g>
              </g>
            </g>
          </g>
        </g>
      </g>
    </g>
    <g id="statistic_3297468" transform="translate(5614.813 6552.081)">
      <g id="Grupo_1223302" data-name="Grupo 1223302" transform="translate(7.215 26.712)">
        <path id="Trazado_1057933" data-name="Trazado 1057933" d="M67.915,78.19a4.61,4.61,0,1,0-4.61-4.61A4.61,4.61,0,0,0,67.915,78.19Z" transform="translate(-29.745 -43.804)" fill="#e7c552" fill-rule="evenodd"/>
        <g id="Grupo_1223299" data-name="Grupo 1223299" transform="translate(0 25.166)">
          <path id="Trazado_1057934" data-name="Trazado 1057934" d="M12.611,78.19A4.61,4.61,0,1,0,8,73.58,4.61,4.61,0,0,0,12.611,78.19Z" transform="translate(-8.001 -68.97)" fill="#58b3cc" fill-rule="evenodd"/>
          <path id="Trazado_1057935" data-name="Trazado 1057935" d="M14.249,77.311a2.073,2.073,0,1,0-2.081-2.081A2.088,2.088,0,0,0,14.249,77.311Z" transform="translate(-9.639 -70.619)" fill="#04a6c3" fill-rule="evenodd"/>
        </g>
        <g id="Grupo_1223300" data-name="Grupo 1223300" transform="translate(16.771 8.377)">
          <path id="Trazado_1057936" data-name="Trazado 1057936" d="M40.266,50.541a4.619,4.619,0,1,0-4.627-4.61A4.633,4.633,0,0,0,40.266,50.541Z" transform="translate(-35.639 -41.303)" fill="#b0c56a" fill-rule="evenodd"/>
          <path id="Trazado_1057937" data-name="Trazado 1057937" d="M41.915,49.645a2.073,2.073,0,1,0-2.081-2.064A2.07,2.07,0,0,0,41.915,49.645Z" transform="translate(-37.288 -42.953)" fill="#9eba47" fill-rule="evenodd"/>
        </g>
        <path id="Trazado_1057938" data-name="Trazado 1057938" d="M69.553,77.311a2.073,2.073,0,1,0-2.081-2.081A2.078,2.078,0,0,0,69.553,77.311Z" transform="translate(-31.384 -45.453)" fill="#e1ba21" fill-rule="evenodd"/>
        <g id="Grupo_1223301" data-name="Grupo 1223301" transform="translate(58.725)">
          <path id="Trazado_1057939" data-name="Trazado 1057939" d="M109.4,36.719a4.61,4.61,0,1,0-4.627-4.61A4.621,4.621,0,0,0,109.4,36.719Z" transform="translate(-104.775 -27.498)" fill="#e1786a" fill-rule="evenodd"/>
          <path id="Trazado_1057940" data-name="Trazado 1057940" d="M111.051,35.828a2.082,2.082,0,1,0-2.081-2.081A2.086,2.086,0,0,0,111.051,35.828Z" transform="translate(-106.424 -29.136)" fill="#da5751" fill-rule="evenodd"/>
        </g>
      </g>
      <g id="Grupo_1223303" data-name="Grupo 1223303" transform="translate(6.001 25.499)">
        <path id="Trazado_1057941" data-name="Trazado 1057941" d="M72.622,93.833H70.195v1.416H47.44V93.833H45.013v1.416H30.669V93.833H28.242v1.416H13.881V93.833H11.453v1.416H8.143v2.427h3.31v1.416h2.427V97.677H28.242v1.416h2.427V97.677H45.013v1.416H47.44V97.677H70.195v1.416h2.427V97.677h3.4V95.249h-3.4Z" transform="translate(-6.843 -52.366)"/>
        <path id="Trazado_1057942" data-name="Trazado 1057942" d="M11.825,62.312a5.815,5.815,0,0,0,4.888-8.979L25.435,44.6a5.8,5.8,0,0,0,6.343,0L40.5,53.334a5.823,5.823,0,1,0,9.776,0L67.4,36.208A5.832,5.832,0,1,0,65.677,34.5L48.56,51.614a5.788,5.788,0,0,0-6.35,0l-8.716-8.731a5.829,5.829,0,0,0-4.881-9.007,5.848,5.848,0,0,0-5.841,5.841,5.773,5.773,0,0,0,.944,3.164L15,51.613a5.821,5.821,0,1,0-3.175,10.7ZM70.566,27.926a3.4,3.4,0,1,1-3.413,3.4A3.4,3.4,0,0,1,70.566,27.926ZM45.384,53.092a3.4,3.4,0,1,1-3.4,3.4A3.4,3.4,0,0,1,45.384,53.092ZM28.613,36.3A3.405,3.405,0,1,1,25.2,39.717,3.409,3.409,0,0,1,28.613,36.3ZM11.825,53.092a3.4,3.4,0,1,1-3.4,3.4A3.4,3.4,0,0,1,11.825,53.092Z" transform="translate(-6.001 -25.499)"/>
      </g>
    </g>
  </g>
</svg>
