<svg xmlns="http://www.w3.org/2000/svg" xmlns:xlink="http://www.w3.org/1999/xlink" width="113" height="113" viewBox="0 0 113 113">
  <defs>
    <filter id="Trazado_982547" x="0" y="0" width="113" height="113" filterUnits="userSpaceOnUse">
      <feOffset dy="3" input="SourceAlpha"/>
      <feGaussianBlur stdDeviation="3" result="blur"/>
      <feFlood flood-opacity="0.161"/>
      <feComposite operator="in" in2="blur"/>
      <feComposite in="SourceGraphic"/>
    </filter>
  </defs>
  <g id="Grupo_1223306" data-name="Grupo 1223306" transform="translate(-5941.509 -6547.443)">
    <g id="Grupo_1223235" data-name="Grupo 1223235" transform="translate(5950.509 6553.443)">
      <g id="Grupo_1211209" data-name="Grupo 1211209">
        <g id="Grupo_1210737" data-name="Grupo 1210737">
          <g id="Grupo_1210537" data-name="Grupo 1210537">
            <g id="Grupo_1164202" data-name="Grupo 1164202">
              <g id="Grupo_1158168" data-name="Grupo 1158168">
                <g id="Grupo_1152576" data-name="Grupo 1152576">
                  <g id="Grupo_1148633" data-name="Grupo 1148633">
                    <g id="Grupo_1148525" data-name="Grupo 1148525">
                      <g transform="matrix(1, 0, 0, 1, -9, -6)" filter="url(#Trazado_982547)">
                        <g id="Trazado_982547-2" data-name="Trazado 982547" transform="translate(9 6)" fill="#fdf6e4">
                          <path d="M 47.5 93.5 C 41.28937149047852 93.5 35.26533508300781 92.28397369384766 29.59518623352051 89.88570404052734 C 24.11771965026855 87.56893157958984 19.19813346862793 84.25196075439453 14.97309303283691 80.02691650390625 C 10.74804019927979 75.80186462402344 7.431066513061523 70.88229370117188 5.114293098449707 65.40481567382812 C 2.716026782989502 59.73468017578125 1.5 53.71062850952148 1.5 47.5 C 1.5 41.28937149047852 2.716026782989502 35.26533508300781 5.114293098449707 29.59518623352051 C 7.431066513061523 24.11771965026855 10.74804019927979 19.19813346862793 14.97309303283691 14.97309303283691 C 19.19813346862793 10.74804019927979 24.11771965026855 7.431066513061523 29.59518623352051 5.114293098449707 C 35.26533508300781 2.716026782989502 41.28937149047852 1.5 47.5 1.5 C 53.71062850952148 1.5 59.73468017578125 2.716026782989502 65.40481567382812 5.114293098449707 C 70.88229370117188 7.431066513061523 75.80186462402344 10.74804019927979 80.02691650390625 14.97309303283691 C 84.25196075439453 19.19813346862793 87.56893157958984 24.11771965026855 89.88570404052734 29.59518623352051 C 92.28397369384766 35.26533508300781 93.5 41.28937149047852 93.5 47.5 C 93.5 53.71062850952148 92.28397369384766 59.73468017578125 89.88570404052734 65.40481567382812 C 87.56893157958984 70.88229370117188 84.25196075439453 75.80186462402344 80.02691650390625 80.02691650390625 C 75.80186462402344 84.25196075439453 70.88229370117188 87.56893157958984 65.40481567382812 89.88570404052734 C 59.73468017578125 92.28397369384766 53.71062850952148 93.5 47.5 93.5 Z" stroke="none"/>
                          <path d="M 47.5 3 C 41.49121475219727 3 35.66376876831055 4.176155090332031 30.17950439453125 6.495796203613281 C 24.88084411621094 8.736953735351562 20.12152099609375 11.94598388671875 16.03375244140625 16.03375244140625 C 11.94598388671875 20.12152099609375 8.736953735351562 24.88084411621094 6.495796203613281 30.17950439453125 C 4.176155090332031 35.66376876831055 3 41.49121475219727 3 47.5 C 3 53.50878524780273 4.176155090332031 59.33623123168945 6.495796203613281 64.82049560546875 C 8.736953735351562 70.11915588378906 11.94598388671875 74.87847900390625 16.03375244140625 78.96624755859375 C 20.12152099609375 83.05401611328125 24.88084411621094 86.26304626464844 30.17950439453125 88.50419616699219 C 35.66376876831055 90.82384490966797 41.49121475219727 92 47.5 92 C 53.50878524780273 92 59.33623123168945 90.82384490966797 64.82049560546875 88.50419616699219 C 70.11915588378906 86.26304626464844 74.87847900390625 83.05401611328125 78.96624755859375 78.96624755859375 C 83.05401611328125 74.87847900390625 86.26304626464844 70.11915588378906 88.50419616699219 64.82049560546875 C 90.82384490966797 59.33623123168945 92 53.50878524780273 92 47.5 C 92 41.49121475219727 90.82384490966797 35.66376876831055 88.50419616699219 30.17950439453125 C 86.26304626464844 24.88084411621094 83.05401611328125 20.12152099609375 78.96624755859375 16.03375244140625 C 74.87847900390625 11.94598388671875 70.11915588378906 8.736953735351562 64.82049560546875 6.495796203613281 C 59.33623123168945 4.176155090332031 53.50878524780273 3 47.5 3 M 47.5 0 C 73.7335205078125 0 95 21.2664794921875 95 47.5 C 95 73.7335205078125 73.7335205078125 95 47.5 95 C 21.2664794921875 95 0 73.7335205078125 0 47.5 C 0 21.2664794921875 21.2664794921875 0 47.5 0 Z" stroke="none" fill="#f5b104"/>
                        </g>
                      </g>
                    </g>
                  </g>
                </g>
              </g>
            </g>
          </g>
        </g>
      </g>
    </g>
    <g id="stats_1594210" transform="translate(5970.113 6572.556)">
      <path id="Trazado_1057943" data-name="Trazado 1057943" d="M30,179.641l11.061,5.988L54.224,167l13.384,17.188,6.747-7.818v25.56H30Z" transform="translate(-26.674 -148.482)" fill="#ffcca9"/>
      <rect id="Rectángulo_423348" data-name="Rectángulo 423348" width="4.436" height="13.307" transform="translate(12.197 29.053)" fill="#f03c32"/>
      <rect id="Rectángulo_423349" data-name="Rectángulo 423349" width="4.436" height="13.307" transform="translate(25.504 13.528)" fill="#35a595"/>
      <rect id="Rectángulo_423350" data-name="Rectángulo 423350" width="4.436" height="13.307" transform="translate(38.811 29.053)" fill="#f03c32"/>
      <g id="Grupo_1223305" data-name="Grupo 1223305" transform="translate(-0.001 0)">
        <path id="Trazado_1057944" data-name="Trazado 1057944" d="M56.45,52.665l-2.218-2.218a1.109,1.109,0,1,0-1.568,1.568l.325.325h-4.2V27.889a1.109,1.109,0,0,0-1.948-.725l-2.487,2.882v-.993a1.109,1.109,0,0,0-1.109-1.109H42.137V24.617a1.109,1.109,0,1,0-2.218,0v3.327H38.811A1.109,1.109,0,0,0,37.7,29.053v.7l-6.653-8.544V13.528a1.109,1.109,0,0,0-1.109-1.109H28.831V9.093a1.109,1.109,0,0,0-2.218,0V12.42H25.5a1.109,1.109,0,0,0-1.109,1.109v7.534l-6.653,9.416V29.053a1.109,1.109,0,0,0-1.109-1.109H15.524V24.617a1.109,1.109,0,1,0-2.218,0v3.327H12.2a1.109,1.109,0,0,0-1.109,1.109V34.1l-4.508-2.44a1.106,1.106,0,0,0-1.037-1.5H4.435V21.291H5.544a1.109,1.109,0,0,0,0-2.218H4.435V10.2H5.544a1.109,1.109,0,1,0,0-2.218H4.435v-4.2l.325.325A1.109,1.109,0,0,0,6.328,2.542L4.11.325a1.109,1.109,0,0,0-1.568,0L.324,2.542A1.109,1.109,0,1,0,1.892,4.111l.325-.325v4.2H1.108a1.109,1.109,0,1,0,0,2.218H2.217v8.871H1.108a1.109,1.109,0,0,0,0,2.218H2.217v8.871H1.108a1.109,1.109,0,1,0,0,2.218H2.217v8.871H1.108a1.109,1.109,0,0,0,0,2.218H2.217V52.34H1.108a1.109,1.109,0,0,0,0,2.218H2.217v1.109a1.109,1.109,0,0,0,2.218,0V54.557h8.871v1.109a1.109,1.109,0,0,0,2.218,0V54.557h8.871v1.109a1.109,1.109,0,0,0,2.218,0V54.557h8.871v1.109a1.109,1.109,0,1,0,2.218,0V54.557h8.871v1.109a1.109,1.109,0,0,0,2.218,0V54.557h4.2l-.325.325a1.109,1.109,0,1,0,1.568,1.568l2.218-2.218A1.109,1.109,0,0,0,56.45,52.665Zm-16.53-22.5h2.218V41.251H39.919ZM26.613,14.637h2.218V25.726H26.613ZM13.306,30.162h2.218V41.251H13.306ZM37.7,52.34V51.231a1.109,1.109,0,1,0-2.218,0V52.34H26.613V51.231a1.109,1.109,0,0,0-2.218,0V52.34H15.524V51.231a1.109,1.109,0,0,0-2.218,0V52.34H4.435V43.469H5.544a1.109,1.109,0,0,0,0-2.218H4.435v-8.23l6.653,3.6V42.36A1.109,1.109,0,0,0,12.2,43.469h1.109V46.8a1.109,1.109,0,1,0,2.218,0V43.469h1.109a1.109,1.109,0,0,0,1.109-1.109V34.322l6.653-9.416v1.929A1.109,1.109,0,0,0,25.5,27.944h1.109v3.327a1.109,1.109,0,0,0,2.218,0V27.944h1.109a1.109,1.109,0,0,0,1.109-1.109v-2.02L37.7,33.36v9a1.109,1.109,0,0,0,1.109,1.109h1.109V46.8a1.109,1.109,0,1,0,2.218,0V43.469h1.109a1.109,1.109,0,0,0,1.109-1.109V33.44l2.218-2.57V52.34Z" transform="translate(0.001 0)"/>
        <path id="Trazado_1057945" data-name="Trazado 1057945" d="M220.413,316.711a1.109,1.109,0,1,0,.2,1.555A1.109,1.109,0,0,0,220.413,316.711Z" transform="translate(-194.383 -281.386)"/>
        <path id="Trazado_1057946" data-name="Trazado 1057946" d="M185.137,348.391a1.108,1.108,0,0,0-1.555.2l-1.354,1.757a1.109,1.109,0,0,0,1.756,1.354l1.354-1.758A1.109,1.109,0,0,0,185.137,348.391Z" transform="translate(-161.815 -309.553)"/>
      </g>
    </g>
  </g>
</svg>
