<svg xmlns="http://www.w3.org/2000/svg" xmlns:xlink="http://www.w3.org/1999/xlink" width="113" height="113" viewBox="0 0 113 113">
  <defs>
    <filter id="Trazado_982547" x="0" y="0" width="113" height="113" filterUnits="userSpaceOnUse">
      <feOffset dy="3" input="SourceAlpha"/>
      <feGaussianBlur stdDeviation="3" result="blur"/>
      <feFlood flood-opacity="0.161"/>
      <feComposite operator="in" in2="blur"/>
      <feComposite in="SourceGraphic"/>
    </filter>
  </defs>
  <g id="Grupo_1223310" data-name="Grupo 1223310" transform="translate(-5599.509 -6929.443)">
    <g id="Grupo_1223236" data-name="Grupo 1223236" transform="translate(5608.509 6935.443)">
      <g id="Grupo_1211209" data-name="Grupo 1211209">
        <g id="Grupo_1210737" data-name="Grupo 1210737">
          <g id="Grupo_1210537" data-name="Grupo 1210537">
            <g id="Grupo_1164202" data-name="Grupo 1164202">
              <g id="Grupo_1158168" data-name="Grupo 1158168">
                <g id="Grupo_1152576" data-name="Grupo 1152576">
                  <g id="Grupo_1148633" data-name="Grupo 1148633">
                    <g id="Grupo_1148525" data-name="Grupo 1148525">
                      <g transform="matrix(1, 0, 0, 1, -9, -6)" filter="url(#Trazado_982547)">
                        <g id="Trazado_982547-2" data-name="Trazado 982547" transform="translate(9 6)" fill="#fdf6e4">
                          <path d="M 47.5 93.5 C 41.28937149047852 93.5 35.26533508300781 92.28397369384766 29.59518623352051 89.88570404052734 C 24.11771965026855 87.56893157958984 19.19813346862793 84.25196075439453 14.97309303283691 80.02691650390625 C 10.74804019927979 75.80186462402344 7.431066513061523 70.88229370117188 5.114293098449707 65.40481567382812 C 2.716026782989502 59.73468017578125 1.5 53.71062850952148 1.5 47.5 C 1.5 41.28937149047852 2.716026782989502 35.26533508300781 5.114293098449707 29.59518623352051 C 7.431066513061523 24.11771965026855 10.74804019927979 19.19813346862793 14.97309303283691 14.97309303283691 C 19.19813346862793 10.74804019927979 24.11771965026855 7.431066513061523 29.59518623352051 5.114293098449707 C 35.26533508300781 2.716026782989502 41.28937149047852 1.5 47.5 1.5 C 53.71062850952148 1.5 59.73468017578125 2.716026782989502 65.40481567382812 5.114293098449707 C 70.88229370117188 7.431066513061523 75.80186462402344 10.74804019927979 80.02691650390625 14.97309303283691 C 84.25196075439453 19.19813346862793 87.56893157958984 24.11771965026855 89.88570404052734 29.59518623352051 C 92.28397369384766 35.26533508300781 93.5 41.28937149047852 93.5 47.5 C 93.5 53.71062850952148 92.28397369384766 59.73468017578125 89.88570404052734 65.40481567382812 C 87.56893157958984 70.88229370117188 84.25196075439453 75.80186462402344 80.02691650390625 80.02691650390625 C 75.80186462402344 84.25196075439453 70.88229370117188 87.56893157958984 65.40481567382812 89.88570404052734 C 59.73468017578125 92.28397369384766 53.71062850952148 93.5 47.5 93.5 Z" stroke="none"/>
                          <path d="M 47.5 3 C 41.49121475219727 3 35.66376876831055 4.176155090332031 30.17950439453125 6.495796203613281 C 24.88084411621094 8.736953735351562 20.12152099609375 11.94598388671875 16.03375244140625 16.03375244140625 C 11.94598388671875 20.12152099609375 8.736953735351562 24.88084411621094 6.495796203613281 30.17950439453125 C 4.176155090332031 35.66376876831055 3 41.49121475219727 3 47.5 C 3 53.50878524780273 4.176155090332031 59.33623123168945 6.495796203613281 64.82049560546875 C 8.736953735351562 70.11915588378906 11.94598388671875 74.87847900390625 16.03375244140625 78.96624755859375 C 20.12152099609375 83.05401611328125 24.88084411621094 86.26304626464844 30.17950439453125 88.50419616699219 C 35.66376876831055 90.82384490966797 41.49121475219727 92 47.5 92 C 53.50878524780273 92 59.33623123168945 90.82384490966797 64.82049560546875 88.50419616699219 C 70.11915588378906 86.26304626464844 74.87847900390625 83.05401611328125 78.96624755859375 78.96624755859375 C 83.05401611328125 74.87847900390625 86.26304626464844 70.11915588378906 88.50419616699219 64.82049560546875 C 90.82384490966797 59.33623123168945 92 53.50878524780273 92 47.5 C 92 41.49121475219727 90.82384490966797 35.66376876831055 88.50419616699219 30.17950439453125 C 86.26304626464844 24.88084411621094 83.05401611328125 20.12152099609375 78.96624755859375 16.03375244140625 C 74.87847900390625 11.94598388671875 70.11915588378906 8.736953735351562 64.82049560546875 6.495796203613281 C 59.33623123168945 4.176155090332031 53.50878524780273 3 47.5 3 M 47.5 0 C 73.7335205078125 0 95 21.2664794921875 95 47.5 C 95 73.7335205078125 73.7335205078125 95 47.5 95 C 21.2664794921875 95 0 73.7335205078125 0 47.5 C 0 21.2664794921875 21.2664794921875 0 47.5 0 Z" stroke="none" fill="#f5b104"/>
                        </g>
                      </g>
                    </g>
                  </g>
                </g>
              </g>
            </g>
          </g>
        </g>
      </g>
    </g>
    <g id="chart_2430566" transform="translate(5627.48 6954.808)">
      <g id="Grupo_1223308" data-name="Grupo 1223308" transform="translate(2.142 1.097)">
        <path id="Trazado_1057947" data-name="Trazado 1057947" d="M41.234,60.707H14.57V18.03H11.354L17.083,9.9l5.729,8.133H19.7V55.581h37.38V52.516l8.133,5.729-8.133,5.729V60.707H50.256" transform="translate(-11.354 -9.897)" fill="#e7e9ef"/>
        <g id="Grupo_1223307" data-name="Grupo 1223307" transform="translate(37.083 9.615)">
          <circle id="Elipse_12590" data-name="Elipse 12590" cx="3.69" cy="3.69" r="3.69" transform="translate(0 0)" fill="#ff7d97"/>
        </g>
        <circle id="Elipse_12591" data-name="Elipse 12591" cx="3.69" cy="3.69" r="3.69" transform="translate(15.857 30.221)" fill="#ff7d97"/>
        <circle id="Elipse_12592" data-name="Elipse 12592" cx="2.8" cy="2.8" r="2.8" transform="translate(15.857 16.347)" fill="#ffee80"/>
        <circle id="Elipse_12593" data-name="Elipse 12593" cx="2.8" cy="2.8" r="2.8" transform="translate(28.802 16.347)" fill="#99ebfa"/>
        <circle id="Elipse_12594" data-name="Elipse 12594" cx="2.072" cy="2.072" r="2.072" transform="translate(22.476 23.383)" fill="#a0e5a5"/>
        <circle id="Elipse_12595" data-name="Elipse 12595" cx="2.072" cy="2.072" r="2.072" transform="translate(38.702 20.721)" fill="#a0e5a5"/>
        <circle id="Elipse_12596" data-name="Elipse 12596" cx="2.072" cy="2.072" r="2.072" transform="translate(31.602 27.526)" fill="#ffee80"/>
      </g>
      <g id="Grupo_1223309" data-name="Grupo 1223309" transform="translate(0.993 -0.001)">
        <path id="Trazado_1057948" data-name="Trazado 1057948" d="M56.587,48.538l-8.133-5.729a1.123,1.123,0,0,0-1.748.907v1.957H11.544V10.339h2.008a1.123,1.123,0,0,0,.907-1.748L8.73.458a1.125,1.125,0,0,0-1.813,0L1.187,8.592a1.123,1.123,0,0,0,.907,1.748H4.2V51.907A1.109,1.109,0,0,0,5.31,53.016H31.974a1.11,1.11,0,0,0,0-2.218H6.418V9.23A1.109,1.109,0,0,0,5.31,8.121H4.231l3.592-5.1,3.592,5.1h-.98A1.109,1.109,0,0,0,9.326,9.23V46.782a1.109,1.109,0,0,0,1.109,1.109h37.38a1.109,1.109,0,0,0,1.109-1.109v-.928l5.1,3.592-5.1,3.592v-1.13A1.109,1.109,0,0,0,47.815,50.8H41a1.11,1.11,0,0,0,0,2.218h5.71v2.158a1.127,1.127,0,0,0,1.748.907l8.133-5.729a1.125,1.125,0,0,0,0-1.813Z" transform="translate(-0.993 0.001)"/>
        <path id="Trazado_1057949" data-name="Trazado 1057949" d="M313.267,458.8a1.108,1.108,0,1,0-.363,1.314A1.118,1.118,0,0,0,313.267,458.8Z" transform="translate(-276.74 -407.314)"/>
        <path id="Trazado_1057950" data-name="Trazado 1057950" d="M148.707,282.01a4.8,4.8,0,1,0-4.8-4.8A4.8,4.8,0,0,0,148.707,282.01Zm0-7.38a2.581,2.581,0,1,1-2.581,2.581A2.584,2.584,0,0,1,148.707,274.63Z" transform="translate(-128.059 -242.202)"/>
        <path id="Trazado_1057951" data-name="Trazado 1057951" d="M340.111,98.651a4.783,4.783,0,0,0,4.443-2.983,1.11,1.11,0,0,0-2.053-.84,2.582,2.582,0,1,1-3.433-3.338,1.11,1.11,0,0,0-.9-2.028,4.8,4.8,0,0,0,1.94,9.189Z" transform="translate(-298.237 -79.45)"/>
        <path id="Trazado_1057952" data-name="Trazado 1057952" d="M147.816,155.126a3.909,3.909,0,1,0-3.909-3.909A3.914,3.914,0,0,0,147.816,155.126Zm0-5.6a1.691,1.691,0,1,1-1.691,1.691A1.693,1.693,0,0,1,147.816,149.526Z" transform="translate(-128.058 -130.972)"/>
        <path id="Trazado_1057953" data-name="Trazado 1057953" d="M264.547,155.126a3.909,3.909,0,1,0-3.909-3.909A3.914,3.914,0,0,0,264.547,155.126Zm0-5.6a1.691,1.691,0,1,1-1.691,1.691A1.693,1.693,0,0,1,264.547,149.526Z" transform="translate(-231.844 -130.972)"/>
        <path id="Trazado_1057954" data-name="Trazado 1057954" d="M203.6,213.926a3.181,3.181,0,1,0,3.181-3.181A3.184,3.184,0,0,0,203.6,213.926Zm3.181-.962a.963.963,0,1,1-.963.963A.964.964,0,0,1,206.777,212.963Z" transform="translate(-181.128 -187.374)"/>
        <path id="Trazado_1057955" data-name="Trazado 1057955" d="M349.907,189.929a3.181,3.181,0,1,0,3.181-3.181A3.184,3.184,0,0,0,349.907,189.929Zm4.143,0a.963.963,0,1,1-.963-.963A.964.964,0,0,1,354.05,189.929Z" transform="translate(-311.213 -166.038)"/>
        <path id="Trazado_1057956" data-name="Trazado 1057956" d="M285.889,251.286a3.181,3.181,0,1,0,3.181-3.181A3.184,3.184,0,0,0,285.889,251.286Zm4.143,0a.963.963,0,1,1-.963-.963A.964.964,0,0,1,290.032,251.286Z" transform="translate(-254.295 -220.591)"/>
        <path id="Trazado_1057957" data-name="Trazado 1057957" d="M393.706,96.627a1.109,1.109,0,1,0,.6-1.448A1.119,1.119,0,0,0,393.706,96.627Z" transform="translate(-350.083 -84.55)"/>
      </g>
    </g>
  </g>
</svg>
