<svg xmlns="http://www.w3.org/2000/svg" xmlns:xlink="http://www.w3.org/1999/xlink" width="113" height="113" viewBox="0 0 113 113">
  <defs>
    <filter id="Trazado_982547" x="0" y="0" width="113" height="113" filterUnits="userSpaceOnUse">
      <feOffset dy="3" input="SourceAlpha"/>
      <feGaussianBlur stdDeviation="3" result="blur"/>
      <feFlood flood-opacity="0.161"/>
      <feComposite operator="in" in2="blur"/>
      <feComposite in="SourceGraphic"/>
    </filter>
    <clipPath id="clip-path">
      <path id="path5622" d="M0-682.665H55.266V-627.4H0Z" transform="translate(0 682.665)"/>
    </clipPath>
  </defs>
  <g id="Grupo_1223311" data-name="Grupo 1223311" transform="translate(-5941.019 -6929.443)">
    <g id="Grupo_1223237" data-name="Grupo 1223237" transform="translate(5950.019 6935.443)">
      <g id="Grupo_1211209" data-name="Grupo 1211209">
        <g id="Grupo_1210737" data-name="Grupo 1210737">
          <g id="Grupo_1210537" data-name="Grupo 1210537">
            <g id="Grupo_1164202" data-name="Grupo 1164202">
              <g id="Grupo_1158168" data-name="Grupo 1158168">
                <g id="Grupo_1152576" data-name="Grupo 1152576">
                  <g id="Grupo_1148633" data-name="Grupo 1148633">
                    <g id="Grupo_1148525" data-name="Grupo 1148525">
                      <g transform="matrix(1, 0, 0, 1, -9, -6)" filter="url(#Trazado_982547)">
                        <g id="Trazado_982547-2" data-name="Trazado 982547" transform="translate(9 6)" fill="#fdf6e4">
                          <path d="M 47.5 93.5 C 41.28937149047852 93.5 35.26533508300781 92.28397369384766 29.59518623352051 89.88570404052734 C 24.11771965026855 87.56893157958984 19.19813346862793 84.25196075439453 14.97309303283691 80.02691650390625 C 10.74804019927979 75.80186462402344 7.431066513061523 70.88229370117188 5.114293098449707 65.40481567382812 C 2.716026782989502 59.73468017578125 1.5 53.71062850952148 1.5 47.5 C 1.5 41.28937149047852 2.716026782989502 35.26533508300781 5.114293098449707 29.59518623352051 C 7.431066513061523 24.11771965026855 10.74804019927979 19.19813346862793 14.97309303283691 14.97309303283691 C 19.19813346862793 10.74804019927979 24.11771965026855 7.431066513061523 29.59518623352051 5.114293098449707 C 35.26533508300781 2.716026782989502 41.28937149047852 1.5 47.5 1.5 C 53.71062850952148 1.5 59.73468017578125 2.716026782989502 65.40481567382812 5.114293098449707 C 70.88229370117188 7.431066513061523 75.80186462402344 10.74804019927979 80.02691650390625 14.97309303283691 C 84.25196075439453 19.19813346862793 87.56893157958984 24.11771965026855 89.88570404052734 29.59518623352051 C 92.28397369384766 35.26533508300781 93.5 41.28937149047852 93.5 47.5 C 93.5 53.71062850952148 92.28397369384766 59.73468017578125 89.88570404052734 65.40481567382812 C 87.56893157958984 70.88229370117188 84.25196075439453 75.80186462402344 80.02691650390625 80.02691650390625 C 75.80186462402344 84.25196075439453 70.88229370117188 87.56893157958984 65.40481567382812 89.88570404052734 C 59.73468017578125 92.28397369384766 53.71062850952148 93.5 47.5 93.5 Z" stroke="none"/>
                          <path d="M 47.5 3 C 41.49121475219727 3 35.66376876831055 4.176155090332031 30.17950439453125 6.495796203613281 C 24.88084411621094 8.736953735351562 20.12152099609375 11.94598388671875 16.03375244140625 16.03375244140625 C 11.94598388671875 20.12152099609375 8.736953735351562 24.88084411621094 6.495796203613281 30.17950439453125 C 4.176155090332031 35.66376876831055 3 41.49121475219727 3 47.5 C 3 53.50878524780273 4.176155090332031 59.33623123168945 6.495796203613281 64.82049560546875 C 8.736953735351562 70.11915588378906 11.94598388671875 74.87847900390625 16.03375244140625 78.96624755859375 C 20.12152099609375 83.05401611328125 24.88084411621094 86.26304626464844 30.17950439453125 88.50419616699219 C 35.66376876831055 90.82384490966797 41.49121475219727 92 47.5 92 C 53.50878524780273 92 59.33623123168945 90.82384490966797 64.82049560546875 88.50419616699219 C 70.11915588378906 86.26304626464844 74.87847900390625 83.05401611328125 78.96624755859375 78.96624755859375 C 83.05401611328125 74.87847900390625 86.26304626464844 70.11915588378906 88.50419616699219 64.82049560546875 C 90.82384490966797 59.33623123168945 92 53.50878524780273 92 47.5 C 92 41.49121475219727 90.82384490966797 35.66376876831055 88.50419616699219 30.17950439453125 C 86.26304626464844 24.88084411621094 83.05401611328125 20.12152099609375 78.96624755859375 16.03375244140625 C 74.87847900390625 11.94598388671875 70.11915588378906 8.736953735351562 64.82049560546875 6.495796203613281 C 59.33623123168945 4.176155090332031 53.50878524780273 3 47.5 3 M 47.5 0 C 73.7335205078125 0 95 21.2664794921875 95 47.5 C 95 73.7335205078125 73.7335205078125 95 47.5 95 C 21.2664794921875 95 0 73.7335205078125 0 47.5 C 0 21.2664794921875 21.2664794921875 0 47.5 0 Z" stroke="none" fill="#f5b104"/>
                        </g>
                      </g>
                    </g>
                  </g>
                </g>
              </g>
            </g>
          </g>
        </g>
      </g>
    </g>
    <g id="g5616" transform="translate(5969.886 7637.976)">
      <g id="g5618" transform="translate(0 -682.665)">
        <g id="g5620" clip-path="url(#clip-path)">
          <g id="g5626" transform="translate(12.26 29.637)">
            <path id="path5628" d="M-217.608-112.668c0,.3,1.066.606,1.04.9a10.125,10.125,0,0,1-10.084,9.221,10.124,10.124,0,0,1-10.124-10.124,10.127,10.127,0,0,1,8.05-9.911c.669-.139,1.363.867,2.074.867,5.591,0,9.045,3.453,9.045,9.045" transform="translate(236.777 122.593)" fill="#fd93d3"/>
          </g>
          <g id="g5630" transform="translate(10.228 27.847)">
            <path id="path5632" d="M-98.25-48.465a3.956,3.956,0,0,1-4.165,4.165,4.554,4.554,0,0,1-1.619.023,4.491,4.491,0,0,1-2.87-4.188,4.491,4.491,0,0,1,2.87-4.188,4.552,4.552,0,0,1,1.619.023,3.956,3.956,0,0,1,4.165,4.165" transform="translate(106.905 52.734)" fill="#cb97e7"/>
          </g>
          <g id="g5634" transform="translate(13.099 27.628)">
            <path id="path5636" d="M-69.346-50.964a4.489,4.489,0,0,1-4.489,4.488,4.455,4.455,0,0,1-1.619-.3,4.487,4.487,0,0,0,2.87-4.186,4.49,4.49,0,0,0-2.87-4.188,4.475,4.475,0,0,1,1.619-.3,4.489,4.489,0,0,1,4.489,4.489" transform="translate(75.454 55.453)" fill="#af66da"/>
          </g>
          <g id="g5638" transform="translate(20.31 27.528)">
            <path id="path5640" d="M-138.469-136.615c0,.305-.014.608-.04.907a14.983,14.983,0,0,1-12.158-10.817,10.1,10.1,0,0,1,2.074-.214c.119,0,.237,0,.355.007.859,2.51,8.733-3.305,10.688-1.6,1.557,1.361-2.967,10.428-.941,11.053q.021.329.022.662" transform="translate(150.666 148.649)" fill="#fe4fb7"/>
          </g>
          <g id="g5642" transform="translate(21.935 9.757)">
            <path id="path5644" d="M-327.6-168.431c0,8.267-5.622,14.753-13.889,14.753a15.4,15.4,0,0,1-2.159.061,14.972,14.972,0,0,1-12.81-14.814,14.972,14.972,0,0,1,12.81-14.814,15.745,15.745,0,0,1,2.159.169c8.267,0,13.889,6.378,13.889,14.645" transform="translate(356.455 183.268)" fill="#6cf5c2"/>
          </g>
          <g id="g5646" transform="translate(34.744 9.625)">
            <path id="path5648" d="M-194.432-169.925A14.968,14.968,0,0,1-209.4-154.956a14.99,14.99,0,0,1-2.159-.155,14.97,14.97,0,0,0,12.809-14.813,14.969,14.969,0,0,0-12.809-14.813,14.975,14.975,0,0,1,2.159-.156,14.968,14.968,0,0,1,14.968,14.968" transform="translate(211.559 184.893)" fill="#05e39c"/>
          </g>
          <g id="g5650" transform="translate(37.746 33.483)">
            <path id="path5652" d="M-137.4-67.931a5.556,5.556,0,0,1-5.836,5.836,6.39,6.39,0,0,1-2.159.05,6.27,6.27,0,0,1-4.109-5.886,6.27,6.27,0,0,1,4.109-5.886,6.387,6.387,0,0,1,2.159.05,5.556,5.556,0,0,1,5.836,5.836" transform="translate(149.501 73.915)" fill="#fece85"/>
          </g>
          <g id="g5654" transform="translate(41.854 33.2)">
            <path id="path5656" d="M-95.654-71.146a6.267,6.267,0,0,1-6.267,6.267,6.25,6.25,0,0,1-2.159-.382,6.269,6.269,0,0,0,4.108-5.885,6.269,6.269,0,0,0-4.108-5.885,6.247,6.247,0,0,1,2.159-.382,6.267,6.267,0,0,1,6.267,6.267" transform="translate(104.08 77.413)" fill="#fdb541"/>
          </g>
          <g id="g5658" transform="translate(0.81 0.81)">
            <path id="path5660" d="M-609.018-609.018h-53.108a.54.54,0,0,1-.54-.54v-53.107" transform="translate(662.665 662.665)" fill="none" stroke="#000" stroke-linecap="round" stroke-linejoin="round" stroke-miterlimit="10" stroke-width="1.3"/>
          </g>
          <g id="g5662" transform="translate(1.027 11.527)">
            <path id="path5664" d="M0,0H3.355" fill="none" stroke="#000" stroke-linecap="round" stroke-linejoin="round" stroke-miterlimit="10" stroke-width="1.3"/>
          </g>
          <g id="g5666" transform="translate(1.027 22.268)">
            <path id="path5668" d="M0,0H3.355" fill="none" stroke="#000" stroke-linecap="round" stroke-linejoin="round" stroke-miterlimit="10" stroke-width="1.3"/>
          </g>
          <g id="g5670" transform="translate(1.027 33.009)">
            <path id="path5672" d="M0,0H3.355" fill="none" stroke="#000" stroke-linecap="round" stroke-linejoin="round" stroke-miterlimit="10" stroke-width="1.3"/>
          </g>
          <g id="g5674" transform="translate(1.027 43.75)">
            <path id="path5676" d="M0,0H3.355" fill="none" stroke="#000" stroke-linecap="round" stroke-linejoin="round" stroke-miterlimit="10" stroke-width="1.3"/>
          </g>
          <g id="g5678" transform="translate(10.755 7.349)">
            <path id="path5680" d="M0,0H9.593" fill="none" stroke="#000" stroke-linecap="round" stroke-linejoin="round" stroke-miterlimit="10" stroke-width="1.3"/>
          </g>
          <g id="g5682" transform="translate(10.755 11.527)">
            <path id="path5684" d="M0,0H9.593" fill="none" stroke="#000" stroke-linecap="round" stroke-linejoin="round" stroke-miterlimit="10" stroke-width="1.3"/>
          </g>
          <g id="g5686" transform="translate(10.755 15.706)">
            <path id="path5688" d="M0,0H4.8" fill="none" stroke="#000" stroke-linecap="round" stroke-linejoin="round" stroke-miterlimit="10" stroke-width="1.3"/>
          </g>
          <g id="g5690" transform="translate(18.736 29.438)">
            <path id="path5692" d="M0-7.686a10.1,10.1,0,0,1,3.648-.677q.178,0,.354.006" transform="translate(0 8.363)" fill="none" stroke="#000" stroke-linecap="round" stroke-linejoin="round" stroke-miterlimit="10" stroke-width="1.3"/>
          </g>
          <g id="g5694" transform="translate(12.26 36.192)">
            <path id="path5696" d="M-17.7-99.558a10.076,10.076,0,0,1-1.559-5.4,10.108,10.108,0,0,1,.574-3.37" transform="translate(19.256 108.328)" fill="none" stroke="#000" stroke-linecap="round" stroke-linejoin="round" stroke-miterlimit="10" stroke-width="1.3"/>
          </g>
          <g id="g5698" transform="translate(16.196 38.899)">
            <path id="path5700" d="M-184.94,0q.021.329.021.663a10.124,10.124,0,0,1-10.124,10.124,10.08,10.08,0,0,1-6.188-2.111" transform="translate(201.232)" fill="none" stroke="#000" stroke-linecap="round" stroke-linejoin="round" stroke-miterlimit="10" stroke-width="1.3"/>
          </g>
          <g id="g5702" transform="translate(47.738 14.266)">
            <path id="path5704" d="M0,0A14.917,14.917,0,0,1,4.134,10.328,14.913,14.913,0,0,1,.266,20.369" fill="none" stroke="#000" stroke-linecap="round" stroke-linejoin="round" stroke-miterlimit="10" stroke-width="1.3"/>
          </g>
          <g id="g5706" transform="translate(21.935 9.625)">
            <path id="path5708" d="M-179.5-339.587q-.419.023-.843.023a14.968,14.968,0,0,1-14.968-14.969A14.968,14.968,0,0,1-180.341-369.5a14.9,14.9,0,0,1,8.1,2.382" transform="translate(195.309 369.5)" fill="none" stroke="#000" stroke-linecap="round" stroke-linejoin="round" stroke-miterlimit="10" stroke-width="1.3"/>
          </g>
          <g id="g5710" transform="translate(37.746 33.199)">
            <path id="path5712" d="M-99.845-136.277a6.247,6.247,0,0,1-2.528.531,6.267,6.267,0,0,1-6.267-6.267,6.267,6.267,0,0,1,6.267-6.268,6.267,6.267,0,0,1,6.267,6.268,6.238,6.238,0,0,1-1.035,3.451" transform="translate(108.64 148.281)" fill="none" stroke="#000" stroke-linecap="round" stroke-linejoin="round" stroke-miterlimit="10" stroke-width="1.3"/>
          </g>
          <g id="g5714" transform="translate(10.228 27.627)">
            <path id="path5716" d="M-101.927-50.964a4.489,4.489,0,0,1-4.489,4.489,4.489,4.489,0,0,1-4.489-4.489,4.489,4.489,0,0,1,4.489-4.489A4.489,4.489,0,0,1-101.927-50.964Z" transform="translate(110.905 55.453)" fill="none" stroke="#000" stroke-linecap="round" stroke-linejoin="round" stroke-miterlimit="10" stroke-width="1.3"/>
          </g>
        </g>
      </g>
    </g>
  </g>
</svg>
