<svg xmlns="http://www.w3.org/2000/svg" xmlns:xlink="http://www.w3.org/1999/xlink" width="113" height="113" viewBox="0 0 113 113">
  <defs>
    <filter id="Trazado_982547" x="0" y="0" width="113" height="113" filterUnits="userSpaceOnUse">
      <feOffset dy="3" input="SourceAlpha"/>
      <feGaussianBlur stdDeviation="3" result="blur"/>
      <feFlood flood-opacity="0.161"/>
      <feComposite operator="in" in2="blur"/>
      <feComposite in="SourceGraphic"/>
    </filter>
  </defs>
  <g id="Grupo_1223313" data-name="Grupo 1223313" transform="translate(-5599.509 -7308.443)">
    <g id="Grupo_1223238" data-name="Grupo 1223238" transform="translate(5608.509 7314.443)">
      <g id="Grupo_1211209" data-name="Grupo 1211209">
        <g id="Grupo_1210737" data-name="Grupo 1210737">
          <g id="Grupo_1210537" data-name="Grupo 1210537">
            <g id="Grupo_1164202" data-name="Grupo 1164202">
              <g id="Grupo_1158168" data-name="Grupo 1158168">
                <g id="Grupo_1152576" data-name="Grupo 1152576">
                  <g id="Grupo_1148633" data-name="Grupo 1148633">
                    <g id="Grupo_1148525" data-name="Grupo 1148525">
                      <g transform="matrix(1, 0, 0, 1, -9, -6)" filter="url(#Trazado_982547)">
                        <g id="Trazado_982547-2" data-name="Trazado 982547" transform="translate(9 6)" fill="#fdf6e4">
                          <path d="M 47.5 93.5 C 41.28937149047852 93.5 35.26533508300781 92.28397369384766 29.59518623352051 89.88570404052734 C 24.11771965026855 87.56893157958984 19.19813346862793 84.25196075439453 14.97309303283691 80.02691650390625 C 10.74804019927979 75.80186462402344 7.431066513061523 70.88229370117188 5.114293098449707 65.40481567382812 C 2.716026782989502 59.73468017578125 1.5 53.71062850952148 1.5 47.5 C 1.5 41.28937149047852 2.716026782989502 35.26533508300781 5.114293098449707 29.59518623352051 C 7.431066513061523 24.11771965026855 10.74804019927979 19.19813346862793 14.97309303283691 14.97309303283691 C 19.19813346862793 10.74804019927979 24.11771965026855 7.431066513061523 29.59518623352051 5.114293098449707 C 35.26533508300781 2.716026782989502 41.28937149047852 1.5 47.5 1.5 C 53.71062850952148 1.5 59.73468017578125 2.716026782989502 65.40481567382812 5.114293098449707 C 70.88229370117188 7.431066513061523 75.80186462402344 10.74804019927979 80.02691650390625 14.97309303283691 C 84.25196075439453 19.19813346862793 87.56893157958984 24.11771965026855 89.88570404052734 29.59518623352051 C 92.28397369384766 35.26533508300781 93.5 41.28937149047852 93.5 47.5 C 93.5 53.71062850952148 92.28397369384766 59.73468017578125 89.88570404052734 65.40481567382812 C 87.56893157958984 70.88229370117188 84.25196075439453 75.80186462402344 80.02691650390625 80.02691650390625 C 75.80186462402344 84.25196075439453 70.88229370117188 87.56893157958984 65.40481567382812 89.88570404052734 C 59.73468017578125 92.28397369384766 53.71062850952148 93.5 47.5 93.5 Z" stroke="none"/>
                          <path d="M 47.5 3 C 41.49121475219727 3 35.66376876831055 4.176155090332031 30.17950439453125 6.495796203613281 C 24.88084411621094 8.736953735351562 20.12152099609375 11.94598388671875 16.03375244140625 16.03375244140625 C 11.94598388671875 20.12152099609375 8.736953735351562 24.88084411621094 6.495796203613281 30.17950439453125 C 4.176155090332031 35.66376876831055 3 41.49121475219727 3 47.5 C 3 53.50878524780273 4.176155090332031 59.33623123168945 6.495796203613281 64.82049560546875 C 8.736953735351562 70.11915588378906 11.94598388671875 74.87847900390625 16.03375244140625 78.96624755859375 C 20.12152099609375 83.05401611328125 24.88084411621094 86.26304626464844 30.17950439453125 88.50419616699219 C 35.66376876831055 90.82384490966797 41.49121475219727 92 47.5 92 C 53.50878524780273 92 59.33623123168945 90.82384490966797 64.82049560546875 88.50419616699219 C 70.11915588378906 86.26304626464844 74.87847900390625 83.05401611328125 78.96624755859375 78.96624755859375 C 83.05401611328125 74.87847900390625 86.26304626464844 70.11915588378906 88.50419616699219 64.82049560546875 C 90.82384490966797 59.33623123168945 92 53.50878524780273 92 47.5 C 92 41.49121475219727 90.82384490966797 35.66376876831055 88.50419616699219 30.17950439453125 C 86.26304626464844 24.88084411621094 83.05401611328125 20.12152099609375 78.96624755859375 16.03375244140625 C 74.87847900390625 11.94598388671875 70.11915588378906 8.736953735351562 64.82049560546875 6.495796203613281 C 59.33623123168945 4.176155090332031 53.50878524780273 3 47.5 3 M 47.5 0 C 73.7335205078125 0 95 21.2664794921875 95 47.5 C 95 73.7335205078125 73.7335205078125 95 47.5 95 C 21.2664794921875 95 0 73.7335205078125 0 47.5 C 0 21.2664794921875 21.2664794921875 0 47.5 0 Z" stroke="none" fill="#f5b104"/>
                        </g>
                      </g>
                    </g>
                  </g>
                </g>
              </g>
            </g>
          </g>
        </g>
      </g>
    </g>
    <g id="Layer_x0020_1" transform="translate(5431.173 7325.909)">
      <path id="Trazado_1057958" data-name="Trazado 1057958" d="M224.718,72.069a32.822,32.822,0,0,1-23.092-56.043.934.934,0,0,1,1.347,0l21.862,21.845L246.7,16.026a.953.953,0,0,1,1.363,0,32.834,32.834,0,0,1-23.225,56.043Zm.116-38.271a1.032,1.032,0,0,1-.682-.283L201.626,10.972a.934.934,0,0,1,0-1.347,32.811,32.811,0,0,1,46.434,0,.963.963,0,0,1,0,1.347L225.516,33.516A.97.97,0,0,1,224.834,33.8ZM203.671,10.307l21.164,21.164,21.18-21.164A30.9,30.9,0,0,0,203.671,10.307Zm27,24.455,20.465-11.82a31.069,31.069,0,0,0-3.774-4.871ZM252.083,24.6,228.425,38.271H255.74A30.8,30.8,0,0,0,252.083,24.6ZM255.74,40.2H228.425l23.657,13.666A30.8,30.8,0,0,0,255.74,40.2Zm-4.605,15.312L227.461,41.845l13.666,23.674A31.277,31.277,0,0,0,251.135,55.511ZM239.464,66.483,225.8,42.809V70.124A30.562,30.562,0,0,0,239.464,66.483Zm-15.578,3.641V42.809L210.221,66.483A30.447,30.447,0,0,0,223.887,70.124Zm-15.328-4.605,15.079-26.134-21.33-21.313A30.915,30.915,0,0,0,208.558,65.519Z" fill="#333" fill-rule="evenodd"/>
      <path id="Trazado_1057959" data-name="Trazado 1057959" d="M315.786,1087a30.915,30.915,0,0,0,6.251,47.448l15.079-26.135Z" transform="translate(-113.478 -1068.929)" fill="#7dd63e" fill-rule="evenodd"/>
      <path id="Trazado_1057960" data-name="Trazado 1057960" d="M894,123.641l21.164,21.164,21.18-21.164A30.9,30.9,0,0,0,894,123.641Z" transform="translate(-690.329 -113.334)" fill="#1aa1ff" fill-rule="evenodd"/>
      <path id="Trazado_1057961" data-name="Trazado 1057961" d="M2534.691,1087,2518,1103.692l20.465-11.82A31.053,31.053,0,0,0,2534.691,1087Z" transform="translate(-2287.33 -1068.929)" fill="#ff3131" fill-rule="evenodd"/>
      <path id="Trazado_1057962" data-name="Trazado 1057962" d="M2406.657,1480,2383,1493.666h27.315A30.8,30.8,0,0,0,2406.657,1480Z" transform="translate(-2154.575 -1455.395)" fill="#ffa721" fill-rule="evenodd"/>
      <path id="Trazado_1057963" data-name="Trazado 1057963" d="M2410.315,2418H2383l23.657,13.666A30.8,30.8,0,0,0,2410.315,2418Z" transform="translate(-2154.575 -2377.801)" fill="#ffa721" fill-rule="evenodd"/>
      <g id="Grupo_1223312" data-name="Grupo 1223312" transform="translate(210.221 41.845)">
        <path id="Trazado_1057964" data-name="Trazado 1057964" d="M2348.674,2530.666,2325,2517l13.666,23.674A31.277,31.277,0,0,0,2348.674,2530.666Z" transform="translate(-2307.76 -2517)" fill="#ff700d" fill-rule="evenodd"/>
        <path id="Trazado_1057965" data-name="Trazado 1057965" d="M2238.666,2598.674,2225,2575v27.315A30.558,30.558,0,0,0,2238.666,2598.674Z" transform="translate(-2209.422 -2574.036)" fill="#ff700d" fill-rule="evenodd"/>
        <path id="Trazado_1057966" data-name="Trazado 1057966" d="M1301.666,2602.315V2575L1288,2598.674A30.444,30.444,0,0,0,1301.666,2602.315Z" transform="translate(-1288 -2574.036)" fill="#ff700d" fill-rule="evenodd"/>
      </g>
    </g>
  </g>
</svg>
