<svg xmlns="http://www.w3.org/2000/svg" xmlns:xlink="http://www.w3.org/1999/xlink" width="113" height="113" viewBox="0 0 113 113">
  <defs>
    <filter id="Trazado_982547" x="0" y="0" width="113" height="113" filterUnits="userSpaceOnUse">
      <feOffset dy="3" input="SourceAlpha"/>
      <feGaussianBlur stdDeviation="3" result="blur"/>
      <feFlood flood-opacity="0.161"/>
      <feComposite operator="in" in2="blur"/>
      <feComposite in="SourceGraphic"/>
    </filter>
  </defs>
  <g id="Grupo_1223322" data-name="Grupo 1223322" transform="translate(-5599.509 -7703.443)">
    <g id="Grupo_1223240" data-name="Grupo 1223240" transform="translate(5608.509 7709.443)">
      <g id="Grupo_1211209" data-name="Grupo 1211209">
        <g id="Grupo_1210737" data-name="Grupo 1210737">
          <g id="Grupo_1210537" data-name="Grupo 1210537">
            <g id="Grupo_1164202" data-name="Grupo 1164202">
              <g id="Grupo_1158168" data-name="Grupo 1158168">
                <g id="Grupo_1152576" data-name="Grupo 1152576">
                  <g id="Grupo_1148633" data-name="Grupo 1148633">
                    <g id="Grupo_1148525" data-name="Grupo 1148525">
                      <g transform="matrix(1, 0, 0, 1, -9, -6)" filter="url(#Trazado_982547)">
                        <g id="Trazado_982547-2" data-name="Trazado 982547" transform="translate(9 6)" fill="#fdf6e4">
                          <path d="M 47.5 93.5 C 41.28937149047852 93.5 35.26533508300781 92.28397369384766 29.59518623352051 89.88570404052734 C 24.11771965026855 87.56893157958984 19.19813346862793 84.25196075439453 14.97309303283691 80.02691650390625 C 10.74804019927979 75.80186462402344 7.431066513061523 70.88229370117188 5.114293098449707 65.40481567382812 C 2.716026782989502 59.73468017578125 1.5 53.71062850952148 1.5 47.5 C 1.5 41.28937149047852 2.716026782989502 35.26533508300781 5.114293098449707 29.59518623352051 C 7.431066513061523 24.11771965026855 10.74804019927979 19.19813346862793 14.97309303283691 14.97309303283691 C 19.19813346862793 10.74804019927979 24.11771965026855 7.431066513061523 29.59518623352051 5.114293098449707 C 35.26533508300781 2.716026782989502 41.28937149047852 1.5 47.5 1.5 C 53.71062850952148 1.5 59.73468017578125 2.716026782989502 65.40481567382812 5.114293098449707 C 70.88229370117188 7.431066513061523 75.80186462402344 10.74804019927979 80.02691650390625 14.97309303283691 C 84.25196075439453 19.19813346862793 87.56893157958984 24.11771965026855 89.88570404052734 29.59518623352051 C 92.28397369384766 35.26533508300781 93.5 41.28937149047852 93.5 47.5 C 93.5 53.71062850952148 92.28397369384766 59.73468017578125 89.88570404052734 65.40481567382812 C 87.56893157958984 70.88229370117188 84.25196075439453 75.80186462402344 80.02691650390625 80.02691650390625 C 75.80186462402344 84.25196075439453 70.88229370117188 87.56893157958984 65.40481567382812 89.88570404052734 C 59.73468017578125 92.28397369384766 53.71062850952148 93.5 47.5 93.5 Z" stroke="none"/>
                          <path d="M 47.5 3 C 41.49121475219727 3 35.66376876831055 4.176155090332031 30.17950439453125 6.495796203613281 C 24.88084411621094 8.736953735351562 20.12152099609375 11.94598388671875 16.03375244140625 16.03375244140625 C 11.94598388671875 20.12152099609375 8.736953735351562 24.88084411621094 6.495796203613281 30.17950439453125 C 4.176155090332031 35.66376876831055 3 41.49121475219727 3 47.5 C 3 53.50878524780273 4.176155090332031 59.33623123168945 6.495796203613281 64.82049560546875 C 8.736953735351562 70.11915588378906 11.94598388671875 74.87847900390625 16.03375244140625 78.96624755859375 C 20.12152099609375 83.05401611328125 24.88084411621094 86.26304626464844 30.17950439453125 88.50419616699219 C 35.66376876831055 90.82384490966797 41.49121475219727 92 47.5 92 C 53.50878524780273 92 59.33623123168945 90.82384490966797 64.82049560546875 88.50419616699219 C 70.11915588378906 86.26304626464844 74.87847900390625 83.05401611328125 78.96624755859375 78.96624755859375 C 83.05401611328125 74.87847900390625 86.26304626464844 70.11915588378906 88.50419616699219 64.82049560546875 C 90.82384490966797 59.33623123168945 92 53.50878524780273 92 47.5 C 92 41.49121475219727 90.82384490966797 35.66376876831055 88.50419616699219 30.17950439453125 C 86.26304626464844 24.88084411621094 83.05401611328125 20.12152099609375 78.96624755859375 16.03375244140625 C 74.87847900390625 11.94598388671875 70.11915588378906 8.736953735351562 64.82049560546875 6.495796203613281 C 59.33623123168945 4.176155090332031 53.50878524780273 3 47.5 3 M 47.5 0 C 73.7335205078125 0 95 21.2664794921875 95 47.5 C 95 73.7335205078125 73.7335205078125 95 47.5 95 C 21.2664794921875 95 0 73.7335205078125 0 47.5 C 0 21.2664794921875 21.2664794921875 0 47.5 0 Z" stroke="none" fill="#f5b104"/>
                        </g>
                      </g>
                    </g>
                  </g>
                </g>
              </g>
            </g>
          </g>
        </g>
      </g>
    </g>
    <g id="Outline_Flat" transform="translate(5629.229 7732.157)">
      <g id="Grupo_1223315" data-name="Grupo 1223315" transform="translate(42.157 7.475)">
        <path id="Trazado_1057967" data-name="Trazado 1057967" d="M0,0H44.389V9.729H0Z" transform="translate(0.837 45.227) rotate(-90)" fill="#fc0"/>
        <path id="Trazado_1057968" data-name="Trazado 1057968" d="M61.777,54.99h-11.4V8.926h11.4Zm-9.729-1.674H60.1V10.6H52.049Z" transform="translate(-50.375 -8.926)"/>
      </g>
      <g id="Grupo_1223316" data-name="Grupo 1223316" transform="translate(42.157 0.032)">
        <path id="Trazado_1057969" data-name="Trazado 1057969" d="M0,0H7.444V9.729H0Z" transform="translate(0.837 8.28) rotate(-90)" fill="#fff"/>
        <path id="Trazado_1057970" data-name="Trazado 1057970" d="M61.777,9.149h-11.4V.032h11.4ZM52.049,7.475H60.1V1.706H52.049Z" transform="translate(-50.375 -0.032)"/>
      </g>
      <g id="Grupo_1223317" data-name="Grupo 1223317" transform="translate(28.105 28.806)">
        <path id="Trazado_1057971" data-name="Trazado 1057971" d="M0,0H23.059V9.729H0Z" transform="translate(0.836 23.896) rotate(-90)" fill="#fc0"/>
        <path id="Trazado_1057972" data-name="Trazado 1057972" d="M44.986,59.148h-11.4V34.415h11.4Zm-9.729-1.674h8.055V36.089H35.258Z" transform="translate(-33.584 -34.415)"/>
      </g>
      <g id="Grupo_1223318" data-name="Grupo 1223318" transform="translate(28.105 0.032)">
        <path id="Trazado_1057973" data-name="Trazado 1057973" d="M0,0H28.775V9.729H0Z" transform="translate(0.837 29.611) rotate(-90)" fill="#fff"/>
        <path id="Trazado_1057974" data-name="Trazado 1057974" d="M44.986,30.48h-11.4V.032h11.4Zm-9.729-1.674h8.055V1.706H35.258Z" transform="translate(-33.584 -0.032)"/>
      </g>
      <g id="Grupo_1223319" data-name="Grupo 1223319" transform="translate(14.053 14.92)">
        <path id="Trazado_1057975" data-name="Trazado 1057975" d="M0,0H36.945V9.729H0Z" transform="translate(0.837 37.781) rotate(-90)" fill="#fc0"/>
        <path id="Trazado_1057976" data-name="Trazado 1057976" d="M28.194,56.441h-11.4V17.822h11.4Zm-9.729-1.674h8.055V19.5H18.466Z" transform="translate(-16.792 -17.822)"/>
      </g>
      <g id="Grupo_1223320" data-name="Grupo 1223320" transform="translate(14.053 0.032)">
        <path id="Trazado_1057977" data-name="Trazado 1057977" d="M0,0H14.888V9.729H0Z" transform="translate(0.837 15.725) rotate(-90)" fill="#fff"/>
        <path id="Trazado_1057978" data-name="Trazado 1057978" d="M28.194,16.594h-11.4V.032h11.4ZM18.466,14.92h8.055V1.706H18.466Z" transform="translate(-16.792 -0.032)"/>
      </g>
      <g id="Grupo_1223321" data-name="Grupo 1223321" transform="translate(0 0.032)">
        <path id="Trazado_1057979" data-name="Trazado 1057979" d="M0,0H51.834V9.729H0Z" transform="translate(0.837 52.67) rotate(-90)" fill="#fc0"/>
        <path id="Trazado_1057980" data-name="Trazado 1057980" d="M11.4,53.539H0V.032H11.4ZM1.674,51.865H9.729V1.706H1.674Z" transform="translate(0 -0.032)"/>
      </g>
    </g>
  </g>
</svg>
