<svg id="Icono" xmlns="http://www.w3.org/2000/svg" width="90" height="90" viewBox="0 0 90 90">
  <path id="Trazado_875096" data-name="Trazado 875096" d="M45,0A45,45,0,1,1,0,45,45,45,0,0,1,45,0Z" fill="#fcdfdb"/>
  <g id="Grupo_1143659" data-name="Grupo 1143659" transform="translate(21.5 24.892)">
    <path id="Trazado_978620" data-name="Trazado 978620" d="M44.1,9.73a5.433,5.433,0,0,0-3.792-3.909C36.946,5,23.5,5,23.5,5S10.053,5,6.692,5.9A5.433,5.433,0,0,0,2.9,9.808,56.678,56.678,0,0,0,2,20.147a56.678,56.678,0,0,0,.9,10.417,5.434,5.434,0,0,0,3.792,3.753c3.362.9,16.808.9,16.808.9s13.447,0,16.808-.9A5.433,5.433,0,0,0,44.1,30.408,56.681,56.681,0,0,0,45,20.147,56.675,56.675,0,0,0,44.1,9.73Z" fill="none" stroke="#f15642" stroke-linecap="round" stroke-linejoin="round" stroke-width="3"/>
    <path id="Trazado_978621" data-name="Trazado 978621" d="M9.75,10.672c0-1.026,0-1.539.214-1.826a1.075,1.075,0,0,1,.784-.428c.357-.025.788.252,1.652.807l8.477,5.45c.749.481,1.124.722,1.253,1.028a1.076,1.076,0,0,1,0,.837c-.129.306-.5.547-1.253,1.028L12.4,23.018c-.863.555-1.295.832-1.652.807a1.075,1.075,0,0,1-.784-.428c-.214-.286-.214-.8-.214-1.826Z" transform="translate(8.912 3.929)" fill="none" stroke="#f15642" stroke-linecap="round" stroke-linejoin="round" stroke-width="3"/>
  </g>
</svg>
