<svg xmlns="http://www.w3.org/2000/svg" width="42.89" height="40.029" viewBox="0 0 42.89 40.029">
  <g id="Page-1" transform="translate(0 0)">
    <g id="_017---Brain-Puzzle" data-name="017---Brain-Puzzle" transform="translate(0 0)">
      <path id="Shape" d="M42.173,14.3a4.289,4.289,0,0,0-3.685-4.237,9.343,9.343,0,0,0-9.182-7.914c-.182,0-.375.021-.561.032A4.274,4.274,0,0,0,21.863,1.4,7.48,7.48,0,0,0,11.408,3.158,5.351,5.351,0,0,0,4.295,8.111,4.292,4.292,0,0,0,1.43,12.152a4.239,4.239,0,0,0,.143,1.033A8.818,8.818,0,0,0,0,18.227a8.928,8.928,0,0,0,11.372,8.594,6.771,6.771,0,0,0,10.946,1.914,10.616,10.616,0,0,0,2.716.54c.132,2.673,1.16,4.276,5.475,5.714a5.081,5.081,0,0,1,3.745,3.876,1.438,1.438,0,0,0,1.422,1.164h2.182a1.43,1.43,0,0,0,1.43-1.513c-.105-1.716-.58-5.688-2.652-8.21a9.25,9.25,0,0,0,4.623-6.246A6.758,6.758,0,0,0,41.816,16a4.317,4.317,0,0,0,.357-1.7ZM40.082,23.24l-.016.017A5.386,5.386,0,0,1,36.1,25.018a5.223,5.223,0,0,1-2.43-.59,5.047,5.047,0,0,1-.953-.637,3.565,3.565,0,0,0,.881-2.347,3.36,3.36,0,0,0-.164-1.042.715.715,0,1,0-1.358.441,1.916,1.916,0,0,1,.092.6,2.137,2.137,0,0,1-.921,1.757,2.093,2.093,0,0,1-1.716.327.715.715,0,1,0-.324,1.392,3.619,3.619,0,0,0,.816.1,3.53,3.53,0,0,0,1.509-.342A6.462,6.462,0,0,0,33.017,25.7a6.7,6.7,0,0,0,6.174-.016,7.8,7.8,0,0,1-5.728,4.222.715.715,0,0,0,.113,1.421.69.69,0,0,0,.114-.009,9.127,9.127,0,0,0,1.577-.405c2.031,2.134,2.489,6.049,2.59,7.685h-2.2a6.533,6.533,0,0,0-4.7-4.969c-3.686-1.229-4.393-2.345-4.5-4.354H26.5a10.642,10.642,0,0,0,2.382-.44.715.715,0,1,0-.419-1.367,9.2,9.2,0,0,1-2.078.382,8.965,8.965,0,0,1-4.014-.6.766.766,0,0,0-.8.2A5.357,5.357,0,0,1,12.453,25.7a5.3,5.3,0,0,1,.043-3.641.715.715,0,1,0-1.333-.515,6.2,6.2,0,0,0-.2.6,2.113,2.113,0,0,1-2.389-2.126v-.029a.7.7,0,0,0-.715-.7.727.727,0,0,0-.715.729,3.578,3.578,0,0,0,3.574,3.574h.016c-.006.119-.016.238-.016.357a6.676,6.676,0,0,0,.181,1.526A7.511,7.511,0,0,1,1.43,18.227a7.413,7.413,0,0,1,.872-3.5,4.292,4.292,0,0,0,1.211,1.106A.715.715,0,1,0,4.248,14.6a2.863,2.863,0,0,1-1.229-1.518,2.821,2.821,0,0,1-.159-.936A2.859,2.859,0,0,1,5.718,9.292a2.826,2.826,0,0,1,2.287,1.149.715.715,0,0,0,1.144-.858A4.247,4.247,0,0,0,5.736,7.863,3.936,3.936,0,0,1,9.65,4.289a3.886,3.886,0,0,1,1.023.143A7.434,7.434,0,0,0,10.251,5.6a.715.715,0,0,0,1.383.357,6.046,6.046,0,0,1,.643-1.55A6.127,6.127,0,0,1,17.513,1.43a6.053,6.053,0,0,1,3.574,1.164,4.244,4.244,0,0,0-.272.837.715.715,0,1,0,1.4.286,2.7,2.7,0,0,1,.379-.939,2.859,2.859,0,0,1,5.064.408,2.909,2.909,0,0,1,.219,1.1.715.715,0,0,0,1.43,0,4.313,4.313,0,0,0-.064-.715h.064A7.909,7.909,0,0,1,37.053,10.1a4.264,4.264,0,0,0-1.741.769.715.715,0,0,0,.858,1.144,2.859,2.859,0,0,1,4.2,3.695,2.892,2.892,0,0,1-1.287,1.182.715.715,0,1,0,.605,1.3,4.3,4.3,0,0,0,1.215-.866,5.33,5.33,0,0,1-.831,5.924Z" transform="translate(0 0)" fill="#3b2a76"/>
      <path id="Shape-2" data-name="Shape" d="M33.585,14.148a3.013,3.013,0,0,0-1.43.394V12.718a1.43,1.43,0,0,0-1.43-1.43H28.9a3.011,3.011,0,0,0,.394-1.43C29.3,8.256,27.724,7,25.722,7s-3.574,1.256-3.574,2.859a3.014,3.014,0,0,0,.393,1.43H20.718a1.43,1.43,0,0,0-1.43,1.43v1.823a3.013,3.013,0,0,0-1.43-.394c-1.6,0-2.859,1.573-2.859,3.574S16.256,21.3,17.859,21.3a3.013,3.013,0,0,0,1.43-.394V23.44a1.43,1.43,0,0,0,1.43,1.43h2.513a1.056,1.056,0,0,0,.973-.625,1.078,1.078,0,0,0-.171-1.152,1.781,1.781,0,0,1-.455-1.081c0-.775.982-1.43,2.144-1.43s2.144.655,2.144,1.43a1.781,1.781,0,0,1-.455,1.081,1.078,1.078,0,0,0-.171,1.152,1.056,1.056,0,0,0,.973.625h2.513a1.43,1.43,0,0,0,1.43-1.43V20.9a3.013,3.013,0,0,0,1.43.394c1.6,0,2.859-1.573,2.859-3.574S35.188,14.148,33.585,14.148Zm0,5.718a1.781,1.781,0,0,1-1.082-.455,1.072,1.072,0,0,0-1.152-.171,1.056,1.056,0,0,0-.625.973V23.44H28.9a3.011,3.011,0,0,0,.394-1.43c0-1.6-1.573-2.859-3.574-2.859s-3.574,1.256-3.574,2.859a3.011,3.011,0,0,0,.394,1.43H20.718V20.213a1.056,1.056,0,0,0-.625-.973,1.072,1.072,0,0,0-1.152.171,1.781,1.781,0,0,1-1.081.455c-.775,0-1.43-.982-1.43-2.144s.655-2.144,1.43-2.144a1.781,1.781,0,0,1,1.081.455,1.072,1.072,0,0,0,1.152.171,1.056,1.056,0,0,0,.625-.973V12.718h2.513a1.056,1.056,0,0,0,.974-.626,1.081,1.081,0,0,0-.173-1.154,1.771,1.771,0,0,1-.454-1.079c0-.775.982-1.43,2.144-1.43s2.144.655,2.144,1.43a1.781,1.781,0,0,1-.455,1.081,1.078,1.078,0,0,0-.171,1.152,1.056,1.056,0,0,0,.973.625h2.513v2.513a1.056,1.056,0,0,0,.625.973,1.072,1.072,0,0,0,1.152-.171,1.781,1.781,0,0,1,1.082-.455c.775,0,1.43.982,1.43,2.144s-.655,2.144-1.43,2.144Z" transform="translate(-4.278 -1.996)" fill="#3b2a76"/>
    </g>
  </g>
</svg>
