<svg xmlns="http://www.w3.org/2000/svg" width="34.994" height="34.994" viewBox="0 0 34.994 34.994">
  <g id="subasta" transform="translate(0 -0.001)">
    <g id="Grupo_1157466" data-name="Grupo 1157466" transform="translate(6.883 11.717)">
      <g id="Grupo_1157465" data-name="Grupo 1157465">
        <path id="Trazado_991949" data-name="Trazado 991949" d="M101.871,171.62a.683.683,0,1,0,0,.966A.684.684,0,0,0,101.871,171.62Z" transform="translate(-100.704 -171.42)"/>
      </g>
    </g>
    <g id="Grupo_1157468" data-name="Grupo 1157468" transform="translate(0 26.793)">
      <g id="Grupo_1157467" data-name="Grupo 1157467">
        <path id="Trazado_991950" data-name="Trazado 991950" d="M17.306,395.8a2.393,2.393,0,0,0-1.928-3.809H3.759A2.391,2.391,0,0,0,1.833,395.8,3.42,3.42,0,0,0,0,398.822v.684a.684.684,0,0,0,.683.683h17.77a.684.684,0,0,0,.683-.683v-.684A3.42,3.42,0,0,0,17.306,395.8ZM3.034,393.654a1.018,1.018,0,0,1,.725-.3H15.378a1.025,1.025,0,1,1,0,2.05H3.759a1.025,1.025,0,0,1-.725-1.75Zm-1.667,5.168a2.053,2.053,0,0,1,2.05-2.05h12.3a2.053,2.053,0,0,1,2.05,2.05Z" transform="translate(0 -391.987)"/>
      </g>
    </g>
    <g id="Grupo_1157470" data-name="Grupo 1157470" transform="translate(0.001 0.001)">
      <g id="Grupo_1157469" data-name="Grupo 1157469" transform="translate(0 0)">
        <path id="Trazado_991951" data-name="Trazado 991951" d="M34.378,28.716a4.3,4.3,0,0,0-.823-.945l-3.194-2.785a.678.678,0,0,0-.272-.237l-1.931-1.684-8.939-7.8a2.047,2.047,0,0,0-.6-3.264l.827-.827a2.736,2.736,0,0,0,2.639-.706,2.733,2.733,0,0,0,0-3.866L16.285.8a2.733,2.733,0,0,0-4.573,2.639L3.461,11.693a2.751,2.751,0,0,0-.708-.093A2.734,2.734,0,0,0,.82,16.267l5.8,5.8a2.733,2.733,0,0,0,4.573-2.639l.825-.825a2.051,2.051,0,0,0,3.265.6L24.8,30.14a.687.687,0,0,0,.093.116c.012.012.025.023.038.034l2.837,3.26c.071.083.146.165.224.243A4.065,4.065,0,0,0,30.886,35a4.2,4.2,0,0,0,.575-.04,4.136,4.136,0,0,0,3.051-2.113A4.044,4.044,0,0,0,34.378,28.716ZM13.385,1.769a1.367,1.367,0,0,1,1.933,0l5.8,5.8A1.367,1.367,0,0,1,19.185,9.5l-5.8-5.8h0A1.368,1.368,0,0,1,13.385,1.769ZM9.52,21.1a1.369,1.369,0,0,1-1.933,0l-5.8-5.8a1.367,1.367,0,0,1,1.932-1.934l5.8,5.8A1.368,1.368,0,0,1,9.52,21.1Zm2.878-4.81L10.486,18.2l-5.8-5.8,7.732-7.733,5.8,5.8L16.3,12.382l-.019.018-3.864,3.864Zm2.44,1.426,0,0-.481.481a.684.684,0,0,1-.975-.958l3.882-3.882a.684.684,0,0,1,1.16.491.677.677,0,0,1-.2.483l-.479.479-.01.01Zm1.415.518,2-2,8.458,7.377L23.622,26.7Zm8.268,9.5,3.219-3.219,1.033.9-3.352,3.352Zm8.8,4.443A2.78,2.78,0,0,1,31.274,33.6a2.716,2.716,0,0,1-2.311-.775c-.053-.052-.1-.107-.15-.163l-.007-.008L26.32,29.8l3.485-3.485L32.659,28.8l.007.006a2.942,2.942,0,0,1,.564.649A2.7,2.7,0,0,1,33.32,32.175Z" transform="translate(-0.021 -0.001)"/>
      </g>
    </g>
    <g id="Grupo_1157472" data-name="Grupo 1157472" transform="translate(8.816 6.884)">
      <g id="Grupo_1157471" data-name="Grupo 1157471">
        <path id="Trazado_991952" data-name="Trazado 991952" d="M133.052,100.907a.683.683,0,0,0-.967,0l-2.9,2.9a.683.683,0,0,0,.967.967l2.9-2.9A.683.683,0,0,0,133.052,100.907Z" transform="translate(-128.985 -100.707)"/>
      </g>
    </g>
  </g>
</svg>
