<svg xmlns="http://www.w3.org/2000/svg" width="34.523" height="34.523" viewBox="0 0 34.523 34.523">
  <path id="empathy_17787418" d="M35.97,20.323a8.153,8.153,0,0,0-6.606-3.2,8.423,8.423,0,0,0-6.331,2.61,5.557,5.557,0,0,0-1.4,4.559,4.286,4.286,0,0,0,.252.913,2.068,2.068,0,0,1,.171.671,6.7,6.7,0,0,1-.707,1.18c-.134.2-.28.418-.437.659a1.948,1.948,0,0,0-.425,1.542,1.227,1.227,0,0,0,.762.723,3.729,3.729,0,0,0,.375.12,1.664,1.664,0,0,1,.463.176v0c0,.154,0,.379-.018.634H10.957V18.58a1.708,1.708,0,1,0-1.082,0V31.456a.541.541,0,0,0,.541.541H21.995c-.023.351-.041.687-.041.936a1.7,1.7,0,0,0,.506,1.315,3.245,3.245,0,0,0,2.481.435l.024,0c.344-.046.658-.094.951-.148a1.132,1.132,0,0,1,.1.432c0,.149,0,1.475-.013,1.687a.541.541,0,0,0,.54.571h7.072a.541.541,0,0,0,.541-.558c-.111-3.561-.141-4.518,1.552-7.5a10.684,10.684,0,0,0,1.49-4.327,6.673,6.673,0,0,0-1.23-4.513ZM10.416,16.335a.626.626,0,1,1-.626.626A.626.626,0,0,1,10.416,16.335ZM34.769,28.629c-1.68,2.962-1.8,4.129-1.709,7.511H27.1c.005-.5.007-1.155,0-1.25a2.579,2.579,0,0,0-.114-.6c.286-.081.554-.171.815-.273a.541.541,0,1,0-.394-1.008,10.735,10.735,0,0,1-2.569.6c-.478.041-1.35.114-1.644-.155-.038-.035-.155-.142-.155-.518,0-.3.033-.784.064-1.249.038-.564.075-1.1.065-1.434-.024-.841-.822-1.066-1.25-1.187-.1-.029-.2-.056-.266-.083a.76.76,0,0,1-.129-.063,1.778,1.778,0,0,1,.3-.609c.153-.235.3-.45.429-.646.566-.845.878-1.311.889-1.747a2.868,2.868,0,0,0-.235-1.075,3.34,3.34,0,0,1-.2-.688,4.5,4.5,0,0,1,1.139-3.695,7.424,7.424,0,0,1,5.5-2.248,7.074,7.074,0,0,1,5.739,2.736c1.5,2.148,1.4,4.662-.315,7.685ZM17.528,10.037a3.392,3.392,0,0,1-.195.677,2.865,2.865,0,0,0-.235,1.075c.011.436.323.9.889,1.747.132.2.276.412.427.644a1.79,1.79,0,0,1,.3.612.768.768,0,0,1-.129.063c-.067.027-.163.054-.266.083-.428.121-1.226.346-1.25,1.188-.01.337.026.87.065,1.435.032.465.064.945.064,1.249,0,.376-.117.483-.155.518-.293.269-1.165.2-1.644.155a10.781,10.781,0,0,1-2.548-.589.541.541,0,0,0-.391,1.009c.253.1.514.185.791.263a2.6,2.6,0,0,0-.115.606c-.01.139,0,1.6.012,1.815a.541.541,0,0,0,.54.511h.03a.541.541,0,0,0,.511-.57c-.012-.211-.017-1.532-.013-1.685a1.145,1.145,0,0,1,.1-.433c.292.053.607.1.95.148l.024,0a3.245,3.245,0,0,0,2.481-.435,1.7,1.7,0,0,0,.506-1.315c0-.34-.034-.84-.067-1.323-.035-.514-.071-1.045-.063-1.33v0a1.662,1.662,0,0,1,.463-.176,3.731,3.731,0,0,0,.375-.12,1.228,1.228,0,0,0,.762-.723,1.951,1.951,0,0,0-.427-1.545c-.156-.239-.3-.457-.436-.657a6.691,6.691,0,0,1-.707-1.179,2.067,2.067,0,0,1,.171-.671,4.286,4.286,0,0,0,.252-.913c.006-.045.011-.089.016-.134H28.694v2.805a1.708,1.708,0,1,0,1.082,0V9.5a.541.541,0,0,0-.541-.541H18.642A5.562,5.562,0,0,0,17.2,5.611,8.422,8.422,0,0,0,10.867,3,8.153,8.153,0,0,0,4.261,6.2a6.674,6.674,0,0,0-1.23,4.513,10.686,10.686,0,0,0,1.49,4.327c1.692,2.984,1.663,3.941,1.552,7.5a.541.541,0,0,0,1.082.034c.119-3.822.077-4.95-1.692-8.069-1.715-3.023-1.818-5.537-.315-7.685a7.075,7.075,0,0,1,5.739-2.736h.133a7.411,7.411,0,0,1,5.37,2.25,4.517,4.517,0,0,1,1.164,2.624C17.446,8.9,17.469,10.066,17.528,10.037Zm11.707,5.05a.626.626,0,1,1,.626-.626A.626.626,0,0,1,29.235,15.087Z" transform="translate(-2.854 -2.849)" stroke="#000" stroke-width="0.3"/>
</svg>
