<svg xmlns="http://www.w3.org/2000/svg" width="37.107" height="37.107" viewBox="0 0 37.107 37.107">
  <path id="atencion" d="M20.119,3.558a15.079,15.079,0,0,1,13.43,13.43H36.6a.505.505,0,0,1,.505.505v2.121a.505.505,0,0,1-.505.505H33.549a15.079,15.079,0,0,1-13.43,13.43V36.6a.505.505,0,0,1-.505.505H17.493a.505.505,0,0,1-.505-.505V33.549a15.079,15.079,0,0,1-13.43-13.43H.505A.505.505,0,0,1,0,19.614V17.493a.505.505,0,0,1,.505-.505H3.558a15.079,15.079,0,0,1,13.43-13.43V.505A.505.505,0,0,1,17.493,0h2.121a.505.505,0,0,1,.505.505ZM18.048,15.512v2.536H15.512a.505.505,0,0,0,0,1.011h2.536v2.536a.505.505,0,0,0,1.011,0V19.059h2.536a.505.505,0,1,0,0-1.011H19.059V15.512a.505.505,0,1,0-1.011,0ZM4.572,20.119A14.074,14.074,0,0,0,16.988,32.535V31.413A12.96,12.96,0,0,1,5.694,20.119Zm2.14,0A11.952,11.952,0,0,0,16.988,30.395V27.8a.505.505,0,0,1,.505-.505h2.121a.505.505,0,0,1,.505.505v2.6A11.952,11.952,0,0,0,30.395,20.119H27.8a.505.505,0,0,1-.505-.505V17.493a.505.505,0,0,1,.505-.505h2.6A11.952,11.952,0,0,0,20.119,6.712v2.6a.505.505,0,0,1-.505.505H17.493a.505.505,0,0,1-.505-.505v-2.6A11.952,11.952,0,0,0,6.712,16.987h2.6a.505.505,0,0,1,.505.505v2.121a.505.505,0,0,1-.505.505ZM5.694,16.987A12.96,12.96,0,0,1,16.988,5.694V4.572A14.074,14.074,0,0,0,4.572,16.987ZM1.011,18v1.11H8.8V18ZM20.119,32.535A14.074,14.074,0,0,0,32.535,20.119H31.413A12.96,12.96,0,0,1,20.119,31.413ZM18,36.1h1.11V28.3H18ZM32.535,16.987A14.074,14.074,0,0,0,20.119,4.572V5.694A12.96,12.96,0,0,1,31.413,16.987ZM36.1,19.109V18H28.3v1.11ZM19.109,1.011H18V8.8h1.11Z" transform="translate(0)" fill-rule="evenodd"/>
</svg>
