<svg xmlns="http://www.w3.org/2000/svg" xmlns:xlink="http://www.w3.org/1999/xlink" width="123" height="123" viewBox="0 0 123 123">
  <defs>
    <filter id="Trazado_982547" x="0" y="0" width="123" height="123" filterUnits="userSpaceOnUse">
      <feOffset dy="3" input="SourceAlpha"/>
      <feGaussianBlur stdDeviation="3" result="blur"/>
      <feFlood flood-opacity="0.161"/>
      <feComposite operator="in" in2="blur"/>
      <feComposite in="SourceGraphic"/>
    </filter>
  </defs>
  <g id="Grupo_1223501" data-name="Grupo 1223501" transform="translate(-318.625 -5208.516)">
    <g id="Grupo_1223436" data-name="Grupo 1223436" transform="translate(-6.146 2227.821)">
      <g id="Grupo_1211203" data-name="Grupo 1211203" transform="translate(333.77 2986.695)">
        <g id="Grupo_1210937" data-name="Grupo 1210937" transform="translate(0 0)">
          <g id="Grupo_1174742" data-name="Grupo 1174742" transform="translate(0)">
            <g id="Grupo_1163948" data-name="Grupo 1163948">
              <g id="Grupo_1158168" data-name="Grupo 1158168">
                <g id="Grupo_1152576" data-name="Grupo 1152576">
                  <g id="Grupo_1148633" data-name="Grupo 1148633">
                    <g id="Grupo_1148525" data-name="Grupo 1148525">
                      <g transform="matrix(1, 0, 0, 1, -9, -6)" filter="url(#Trazado_982547)">
                        <g id="Trazado_982547-2" data-name="Trazado 982547" transform="translate(9 6)" fill="#fdf6e4">
                          <path d="M 52.49996948242188 103.4999389648438 C 45.61435699462891 103.4999389648438 38.93551254272461 102.1517105102539 32.64894104003906 99.49272918701172 C 26.57608413696289 96.92412567138672 21.12178421020508 93.24662780761719 16.43754005432129 88.56240081787109 C 11.75331211090088 83.87815856933594 8.075812339782715 78.42385864257812 5.507212162017822 72.35099792480469 C 2.848226547241211 66.06443023681641 1.499998092651367 59.38558197021484 1.499998092651367 52.49996948242188 C 1.499998092651367 45.61435699462891 2.848226547241211 38.93551254272461 5.507212162017822 32.64894104003906 C 8.075812339782715 26.57608413696289 11.75331211090088 21.12178421020508 16.43754005432129 16.43754005432129 C 21.12178421020508 11.75331211090088 26.57608413696289 8.075812339782715 32.64894104003906 5.507212162017822 C 38.93551254272461 2.848226547241211 45.61435699462891 1.499998092651367 52.49996948242188 1.499998092651367 C 59.38558197021484 1.499998092651367 66.06443023681641 2.848226547241211 72.35099792480469 5.507212162017822 C 78.42385864257812 8.075812339782715 83.87815856933594 11.75331211090088 88.56240081787109 16.43754005432129 C 93.24662780761719 21.12178421020508 96.92412567138672 26.57608413696289 99.49272918701172 32.64894104003906 C 102.1517105102539 38.93551254272461 103.4999389648438 45.61435699462891 103.4999389648438 52.49996948242188 C 103.4999389648438 59.38558197021484 102.1517105102539 66.06443023681641 99.49272918701172 72.35099792480469 C 96.92412567138672 78.42385864257812 93.24662780761719 83.87815856933594 88.56240081787109 88.56240081787109 C 83.87815856933594 93.24662780761719 78.42385864257812 96.92412567138672 72.35099792480469 99.49272918701172 C 66.06443023681641 102.1517105102539 59.38558197021484 103.4999389648438 52.49996948242188 103.4999389648438 Z" stroke="none"/>
                          <path d="M 52.49996948242188 3 C 45.81618499755859 3 39.33393859863281 4.308349609375 33.23326873779297 6.888717651367188 C 27.33920288085938 9.381706237792969 22.045166015625 12.95125579833984 17.49819946289062 17.49819946289062 C 12.95125579833984 22.045166015625 9.381706237792969 27.33920288085938 6.888717651367188 33.23326873779297 C 4.308349609375 39.33393859863281 3 45.81618499755859 3 52.49996948242188 C 3 59.18375396728516 4.308349609375 65.66600036621094 6.888717651367188 71.76667022705078 C 9.381706237792969 77.66073608398438 12.95125579833984 82.95477294921875 17.49819946289062 87.50173950195312 C 22.045166015625 92.04868316650391 27.33920288085938 95.61824035644531 33.23326873779297 98.11122131347656 C 39.33393859863281 100.6915893554688 45.81618499755859 101.9999389648438 52.49996948242188 101.9999389648438 C 59.18375396728516 101.9999389648438 65.66600036621094 100.6915893554688 71.76667022705078 98.11122131347656 C 77.66073608398438 95.61824035644531 82.95477294921875 92.04868316650391 87.50173950195312 87.50173950195312 C 92.04868316650391 82.95477294921875 95.61824035644531 77.66073608398438 98.11122131347656 71.76667022705078 C 100.6915893554688 65.66600036621094 101.9999389648438 59.18375396728516 101.9999389648438 52.49996948242188 C 101.9999389648438 45.81618499755859 100.6915893554688 39.33393859863281 98.11122131347656 33.23326873779297 C 95.61824035644531 27.33920288085938 92.04868316650391 22.045166015625 87.50173950195312 17.49819946289062 C 82.95477294921875 12.95125579833984 77.66073608398438 9.381706237792969 71.76667022705078 6.888717651367188 C 65.66600036621094 4.308349609375 59.18375396728516 3 52.49996948242188 3 M 52.49996948242188 0 C 81.49490356445312 0 104.9999389648438 23.50503540039062 104.9999389648438 52.49996948242188 C 104.9999389648438 81.49490356445312 81.49490356445312 104.9999389648438 52.49996948242188 104.9999389648438 C 23.50503540039062 104.9999389648438 0 81.49490356445312 0 52.49996948242188 C 0 23.50503540039062 23.50503540039062 0 52.49996948242188 0 Z" stroke="none" fill="#f5b104"/>
                        </g>
                      </g>
                    </g>
                  </g>
                </g>
              </g>
            </g>
          </g>
        </g>
      </g>
    </g>
    <g id="tv_2223801" transform="translate(346.541 5213.036)">
      <path id="Trazado_1059356" data-name="Trazado 1059356" d="M71.708,121.147H12.73a2.73,2.73,0,0,1-2.73-2.73V80.983a2.73,2.73,0,0,1,2.73-2.73H71.708a2.73,2.73,0,0,1,2.73,2.73v37.434A2.73,2.73,0,0,1,71.708,121.147Z" transform="translate(-8.635 -47.176)" fill="#e8e7e9"/>
      <path id="Trazado_1059357" data-name="Trazado 1059357" d="M137.893,33.62h-7.964a2.73,2.73,0,0,0-2.73,2.73v3.362h32.443V36.35a2.73,2.73,0,0,0-2.73-2.73H148.9" transform="translate(-109.836 -8.635)" fill="#8aa8bd"/>
      <path id="Trazado_1059358" data-name="Trazado 1059358" d="M159.642,401.5H127.2l10.03-9h13.049Z" transform="translate(-109.836 -318.524)" fill="#8aa8bd"/>
      <path id="Trazado_1059359" data-name="Trazado 1059359" d="M61.587,127.522v-10H48.076v23.768H61.587Z" transform="translate(-41.514 -81.082)" fill="#b9f4fb"/>
      <path id="Trazado_1059360" data-name="Trazado 1059360" d="M259.547,124.478v-6.959H246.036v10" transform="translate(-212.452 -81.082)" fill="#ffc144"/>
      <path id="Trazado_1059361" data-name="Trazado 1059361" d="M246.036,171.541v8.074h13.511V168.5" transform="translate(-212.452 -125.101)" fill="#ffc144"/>
      <path id="Trazado_1059362" data-name="Trazado 1059362" d="M345.016,117.519h13.511v6.959H345.016Z" transform="translate(-297.921 -81.082)" fill="#ff7b7b"/>
      <path id="Trazado_1059363" data-name="Trazado 1059363" d="M147.056,117.519h13.511v10H147.056Z" transform="translate(-126.983 -81.082)" fill="#fff"/>
      <path id="Trazado_1059364" data-name="Trazado 1059364" d="M246.036,249.945h13.511v14.1H246.036Z" transform="translate(-212.452 -195.432)" fill="#f2efef"/>
      <path id="Trazado_1059365" data-name="Trazado 1059365" d="M48.076,291.646H61.587v8.406H48.076Z" transform="translate(-41.514 -231.44)" fill="#ff7b7b"/>
      <path id="Trazado_1059366" data-name="Trazado 1059366" d="M345.016,179.615v14.1h13.511V168.5H345.016Z" transform="translate(-297.921 -125.101)" fill="#ffda8f"/>
      <path id="Trazado_1059367" data-name="Trazado 1059367" d="M147.056,255.637v8.406h13.511v-14.1" transform="translate(-126.983 -195.431)" fill="#80b6ff"/>
      <path id="Trazado_1059368" data-name="Trazado 1059368" d="M160.567,198.871V190.8H147.056v13.766" transform="translate(-126.983 -144.357)" fill="#80b6ff"/>
      <path id="Trazado_1059369" data-name="Trazado 1059369" d="M57.8,84.34a1.366,1.366,0,0,0,0-2.73H50.355l-6.524-6.273H63.073a4.1,4.1,0,0,0,4.1-4.1V33.807a4.1,4.1,0,0,0-4.1-4.1H51.17v-2a4.1,4.1,0,0,0-4.1-4.1H39.061a1.366,1.366,0,0,0,0,2.73h8.014a1.367,1.367,0,0,1,1.365,1.365v2H18.728v-2a1.367,1.367,0,0,1,1.365-1.365h7.965a1.366,1.366,0,0,0,0-2.73H20.093a4.1,4.1,0,0,0-4.1,4.1v2H4.1a4.1,4.1,0,0,0-4.1,4.1V71.242a4.1,4.1,0,0,0,4.1,4.1H23.829L16.84,81.61H9.37a1.366,1.366,0,0,0,0,2.73ZM46.416,81.61H20.927l6.989-6.273H39.893ZM63.073,32.442a1.367,1.367,0,0,1,1.365,1.365V71.242a1.367,1.367,0,0,1-1.365,1.365H4.1A1.367,1.367,0,0,1,2.73,71.242V33.807A1.367,1.367,0,0,1,4.1,32.442Z"/>
      <path id="Trazado_1059370" data-name="Trazado 1059370" d="M38.076,141.059a1.365,1.365,0,0,0,1.365,1.365H93.484a1.365,1.365,0,0,0,1.365-1.365v-2.684a1.366,1.366,0,0,0-2.73,0v1.319H81.339V117.208H92.119v10.2a1.366,1.366,0,0,0,2.73,0v-18.52a1.365,1.365,0,0,0-1.365-1.365H39.441a1.365,1.365,0,0,0-1.365,1.365Zm29.752-30.81H78.608V125.6H67.828Zm-2.73,7.272H54.317v-7.272H65.1ZM51.587,131.288H40.806V110.249H51.587v21.039Zm-10.781,2.73H51.587v5.676H40.806ZM65.1,139.694H54.317V120.252H65.1Zm2.73-11.368H78.608v11.368H67.828Zm13.511-13.848v-4.229H92.119v4.229Z" transform="translate(-32.879 -72.447)"/>
      <path id="Trazado_1059371" data-name="Trazado 1059371" d="M436.49,284.369a1.365,1.365,0,1,0-.219,1.77A1.377,1.377,0,0,0,436.49,284.369Z" transform="translate(-374.749 -224.648)"/>
      <path id="Trazado_1059372" data-name="Trazado 1059372" d="M236.663,26.125a1.364,1.364,0,1,0-.514-1.626A1.375,1.375,0,0,0,236.663,26.125Z" transform="translate(-203.837 -0.005)"/>
    </g>
  </g>
</svg>
