<svg xmlns="http://www.w3.org/2000/svg" xmlns:xlink="http://www.w3.org/1999/xlink" width="116" height="116" viewBox="0 0 116 116">
  <defs>
    <filter id="Trazado_978624" x="0" y="0" width="116" height="116" filterUnits="userSpaceOnUse">
      <feOffset dy="3" input="SourceAlpha"/>
      <feGaussianBlur stdDeviation="3" result="blur"/>
      <feFlood flood-opacity="0.161"/>
      <feComposite operator="in" in2="blur"/>
      <feComposite in="SourceGraphic"/>
    </filter>
  </defs>
  <g id="Grupo_1206979" data-name="Grupo 1206979" transform="translate(-158 -1159)">
    <g id="Grupo_1205942" data-name="Grupo 1205942" transform="translate(-5 -2718)">
      <g id="Grupo_1201782" data-name="Grupo 1201782" transform="translate(172 3883)">
        <g id="Grupo_1171926" data-name="Grupo 1171926" transform="translate(0 0)">
          <g id="Grupo_1171925" data-name="Grupo 1171925">
            <g id="Grupo_1164524" data-name="Grupo 1164524">
              <g id="Grupo_1144123" data-name="Grupo 1144123">
                <g transform="matrix(1, 0, 0, 1, -9, -6)" filter="url(#Trazado_978624)">
                  <g id="Trazado_978624-2" data-name="Trazado 978624" transform="translate(9 6)" fill="#fcf2ec">
                    <path d="M 49.0001220703125 96.500244140625 C 42.58699035644531 96.500244140625 36.36648178100586 95.24456024169922 30.51138877868652 92.76806640625 C 24.85529518127441 90.375732421875 19.77528190612793 86.95059204101562 15.41246891021729 82.58777618408203 C 11.04965496063232 78.2249755859375 7.624508857727051 73.14495849609375 5.232175350189209 67.48885345458984 C 2.755681991577148 61.63376235961914 1.500002026557922 55.41325378417969 1.500002026557922 49.0001220703125 C 1.500002026557922 42.58699035644531 2.755681991577148 36.36648178100586 5.232175350189209 30.51138877868652 C 7.624508857727051 24.85529518127441 11.04965496063232 19.77528190612793 15.41246891021729 15.41246891021729 C 19.77528190612793 11.04965496063232 24.85529518127441 7.624508857727051 30.51138877868652 5.232175350189209 C 36.36648178100586 2.755681991577148 42.58699035644531 1.500002026557922 49.0001220703125 1.500002026557922 C 55.41325378417969 1.500002026557922 61.63376235961914 2.755681991577148 67.48885345458984 5.232175350189209 C 73.14495849609375 7.624508857727051 78.2249755859375 11.04965496063232 82.58777618408203 15.41246891021729 C 86.95059204101562 19.77528190612793 90.375732421875 24.85529518127441 92.76806640625 30.51138877868652 C 95.24456024169922 36.36648178100586 96.500244140625 42.58699035644531 96.500244140625 49.0001220703125 C 96.500244140625 55.41325378417969 95.24456024169922 61.63377380371094 92.76806640625 67.48885345458984 C 90.375732421875 73.14495849609375 86.95059204101562 78.2249755859375 82.58777618408203 82.58777618408203 C 78.2249755859375 86.95059204101562 73.14495849609375 90.375732421875 67.48885345458984 92.76806640625 C 61.63377380371094 95.24456024169922 55.41325378417969 96.500244140625 49.0001220703125 96.500244140625 Z" stroke="none"/>
                    <path d="M 49.0001220703125 3 C 42.7888298034668 3 36.76490783691406 4.215812683105469 31.09571838378906 6.613693237304688 C 25.61841583251953 8.930381774902344 20.69866180419922 12.24758148193359 16.47312164306641 16.47312164306641 C 12.24758148193359 20.69866180419922 8.930381774902344 25.61841583251953 6.613693237304688 31.09571838378906 C 4.215812683105469 36.76490783691406 3 42.7888298034668 3 49.0001220703125 C 3 55.2114143371582 4.215812683105469 61.23533630371094 6.613693237304688 66.90452575683594 C 8.930381774902344 72.38182830810547 12.24758148193359 77.30158233642578 16.47312164306641 81.52712249755859 C 20.69866180419922 85.75266265869141 25.61841583251953 89.06986236572266 31.09571838378906 91.38655090332031 C 36.76490783691406 93.78443145751953 42.7888298034668 95.000244140625 49.0001220703125 95.000244140625 C 55.2114143371582 95.000244140625 61.23533630371094 93.78443145751953 66.90452575683594 91.38655090332031 C 72.38182830810547 89.06986236572266 77.30158233642578 85.75266265869141 81.52712249755859 81.52712249755859 C 85.75266265869141 77.30158233642578 89.06986236572266 72.38182830810547 91.38655090332031 66.90452575683594 C 93.78443145751953 61.23533630371094 95.000244140625 55.2114143371582 95.000244140625 49.0001220703125 C 95.000244140625 42.7888298034668 93.78443145751953 36.76490783691406 91.38655090332031 31.09571838378906 C 89.06986236572266 25.61841583251953 85.75266265869141 20.69866180419922 81.52712249755859 16.47312164306641 C 77.30158233642578 12.24758148193359 72.38182830810547 8.930381774902344 66.90452575683594 6.613693237304688 C 61.23533630371094 4.215812683105469 55.2114143371582 3 49.0001220703125 3 M 49.0001220703125 0 C 76.0621337890625 0 98.000244140625 21.9381103515625 98.000244140625 49.0001220703125 C 98.000244140625 76.0621337890625 76.0621337890625 98.000244140625 49.0001220703125 98.000244140625 C 21.9381103515625 98.000244140625 0 76.0621337890625 0 49.0001220703125 C 0 21.9381103515625 21.9381103515625 0 49.0001220703125 0 Z" stroke="none" fill="#e8864c"/>
                  </g>
                </g>
              </g>
            </g>
          </g>
        </g>
      </g>
    </g>
    <g id="Layer_35" transform="translate(175.994 1168.6)">
      <g id="Grupo_1206978" data-name="Grupo 1206978" transform="translate(5.012 6.4)">
        <g id="Grupo_1206969" data-name="Grupo 1206969" transform="translate(15.333 7.517)">
          <path id="Trazado_1048858" data-name="Trazado 1048858" d="M54.35,35.446A16.392,16.392,0,0,1,50.9,25.361a15.874,15.874,0,0,1,2.241-8.275,32.972,32.972,0,0,0-29.05,3.276,11.231,11.231,0,0,0-1.293.862c2.414,3.879,5.862,3.707,9.224,3.189,5.517-.948,5.862,3.448,6.206,6.379.517,4.31,2.845,8.62,7.672,9.137,3.1.345,6.293-1.465,8.448-4.482Z" transform="translate(-22.8 -15.12)" fill="#92e0c4" fill-rule="evenodd"/>
        </g>
        <g id="Grupo_1206970" data-name="Grupo 1206970" transform="translate(3.782 13.706)">
          <path id="Trazado_1048859" data-name="Trazado 1048859" d="M69.568,64.366A33.231,33.231,0,0,0,72.241,41.35,16.469,16.469,0,0,1,52.5,36.523c-2.155,3.017-5.344,4.827-8.448,4.482-4.741-.517-7.069-4.827-7.672-9.137-.345-2.931-.69-7.327-6.206-6.379-3.362.6-6.81.69-9.224-3.189A32.732,32.732,0,0,0,9.4,36.7c2.586,2.758,7.068,3.448,11.379,3.1,5.948-.6,5.775,4.655,4.4,7.241-1.552,2.758-5.948,5.431-.345,7.931,1.379.6,4.224,1.81,3.793,6.12-.345,3.62-1.724,5.6.69,6.724,6.81,3.189,1.638,7.155-4.741,10.948a33.135,33.135,0,0,0,33.274-1.379,32.275,32.275,0,0,0,7.068-6.12l-6.379-6.379L52.414,71l-17.5-17.671L40.6,47.643l11.9,11.9,6.12-6.12Z" transform="translate(-9.4 -22.3)" fill="#70bbfa" fill-rule="evenodd"/>
        </g>
        <g id="Grupo_1206971" data-name="Grupo 1206971" transform="translate(1.268 27.929)">
          <path id="Trazado_1048860" data-name="Trazado 1048860" d="M28.22,63.195c.431-4.31-2.414-5.517-3.793-6.12-5.6-2.5-1.207-5.172.345-7.931,1.465-2.5,1.552-7.758-4.4-7.241-4.31.431-8.793-.259-11.379-3.1A33.214,33.214,0,0,0,11.67,69.315a32.5,32.5,0,0,0,12.5,11.465C30.548,76.9,35.72,72.936,28.91,69.832c-2.414-1.121-1.121-3.017-.69-6.637Z" transform="translate(-6.483 -38.8)" fill="#92e0c4" fill-rule="evenodd"/>
        </g>
        <g id="Grupo_1206972" data-name="Grupo 1206972" transform="translate(29.039 7.566)">
          <path id="Trazado_1048861" data-name="Trazado 1048861" d="M67.233,24.593A33.109,33.109,0,0,0,38.7,15.628,33.144,33.144,0,0,1,59.992,28.644c1.638-1.81,4.31-2.155,6.982-3.879Z" transform="translate(-38.7 -15.178)" fill="#84c9b0" fill-rule="evenodd"/>
        </g>
        <g id="Grupo_1206973" data-name="Grupo 1206973" transform="translate(29.125 16.982)">
          <path id="Trazado_1048862" data-name="Trazado 1048862" d="M72.074,31.962A35.237,35.237,0,0,0,67.333,26.1l-.259.172C64.4,28,61.73,28.255,60.092,30.151c.431.6.862,1.207,1.293,1.9A33.171,33.171,0,0,1,51.213,77.735,32.241,32.241,0,0,1,38.8,82.476,33.1,33.1,0,0,0,72.074,31.962Z" transform="translate(-38.8 -26.1)" fill="#60a4db" fill-rule="evenodd"/>
        </g>
        <g id="Grupo_1206974" data-name="Grupo 1206974" transform="translate(43.349 1.293)">
          <path id="Trazado_1048863" data-name="Trazado 1048863" d="M88.229,24.364a16.458,16.458,0,0,0-30.688-8.275A16.728,16.728,0,0,0,55.3,24.364,16.41,16.41,0,0,0,78.488,39.277a16.228,16.228,0,0,0,9.741-14.913Z" transform="translate(-55.3 -7.9)" fill="#ffb92f" fill-rule="evenodd"/>
        </g>
        <g id="Grupo_1206975" data-name="Grupo 1206975" transform="translate(56.02 1.293)">
          <path id="Trazado_1048864" data-name="Trazado 1048864" d="M90.257,24.364A16.463,16.463,0,0,0,73.793,7.9,18.261,18.261,0,0,0,70,8.331a16.4,16.4,0,0,1,0,31.894,18.261,18.261,0,0,0,3.793.431A16.209,16.209,0,0,0,90.257,24.364Z" transform="translate(-70 -7.9)" fill="#edab26" fill-rule="evenodd"/>
        </g>
        <g id="Grupo_1206976" data-name="Grupo 1206976" transform="translate(29.298 39.049)">
          <path id="Trazado_1048865" data-name="Trazado 1048865" d="M56.585,63.51,44.775,51.7,39,57.389,56.585,74.974l6.12-6.12,6.379,6.379L74.256,80.4l-6.12,6.034H85.98V68.6l-6.034,6.12-6.293-6.293L62.705,57.475Z" transform="translate(-39 -51.7)" fill="#db5565" fill-rule="evenodd"/>
        </g>
        <g id="Grupo_1206977" data-name="Grupo 1206977">
          <path id="Trazado_1048866" data-name="Trazado 1048866" d="M81.807,61.224a1.315,1.315,0,0,0-1.379.259l-5.172,5.172-4.741-4.741A34.806,34.806,0,0,0,73.1,39.846,17.737,17.737,0,1,0,50.085,14.331a34.1,34.1,0,0,0-29.136,3.707A34.409,34.409,0,0,0,39.482,81.481a33.768,33.768,0,0,0,18.447-5.431,34.376,34.376,0,0,0,6.465-5.344l3.276,3.276L62.5,79.154a1.192,1.192,0,0,0-.259,1.379,1.22,1.22,0,0,0,1.207.776H81.29a1.326,1.326,0,0,0,1.293-1.293V62.345a1.227,1.227,0,0,0-.776-1.121ZM64.825,8.986A15.171,15.171,0,1,1,49.654,24.157,15.194,15.194,0,0,1,64.825,8.986ZM48.792,16.658a18.069,18.069,0,0,0-1.724,7.5,18.567,18.567,0,0,0,3.1,10.086c-1.9,2.327-4.4,3.534-6.637,3.276-5.172-.6-6.293-6.293-6.465-8.017v-.345c-.259-1.983-.6-4.741-2.672-6.293a6.33,6.33,0,0,0-5-.862c-3.189.431-5.431.345-7.155-1.724l.086-.086a31.826,31.826,0,0,1,26.464-3.534Zm-36.2,47.583A31.921,31.921,0,0,1,9.4,36.57c3.448,2.414,8.189,2.414,10.948,2.155q2.457-.259,3.362,1.034a4.862,4.862,0,0,1-.172,4.224,16.039,16.039,0,0,1-1.207,1.724c-1.121,1.379-2.414,3.017-1.983,4.827.345,1.293,1.465,2.327,3.448,3.276h.086c1.293.6,3.276,1.465,2.931,4.741a15.319,15.319,0,0,1-.431,2.414c-.431,2.069-.862,4.31,1.9,5.6,1.552.69,2.414,1.465,2.5,2.155.086,1.81-4.482,4.741-6.724,6.12a30.672,30.672,0,0,1-11.465-10.6ZM56.55,73.982a31.922,31.922,0,0,1-29.912,2.241c4.138-2.672,6.724-5,6.551-7.586-.086-1.724-1.379-3.189-3.965-4.4-.776-.345-.862-.517-.431-2.758a19.277,19.277,0,0,0,.431-2.672c.517-5.172-3.1-6.724-4.482-7.327h-.086c-1.638-.69-1.9-1.293-1.983-1.465-.172-.6.776-1.724,1.465-2.586A17.851,17.851,0,0,0,25.6,45.363c1.034-1.81,1.552-4.827.086-6.9-.776-1.207-2.414-2.5-5.775-2.155-4.138.431-7.586-.345-9.655-2.069A30.87,30.87,0,0,1,19.914,22c2.672,3.276,6.206,3.189,9.741,2.586a3.886,3.886,0,0,1,3.1.431c1.121.862,1.379,2.931,1.638,4.569v.345c.6,4.569,3.189,9.655,8.793,10.258.345,0,.6.086.948.086a10.479,10.479,0,0,0,7.672-3.793,17.769,17.769,0,0,0,12.93,5.6A16.787,16.787,0,0,0,70.6,41.053,32.093,32.093,0,0,1,68.532,60.1l-9.568-9.827a1.25,1.25,0,0,0-1.81,0l-5.172,5.172L40.948,44.5a1.249,1.249,0,0,0-1.81,0L33.448,50.19a1.25,1.25,0,0,0,0,1.81L51.033,69.585a1.249,1.249,0,0,0,1.81,0l5.172-5.172,4.569,4.569a33.842,33.842,0,0,1-6.034,5ZM80,78.9H66.636l3.879-3.879a1.25,1.25,0,0,0,0-1.81L58.964,61.741a1.353,1.353,0,0,0-1.9,0L51.9,66.913,36.12,51.138,40,47.259,50.947,58.207a1.25,1.25,0,0,0,1.81,0l5.172-5.172L74.221,69.327a1.25,1.25,0,0,0,1.81,0L80,65.534Z" transform="translate(-5.012 -6.4)"/>
          <path id="Trazado_1048867" data-name="Trazado 1048867" d="M73.972,30.492H70.093a1.293,1.293,0,0,0,0,2.586H72.42v1.9a1.293,1.293,0,1,0,2.586,0V32.992a4.543,4.543,0,0,0,3.62-4.482,4.6,4.6,0,0,0-4.569-4.569h-.69a1.983,1.983,0,1,1,0-3.965h3.793a1.293,1.293,0,0,0,0-2.586H75.006v-1.9a1.293,1.293,0,0,0-2.586,0v1.983a4.543,4.543,0,0,0-3.62,4.482,4.6,4.6,0,0,0,4.569,4.569h.69a1.984,1.984,0,1,1-.086,3.965Z" transform="translate(-13.814 -7.476)"/>
        </g>
      </g>
    </g>
  </g>
</svg>
