<svg xmlns="http://www.w3.org/2000/svg" xmlns:xlink="http://www.w3.org/1999/xlink" width="93.934" height="93.934" viewBox="0 0 93.934 93.934">
  <defs>
    <filter id="Trazado_982547" x="0" y="0" width="93.934" height="93.934" filterUnits="userSpaceOnUse">
      <feOffset dy="3" input="SourceAlpha"/>
      <feGaussianBlur stdDeviation="3" result="blur"/>
      <feFlood flood-opacity="0.161"/>
      <feComposite operator="in" in2="blur"/>
      <feComposite in="SourceGraphic"/>
    </filter>
  </defs>
  <g id="Grupo_1206174" data-name="Grupo 1206174" transform="translate(-189.5 -854)">
    <g id="Grupo_1184774" data-name="Grupo 1184774" transform="translate(0.5 119)">
      <g id="Grupo_1175133" data-name="Grupo 1175133" transform="translate(-0.033 -1251)">
        <g id="Grupo_1167337" data-name="Grupo 1167337" transform="translate(198.033 1992)">
          <g id="Grupo_1166720" data-name="Grupo 1166720">
            <g id="Grupo_1164305" data-name="Grupo 1164305">
              <g id="Grupo_1163948" data-name="Grupo 1163948">
                <g id="Grupo_1158168" data-name="Grupo 1158168">
                  <g id="Grupo_1152576" data-name="Grupo 1152576">
                    <g id="Grupo_1148633" data-name="Grupo 1148633">
                      <g id="Grupo_1148525" data-name="Grupo 1148525">
                        <g transform="matrix(1, 0, 0, 1, -9, -6)" filter="url(#Trazado_982547)">
                          <g id="Trazado_982547-2" data-name="Trazado 982547" transform="translate(9 6)" fill="#e8edf7">
                            <path d="M 37.966796875 74.43359375 C 33.04315185546875 74.43359375 28.26757431030273 73.46962738037109 23.77274131774902 71.56847381591797 C 19.43047523498535 69.73184967041016 15.53040790557861 67.10224914550781 12.18087482452393 63.75271987915039 C 8.831341743469238 60.4031867980957 6.201741218566895 56.50312042236328 4.365118980407715 52.16086196899414 C 2.463963508605957 47.66601943969727 1.499996900558472 42.89044189453125 1.499996900558472 37.966796875 C 1.499996900558472 33.04315185546875 2.463963508605957 28.26757431030273 4.365118980407715 23.77274131774902 C 6.201741218566895 19.43047523498535 8.831341743469238 15.53040790557861 12.18087482452393 12.18087482452393 C 15.53040790557861 8.831341743469238 19.43047523498535 6.201741218566895 23.77274131774902 4.365118980407715 C 28.26757431030273 2.463963508605957 33.04315185546875 1.499996900558472 37.966796875 1.499996900558472 C 42.89044189453125 1.499996900558472 47.66601943969727 2.463963508605957 52.16086196899414 4.365118980407715 C 56.50312042236328 6.201741218566895 60.4031867980957 8.831341743469238 63.75271987915039 12.18087482452393 C 67.10224914550781 15.53040790557861 69.73184967041016 19.43047523498535 71.56847381591797 23.77274131774902 C 73.46962738037109 28.26757431030273 74.43359375 33.04315185546875 74.43359375 37.966796875 C 74.43359375 42.89044189453125 73.46962738037109 47.66601943969727 71.56847381591797 52.16086196899414 C 69.73184967041016 56.50313186645508 67.10224914550781 60.4031867980957 63.75271987915039 63.75271987915039 C 60.4031867980957 67.10224914550781 56.50313186645508 69.73184967041016 52.16086196899414 71.56847381591797 C 47.66601943969727 73.46962738037109 42.89044189453125 74.43359375 37.966796875 74.43359375 Z" stroke="none"/>
                            <path d="M 37.966796875 3 C 33.2449836730957 3 28.66600799560547 3.924095153808594 24.35705947875977 5.746635437011719 C 20.19359588623047 7.507637023925781 16.45379638671875 10.02928161621094 13.24153518676758 13.24153518676758 C 10.02927398681641 16.45379638671875 7.507621765136719 20.19359588623047 5.746635437011719 24.35705947875977 C 3.924095153808594 28.66600799560547 3 33.2449836730957 3 37.966796875 C 3 42.6886100769043 3.924095153808594 47.26758575439453 5.746635437011719 51.57653427124023 C 7.507621765136719 55.73999786376953 10.02927398681641 59.47979736328125 13.24153518676758 62.69205856323242 C 16.45379638671875 65.90431976318359 20.19359588623047 68.42597198486328 24.35705947875977 70.18695831298828 C 28.66600799560547 72.00949859619141 33.2449836730957 72.93359375 37.966796875 72.93359375 C 42.6886100769043 72.93359375 47.26758575439453 72.00949859619141 51.57653427124023 70.18695831298828 C 55.73999786376953 68.42597198486328 59.47979736328125 65.90431976318359 62.69205856323242 62.69205856323242 C 65.90431976318359 59.47979736328125 68.42597198486328 55.73999786376953 70.18695831298828 51.57653427124023 C 72.00949859619141 47.26758575439453 72.93359375 42.6886100769043 72.93359375 37.966796875 C 72.93359375 33.2449836730957 72.00949859619141 28.66600799560547 70.18695831298828 24.35705947875977 C 68.42597198486328 20.19359588623047 65.90431976318359 16.45379638671875 62.69205856323242 13.24153518676758 C 59.47979736328125 10.02928161621094 55.73999786376953 7.507637023925781 51.57653427124023 5.746635437011719 C 47.26758575439453 3.924095153808594 42.6886100769043 3 37.966796875 3 M 37.966796875 0 C 58.93528366088867 0 75.93359375 16.99832153320312 75.93359375 37.966796875 C 75.93359375 58.93528366088867 58.93528366088867 75.93359375 37.966796875 75.93359375 C 16.99831008911133 75.93359375 0 58.93528366088867 0 37.966796875 C 0 16.99832153320312 16.99831008911133 0 37.966796875 0 Z" stroke="none" fill="#2e5bb6"/>
                          </g>
                        </g>
                      </g>
                    </g>
                  </g>
                </g>
              </g>
            </g>
          </g>
        </g>
      </g>
    </g>
    <g id="mente" transform="translate(150.55 872)">
      <path id="Trazado_1047732" data-name="Trazado 1047732" d="M95.252,19.295a9.52,9.52,0,0,0-.128-1.559.693.693,0,0,1,.279-.673l1.389-1.009a.7.7,0,0,0,.194-.912l-2.01-3.482a.7.7,0,0,0-.887-.288l-1.57.7a.693.693,0,0,1-.723-.1,9.468,9.468,0,0,0-2.7-1.56.692.692,0,0,1-.443-.578L88.475,8.13a.7.7,0,0,0-.693-.624H83.761a.7.7,0,0,0-.693.624l-.179,1.707a.692.692,0,0,1-.443.578,9.468,9.468,0,0,0-2.7,1.56.693.693,0,0,1-.723.1l-1.57-.7a.7.7,0,0,0-.887.288l-2.01,3.482a.7.7,0,0,0,.194.912l1.389,1.009a.693.693,0,0,1,.279.673,9.556,9.556,0,0,0,0,3.118.693.693,0,0,1-.279.673l-1.389,1.009a.7.7,0,0,0-.194.912l2.01,3.482a.7.7,0,0,0,.887.288l1.57-.7a.693.693,0,0,1,.723.1,9.469,9.469,0,0,0,2.7,1.56.692.692,0,0,1,.443.578l.179,1.707a.7.7,0,0,0,.693.624h4.021a.7.7,0,0,0,.693-.624l.179-1.707a.693.693,0,0,1,.443-.578,9.468,9.468,0,0,0,2.7-1.56.693.693,0,0,1,.723-.1l1.57.7a.7.7,0,0,0,.887-.288l2.01-3.482a.7.7,0,0,0-.194-.912L95.4,21.527a.693.693,0,0,1-.279-.673A9.541,9.541,0,0,0,95.252,19.295Z" transform="translate(-6.762 -6.756)" fill="#dfeaef"/>
      <g id="Grupo_1206173" data-name="Grupo 1206173" transform="translate(67.701 0.751)">
        <path id="Trazado_1047733" data-name="Trazado 1047733" d="M155.81,7.507a.7.7,0,0,0-.693.625l-.179,1.706a.692.692,0,0,1-.443.578,3.353,3.353,0,0,1-1.324.044l.114-.044a.692.692,0,0,0,.443-.578l.179-1.706a.7.7,0,0,1,.693-.625Z" transform="translate(-145.302 -7.507)" fill="#b4d0d5"/>
        <path id="Trazado_1047734" data-name="Trazado 1047734" d="M77.777,61.182,75.767,57.7a.7.7,0,0,1,.194-.912l1.389-1.009a.693.693,0,0,0,.279-.673,9.556,9.556,0,0,1,0-3.118.693.693,0,0,0-.279-.673l-1.389-1.009a.7.7,0,0,1-.194-.912l2.01-3.482a.7.7,0,0,1,.078-.109l-.4-.179a.7.7,0,0,0-.887.288l-2.01,3.482a.7.7,0,0,0,.194.912l1.389,1.009a.693.693,0,0,1,.279.673,9.548,9.548,0,0,0,0,3.118.693.693,0,0,1-.279.673L74.75,56.787a.7.7,0,0,0-.194.912l2.01,3.482a.7.7,0,0,0,.887.288l.4-.179A.707.707,0,0,1,77.777,61.182Z" transform="translate(-74.462 -41.758)" fill="#b4d0d5"/>
        <path id="Trazado_1047735" data-name="Trazado 1047735" d="M156.443,216.452h-1.211a.7.7,0,0,1-.693-.624l-.179-1.707a.693.693,0,0,0-.443-.578l-.044-.017a2.807,2.807,0,0,1,1.254.017.693.693,0,0,1,.443.578l.179,1.707A.7.7,0,0,0,156.443,216.452Z" transform="translate(-145.935 -192.875)" fill="#b4d0d5"/>
        <circle id="Elipse_14256" data-name="Elipse 14256" cx="6.205" cy="6.205" r="6.205" transform="translate(5.103 5.584)" fill="#b4d0d5"/>
      </g>
      <path id="Trazado_1047736" data-name="Trazado 1047736" d="M212.032,86.034a9.516,9.516,0,0,0-.128-1.559.693.693,0,0,1,.279-.673l1.389-1.009a.7.7,0,0,0,.194-.912l-2.01-3.482a.7.7,0,0,0-.887-.288l-1.57.7a.693.693,0,0,1-.723-.1,9.468,9.468,0,0,0-2.7-1.56.692.692,0,0,1-.443-.578l-.179-1.707a.7.7,0,0,0-.693-.624h-4.021a.7.7,0,0,0-.693.624l-.179,1.707a.692.692,0,0,1-.443.578,9.468,9.468,0,0,0-2.7,1.56.693.693,0,0,1-.723.1l-1.57-.7a.7.7,0,0,0-.887.288l-2.01,3.482a.7.7,0,0,0,.194.912L192.92,83.8a.693.693,0,0,1,.279.673,9.555,9.555,0,0,0,0,3.118.693.693,0,0,1-.279.673l-1.389,1.009a.7.7,0,0,0-.194.912l2.01,3.482a.7.7,0,0,0,.887.288l1.57-.7a.693.693,0,0,1,.723.1,9.468,9.468,0,0,0,2.7,1.56.692.692,0,0,1,.443.578l.179,1.707a.7.7,0,0,0,.693.624h4.021a.7.7,0,0,0,.693-.624l.179-1.707a.692.692,0,0,1,.443-.578,9.469,9.469,0,0,0,2.7-1.56.693.693,0,0,1,.723-.1l1.57.7a.7.7,0,0,0,.887-.288l2.01-3.482a.7.7,0,0,0-.194-.912l-1.389-1.009a.693.693,0,0,1-.279-.673A9.514,9.514,0,0,0,212.032,86.034Z" transform="translate(-111.867 -66.822)" fill="#617881"/>
      <path id="Trazado_1047737" data-name="Trazado 1047737" d="M272.591,74.246a.7.7,0,0,0-.693.625l-.179,1.706a.692.692,0,0,1-.443.578,3.353,3.353,0,0,1-1.324.044l.114-.044a.692.692,0,0,0,.443-.578l.179-1.706a.7.7,0,0,1,.693-.625Z" transform="translate(-182.707 -66.823)" fill="#475959"/>
      <path id="Trazado_1047738" data-name="Trazado 1047738" d="M194.558,127.922l-2.01-3.482a.7.7,0,0,1,.194-.912l1.389-1.009a.693.693,0,0,0,.279-.673,9.554,9.554,0,0,1,0-3.118.693.693,0,0,0-.279-.673l-1.389-1.009a.7.7,0,0,1-.194-.912l2.01-3.482a.7.7,0,0,1,.078-.109l-.4-.179a.7.7,0,0,0-.887.288l-2.01,3.482a.7.7,0,0,0,.194.912l1.389,1.009a.693.693,0,0,1,.279.673,9.548,9.548,0,0,0,0,3.118.693.693,0,0,1-.279.673l-1.389,1.009a.7.7,0,0,0-.194.912l2.01,3.482a.7.7,0,0,0,.887.288l.4-.179A.706.706,0,0,1,194.558,127.922Z" transform="translate(-111.867 -101.075)" fill="#475959"/>
      <path id="Trazado_1047739" data-name="Trazado 1047739" d="M273.223,283.192h-1.211a.7.7,0,0,1-.693-.624l-.179-1.707a.693.693,0,0,0-.443-.578l-.044-.017a2.807,2.807,0,0,1,1.254.017.693.693,0,0,1,.443.578l.179,1.707A.7.7,0,0,0,273.223,283.192Z" transform="translate(-183.338 -252.192)" fill="#475959"/>
      <circle id="Elipse_14257" data-name="Elipse 14257" cx="3.226" cy="3.226" r="3.226" transform="translate(87.458 15.986)" fill="#b4d0d5"/>
      <path id="Trazado_1047740" data-name="Trazado 1047740" d="M120.669,346.018h.02a3.112,3.112,0,0,0,0-6.225H92.061a3.112,3.112,0,0,0,0,6.225h.02" transform="translate(-19.8 -305.822)" fill="#f1b986"/>
      <path id="Trazado_1047741" data-name="Trazado 1047741" d="M127.374,248.294l-21.135.091-10.5.044c-.375-3.415-1.081-7.308-.854-10.657H128.9C129.256,242.517,127.374,248.294,127.374,248.294Z" transform="translate(-25.107 -214)" fill="#f6e266"/>
      <path id="Trazado_1047742" data-name="Trazado 1047742" d="M106.239,248.384l-10.5.044c-.375-3.415-1.081-7.308-.854-10.657h9.364c.231.926.524,1.849.816,2.74Z" transform="translate(-25.107 -213.999)" fill="#ecc32e"/>
      <path id="Trazado_1047743" data-name="Trazado 1047743" d="M148.614,276.141q0,2.458-.126,4.917a7.965,7.965,0,0,1-7.587,7.552q-4.3.2-8.6.142h0q-2.314-.032-4.626-.142a7.966,7.966,0,0,1-7.587-7.552q-.224-4.38-.049-8.758h0c1.6-.592,2.549-2.432,3.113-4.478a4.108,4.108,0,0,1,4.521-2.983,4.055,4.055,0,0,1,2.132.98,6.8,6.8,0,0,0,8.962,0,4.042,4.042,0,0,1,2.683-1.017,4.1,4.1,0,0,1,3.97,3.02c.564,2.046,1.514,3.886,3.113,4.478q.078,1.922.077,3.841Z" transform="translate(-47.714 -238.328)" fill="#f1d0a5"/>
      <path id="Trazado_1047744" data-name="Trazado 1047744" d="M132.3,288.751q-2.314-.032-4.626-.141a7.967,7.967,0,0,1-7.587-7.552q-.224-4.38-.049-8.758h0c1.6-.592,2.549-2.432,3.113-4.478a4.108,4.108,0,0,1,4.521-2.983C126.21,277.924,127.676,288.608,132.3,288.751Z" transform="translate(-47.713 -238.328)" fill="#f1b986"/>
      <path id="Trazado_1047745" data-name="Trazado 1047745" d="M232.519,408.365a2.473,2.473,0,0,1-4.468,0,.75.75,0,1,0-1.355.643,3.972,3.972,0,0,0,7.178,0,.75.75,0,1,0-1.355-.643Z" transform="translate(-143.709 -367.152)"/>
      <path id="Trazado_1047746" data-name="Trazado 1047746" d="M104.751,37.084a3.86,3.86,0,0,0-1.6-3.126,32.047,32.047,0,0,0,1.387-10.243.75.75,0,0,0-.748-.694h-1.051a1.446,1.446,0,0,0-.6-1.176l-1.363-.989a10.3,10.3,0,0,0,0-3.29l1.365-.99a1.444,1.444,0,0,0,.4-1.893L100.537,11.2a1.443,1.443,0,0,0-1.842-.6l-1.539.685a10.234,10.234,0,0,0-2.848-1.646l-.176-1.673a1.442,1.442,0,0,0-1.438-1.3H90.1L88.862,4.528a1.445,1.445,0,0,0-1.842-.6l-1.54.686a10.186,10.186,0,0,0-2.847-1.646l-.175-1.676A1.445,1.445,0,0,0,81.019,0H77a1.446,1.446,0,0,0-1.439,1.3l-.175,1.674a10.174,10.174,0,0,0-2.847,1.646L71,3.931a1.443,1.443,0,0,0-1.84.6L67.145,8.011a1.446,1.446,0,0,0,.4,1.895l1.363.989a10.3,10.3,0,0,0,0,3.289l-1.363.989a1.444,1.444,0,0,0-.4,1.895l2.01,3.48a1.442,1.442,0,0,0,1.841.6l1.541-.686a10.174,10.174,0,0,0,2.847,1.646l.1.914h-5.7a.75.75,0,0,0-.748.7A44.044,44.044,0,0,0,69.586,32c.092.717.18,1.4.257,2.07a3.859,3.859,0,0,0,1.707,6.8q.03.947.077,1.89a8.692,8.692,0,0,0,8.3,8.262c1.564.073,3.129.121,4.65.143h.006q.989.014,1.98.014c2.232,0,4.464-.052,6.66-.157a8.685,8.685,0,0,0,4.9-1.79.75.75,0,1,0-.913-1.19,7.192,7.192,0,0,1-4.057,1.481c-2.815.134-5.692.181-8.551.141h-.006c-1.5-.021-3.051-.069-4.6-.141a7.2,7.2,0,0,1-6.873-6.841c-.14-2.726-.162-5.492-.066-8.227,1.39-.735,2.433-2.337,3.105-4.772a3.375,3.375,0,0,1,3.7-2.439,3.325,3.325,0,0,1,1.74.8,7.553,7.553,0,0,0,9.949,0,3.283,3.283,0,0,1,2.189-.832,3.335,3.335,0,0,1,3.247,2.47c.671,2.435,1.714,4.037,3.1,4.772.039,1.1.059,2.226.059,3.348,0,1.62-.042,3.261-.125,4.88a7.22,7.22,0,0,1-1.015,3.341.75.75,0,1,0,1.286.772,8.722,8.722,0,0,0,1.227-4.037c.032-.627.056-1.258.076-1.89a3.867,3.867,0,0,0,3.152-3.8ZM92.821,9.83a1.448,1.448,0,0,0,.925,1.2,8.735,8.735,0,0,1,2.486,1.437,1.433,1.433,0,0,0,1.5.2l1.526-.68,1.963,3.4-1.351.981a1.437,1.437,0,0,0-.577,1.4,8.791,8.791,0,0,1,0,2.873,1.437,1.437,0,0,0,.578,1.4l1.339.971h-9.4a3.976,3.976,0,1,0-2.265,0h-9.4l1.339-.972a1.432,1.432,0,0,0,.577-1.4,8.878,8.878,0,0,1,0-2.872,1.433,1.433,0,0,0-.577-1.4l-1.351-.981,1.962-3.4,1.526.679a1.434,1.434,0,0,0,1.506-.2,8.708,8.708,0,0,1,2.487-1.437,1.439,1.439,0,0,0,.924-1.2l.173-1.659h3.925ZM90.684,21.687a2.476,2.476,0,1,1,2.476-2.476,2.479,2.479,0,0,1-2.476,2.476Zm-13.812.229a1.438,1.438,0,0,0-.926-1.2,8.686,8.686,0,0,1-2.487-1.438,1.437,1.437,0,0,0-1.5-.2l-1.525.679-1.964-3.4,1.352-.981a1.437,1.437,0,0,0,.578-1.4,8.8,8.8,0,0,1,0-2.874,1.436,1.436,0,0,0-.578-1.4L68.467,8.72l1.963-3.4L71.955,6a1.438,1.438,0,0,0,1.506-.2,8.684,8.684,0,0,1,2.486-1.438,1.438,1.438,0,0,0,.925-1.2l.173-1.66h3.926l.174,1.662a1.436,1.436,0,0,0,.926,1.2A8.7,8.7,0,0,1,84.559,5.8a1.436,1.436,0,0,0,1.5.2l1.526-.68.8,1.382a1.441,1.441,0,0,0-1.15,1.267L87.06,9.643a10.173,10.173,0,0,0-1.455.687,6.956,6.956,0,0,0-13.274,4.155.75.75,0,1,0,1.439-.421A5.456,5.456,0,1,1,84.3,11.218l-.09.071L82.674,10.6a1.442,1.442,0,0,0-1.844.6l-2.01,3.482a1.443,1.443,0,0,0,.4,1.894l1.362.989c-.011.068-.019.136-.029.2a5.459,5.459,0,0,1-5.46-1.43.75.75,0,1,0-1.076,1.045,6.9,6.9,0,0,0,4.987,2.108,6.977,6.977,0,0,0,1.449-.153,10.372,10.372,0,0,0,.129,1.516l-1.362.989a1.442,1.442,0,0,0-.6,1.176h-1.64ZM69.9,37.084a2.367,2.367,0,0,1,1.648-2.253c-.046,1.493-.058,2.994-.034,4.492A2.365,2.365,0,0,1,69.9,37.084Zm28.533-7.79a4.881,4.881,0,0,0-4.693-3.57,4.827,4.827,0,0,0-3.178,1.2,6.054,6.054,0,0,1-7.973,0,4.821,4.821,0,0,0-2.525-1.158,4.879,4.879,0,0,0-5.345,3.526c-.408,1.48-1.178,3.341-2.538,3.929a3.853,3.853,0,0,0-.913.128c-.061-.5-.126-1.011-.194-1.538a48.425,48.425,0,0,1-.577-7.292h32.584a32.156,32.156,0,0,1-1.307,8.8,3.851,3.851,0,0,0-.8-.1C99.608,32.635,98.84,30.774,98.432,29.294Zm3.2,10.03c.008-.5.013-1.009.013-1.511,0-1-.016-2-.046-2.981a2.362,2.362,0,0,1,.033,4.493Z"/>
      <path id="Trazado_1047747" data-name="Trazado 1047747" d="M184.064,342.679c0,1.061.579,1.924,1.291,1.924s1.291-.863,1.291-1.924-.579-1.924-1.291-1.924S184.064,341.618,184.064,342.679Z" transform="translate(-105.405 -306.687)"/>
      <path id="Trazado_1047748" data-name="Trazado 1047748" d="M316.611,342.679c0,1.061.579,1.924,1.291,1.924s1.291-.863,1.291-1.924-.579-1.924-1.291-1.924S316.611,341.618,316.611,342.679Z" transform="translate(-224.701 -306.687)"/>
      <path id="Trazado_1047749" data-name="Trazado 1047749" d="M316.1,3.395a.749.749,0,0,0,.954-.463L317.73,1A.75.75,0,0,0,316.313.5l-.672,1.936A.75.75,0,0,0,316.1,3.395Z" transform="translate(-223.791 0)"/>
      <path id="Trazado_1047750" data-name="Trazado 1047750" d="M327.654,21.635a.75.75,0,0,0,1.043.191l2.912-2.01a.75.75,0,0,0-.852-1.234l-2.912,2.01A.75.75,0,0,0,327.654,21.635Z" transform="translate(-234.52 -16.604)"/>
      <path id="Trazado_1047751" data-name="Trazado 1047751" d="M343.545,56.993l-1.766-.023a.75.75,0,0,0-.019,1.5l1.766.023h.01a.75.75,0,0,0,.009-1.5Z" transform="translate(-246.669 -51.274)"/>
    </g>
  </g>
</svg>
