<svg xmlns="http://www.w3.org/2000/svg" width="85" height="78" viewBox="0 0 85 78">
  <g id="Grupo_1223274" data-name="Grupo 1223274" transform="translate(-180 -1142.647)">
    <rect id="Rectángulo_423295" data-name="Rectángulo 423295" width="85" height="78" rx="15" transform="translate(180 1142.647)" fill="#c3b7ef"/>
    <g id="surface1" transform="translate(201.537 1163.719)">
      <path id="Trazado_1057732" data-name="Trazado 1057732" d="M40.673,160.379H1.253a1.245,1.245,0,0,0-.949.427,1.227,1.227,0,0,0-.292.99l2.6,18.595a3.158,3.158,0,0,0,3.1,2.71H36.274a3.15,3.15,0,0,0,3.1-2.72l2.543-18.594a1.228,1.228,0,0,0-.292-.99A1.272,1.272,0,0,0,40.673,160.379ZM25.612,179.234a8.6,8.6,0,1,1-6.087-14.676.828.828,0,0,1,.823.834v6.973H27.3a.819.819,0,0,1,.834.813A8.654,8.654,0,0,1,25.612,179.234Zm4.555-8.119H22.4a.784.784,0,0,1-.813-.792v-7.765a.827.827,0,0,1,.823-.834,8.621,8.621,0,0,1,6.066,2.512h.01A8.621,8.621,0,0,1,31,170.3.819.819,0,0,1,30.166,171.115Zm0,0" transform="translate(0 -147.246)" fill="#6c4dd8"/>
      <path id="Trazado_1057733" data-name="Trazado 1057733" d="M159.87,239.3v-6.879a6.806,6.806,0,0,0-4.065,1.98,6.95,6.95,0,0,0,4.919,11.84,6.872,6.872,0,0,0,4.9-2.012,7.143,7.143,0,0,0,1.98-4.044h-6.879A.908.908,0,0,1,159.87,239.3Zm0,0" transform="translate(-141.199 -213.389)" fill="#6c4dd8"/>
      <path id="Trazado_1057734" data-name="Trazado 1057734" d="M284,197.8v6h6.024a6.872,6.872,0,0,0-6.024-6Zm0,0" transform="translate(-260.748 -181.604)" fill="#6c4dd8"/>
      <path id="Trazado_1057735" data-name="Trazado 1057735" d="M38.414,11.465h35.3V8.828a3.076,3.076,0,0,0-3.1-3.1H57.581a4.82,4.82,0,0,1-4.107-2.356L52.391,1.532A3.146,3.146,0,0,0,49.712,0H41.176a3.109,3.109,0,0,0-2.262.99,3.144,3.144,0,0,0-.865,2.324Zm0,0" transform="translate(-34.93)" fill="#6c4dd8"/>
    </g>
  </g>
</svg>
