<svg xmlns="http://www.w3.org/2000/svg" xmlns:xlink="http://www.w3.org/1999/xlink" width="108" height="108" viewBox="0 0 108 108">
  <defs>
    <filter id="Trazado_904820" x="0" y="0" width="108" height="108" filterUnits="userSpaceOnUse">
      <feOffset dy="3" input="SourceAlpha"/>
      <feGaussianBlur stdDeviation="3" result="blur"/>
      <feFlood flood-opacity="0.161"/>
      <feComposite operator="in" in2="blur"/>
      <feComposite in="SourceGraphic"/>
    </filter>
  </defs>
  <g id="Grupo_1223466" data-name="Grupo 1223466" transform="translate(-192.485 -4101.016)">
    <g id="Grupo_1223244" data-name="Grupo 1223244" transform="translate(201.485 4107.016)">
      <g id="Grupo_1173585" data-name="Grupo 1173585" transform="translate(0 0)">
        <g id="Grupo_1173428" data-name="Grupo 1173428">
          <g id="Grupo_1171958" data-name="Grupo 1171958">
            <g id="Grupo_1167341" data-name="Grupo 1167341">
              <g id="Grupo_1166792" data-name="Grupo 1166792">
                <g transform="matrix(1, 0, 0, 1, -9, -6)" filter="url(#Trazado_904820)">
                  <g id="Trazado_904820-2" data-name="Trazado 904820" transform="translate(9 6)" fill="#efecfa">
                    <path d="M 44.99999618530273 88.50002288818359 C 39.12687301635742 88.50002288818359 33.43022155761719 87.35009765625 28.06829643249512 85.08218383789062 C 22.88852119445801 82.89133453369141 18.23629570007324 79.75460815429688 14.24084663391113 75.75916290283203 C 10.24540901184082 71.76371002197266 7.108683586120605 67.11148834228516 4.917821407318115 61.93171310424805 C 2.649921178817749 56.56978607177734 1.499996185302734 50.87313461303711 1.499996185302734 45.0000114440918 C 1.499996185302734 39.12688827514648 2.649921178817749 33.43023681640625 4.917821407318115 28.06829833984375 C 7.108683586120605 22.88852310180664 10.24540901184082 18.2363109588623 14.24084663391113 14.2408618927002 C 18.23629570007324 10.24541187286377 22.88852119445801 7.108686447143555 28.06829643249512 4.917823791503906 C 33.43022155761719 2.649924039840698 39.12687301635742 1.499998927116394 44.99999618530273 1.499998927116394 C 50.87311935424805 1.499998927116394 56.56977081298828 2.649924039840698 61.93169784545898 4.917823791503906 C 67.11147308349609 7.108686447143555 71.76369476318359 10.24541187286377 75.75914764404297 14.2408618927002 C 79.75458526611328 18.2363109588623 82.89131164550781 22.88852310180664 85.08216857910156 28.06829833984375 C 87.35007476806641 33.43023681640625 88.5 39.12688827514648 88.5 45.0000114440918 C 88.5 50.87313461303711 87.35007476806641 56.56978607177734 85.08216857910156 61.93171310424805 C 82.89131164550781 67.11148834228516 79.75458526611328 71.76371002197266 75.75914764404297 75.75916290283203 C 71.76369476318359 79.75460815429688 67.11147308349609 82.89133453369141 61.93169784545898 85.08218383789062 C 56.56977081298828 87.35009765625 50.87311935424805 88.50002288818359 44.99999618530273 88.50002288818359 Z" stroke="none"/>
                    <path d="M 44.99999618530273 3 C 39.32870864868164 3 33.82865142822266 4.110054016113281 28.65262603759766 6.299339294433594 C 23.65165710449219 8.414566040039062 19.15968322753906 11.44333648681641 15.301513671875 15.30152893066406 C 11.44333648681641 19.15969848632812 8.414566040039062 23.65165710449219 6.299339294433594 28.65264129638672 C 4.110054016113281 33.82866668701172 2.999992370605469 39.3287239074707 2.999992370605469 45.0000114440918 C 2.999992370605469 50.67129898071289 4.110054016113281 56.17135620117188 6.299339294433594 61.34738159179688 C 8.414566040039062 66.34836578369141 11.44333648681641 70.84032440185547 15.301513671875 74.69849395751953 C 19.15968322753906 78.55668640136719 23.65165710449219 81.58545684814453 28.65262603759766 83.70068359375 C 33.82865142822266 85.88996887207031 39.32870864868164 87.00002288818359 44.99999618530273 87.00002288818359 C 50.67128372192383 87.00002288818359 56.17134094238281 85.88996887207031 61.34736633300781 83.70068359375 C 66.34834289550781 81.58545684814453 70.84030914306641 78.55668640136719 74.69847869873047 74.69849395751953 C 78.55665588378906 70.84032440185547 81.58542633056641 66.34836578369141 83.70065307617188 61.34738159179688 C 85.88993835449219 56.17135620117188 87 50.67129898071289 87 45.0000114440918 C 87 39.3287239074707 85.88993835449219 33.82866668701172 83.70065307617188 28.65264129638672 C 81.58542633056641 23.65165710449219 78.55665588378906 19.15969848632812 74.69847869873047 15.30152893066406 C 70.84030914306641 11.44333648681641 66.34834289550781 8.414566040039062 61.34736633300781 6.299339294433594 C 56.17134094238281 4.110054016113281 50.67128372192383 3 44.99999618530273 3 M 44.99999618530273 0 C 69.85281372070312 0 90 20.14719390869141 90 45.0000114440918 C 90 69.85282897949219 69.85281372070312 90.00002288818359 44.99999618530273 90.00002288818359 C 20.14717864990234 90.00002288818359 -7.62939453125e-06 69.85282897949219 -7.62939453125e-06 45.0000114440918 C -7.62939453125e-06 20.14719390869141 20.14717864990234 0 44.99999618530273 0 Z" stroke="none" fill="#6c4dd8"/>
                  </g>
                </g>
              </g>
            </g>
          </g>
        </g>
      </g>
    </g>
    <g id="required_7784199_1_" data-name="required_7784199 (1)" transform="translate(218.312 4122.844)">
      <circle id="Elipse_12851" data-name="Elipse 12851" cx="10.905" cy="10.905" r="10.905" transform="translate(2.726 4.562)" fill="#fad55c"/>
      <path id="Trazado_1059293" data-name="Trazado 1059293" d="M3,33H13v.909a2.726,2.726,0,0,0,5.453,0V33h10V43h.909a2.726,2.726,0,0,1,0,5.453h-.909v10H4.818A1.818,1.818,0,0,1,3,56.628V33H13v.909a2.726,2.726,0,0,0,5.453,0V33h10V43h.909a2.726,2.726,0,0,1,0,5.453h-.909v10" transform="translate(-0.274 -3.01)" fill="#4a8cdd"/>
      <g id="Grupo_1223465" data-name="Grupo 1223465">
        <path id="Trazado_1059294" data-name="Trazado 1059294" fill="#356baa"/>
        <path id="Trazado_1059295" data-name="Trazado 1059295" d="M35,46.991v0Z" transform="translate(-3.192 -4.278)" fill="#356baa"/>
        <path id="Trazado_1059296" data-name="Trazado 1059296" d="M8.453,54.811a1.818,1.818,0,0,1-1.818-1.818V33H3V56.628a1.818,1.818,0,0,0,1.818,1.818H28.446V54.811Z" transform="translate(-0.274 -3.01)" fill="#356baa"/>
      </g>
      <path id="Trazado_1059297" data-name="Trazado 1059297" d="M58.081,28.446h-10v-.909a2.726,2.726,0,1,0-5.453,0v.909h-10v-10h-.909a2.726,2.726,0,0,1,0-5.453h.909V3H56.264a1.818,1.818,0,0,1,1.818,1.818V28.446h-10v-.909a2.726,2.726,0,1,0-5.453,0v.909h-10v-10h-.909a2.726,2.726,0,0,1,0-5.453h.909V3" transform="translate(-2.645 -0.274)" fill="#4a8cdd"/>
      <path id="Trazado_1059298" data-name="Trazado 1059298" fill="#3eb5a7"/>
      <path id="Trazado_1059299" data-name="Trazado 1059299" d="M29,16.992v0Z" transform="translate(-2.645 -1.542)" fill="#3eb5a7"/>
      <path id="Trazado_1059300" data-name="Trazado 1059300" d="M52.993,6.635a1.818,1.818,0,0,1,1.818,1.818V28.446h3.635V4.818A1.818,1.818,0,0,0,56.628,3H33V6.635Z" transform="translate(-3.01 -0.274)" fill="#356baa"/>
      <path id="Trazado_1059301" data-name="Trazado 1059301" d="M45,21.01h3.635l-1.818,3.635Z" transform="translate(-4.105 -1.916)" fill="#f7f7f7"/>
      <path id="Trazado_1059302" data-name="Trazado 1059302" d="M18.635,42.645H15l1.818-3.635Z" transform="translate(-1.368 -3.558)" fill="#f7f7f7"/>
      <circle id="Elipse_12852" data-name="Elipse 12852" cx="3.729" cy="3.729" r="3.729" transform="translate(33.499 26.042)" fill="#f4f4f2"/>
      <path id="Trazado_1059303" data-name="Trazado 1059303" d="M45.905,39.01H35v10.9h1.972l.754,9.088h5.453l.754-9.088h1.972Z" transform="translate(-3.192 -3.558)" fill="#f4f4f2"/>
      <path id="Trazado_1059304" data-name="Trazado 1059304" d="M41,39.01V58.994h2.726l.754-9.088h1.972V39.01Z" transform="translate(-3.74 -3.558)" fill="#dbdbdb"/>
      <path id="Trazado_1059305" data-name="Trazado 1059305" d="M44.635,32.635A3.635,3.635,0,0,0,41,29v7.27A3.635,3.635,0,0,0,44.635,32.635Z" transform="translate(-3.74 -2.645)" fill="#dbdbdb"/>
      <circle id="Elipse_12853" data-name="Elipse 12853" cx="3.729" cy="3.729" r="3.729" transform="translate(44.153 26.042)" fill="#a9aaaa"/>
      <path id="Trazado_1059306" data-name="Trazado 1059306" d="M57.905,39.01H47v10.9h1.972l.754,9.088h5.453l.754-9.088h1.972Z" transform="translate(-4.287 -3.558)" fill="#a9aaaa"/>
      <path id="Trazado_1059307" data-name="Trazado 1059307" d="M53,39.01V58.994h2.726l.754-9.088h1.972V39.01Z" transform="translate(-4.834 -3.558)" fill="#848484"/>
      <path id="Trazado_1059308" data-name="Trazado 1059308" d="M56.635,32.635A3.635,3.635,0,0,0,53,29v7.27A3.635,3.635,0,0,0,56.635,32.635Z" transform="translate(-4.834 -2.645)" fill="#848484"/>
      <path id="Trazado_1059309" data-name="Trazado 1059309" d="M8.453,15.905A10.905,10.905,0,0,1,16.632,5.373,10.778,10.778,0,0,0,13.905,5a10.905,10.905,0,0,0,0,21.811,10.778,10.778,0,0,0,2.726-.354A10.905,10.905,0,0,1,8.453,15.905Z" transform="translate(-0.274 -0.456)" fill="#edc045"/>
      <path id="Trazado_1059310" data-name="Trazado 1059310" d="M37.443,37.453H31.99a.909.909,0,0,0-.909.909V42.5a3.635,3.635,0,0,0-1.818-.5V32.909A.915.915,0,0,0,28.355,32h-10a.909.909,0,0,0-.909.909v.909a1.818,1.818,0,1,1-3.635,0v-.909a.909.909,0,0,0-.264-.645A.954.954,0,0,0,12.905,32h-10A.909.909,0,0,0,2,32.909V56.537a2.726,2.726,0,0,0,2.726,2.726H28.355A.909.909,0,0,0,29,59a.954.954,0,0,0,.264-.645V49.267a3.635,3.635,0,0,0,1.818-.5v.5a.909.909,0,0,0,.909.909h1.136l.682,8.252a.909.909,0,0,0,.909.836h5.453a.909.909,0,0,0,.909-.836l.682-8.252h2.272l.682,8.252a.909.909,0,0,0,.909.836h5.453a.909.909,0,0,0,.909-.836l.682-8.252H53.8a.909.909,0,0,0,.909-.909V38.361a.909.909,0,0,0-.909-.909Zm-8.179,10h-.909a.915.915,0,0,0-.909.909v9.088H4.726a.909.909,0,0,1-.909-.909V33.818H12a3.635,3.635,0,1,0,7.27,0h8.179v9.088a.909.909,0,0,0,.909.909h.909a1.818,1.818,0,0,1,0,3.635Zm11.66.909a.909.909,0,0,0-.909.836l-.682,8.252H35.552l-.691-8.252a.909.909,0,0,0-.909-.836H32.9V39.27h9.088v9.088ZM52.892,39.27v9.088H51.829a.909.909,0,0,0-.909.836l-.682,8.252H46.458l-.691-8.252a.909.909,0,0,0-.909-.836H43.8V39.27Z" transform="translate(-0.182 -2.919)"/>
      <path id="Trazado_1059311" data-name="Trazado 1059311" d="M12.818,12.818h3.635v2.726H14.635a.909.909,0,0,0-.909.909v2.726h1.818V17.362h1.818a.909.909,0,0,0,.909-.909V11.909A.909.909,0,0,0,17.362,11H11.909a.909.909,0,0,0-.909.909v2.726h1.818Z" transform="translate(-1.003 -1.003)"/>
      <path id="Trazado_1059312" data-name="Trazado 1059312" d="M14,22.01h1.818v1.818H14Z" transform="translate(-1.277 -2.008)"/>
      <path id="Trazado_1059313" data-name="Trazado 1059313" d="M56.172,2H32.544a.909.909,0,0,0-.645.264.954.954,0,0,0-.264.645V12a3.635,3.635,0,0,0,0,7.27v9.088a.909.909,0,0,0,.909.909h2.817a4.971,4.971,0,0,0-.091.909,4.544,4.544,0,1,0,9.088,0,4.489,4.489,0,0,0-.909-2.726,1.818,1.818,0,0,1,3.635,0,4.489,4.489,0,0,0-.909,2.726,4.544,4.544,0,1,0,9.088,0,4.453,4.453,0,0,0-.1-.909H57.99a.909.909,0,0,0,.909-.909V4.726A2.726,2.726,0,0,0,56.172,2ZM39.814,32.9a2.726,2.726,0,1,1,2.726-2.726A2.726,2.726,0,0,1,39.814,32.9Zm5.8-12.723-.345.7-.345-.7ZM50.72,32.9a2.726,2.726,0,1,1,2.726-2.726A2.726,2.726,0,0,1,50.72,32.9Zm6.361-5.453H54.355a4.453,4.453,0,0,0-5.662-1.281,3.544,3.544,0,0,0-.818-1.29,3.635,3.635,0,0,0-2.536-1.063.909.909,0,0,0,.736-.491l1.818-3.635a.909.909,0,0,0-.809-1.327h-.909V15.632a.909.909,0,0,0-.909-.909H37.088v1.818h7.27v1.818h-.909a.909.909,0,0,0-.809,1.318l1.818,3.635a.909.909,0,0,0,.736.491,3.635,3.635,0,0,0-3.317,2.345,4.453,4.453,0,0,0-5.7,1.3H33.453V18.358a.909.909,0,0,0-.909-.909h-.909a1.818,1.818,0,1,1,0-3.635h.909a.915.915,0,0,0,.909-.909V3.818h22.72a.909.909,0,0,1,.909.909Z" transform="translate(-2.554 -0.182)"/>
      <path id="Trazado_1059314" data-name="Trazado 1059314" d="M13.814,27.628A11.814,11.814,0,1,0,2,15.814,11.814,11.814,0,0,0,13.814,27.628Zm0-21.811a10,10,0,1,1-10,10,10,10,0,0,1,10-10Z" transform="translate(-0.182 -0.365)"/>
      <path id="Trazado_1059315" data-name="Trazado 1059315" d="M34,16.02h1.818v1.818H34Z" transform="translate(-3.101 -1.461)"/>
      <path id="Trazado_1059316" data-name="Trazado 1059316" d="M28,46.01h1.818v1.818H28Z" transform="translate(-2.554 -4.197)"/>
      <path id="Trazado_1059317" data-name="Trazado 1059317" d="M17.635,43.453h.909a.909.909,0,0,0,.809-1.318L17.535,38.5a.909.909,0,0,0-1.618,0L14.1,42.136a.909.909,0,0,0,.809,1.318h.909V46.18a.909.909,0,0,0,.909.909h8.179V45.271h-7.27Zm-.909-2.517.345.7h-.691Z" transform="translate(-1.277 -3.467)"/>
      <ellipse id="Elipse_12854" data-name="Elipse 12854" cx="2.19" cy="1.081" rx="2.19" ry="1.081" transform="translate(4.233 11.86) rotate(-54.196)" fill="#f7f7f7"/>
      <circle id="Elipse_12855" data-name="Elipse 12855" cx="0.863" cy="0.863" r="0.863" transform="translate(4.533 13.108) rotate(-4.245)" fill="#f7f7f7"/>
    </g>
  </g>
</svg>
