<svg xmlns="http://www.w3.org/2000/svg" xmlns:xlink="http://www.w3.org/1999/xlink" width="108" height="108" viewBox="0 0 108 108">
  <defs>
    <filter id="Trazado_904820" x="0" y="0" width="108" height="108" filterUnits="userSpaceOnUse">
      <feOffset dy="3" input="SourceAlpha"/>
      <feGaussianBlur stdDeviation="3" result="blur"/>
      <feFlood flood-opacity="0.161"/>
      <feComposite operator="in" in2="blur"/>
      <feComposite in="SourceGraphic"/>
    </filter>
  </defs>
  <g id="Grupo_1223494" data-name="Grupo 1223494" transform="translate(-1032.485 -4101.016)">
    <g id="Grupo_1223246" data-name="Grupo 1223246" transform="translate(1041.485 4107.016)">
      <g id="Grupo_1173585" data-name="Grupo 1173585" transform="translate(0 0)">
        <g id="Grupo_1173428" data-name="Grupo 1173428">
          <g id="Grupo_1171958" data-name="Grupo 1171958">
            <g id="Grupo_1167341" data-name="Grupo 1167341">
              <g id="Grupo_1166792" data-name="Grupo 1166792">
                <g transform="matrix(1, 0, 0, 1, -9, -6)" filter="url(#Trazado_904820)">
                  <g id="Trazado_904820-2" data-name="Trazado 904820" transform="translate(9 6)" fill="#efecfa">
                    <path d="M 44.99999618530273 88.50002288818359 C 39.12687301635742 88.50002288818359 33.43022155761719 87.35009765625 28.06829643249512 85.08218383789062 C 22.88852119445801 82.89133453369141 18.23629570007324 79.75460815429688 14.24084663391113 75.75916290283203 C 10.24540901184082 71.76371002197266 7.108683586120605 67.11148834228516 4.917821407318115 61.93171310424805 C 2.649921178817749 56.56978607177734 1.499996185302734 50.87313461303711 1.499996185302734 45.0000114440918 C 1.499996185302734 39.12688827514648 2.649921178817749 33.43023681640625 4.917821407318115 28.06829833984375 C 7.108683586120605 22.88852310180664 10.24540901184082 18.2363109588623 14.24084663391113 14.2408618927002 C 18.23629570007324 10.24541187286377 22.88852119445801 7.108686447143555 28.06829643249512 4.917823791503906 C 33.43022155761719 2.649924039840698 39.12687301635742 1.499998927116394 44.99999618530273 1.499998927116394 C 50.87311935424805 1.499998927116394 56.56977081298828 2.649924039840698 61.93169784545898 4.917823791503906 C 67.11147308349609 7.108686447143555 71.76369476318359 10.24541187286377 75.75914764404297 14.2408618927002 C 79.75458526611328 18.2363109588623 82.89131164550781 22.88852310180664 85.08216857910156 28.06829833984375 C 87.35007476806641 33.43023681640625 88.5 39.12688827514648 88.5 45.0000114440918 C 88.5 50.87313461303711 87.35007476806641 56.56978607177734 85.08216857910156 61.93171310424805 C 82.89131164550781 67.11148834228516 79.75458526611328 71.76371002197266 75.75914764404297 75.75916290283203 C 71.76369476318359 79.75460815429688 67.11147308349609 82.89133453369141 61.93169784545898 85.08218383789062 C 56.56977081298828 87.35009765625 50.87311935424805 88.50002288818359 44.99999618530273 88.50002288818359 Z" stroke="none"/>
                    <path d="M 44.99999618530273 3 C 39.32870864868164 3 33.82865142822266 4.110054016113281 28.65262603759766 6.299339294433594 C 23.65165710449219 8.414566040039062 19.15968322753906 11.44333648681641 15.301513671875 15.30152893066406 C 11.44333648681641 19.15969848632812 8.414566040039062 23.65165710449219 6.299339294433594 28.65264129638672 C 4.110054016113281 33.82866668701172 2.999992370605469 39.3287239074707 2.999992370605469 45.0000114440918 C 2.999992370605469 50.67129898071289 4.110054016113281 56.17135620117188 6.299339294433594 61.34738159179688 C 8.414566040039062 66.34836578369141 11.44333648681641 70.84032440185547 15.301513671875 74.69849395751953 C 19.15968322753906 78.55668640136719 23.65165710449219 81.58545684814453 28.65262603759766 83.70068359375 C 33.82865142822266 85.88996887207031 39.32870864868164 87.00002288818359 44.99999618530273 87.00002288818359 C 50.67128372192383 87.00002288818359 56.17134094238281 85.88996887207031 61.34736633300781 83.70068359375 C 66.34834289550781 81.58545684814453 70.84030914306641 78.55668640136719 74.69847869873047 74.69849395751953 C 78.55665588378906 70.84032440185547 81.58542633056641 66.34836578369141 83.70065307617188 61.34738159179688 C 85.88993835449219 56.17135620117188 87 50.67129898071289 87 45.0000114440918 C 87 39.3287239074707 85.88993835449219 33.82866668701172 83.70065307617188 28.65264129638672 C 81.58542633056641 23.65165710449219 78.55665588378906 19.15969848632812 74.69847869873047 15.30152893066406 C 70.84030914306641 11.44333648681641 66.34834289550781 8.414566040039062 61.34736633300781 6.299339294433594 C 56.17134094238281 4.110054016113281 50.67128372192383 3 44.99999618530273 3 M 44.99999618530273 0 C 69.85281372070312 0 90 20.14719390869141 90 45.0000114440918 C 90 69.85282897949219 69.85281372070312 90.00002288818359 44.99999618530273 90.00002288818359 C 20.14717864990234 90.00002288818359 -7.62939453125e-06 69.85282897949219 -7.62939453125e-06 45.0000114440918 C -7.62939453125e-06 20.14719390869141 20.14717864990234 0 44.99999618530273 0 Z" stroke="none" fill="#6c4dd8"/>
                  </g>
                </g>
              </g>
            </g>
          </g>
        </g>
      </g>
    </g>
    <g id="checklist_3715151" transform="translate(1056.186 4119.831)">
      <g id="Grupo_1223492" data-name="Grupo 1223492" transform="translate(1.945 1.922)">
        <g id="Grupo_1223474" data-name="Grupo 1223474" transform="translate(30.244 17.957)">
          <path id="Trazado_1059335" data-name="Trazado 1059335" d="M34,21H60.464V55.025H34Z" transform="translate(-34 -21)" fill="#ccd1d9"/>
        </g>
        <g id="Grupo_1223475" data-name="Grupo 1223475" transform="translate(34.025 21.738)">
          <path id="Trazado_1059336" data-name="Trazado 1059336" d="M38,25H56.9V51.464H38Z" transform="translate(-38 -25)" fill="#e6e9ed"/>
        </g>
        <g id="Grupo_1223476" data-name="Grupo 1223476" transform="translate(41.586 36.86)">
          <path id="Trazado_1059337" data-name="Trazado 1059337" d="M53.561,41v7.561H46v-5.8l1.021-.444A1.423,1.423,0,0,0,47.89,41Z" transform="translate(-46 -41)" fill="#ff826e"/>
        </g>
        <g id="Grupo_1223477" data-name="Grupo 1223477" transform="translate(41.586 25.518)">
          <path id="Trazado_1059338" data-name="Trazado 1059338" d="M46,29h7.561v7.561H46Z" transform="translate(-46 -29)" fill="#ff826e"/>
        </g>
        <g id="Grupo_1223478" data-name="Grupo 1223478" transform="translate(38.75 16.067)">
          <path id="Trazado_1059339" data-name="Trazado 1059339" d="M43,20.89V19h9.451v5.671H43Z" transform="translate(-43 -19)" fill="#b4dd7f"/>
        </g>
        <g id="Grupo_1223479" data-name="Grupo 1223479" transform="translate(3.781 37.994)">
          <path id="Trazado_1059340" data-name="Trazado 1059340" d="M21.878,42.2l-2.646,2.646H6v1.3a9.07,9.07,0,0,0,3.781,7.372v7.391H24.9V47.559l.4-.633a17.322,17.322,0,0,0,1.077-2.079,14.488,14.488,0,0,0,.529-1.389Z" transform="translate(-6 -42.2)" fill="#b4dd7f"/>
        </g>
        <g id="Grupo_1223480" data-name="Grupo 1223480" transform="translate(13.232 27.409)">
          <path id="Trazado_1059341" data-name="Trazado 1059341" d="M20.726,32.89a4.721,4.721,0,0,1,3.781,1.89h-.879a2.9,2.9,0,0,0-2.722,1.89H16L18.835,31a1.9,1.9,0,0,0,1.89,1.89Z" transform="translate(-16 -31)" fill="#b4dd7f"/>
        </g>
        <g id="Grupo_1223481" data-name="Grupo 1223481" transform="translate(3.875 27.409)">
          <path id="Trazado_1059342" data-name="Trazado 1059342" d="M12.621,31l2.835,5.671H6.1v-.009a4.769,4.769,0,0,1,1.626-2.694,4.709,4.709,0,0,1,3.006-1.077A1.9,1.9,0,0,0,12.621,31Z" transform="translate(-6.1 -31)" fill="#b4dd7f"/>
        </g>
        <g id="Grupo_1223482" data-name="Grupo 1223482" transform="translate(2.835)">
          <path id="Trazado_1059343" data-name="Trazado 1059343" d="M16.672,12.519l-.406.085a4.6,4.6,0,0,0-3.7,4.518,1.89,1.89,0,0,0,0,3.781v6.616l-2.108-2.807a9.665,9.665,0,0,0-1.673-1.73l-.189-.151a9.577,9.577,0,0,1,5.983-17.05,11.109,11.109,0,0,0,7.854-3.251L22.957,2l3.355,3.355A4.678,4.678,0,0,1,23,13.342H18.232a1.848,1.848,0,0,1-1.333-.558,1.979,1.979,0,0,1-.227-.265Z" transform="translate(-5 -2)" fill="#b27946"/>
        </g>
        <g id="Grupo_1223483" data-name="Grupo 1223483" transform="translate(36.86 33.079)">
          <path id="Trazado_1059344" data-name="Trazado 1059344" d="M46.746,42.094l-1.021.444L41,44.561V37l5.746,2.467a1.427,1.427,0,0,1,0,2.627Z" transform="translate(-41 -37)" fill="#aab2bd"/>
        </g>
        <g id="Grupo_1223484" data-name="Grupo 1223484" transform="translate(0 33.079)">
          <path id="Trazado_1059345" data-name="Trazado 1059345" d="M9.561,40.781v3.781H5.781a3.781,3.781,0,1,1,0-7.561H9.561Z" transform="translate(-2 -37)" fill="#aab2bd"/>
        </g>
        <g id="Grupo_1223485" data-name="Grupo 1223485" transform="translate(24.157 36.86)">
          <path id="Trazado_1059346" data-name="Trazado 1059346" d="M40.263,41v3.781H27.56a14.488,14.488,0,0,0,.529-1.389,14.743,14.743,0,0,0,.6-2.391Z" transform="translate(-27.56 -41)" fill="#ff826e"/>
        </g>
        <g id="Grupo_1223486" data-name="Grupo 1223486" transform="translate(7.561 36.86)">
          <path id="Trazado_1059347" data-name="Trazado 1059347" d="M10,41H21.653l.633.945-.189.189-2.646,2.646H10Z" transform="translate(-10 -41)" fill="#ff826e"/>
        </g>
        <g id="Grupo_1223487" data-name="Grupo 1223487" transform="translate(25.282 33.079)">
          <path id="Trazado_1059348" data-name="Trazado 1059348" d="M40.328,37v3.781H28.75a15.875,15.875,0,0,0,.236-2.769A2.953,2.953,0,0,0,28.807,37H40.328Z" transform="translate(-28.75 -37)" fill="#fcd770"/>
        </g>
        <g id="Grupo_1223488" data-name="Grupo 1223488" transform="translate(7.561 33.079)">
          <path id="Trazado_1059349" data-name="Trazado 1059349" d="M20.888,39.618l.766,1.163H10V37H20.576a2.953,2.953,0,0,0-.18,1.011A2.85,2.85,0,0,0,20.888,39.618Z" transform="translate(-10 -37)" fill="#fcd770"/>
        </g>
        <g id="Grupo_1223489" data-name="Grupo 1223489" transform="translate(17.957 31.189)">
          <path id="Trazado_1059350" data-name="Trazado 1059350" d="M28.381,36.89a2.953,2.953,0,0,1,.18,1.011,15.875,15.875,0,0,1-.236,2.769,14.743,14.743,0,0,1-.6,2.391L22.7,41.8l.189-.189-.633-.945-.766-1.163A2.85,2.85,0,0,1,21,37.9a2.953,2.953,0,0,1,.18-1.011A2.9,2.9,0,0,1,23.9,35h1.758a2.861,2.861,0,0,1,2.051.851,2.817,2.817,0,0,1,.671,1.04Z" transform="translate(-21 -35)" fill="#f0d0b4"/>
        </g>
        <g id="Grupo_1223490" data-name="Grupo 1223490" transform="translate(8.506 10.519)">
          <path id="Trazado_1059351" data-name="Trazado 1059351" d="M19.563,25.965a3.706,3.706,0,0,0,2.448,1.2l.142.047a2.935,2.935,0,0,1-.662,1.011,2.861,2.861,0,0,1-2.051.851,2.761,2.761,0,0,1-.879-.142v1.087L15.726,35.69,12.89,30.019V21.513a1.89,1.89,0,0,1,0-3.781,4.6,4.6,0,0,1,3.7-4.518L17,13.13a1.979,1.979,0,0,0,.227.265,1.848,1.848,0,0,0,1.333.558h3.781v2.212a3.784,3.784,0,0,0,1.106,2.675l.4.4a1.337,1.337,0,0,1-.945,2.278h-.558V23.4H18.561a3.759,3.759,0,0,0,1,2.561Z" transform="translate(-11 -13.13)" fill="#f0d0b4"/>
        </g>
        <g id="Grupo_1223491" data-name="Grupo 1223491" transform="translate(16.067 20.793)">
          <path id="Trazado_1059352" data-name="Trazado 1059352" d="M22.781,26.769a2.9,2.9,0,0,1-.189,1.04l-.142-.047A3.706,3.706,0,0,1,20,26.561,3.759,3.759,0,0,1,19,24h3.781Z" transform="translate(-19 -24)" fill="#ff826e"/>
        </g>
      </g>
      <g id="Grupo_1223493" data-name="Grupo 1223493" transform="translate(1 0.585)">
        <circle id="Elipse_12858" data-name="Elipse 12858" cx="0.945" cy="0.945" r="0.945" transform="translate(16.067 15.514)"/>
        <path id="Trazado_1059353" data-name="Trazado 1059353" d="M51.092,18.935v-1.89H39.75v1.89H31.244V34.057H27.856a3.835,3.835,0,0,0-3.294-1.89h-.441a5.615,5.615,0,0,0-4.217-1.89.946.946,0,0,1-.945-.945v-.007a3.848,3.848,0,0,0,3.781-3.84V21.737a2.282,2.282,0,0,0,1.223-3.861l-.392-.392a2.852,2.852,0,0,1-.832-2.006V14.209h.047a5.623,5.623,0,0,0,3.976-9.6L22.738.585l-1.195,1.2a10.1,10.1,0,0,1-7.188,2.977A10.52,10.52,0,0,0,7.784,23.493l.182.146A8.63,8.63,0,0,1,9.48,25.2L11.4,27.756v1.576a.946.946,0,0,1-.945.945A5.681,5.681,0,0,0,5.1,34.12a4.713,4.713,0,0,0-.319,9.293v.452A10.023,10.023,0,0,0,8.561,51.7v7.874H25.573V45.548l.253-.411a17.65,17.65,0,0,0,.875-1.628h4.542V54.85H59.6V18.935ZM36.915,43.508H39l3.587-1.537v5.317h9.451V37.837H46.145a2.354,2.354,0,0,0-1.22-1.241l-1.516-.649h8.628V26.5H42.586v9.1L39,34.057H36.915V24.605H53.927V49.179H36.915Zm9.23-3.781h4V45.4H44.476V41.16l.448-.192A2.353,2.353,0,0,0,46.145,39.728Zm-1.964-.5-4.431,1.9V36.436l4.431,1.9a.488.488,0,0,1,0,.9Zm.295-5.175V28.386h5.671v5.671ZM49.2,18.935v3.781H41.641V18.935Zm-16.067,1.89H39.75v1.89H35.025V34.057h-1.89ZM37.86,35.947v1.89H28.3a17.5,17.5,0,0,0,.106-1.824c0-.023-.007-.043-.007-.066Zm-11.342.066a15.472,15.472,0,0,1-.537,4.023l-3.416-.853L21.176,37.1A1.957,1.957,0,0,1,22.8,34.057h1.757a1.959,1.959,0,0,1,1.957,1.956Zm-12.1,9.751-1.354-2.256h3.61Zm4.146-4.146H10.451v-1.89H20.456Zm.4-5.671c0,.023-.007.043-.007.066a3.823,3.823,0,0,0,.471,1.824H10.451v-1.89Zm.939-3.781a3.758,3.758,0,0,1,1.421.3,3.855,3.855,0,0,0-1.814,1.593h-2.8l1.312-2.623A2.816,2.816,0,0,0,19.9,32.166Zm-.781-8.506h1.726v1.721A2.869,2.869,0,0,1,19.122,23.66Zm3.109-4.841.391.392a.391.391,0,0,1-.276.668h-1.5v1.89H17.067v.945a4.746,4.746,0,0,0,2.957,4.358,1.942,1.942,0,0,1-2.218.039l-2.1-1.4-1.048,1.573,2.1,1.4c.1.066.206.119.311.176v.247l-1.89,3.781-1.89-3.781V19.88h-.945a.945.945,0,1,1,0-1.89h.945v-.945a3.672,3.672,0,0,1,2.845-3.565,2.811,2.811,0,0,0,1.88.73h2.835v1.269a4.7,4.7,0,0,0,1.384,3.341ZM10.992,24.066a10.593,10.593,0,0,0-1.845-1.9l-.182-.146A8.629,8.629,0,0,1,14.356,6.648a11.973,11.973,0,0,0,8.381-3.39l2.688,2.689a3.732,3.732,0,0,1-2.64,6.372H18.012a.945.945,0,1,1,0-1.89h.945V8.538h-.945a2.839,2.839,0,0,0-2.835,2.835,2.875,2.875,0,0,0,.041.405,5.575,5.575,0,0,0-3.764,4.463,2.836,2.836,0,0,0-.058,5.366v3Zm-.541,8.1a2.816,2.816,0,0,0,1.885-.732l1.312,2.623H7.185A3.79,3.79,0,0,1,10.451,32.166ZM2.89,38.782a2.839,2.839,0,0,1,2.835-2.835H8.561v5.671H5.726A2.839,2.839,0,0,1,2.89,38.782Zm3.781,5.082v-.356h4.191l2.18,3.634-1.369,1.369,1.336,1.336,8.884-8.884,3.482.87a15.543,15.543,0,0,1-1.16,2.312l-2.455,3.991a8.15,8.15,0,0,1-15.09-4.272ZM23.683,57.685H10.451v-4.8a10,10,0,0,0,12.92-3.763l.312-.507ZM28,39.728H37.86v1.89H27.474A17.249,17.249,0,0,0,28,39.728Zm29.7,13.232H33.134V43.508h1.89v7.561H55.817V22.715H51.092v-1.89h6.616Z" transform="translate(-1 -0.585)"/>
        <path id="Trazado_1059354" data-name="Trazado 1059354" d="M0,0H5.347V1.89H0Z" transform="translate(43.745 31.86) rotate(-45)"/>
        <path id="Trazado_1059355" data-name="Trazado 1059355" d="M0,0H5.347V1.89H0Z" transform="translate(43.744 43.2) rotate(-45)"/>
      </g>
    </g>
  </g>
</svg>
