<svg xmlns="http://www.w3.org/2000/svg" xmlns:xlink="http://www.w3.org/1999/xlink" width="123" height="123" viewBox="0 0 123 123">
  <defs>
    <filter id="Trazado_982547" x="0" y="0" width="123" height="123" filterUnits="userSpaceOnUse">
      <feOffset dy="3" input="SourceAlpha"/>
      <feGaussianBlur stdDeviation="3" result="blur"/>
      <feFlood flood-opacity="0.161"/>
      <feComposite operator="in" in2="blur"/>
      <feComposite in="SourceGraphic"/>
    </filter>
  </defs>
  <g id="Grupo_1223502" data-name="Grupo 1223502" transform="translate(-738 -5208.516)">
    <g id="Grupo_1223435" data-name="Grupo 1223435" transform="translate(413.229 2227.821)">
      <g id="Grupo_1211203" data-name="Grupo 1211203" transform="translate(333.77 2986.695)">
        <g id="Grupo_1210937" data-name="Grupo 1210937" transform="translate(0 0)">
          <g id="Grupo_1174742" data-name="Grupo 1174742" transform="translate(0)">
            <g id="Grupo_1163948" data-name="Grupo 1163948">
              <g id="Grupo_1158168" data-name="Grupo 1158168">
                <g id="Grupo_1152576" data-name="Grupo 1152576">
                  <g id="Grupo_1148633" data-name="Grupo 1148633">
                    <g id="Grupo_1148525" data-name="Grupo 1148525">
                      <g transform="matrix(1, 0, 0, 1, -9, -6)" filter="url(#Trazado_982547)">
                        <g id="Trazado_982547-2" data-name="Trazado 982547" transform="translate(9 6)" fill="#fdf6e4">
                          <path d="M 52.49996948242188 103.4999389648438 C 45.61435699462891 103.4999389648438 38.93551254272461 102.1517105102539 32.64894104003906 99.49272918701172 C 26.57608413696289 96.92412567138672 21.12178421020508 93.24662780761719 16.43754005432129 88.56240081787109 C 11.75331211090088 83.87815856933594 8.075812339782715 78.42385864257812 5.507212162017822 72.35099792480469 C 2.848226547241211 66.06443023681641 1.499998092651367 59.38558197021484 1.499998092651367 52.49996948242188 C 1.499998092651367 45.61435699462891 2.848226547241211 38.93551254272461 5.507212162017822 32.64894104003906 C 8.075812339782715 26.57608413696289 11.75331211090088 21.12178421020508 16.43754005432129 16.43754005432129 C 21.12178421020508 11.75331211090088 26.57608413696289 8.075812339782715 32.64894104003906 5.507212162017822 C 38.93551254272461 2.848226547241211 45.61435699462891 1.499998092651367 52.49996948242188 1.499998092651367 C 59.38558197021484 1.499998092651367 66.06443023681641 2.848226547241211 72.35099792480469 5.507212162017822 C 78.42385864257812 8.075812339782715 83.87815856933594 11.75331211090088 88.56240081787109 16.43754005432129 C 93.24662780761719 21.12178421020508 96.92412567138672 26.57608413696289 99.49272918701172 32.64894104003906 C 102.1517105102539 38.93551254272461 103.4999389648438 45.61435699462891 103.4999389648438 52.49996948242188 C 103.4999389648438 59.38558197021484 102.1517105102539 66.06443023681641 99.49272918701172 72.35099792480469 C 96.92412567138672 78.42385864257812 93.24662780761719 83.87815856933594 88.56240081787109 88.56240081787109 C 83.87815856933594 93.24662780761719 78.42385864257812 96.92412567138672 72.35099792480469 99.49272918701172 C 66.06443023681641 102.1517105102539 59.38558197021484 103.4999389648438 52.49996948242188 103.4999389648438 Z" stroke="none"/>
                          <path d="M 52.49996948242188 3 C 45.81618499755859 3 39.33393859863281 4.308349609375 33.23326873779297 6.888717651367188 C 27.33920288085938 9.381706237792969 22.045166015625 12.95125579833984 17.49819946289062 17.49819946289062 C 12.95125579833984 22.045166015625 9.381706237792969 27.33920288085938 6.888717651367188 33.23326873779297 C 4.308349609375 39.33393859863281 3 45.81618499755859 3 52.49996948242188 C 3 59.18375396728516 4.308349609375 65.66600036621094 6.888717651367188 71.76667022705078 C 9.381706237792969 77.66073608398438 12.95125579833984 82.95477294921875 17.49819946289062 87.50173950195312 C 22.045166015625 92.04868316650391 27.33920288085938 95.61824035644531 33.23326873779297 98.11122131347656 C 39.33393859863281 100.6915893554688 45.81618499755859 101.9999389648438 52.49996948242188 101.9999389648438 C 59.18375396728516 101.9999389648438 65.66600036621094 100.6915893554688 71.76667022705078 98.11122131347656 C 77.66073608398438 95.61824035644531 82.95477294921875 92.04868316650391 87.50173950195312 87.50173950195312 C 92.04868316650391 82.95477294921875 95.61824035644531 77.66073608398438 98.11122131347656 71.76667022705078 C 100.6915893554688 65.66600036621094 101.9999389648438 59.18375396728516 101.9999389648438 52.49996948242188 C 101.9999389648438 45.81618499755859 100.6915893554688 39.33393859863281 98.11122131347656 33.23326873779297 C 95.61824035644531 27.33920288085938 92.04868316650391 22.045166015625 87.50173950195312 17.49819946289062 C 82.95477294921875 12.95125579833984 77.66073608398438 9.381706237792969 71.76667022705078 6.888717651367188 C 65.66600036621094 4.308349609375 59.18375396728516 3 52.49996948242188 3 M 52.49996948242188 0 C 81.49490356445312 0 104.9999389648438 23.50503540039062 104.9999389648438 52.49996948242188 C 104.9999389648438 81.49490356445312 81.49490356445312 104.9999389648438 52.49996948242188 104.9999389648438 C 23.50503540039062 104.9999389648438 0 81.49490356445312 0 52.49996948242188 C 0 23.50503540039062 23.50503540039062 0 52.49996948242188 0 Z" stroke="none" fill="#f5b104"/>
                        </g>
                      </g>
                    </g>
                  </g>
                </g>
              </g>
            </g>
          </g>
        </g>
      </g>
    </g>
    <g id="computer_5507279" transform="translate(765.488 5232.504)">
      <path id="Trazado_1059373" data-name="Trazado 1059373" d="M67.723,9.508V48.414H1V9.508A2.416,2.416,0,0,1,3.3,7H65.422A2.416,2.416,0,0,1,67.723,9.508Z" transform="translate(0.15 1.053)" fill="#02a9f4"/>
      <path id="Trazado_1059374" data-name="Trazado 1059374" d="M57.451,7H54a2.416,2.416,0,0,1,2.3,2.508V48.414h3.451V9.508A2.416,2.416,0,0,0,57.451,7Z" transform="translate(8.121 1.053)" fill="#0377bc"/>
      <path id="Trazado_1059375" data-name="Trazado 1059375" d="M58.617,49.316V7.9a6.9,6.9,0,0,0-6.9-6.9H22.955L8,15.955V49.316Z" transform="translate(1.203 0.15)" fill="#f5f5f5"/>
      <path id="Trazado_1059376" data-name="Trazado 1059376" d="M46.451,1H43a6.9,6.9,0,0,1,6.9,6.9V49.316h3.451V7.9A6.9,6.9,0,0,0,46.451,1Z" transform="translate(6.467 0.15)" fill="#cfd8dc"/>
      <path id="Trazado_1059377" data-name="Trazado 1059377" d="M67.723,43v4.394a2.416,2.416,0,0,1-2.3,2.508H3.3A2.416,2.416,0,0,1,1,47.394V43Z" transform="translate(0.15 6.467)" fill="#9e9e9e"/>
      <path id="Trazado_1059378" data-name="Trazado 1059378" d="M56.3,43v4.394A2.416,2.416,0,0,1,54,49.9h3.451a2.416,2.416,0,0,0,2.3-2.508V43Z" transform="translate(8.121 6.467)" fill="#707070"/>
      <path id="Trazado_1059379" data-name="Trazado 1059379" d="M40.857,49l3.451,6.9H19L22.451,49Z" transform="translate(2.858 7.369)" fill="#7f8e94"/>
      <path id="Trazado_1059380" data-name="Trazado 1059380" d="M38.451,49H35l3.451,6.9H41.9Z" transform="translate(5.264 7.369)" fill="#545c60"/>
      <rect id="Rectángulo_425481" data-name="Rectángulo 425481" width="39.113" height="4.602" rx="2" transform="translate(14.955 63.271)" fill="#9e9e9e"/>
      <path id="Trazado_1059381" data-name="Trazado 1059381" d="M45.451,55H42a2.3,2.3,0,0,1,0,4.6h3.451a2.3,2.3,0,0,0,0-4.6Z" transform="translate(6.317 8.271)" fill="#707070"/>
      <path id="Trazado_1059382" data-name="Trazado 1059382" d="M8,15.955h8.053a6.9,6.9,0,0,0,6.9-6.9V1Z" transform="translate(1.203 0.15)" fill="#9e9e9e"/>
      <path id="Trazado_1059383" data-name="Trazado 1059383" d="M24,32.59V51.813a1.15,1.15,0,0,0,2.025.748l4-4.671a1.15,1.15,0,0,1,1.749,0l2.577,3,1.426,1.668a1.15,1.15,0,0,0,2.025-.748V32.59Z" transform="translate(3.61 4.901)" fill="#ff9801"/>
      <path id="Trazado_1059384" data-name="Trazado 1059384" d="M33,32.59v18.3l1.426,1.668a1.15,1.15,0,0,0,2.025-.748V32.59Z" transform="translate(4.963 4.901)" fill="#f57c00"/>
      <path id="Trazado_1059385" data-name="Trazado 1059385" d="M32.92,13.522l.23-.152a2.342,2.342,0,0,1,3.344.9l.129.248a2.34,2.34,0,0,0,2.186,1.265l.278-.013a2.341,2.341,0,0,1,2.461,2.447l-.013.278A2.34,2.34,0,0,0,42.8,20.679l.248.129a2.342,2.342,0,0,1,.9,3.344l-.152.23a2.345,2.345,0,0,0,0,2.531l.152.23a2.342,2.342,0,0,1-.9,3.355l-.248.129a2.34,2.34,0,0,0-1.265,2.186l.013.278a2.341,2.341,0,0,1-2.448,2.457l-.278-.013A2.34,2.34,0,0,0,36.63,36.8l-.129.248a2.342,2.342,0,0,1-3.344.9l-.23-.152a2.344,2.344,0,0,0-2.531,0l-.23.152a2.342,2.342,0,0,1-3.355-.9l-.129-.248A2.34,2.34,0,0,0,24.5,35.529l-.278.013a2.341,2.341,0,0,1-2.448-2.448l.013-.278a2.34,2.34,0,0,0-1.265-2.186l-.252-.132a2.342,2.342,0,0,1-.9-3.344l.152-.23a2.344,2.344,0,0,0,0-2.531l-.152-.23a2.342,2.342,0,0,1,.9-3.351l.248-.129A2.34,2.34,0,0,0,21.78,18.5l-.013-.278a2.341,2.341,0,0,1,2.448-2.448l.278.013a2.34,2.34,0,0,0,2.186-1.265l.129-.248a2.342,2.342,0,0,1,3.344-.9l.23.152a2.344,2.344,0,0,0,2.538,0Z" transform="translate(2.857 1.955)" fill="#f44335"/>
      <path id="Trazado_1059386" data-name="Trazado 1059386" d="M42.01,26.92a2.345,2.345,0,0,1,0-2.531l.152-.23a2.342,2.342,0,0,0-.9-3.348l-.248-.129A2.34,2.34,0,0,1,39.753,18.5l.013-.278a2.341,2.341,0,0,0-2.448-2.448l-.278.013a2.34,2.34,0,0,1-2.186-1.265l-.132-.252a2.342,2.342,0,0,0-3.344-.9l-.23.152a2.342,2.342,0,0,1-.329.148,2.331,2.331,0,0,1,.46.6l.129.248a2.34,2.34,0,0,0,2.186,1.265l.278-.013a2.341,2.341,0,0,1,2.449,2.448l-.013.278a2.34,2.34,0,0,0,1.265,2.186l.248.129a2.342,2.342,0,0,1,.9,3.344l-.152.23a2.345,2.345,0,0,0,0,2.531l.152.23a2.342,2.342,0,0,1-.9,3.355l-.248.129A2.34,2.34,0,0,0,36.3,32.812l.013.278a2.341,2.341,0,0,1-2.448,2.457l-.278-.013A2.34,2.34,0,0,0,31.4,36.8l-.129.248a2.33,2.33,0,0,1-.46.6,2.343,2.343,0,0,1,.329.148l.23.152a2.342,2.342,0,0,0,3.349-.9l.129-.248a2.34,2.34,0,0,1,2.186-1.265l.278.013a2.341,2.341,0,0,0,2.457-2.448l-.013-.278a2.34,2.34,0,0,1,1.265-2.186l.248-.129a2.342,2.342,0,0,0,.9-3.344Z" transform="translate(4.634 1.955)" fill="#c81e1e"/>
      <circle id="Elipse_12859" data-name="Elipse 12859" cx="6.902" cy="6.902" r="6.902" transform="translate(27.61 20.707)" fill="#ffdf00"/>
      <path id="Trazado_1059387" data-name="Trazado 1059387" d="M30.226,18a6.883,6.883,0,0,0-1.726.23,6.893,6.893,0,0,1,0,13.351A6.9,6.9,0,1,0,30.226,18Z" transform="translate(4.286 2.707)" fill="#fec108"/>
      <path id="Trazado_1059388" data-name="Trazado 1059388" d="M65.572,6.9H60.879A8.053,8.053,0,0,0,52.918,0H24.158a1.15,1.15,0,0,0-.813.337L16.78,6.9H3.451A3.566,3.566,0,0,0,0,10.561v43.3A3.566,3.566,0,0,0,3.451,57.52h20l-2.3,4.6H17.256a3.451,3.451,0,0,0,0,6.9H51.768a3.451,3.451,0,0,0,0-6.9H47.877l-2.3-4.6h20a3.566,3.566,0,0,0,3.451-3.658v-43.3A3.566,3.566,0,0,0,65.572,6.9ZM25.309,9.2V2.3H52.918A5.759,5.759,0,0,1,58.67,8.053V48.316H42.565V38.608a3.485,3.485,0,0,0,2.991-3.615l-.014-.276a1.2,1.2,0,0,1,.643-1.115l.248-.129a3.491,3.491,0,0,0,1.336-4.987l-.151-.23a1.193,1.193,0,0,1,0-1.286l.152-.23a3.491,3.491,0,0,0-1.343-5l-.248-.129a1.193,1.193,0,0,1-.643-1.111l.014-.282A3.5,3.5,0,0,0,41.9,16.569l-.276.014a1.183,1.183,0,0,1-1.115-.643l-.129-.248a3.491,3.491,0,0,0-4.987-1.336l-.23.151a1.2,1.2,0,0,1-1.286,0l-.23-.152a3.491,3.491,0,0,0-5,1.339l-.129.248a1.175,1.175,0,0,1-1.111.643l-.282-.014a3.5,3.5,0,0,0-3.651,3.654l.014.276a1.2,1.2,0,0,1-.643,1.115l-.248.129a3.491,3.491,0,0,0-1.336,4.987l.151.23a1.193,1.193,0,0,1,0,1.286l-.152.23a3.491,3.491,0,0,0,1.339,5l.248.129a1.193,1.193,0,0,1,.643,1.111L23.474,35a3.479,3.479,0,0,0,2.985,3.608v9.71H10.354V17.256h6.9A8.062,8.062,0,0,0,25.309,9.2Zm7.456,42.839-4,4.672V39.7a3.465,3.465,0,0,0,4.874,1.164l.23-.151a1.2,1.2,0,0,1,1.286,0l.23.152A3.466,3.466,0,0,0,40.264,39.7V56.714l-4-4.668a2.371,2.371,0,0,0-3.5,0Zm3.187,3.176H33.075l1.437-1.677Zm-7.18,3.8a2.278,2.278,0,0,0,1.736-.805l.594-.69h6.823l.592.69a2.289,2.289,0,0,0,3.889-.69H43l2.3,4.6H23.719l2.3-4.6h.6a2.265,2.265,0,0,0,1.343,1.349,2.328,2.328,0,0,0,.811.146ZM42.008,36.352l-.282-.014c-.1,0-.2,0-.292.009h-.047a3.5,3.5,0,0,0-2.924,1.874l-.129.248a1.193,1.193,0,0,1-1.7.46l-.23-.151a3.5,3.5,0,0,0-3.77,0l-.23.151a1.193,1.193,0,0,1-1.7-.46l-.129-.248a3.479,3.479,0,0,0-2.93-1.875H27.6c-.1,0-.2-.014-.3-.009l-.277.014a1.15,1.15,0,0,1-.9-.345,1.176,1.176,0,0,1-.345-.9l.014-.282a3.5,3.5,0,0,0-1.885-3.264l-.248-.129a1.193,1.193,0,0,1-.46-1.7l.151-.23a3.5,3.5,0,0,0,0-3.77l-.151-.23a1.193,1.193,0,0,1,.46-1.7l.248-.129A3.5,3.5,0,0,0,25.8,20.409l-.014-.277a1.178,1.178,0,0,1,.345-.9,1.158,1.158,0,0,1,.9-.345l.282.014a3.488,3.488,0,0,0,3.264-1.885l.129-.248a1.193,1.193,0,0,1,1.7-.46l.23.151a3.5,3.5,0,0,0,3.769,0l.23-.151a1.193,1.193,0,0,1,1.7.46l.129.248A3.486,3.486,0,0,0,41.727,18.9L42,18.889a1.15,1.15,0,0,1,.9.345,1.176,1.176,0,0,1,.345.9l-.014.282a3.5,3.5,0,0,0,1.885,3.264l.248.129a1.193,1.193,0,0,1,.46,1.7l-.151.23a3.5,3.5,0,0,0,0,3.77l.151.23a1.193,1.193,0,0,1-.46,1.7l-.248.129a3.5,3.5,0,0,0-1.885,3.266l.014.277a1.178,1.178,0,0,1-.345.9,1.127,1.127,0,0,1-.894.346Zm-19-32.425V9.2a5.759,5.759,0,0,1-5.752,5.752H11.98ZM2.3,10.561A1.285,1.285,0,0,1,3.451,9.2H14.479L8.39,15.292a1.15,1.15,0,0,0-.337.813V48.316H2.3Zm1.15,44.658A1.285,1.285,0,0,1,2.3,53.861V50.617H26.459v4.6Zm43.715,9.2h4.6a1.15,1.15,0,0,1,0,2.3H17.256a1.15,1.15,0,0,1,0-2.3ZM66.723,53.861a1.285,1.285,0,0,1-1.15,1.357H42.565v-4.6H66.723Zm0-5.545H60.971V9.2h4.6a1.285,1.285,0,0,1,1.15,1.357Z"/>
      <path id="Trazado_1059389" data-name="Trazado 1059389" d="M31.053,17a8.053,8.053,0,1,0,8.053,8.053A8.053,8.053,0,0,0,31.053,17Zm0,13.8A5.752,5.752,0,1,1,36.8,25.053,5.752,5.752,0,0,1,31.053,30.8Z" transform="translate(3.459 2.557)"/>
    </g>
  </g>
</svg>
