<svg xmlns="http://www.w3.org/2000/svg" xmlns:xlink="http://www.w3.org/1999/xlink" width="108" height="108" viewBox="0 0 108 108">
  <defs>
    <filter id="Trazado_904820" x="0" y="0" width="108" height="108" filterUnits="userSpaceOnUse">
      <feOffset dy="3" input="SourceAlpha"/>
      <feGaussianBlur stdDeviation="3" result="blur"/>
      <feFlood flood-opacity="0.161"/>
      <feComposite operator="in" in2="blur"/>
      <feComposite in="SourceGraphic"/>
    </filter>
  </defs>
  <g id="Grupo_1223440" data-name="Grupo 1223440" transform="translate(-192.485 -1640)">
    <g id="Grupo_1223228" data-name="Grupo 1223228" transform="translate(201.485 1646)">
      <g id="Grupo_1173585" data-name="Grupo 1173585" transform="translate(0 0)">
        <g id="Grupo_1173428" data-name="Grupo 1173428">
          <g id="Grupo_1171958" data-name="Grupo 1171958">
            <g id="Grupo_1167341" data-name="Grupo 1167341">
              <g id="Grupo_1166792" data-name="Grupo 1166792">
                <g transform="matrix(1, 0, 0, 1, -9, -6)" filter="url(#Trazado_904820)">
                  <g id="Trazado_904820-2" data-name="Trazado 904820" transform="translate(9 6)" fill="#efecfa">
                    <path d="M 44.99999618530273 88.50002288818359 C 39.12687301635742 88.50002288818359 33.43022155761719 87.35009765625 28.06829643249512 85.08218383789062 C 22.88852119445801 82.89133453369141 18.23629570007324 79.75460815429688 14.24084663391113 75.75916290283203 C 10.24540901184082 71.76371002197266 7.108683586120605 67.11148834228516 4.917821407318115 61.93171310424805 C 2.649921178817749 56.56978607177734 1.499996185302734 50.87313461303711 1.499996185302734 45.0000114440918 C 1.499996185302734 39.12688827514648 2.649921178817749 33.43023681640625 4.917821407318115 28.06829833984375 C 7.108683586120605 22.88852310180664 10.24540901184082 18.2363109588623 14.24084663391113 14.2408618927002 C 18.23629570007324 10.24541187286377 22.88852119445801 7.108686447143555 28.06829643249512 4.917823791503906 C 33.43022155761719 2.649924039840698 39.12687301635742 1.499998927116394 44.99999618530273 1.499998927116394 C 50.87311935424805 1.499998927116394 56.56977081298828 2.649924039840698 61.93169784545898 4.917823791503906 C 67.11147308349609 7.108686447143555 71.76369476318359 10.24541187286377 75.75914764404297 14.2408618927002 C 79.75458526611328 18.2363109588623 82.89131164550781 22.88852310180664 85.08216857910156 28.06829833984375 C 87.35007476806641 33.43023681640625 88.5 39.12688827514648 88.5 45.0000114440918 C 88.5 50.87313461303711 87.35007476806641 56.56978607177734 85.08216857910156 61.93171310424805 C 82.89131164550781 67.11148834228516 79.75458526611328 71.76371002197266 75.75914764404297 75.75916290283203 C 71.76369476318359 79.75460815429688 67.11147308349609 82.89133453369141 61.93169784545898 85.08218383789062 C 56.56977081298828 87.35009765625 50.87311935424805 88.50002288818359 44.99999618530273 88.50002288818359 Z" stroke="none"/>
                    <path d="M 44.99999618530273 3 C 39.32870864868164 3 33.82865142822266 4.110054016113281 28.65262603759766 6.299339294433594 C 23.65165710449219 8.414566040039062 19.15968322753906 11.44333648681641 15.301513671875 15.30152893066406 C 11.44333648681641 19.15969848632812 8.414566040039062 23.65165710449219 6.299339294433594 28.65264129638672 C 4.110054016113281 33.82866668701172 2.999992370605469 39.3287239074707 2.999992370605469 45.0000114440918 C 2.999992370605469 50.67129898071289 4.110054016113281 56.17135620117188 6.299339294433594 61.34738159179688 C 8.414566040039062 66.34836578369141 11.44333648681641 70.84032440185547 15.301513671875 74.69849395751953 C 19.15968322753906 78.55668640136719 23.65165710449219 81.58545684814453 28.65262603759766 83.70068359375 C 33.82865142822266 85.88996887207031 39.32870864868164 87.00002288818359 44.99999618530273 87.00002288818359 C 50.67128372192383 87.00002288818359 56.17134094238281 85.88996887207031 61.34736633300781 83.70068359375 C 66.34834289550781 81.58545684814453 70.84030914306641 78.55668640136719 74.69847869873047 74.69849395751953 C 78.55665588378906 70.84032440185547 81.58542633056641 66.34836578369141 83.70065307617188 61.34738159179688 C 85.88993835449219 56.17135620117188 87 50.67129898071289 87 45.0000114440918 C 87 39.3287239074707 85.88993835449219 33.82866668701172 83.70065307617188 28.65264129638672 C 81.58542633056641 23.65165710449219 78.55665588378906 19.15969848632812 74.69847869873047 15.30152893066406 C 70.84030914306641 11.44333648681641 66.34834289550781 8.414566040039062 61.34736633300781 6.299339294433594 C 56.17134094238281 4.110054016113281 50.67128372192383 3 44.99999618530273 3 M 44.99999618530273 0 C 69.85281372070312 0 90 20.14719390869141 90 45.0000114440918 C 90 69.85282897949219 69.85281372070312 90.00002288818359 44.99999618530273 90.00002288818359 C 20.14717864990234 90.00002288818359 -7.62939453125e-06 69.85282897949219 -7.62939453125e-06 45.0000114440918 C -7.62939453125e-06 20.14719390869141 20.14717864990234 0 44.99999618530273 0 Z" stroke="none" fill="#6c4dd8"/>
                  </g>
                </g>
              </g>
            </g>
          </g>
        </g>
      </g>
    </g>
    <g id="chart_4351934" transform="translate(218.756 1667)">
      <path id="Trazado_1059217" data-name="Trazado 1059217" d="M4,6H52.284V38.764H4Z" transform="translate(-0.413 -0.689)" fill="#ccc"/>
      <path id="Trazado_1059218" data-name="Trazado 1059218" d="M4,6V35.315H45.386a3.449,3.449,0,0,0,3.449-3.449V6Z" transform="translate(-0.413 -0.689)" fill="#f2f2f2"/>
      <rect id="Rectángulo_425479" data-name="Rectángulo 425479" width="33.626" height="22.418" rx="3" transform="translate(6.173 7.898)" fill="#fff"/>
      <circle id="Elipse_12843" data-name="Elipse 12843" cx="9.484" cy="9.484" r="9.484" transform="translate(7.035 12.209)" fill="#559b38"/>
      <path id="Trazado_1059219" data-name="Trazado 1059219" d="M17.484,14A9.473,9.473,0,0,0,9.043,27.8H19.209A2.587,2.587,0,0,0,21.8,25.209V15.043A9.436,9.436,0,0,0,17.484,14Z" transform="translate(-0.964 -1.791)" fill="#6bc148"/>
      <path id="Trazado_1059220" data-name="Trazado 1059220" d="M2,44H53.733v3.449H2Z" transform="translate(-0.138 -5.925)" fill="#474747"/>
      <path id="Trazado_1059221" data-name="Trazado 1059221" d="M2,45.724H50.284A1.724,1.724,0,0,0,52.008,44H2Z" transform="translate(-0.138 -5.925)" fill="#686868"/>
      <path id="Trazado_1059222" data-name="Trazado 1059222" d="M2,2H53.733V5.449H2Z" transform="translate(-0.138 -0.138)" fill="#474747"/>
      <circle id="Elipse_12844" data-name="Elipse 12844" cx="2.587" cy="2.587" r="2.587" transform="translate(25.142 48.422)" fill="#f3a845"/>
      <path id="Trazado_1059223" data-name="Trazado 1059223" d="M2,3.724H50.284A1.724,1.724,0,0,0,52.008,2H2Z" transform="translate(-0.138 -0.138)" fill="#686868"/>
      <path id="Trazado_1059224" data-name="Trazado 1059224" d="M31.587,56A2.587,2.587,0,0,0,29,58.587a2.554,2.554,0,0,0,.159.862h1.566a1.724,1.724,0,0,0,1.724-1.724V56.159A2.554,2.554,0,0,0,31.587,56Z" transform="translate(-3.858 -7.578)" fill="#eecc61"/>
      <path id="Trazado_1059225" data-name="Trazado 1059225" d="M17.484,14A9.484,9.484,0,0,0,8,23.484h9.484Z" transform="translate(-0.965 -1.791)" fill="#d24034"/>
      <path id="Trazado_1059226" data-name="Trazado 1059226" d="M34,11h5.173v3.449H34Z" transform="translate(-4.547 -1.378)" fill="#2763bb"/>
      <path id="Trazado_1059227" data-name="Trazado 1059227" d="M17.484,34.484a9.452,9.452,0,0,0,6.706-2.778L17.484,25H8a9.484,9.484,0,0,0,9.484,9.484Z" transform="translate(-0.965 -3.307)" fill="#f3a845"/>
      <path id="Trazado_1059228" data-name="Trazado 1059228" d="M21.038,28.553,17.484,25H8a9.434,9.434,0,0,0,1.042,4.31l10.166,0a2.579,2.579,0,0,0,1.829-.758Z" transform="translate(-0.965 -3.307)" fill="#eecc61"/>
      <path id="Trazado_1059229" data-name="Trazado 1059229" d="M34,11v2.587h2.587a1.724,1.724,0,0,0,1.724-1.724V11Z" transform="translate(-4.547 -1.378)" fill="#3079e6"/>
      <path id="Trazado_1059230" data-name="Trazado 1059230" d="M34,19h5.173v3.449H34Z" transform="translate(-4.547 -2.48)" fill="#2763bb"/>
      <path id="Trazado_1059231" data-name="Trazado 1059231" d="M34,19v2.587h2.587a1.724,1.724,0,0,0,1.724-1.724V19Z" transform="translate(-4.547 -2.48)" fill="#3079e6"/>
      <path id="Trazado_1059232" data-name="Trazado 1059232" d="M34,27h5.173v3.449H34Z" transform="translate(-4.547 -3.582)" fill="#2763bb"/>
      <path id="Trazado_1059233" data-name="Trazado 1059233" d="M34,27v2.587h2.587a1.724,1.724,0,0,0,1.724-1.724V27Z" transform="translate(-4.547 -3.582)" fill="#3079e6"/>
      <path id="Trazado_1059234" data-name="Trazado 1059234" d="M34,35h5.173v3.449H34Z" transform="translate(-4.547 -4.685)" fill="#2763bb"/>
      <path id="Trazado_1059235" data-name="Trazado 1059235" d="M34,35v2.587h2.587a1.724,1.724,0,0,0,1.724-1.724V35Z" transform="translate(-4.547 -4.685)" fill="#3079e6"/>
      <path id="Trazado_1059236" data-name="Trazado 1059236" d="M53.595,6.173a.862.862,0,0,0,.862-.862V1.862A.862.862,0,0,0,53.595,1H1.862A.862.862,0,0,0,1,1.862V5.311a.862.862,0,0,0,.862.862h.862v31.04H1.862A.862.862,0,0,0,1,38.075v3.449a.862.862,0,0,0,.862.862h25v5.3a3.449,3.449,0,1,0,1.724,0v-5.3h25a.862.862,0,0,0,.862-.862V38.075a.862.862,0,0,0-.862-.862h-.862V6.173ZM29.453,51.008a1.724,1.724,0,1,1-1.724-1.724A1.724,1.724,0,0,1,29.453,51.008ZM2.724,2.724H52.733V4.449H2.724ZM52.733,40.662H2.724V38.937H52.733Zm-1.724-3.449H4.449V6.173H51.008Z"/>
      <path id="Trazado_1059237" data-name="Trazado 1059237" d="M33.862,15.173h5.173a.862.862,0,0,0,.862-.862V10.862A.862.862,0,0,0,39.035,10H33.862a.862.862,0,0,0-.862.862v3.449A.862.862,0,0,0,33.862,15.173Zm.862-3.449h3.449v1.724H34.724Z" transform="translate(-4.409 -1.24)"/>
      <path id="Trazado_1059238" data-name="Trazado 1059238" d="M33.862,23.173h5.173a.862.862,0,0,0,.862-.862V18.862A.862.862,0,0,0,39.035,18H33.862a.862.862,0,0,0-.862.862v3.449A.862.862,0,0,0,33.862,23.173Zm.862-3.449h3.449v1.724H34.724Z" transform="translate(-4.409 -2.342)"/>
      <path id="Trazado_1059239" data-name="Trazado 1059239" d="M33.862,31.173h5.173a.862.862,0,0,0,.862-.862V26.862A.862.862,0,0,0,39.035,26H33.862a.862.862,0,0,0-.862.862v3.449A.862.862,0,0,0,33.862,31.173Zm.862-3.449h3.449v1.724H34.724Z" transform="translate(-4.409 -3.445)"/>
      <path id="Trazado_1059240" data-name="Trazado 1059240" d="M33.862,39.173h5.173a.862.862,0,0,0,.862-.862V34.862A.862.862,0,0,0,39.035,34H33.862a.862.862,0,0,0-.862.862v3.449A.862.862,0,0,0,33.862,39.173Zm.862-3.449h3.449v1.724H34.724Z" transform="translate(-4.409 -4.547)"/>
      <path id="Trazado_1059241" data-name="Trazado 1059241" d="M43,10H55.071v1.724H43Z" transform="translate(-5.787 -1.24)"/>
      <path id="Trazado_1059242" data-name="Trazado 1059242" d="M43,14h8.622v1.724H43Z" transform="translate(-5.787 -1.791)"/>
      <path id="Trazado_1059243" data-name="Trazado 1059243" d="M55,14h1.724v1.724H55Z" transform="translate(-7.441 -1.791)"/>
      <path id="Trazado_1059244" data-name="Trazado 1059244" d="M43,18H55.071v1.724H43Z" transform="translate(-5.787 -2.342)"/>
      <path id="Trazado_1059245" data-name="Trazado 1059245" d="M43,22h8.622v1.724H43Z" transform="translate(-5.787 -2.894)"/>
      <path id="Trazado_1059246" data-name="Trazado 1059246" d="M55,22h1.724v1.724H55Z" transform="translate(-7.441 -2.894)"/>
      <path id="Trazado_1059247" data-name="Trazado 1059247" d="M43,26H55.071v1.724H43Z" transform="translate(-5.787 -3.445)"/>
      <path id="Trazado_1059248" data-name="Trazado 1059248" d="M43,30h8.622v1.724H43Z" transform="translate(-5.787 -3.996)"/>
      <path id="Trazado_1059249" data-name="Trazado 1059249" d="M55,30h1.724v1.724H55Z" transform="translate(-7.441 -3.996)"/>
      <path id="Trazado_1059250" data-name="Trazado 1059250" d="M43,34H55.071v1.724H43Z" transform="translate(-5.787 -4.547)"/>
      <path id="Trazado_1059251" data-name="Trazado 1059251" d="M43,38h8.622v1.724H43Z" transform="translate(-5.787 -5.098)"/>
      <path id="Trazado_1059252" data-name="Trazado 1059252" d="M55,38h1.724v1.724H55Z" transform="translate(-7.441 -5.098)"/>
      <path id="Trazado_1059253" data-name="Trazado 1059253" d="M7,33.693v1.724h4.311a.862.862,0,0,0,.609-.252l2.049-2.049a10.338,10.338,0,0,0,9.974-17.734l.658-.658h3.092V13H24.244a.862.862,0,0,0-.609.252L22.5,14.387A10.337,10.337,0,1,0,12.285,32.362l-1.331,1.331ZM21.4,17.921l1.31-1.31a8.6,8.6,0,0,1,1.3,12.188l-5.81-5.81V14.768a8.548,8.548,0,0,1,3.018.89L20.183,16.7Zm-4.921-3.152v7.716H8.768a8.635,8.635,0,0,1,7.716-7.716Zm-7.716,9.44H16.99l5.81,5.81a8.536,8.536,0,0,1-7.442,1.71l1.736-1.736-1.219-1.219-2.311,2.311a8.632,8.632,0,0,1-4.8-6.874Z" transform="translate(-0.827 -1.653)"/>
    </g>
  </g>
</svg>
