<svg xmlns="http://www.w3.org/2000/svg" xmlns:xlink="http://www.w3.org/1999/xlink" width="123" height="123" viewBox="0 0 123 123">
  <defs>
    <filter id="Trazado_982547" x="0" y="0" width="123" height="123" filterUnits="userSpaceOnUse">
      <feOffset dy="3" input="SourceAlpha"/>
      <feGaussianBlur stdDeviation="3" result="blur"/>
      <feFlood flood-opacity="0.161"/>
      <feComposite operator="in" in2="blur"/>
      <feComposite in="SourceGraphic"/>
    </filter>
  </defs>
  <g id="Grupo_1223460" data-name="Grupo 1223460" transform="translate(-318.625 -2562.007)">
    <g id="Grupo_1223225" data-name="Grupo 1223225" transform="translate(-6.146 -418.688)">
      <g id="Grupo_1211203" data-name="Grupo 1211203" transform="translate(333.77 2986.695)">
        <g id="Grupo_1210937" data-name="Grupo 1210937" transform="translate(0 0)">
          <g id="Grupo_1174742" data-name="Grupo 1174742" transform="translate(0)">
            <g id="Grupo_1163948" data-name="Grupo 1163948">
              <g id="Grupo_1158168" data-name="Grupo 1158168">
                <g id="Grupo_1152576" data-name="Grupo 1152576">
                  <g id="Grupo_1148633" data-name="Grupo 1148633">
                    <g id="Grupo_1148525" data-name="Grupo 1148525">
                      <g transform="matrix(1, 0, 0, 1, -9, -6)" filter="url(#Trazado_982547)">
                        <g id="Trazado_982547-2" data-name="Trazado 982547" transform="translate(9 6)" fill="#fdf6e4">
                          <path d="M 52.49996948242188 103.4999389648438 C 45.61435699462891 103.4999389648438 38.93551254272461 102.1517105102539 32.64894104003906 99.49272918701172 C 26.57608413696289 96.92412567138672 21.12178421020508 93.24662780761719 16.43754005432129 88.56240081787109 C 11.75331211090088 83.87815856933594 8.075812339782715 78.42385864257812 5.507212162017822 72.35099792480469 C 2.848226547241211 66.06443023681641 1.499998092651367 59.38558197021484 1.499998092651367 52.49996948242188 C 1.499998092651367 45.61435699462891 2.848226547241211 38.93551254272461 5.507212162017822 32.64894104003906 C 8.075812339782715 26.57608413696289 11.75331211090088 21.12178421020508 16.43754005432129 16.43754005432129 C 21.12178421020508 11.75331211090088 26.57608413696289 8.075812339782715 32.64894104003906 5.507212162017822 C 38.93551254272461 2.848226547241211 45.61435699462891 1.499998092651367 52.49996948242188 1.499998092651367 C 59.38558197021484 1.499998092651367 66.06443023681641 2.848226547241211 72.35099792480469 5.507212162017822 C 78.42385864257812 8.075812339782715 83.87815856933594 11.75331211090088 88.56240081787109 16.43754005432129 C 93.24662780761719 21.12178421020508 96.92412567138672 26.57608413696289 99.49272918701172 32.64894104003906 C 102.1517105102539 38.93551254272461 103.4999389648438 45.61435699462891 103.4999389648438 52.49996948242188 C 103.4999389648438 59.38558197021484 102.1517105102539 66.06443023681641 99.49272918701172 72.35099792480469 C 96.92412567138672 78.42385864257812 93.24662780761719 83.87815856933594 88.56240081787109 88.56240081787109 C 83.87815856933594 93.24662780761719 78.42385864257812 96.92412567138672 72.35099792480469 99.49272918701172 C 66.06443023681641 102.1517105102539 59.38558197021484 103.4999389648438 52.49996948242188 103.4999389648438 Z" stroke="none"/>
                          <path d="M 52.49996948242188 3 C 45.81618499755859 3 39.33393859863281 4.308349609375 33.23326873779297 6.888717651367188 C 27.33920288085938 9.381706237792969 22.045166015625 12.95125579833984 17.49819946289062 17.49819946289062 C 12.95125579833984 22.045166015625 9.381706237792969 27.33920288085938 6.888717651367188 33.23326873779297 C 4.308349609375 39.33393859863281 3 45.81618499755859 3 52.49996948242188 C 3 59.18375396728516 4.308349609375 65.66600036621094 6.888717651367188 71.76667022705078 C 9.381706237792969 77.66073608398438 12.95125579833984 82.95477294921875 17.49819946289062 87.50173950195312 C 22.045166015625 92.04868316650391 27.33920288085938 95.61824035644531 33.23326873779297 98.11122131347656 C 39.33393859863281 100.6915893554688 45.81618499755859 101.9999389648438 52.49996948242188 101.9999389648438 C 59.18375396728516 101.9999389648438 65.66600036621094 100.6915893554688 71.76667022705078 98.11122131347656 C 77.66073608398438 95.61824035644531 82.95477294921875 92.04868316650391 87.50173950195312 87.50173950195312 C 92.04868316650391 82.95477294921875 95.61824035644531 77.66073608398438 98.11122131347656 71.76667022705078 C 100.6915893554688 65.66600036621094 101.9999389648438 59.18375396728516 101.9999389648438 52.49996948242188 C 101.9999389648438 45.81618499755859 100.6915893554688 39.33393859863281 98.11122131347656 33.23326873779297 C 95.61824035644531 27.33920288085938 92.04868316650391 22.045166015625 87.50173950195312 17.49819946289062 C 82.95477294921875 12.95125579833984 77.66073608398438 9.381706237792969 71.76667022705078 6.888717651367188 C 65.66600036621094 4.308349609375 59.18375396728516 3 52.49996948242188 3 M 52.49996948242188 0 C 81.49490356445312 0 104.9999389648438 23.50503540039062 104.9999389648438 52.49996948242188 C 104.9999389648438 81.49490356445312 81.49490356445312 104.9999389648438 52.49996948242188 104.9999389648438 C 23.50503540039062 104.9999389648438 0 81.49490356445312 0 52.49996948242188 C 0 23.50503540039062 23.50503540039062 0 52.49996948242188 0 Z" stroke="none" fill="#f5b104"/>
                        </g>
                      </g>
                    </g>
                  </g>
                </g>
              </g>
            </g>
          </g>
        </g>
      </g>
    </g>
    <g id="business-plan_2654425" transform="translate(349.656 2587)">
      <g id="Grupo_1223458" data-name="Grupo 1223458">
        <g id="Grupo_1223444" data-name="Grupo 1223444">
          <path id="Trazado_1059254" data-name="Trazado 1059254" d="M61,2H25a1,1,0,0,0-1,1V25a1,1,0,0,0,1,1H61a1,1,0,0,0,1-1V3A1,1,0,0,0,61,2Z" fill="#e6e9ed"/>
        </g>
        <g id="Grupo_1223445" data-name="Grupo 1223445">
          <path id="Trazado_1059255" data-name="Trazado 1059255" d="M56,9V26H50V9a1,1,0,0,1,1-1h4A1,1,0,0,1,56,9Z" fill="#5cd6b3"/>
        </g>
        <g id="Grupo_1223446" data-name="Grupo 1223446">
          <path id="Trazado_1059256" data-name="Trazado 1059256" d="M46,13V26H40V13a1,1,0,0,1,1-1h4A1,1,0,0,1,46,13Z" fill="#5cd6b3"/>
        </g>
        <g id="Grupo_1223447" data-name="Grupo 1223447">
          <path id="Trazado_1059257" data-name="Trazado 1059257" d="M36,17v9H30V17a1,1,0,0,1,1-1h4A1,1,0,0,1,36,17Z" fill="#5cd6b3"/>
        </g>
        <g id="Grupo_1223448" data-name="Grupo 1223448">
          <path id="Trazado_1059258" data-name="Trazado 1059258" d="M2,41V35a1,1,0,0,1,1-1H13a1,1,0,0,1,1,1v6a1,1,0,0,1-1,1H3A1,1,0,0,1,2,41Z" fill="#fcd770"/>
        </g>
        <g id="Grupo_1223449" data-name="Grupo 1223449">
          <path id="Trazado_1059259" data-name="Trazado 1059259" d="M46,38v3a1,1,0,0,1-1,1H31a1,1,0,0,1-1-1V35a1,1,0,0,1,1-1H45a1,1,0,0,1,1,1Z" fill="#fcd770"/>
        </g>
        <g id="Grupo_1223450" data-name="Grupo 1223450">
          <path id="Trazado_1059260" data-name="Trazado 1059260" d="M8,10a4,4,0,1,1-4,4A4,4,0,0,1,8,10Z" fill="#ff826e"/>
        </g>
        <g id="Grupo_1223451" data-name="Grupo 1223451">
          <circle id="Elipse_12845" data-name="Elipse 12845" cx="2" cy="2" r="2" transform="translate(20 36)" fill="#ff826e"/>
        </g>
        <g id="Grupo_1223452" data-name="Grupo 1223452">
          <path id="Trazado_1059261" data-name="Trazado 1059261" d="M58,34a4,4,0,1,1-4,4A4,4,0,0,1,58,34Z" fill="#ff826e"/>
        </g>
        <g id="Grupo_1223453" data-name="Grupo 1223453">
          <path id="Trazado_1059262" data-name="Trazado 1059262" d="M14,50H42v6H14Z" fill="#ff826e"/>
        </g>
        <g id="Grupo_1223454" data-name="Grupo 1223454">
          <path id="Trazado_1059263" data-name="Trazado 1059263" d="M14,56H42v6H14Z" fill="#5cd6b3"/>
        </g>
        <g id="Grupo_1223455" data-name="Grupo 1223455">
          <path id="Trazado_1059264" data-name="Trazado 1059264" d="M14,56v6H10V50h4Z" fill="#ffeaa7"/>
        </g>
        <g id="Grupo_1223456" data-name="Grupo 1223456">
          <path id="Trazado_1059265" data-name="Trazado 1059265" d="M10,50V62H6a4,4,0,0,1-4-4V54a4,4,0,0,1,4-4Z" fill="#aab2bd"/>
        </g>
        <g id="Grupo_1223457" data-name="Grupo 1223457">
          <path id="Trazado_1059266" data-name="Trazado 1059266" d="M51.11,54.55,48,53l-6-3V62l6-3,3.11-1.55a1.626,1.626,0,0,0,0-2.9Z" fill="#aab2bd"/>
        </g>
      </g>
      <g id="Grupo_1223459" data-name="Grupo 1223459">
        <path id="Trazado_1059267" data-name="Trazado 1059267" d="M33,37h2v2H33Z"/>
        <path id="Trazado_1059268" data-name="Trazado 1059268" d="M37,37h2v2H37Z"/>
        <path id="Trazado_1059269" data-name="Trazado 1059269" d="M41,37h2v2H41Z"/>
        <path id="Trazado_1059270" data-name="Trazado 1059270" d="M5,37H7v2H5Z"/>
        <path id="Trazado_1059271" data-name="Trazado 1059271" d="M9,37h2v2H9Z"/>
        <circle id="Elipse_12846" data-name="Elipse 12846" cx="1" cy="1" r="1" transform="translate(57 37)"/>
        <circle id="Elipse_12847" data-name="Elipse 12847" cx="1" cy="1" r="1" transform="translate(7 13)"/>
        <path id="Trazado_1059272" data-name="Trazado 1059272" d="M25,27H61a2,2,0,0,0,2-2V3a2,2,0,0,0-2-2H25a2,2,0,0,0-2,2V13H12.9A5,5,0,1,0,7,18.9V33H3a2,2,0,0,0-2,2v6a2,2,0,0,0,2,2H13a2,2,0,0,0,2-2V39h4.184a2.982,2.982,0,0,0,5.632,0H29v2a2,2,0,0,0,2,2H45a2,2,0,0,0,2-2V39h6.1A5.016,5.016,0,0,0,57,42.9V55H52.778a2.589,2.589,0,0,0-1.225-1.342L42.236,49H6a5.006,5.006,0,0,0-5,5v4a5.006,5.006,0,0,0,5,5H42.236l9.316-4.658A2.585,2.585,0,0,0,52.777,57H57a2,2,0,0,0,2-2V42.9A5,5,0,1,0,53.1,37H47V35a2,2,0,0,0-2-2H31a2,2,0,0,0-2,2v2H24.816a2.982,2.982,0,0,0-5.632,0H15V35a2,2,0,0,0-2-2H9V18.9A5.016,5.016,0,0,0,12.9,15H23V25a2,2,0,0,0,2,2Zm10-2H31V17h4Zm10,0H41V13h4Zm10,0H51V9h4ZM25,3H61V25H57V9a2,2,0,0,0-2-2H51a2,2,0,0,0-2,2V25H47V13a2,2,0,0,0-2-2H41a2,2,0,0,0-2,2V25H37V17a2,2,0,0,0-2-2H31a2,2,0,0,0-2,2v8H25ZM41,55H15V51H41ZM13,61H11V51h2Zm2-4H41v4H15Zm28-5.382,4,2v4.764l-4,2ZM3,58V54a3,3,0,0,1,3-3H9V61H6A3,3,0,0,1,3,58Zm47.658-1.447L49,57.382V54.618l1.658.829a.618.618,0,0,1,0,1.106ZM58,35a3,3,0,1,1-3,3A3,3,0,0,1,58,35ZM31,35H45v6H31Zm-9,2a1,1,0,1,1-1,1A1,1,0,0,1,22,37Zm-9,4H3V35H13ZM8,17a3,3,0,1,1,3-3A3,3,0,0,1,8,17Z"/>
      </g>
    </g>
  </g>
</svg>
